<svg width="24" height="24" viewBox="0 0 24 24" fill="none" xmlns="http://www.w3.org/2000/svg">
<path d="M19.9995 12.6495C19.9995 13.9164 19.1682 15.0475 17.9214 15.4767L8.20654 18.8194C6.15882 19.5237 3.99986 18.0738 3.99951 15.9933L3.99951 8.00694C3.99979 5.92631 6.15877 4.47641 8.20654 5.18077L17.9214 8.52354C19.1683 8.95274 19.9995 10.0837 19.9995 11.3507L19.9995 12.6495ZM7.71924 6.59874C6.55322 6.19771 5.49981 7.0517 5.49951 8.00694L5.49951 15.9933C5.49988 16.9485 6.55329 17.8024 7.71924 17.4015L8.74951 17.047L8.74951 6.95323L7.71924 6.59874ZM10.2495 7.46983L10.2495 16.5304L13.7495 15.3253L13.7495 8.67491L10.2495 7.46983ZM18.4995 11.3507C18.4995 10.7587 18.108 10.1748 17.4331 9.94249L15.2495 9.19053L15.2495 14.8097L17.4331 14.0577C18.1079 13.8254 18.4995 13.2415 18.4995 12.6495L18.4995 11.3507Z" fill="currentColor"/>
</svg>
