<svg width="24" height="24" viewBox="0 0 24 24" fill="none" xmlns="http://www.w3.org/2000/svg">
<path d="M21.0005 11.9995C21.0005 12.4136 20.6645 12.7492 20.2505 12.7495L19.9644 12.7495C19.5862 16.8159 16.1656 20.0002 12.0005 20.0005C7.58237 20.0005 4.00075 16.4185 4.00049 12.0005C4.00049 7.83514 7.18391 4.41376 11.2505 4.03564L11.2495 3.75049C11.2495 3.33644 11.5855 3.00075 11.9995 3.00049C16.9699 3.00049 21.0002 7.02917 21.0005 11.9995ZM15.6753 12.7505C15.3277 14.4617 13.8143 15.7503 12.0005 15.7505C9.92963 15.7505 8.25083 14.0713 8.25049 12.0005C8.25049 10.1862 9.53875 8.67211 11.2505 8.32471L11.2505 5.54443C8.01397 5.91634 5.50049 8.66434 5.50049 12.0005C5.50075 15.5901 8.4108 18.5005 12.0005 18.5005C15.3364 18.5002 18.0847 15.9859 18.4565 12.7495L15.6753 12.7505ZM14.2505 12.0005C14.2505 10.758 13.2429 9.75075 12.0005 9.75049C10.7578 9.75049 9.75049 10.7578 9.75049 12.0005C9.75083 13.2428 10.7581 14.2505 12.0005 14.2505C13.2427 14.2502 14.2501 13.2427 14.2505 12.0005ZM19.4624 11.2495C19.1104 7.70663 16.2934 4.88961 12.7505 4.5376L12.7505 8.32471C14.2197 8.62312 15.3771 9.78123 15.6753 11.2505L19.4624 11.2495Z" fill="currentColor"/>
</svg>
