<svg width="24" height="24" viewBox="0 0 24 24" fill="none" xmlns="http://www.w3.org/2000/svg">
<path d="M19.9998 15.3506C20.3588 15.3506 20.6502 15.642 20.6502 16.001V19.001C20.6501 19.3599 20.3587 19.6514 19.9998 19.6514C19.641 19.6512 19.3495 19.3598 19.3494 19.001V17.5713L16.8133 20.1074C16.3641 20.5562 15.6353 20.5564 15.1863 20.1074L12.9998 17.9209L9.45974 21.4609C9.20588 21.7145 8.79358 21.7147 8.53982 21.4609C8.28612 21.2072 8.28624 20.7949 8.53982 20.541L12.1863 16.8945C12.6073 16.4735 13.2737 16.448 13.7254 16.8164L13.8133 16.8945L15.9998 19.0811L18.4295 16.6514H16.9998C16.641 16.6512 16.3495 16.3598 16.3494 16.001C16.3494 15.6421 16.6409 15.3508 16.9998 15.3506H19.9998ZM9.00076 15.3477C9.35961 15.3477 9.65093 15.6392 9.65115 15.998C9.65115 16.357 9.35974 16.6484 9.00076 16.6484C7.38199 16.6485 6.2487 17.1089 5.52908 17.5518C5.16727 17.7744 4.90636 17.9946 4.74001 18.1543C4.65714 18.2339 4.59767 18.2983 4.5613 18.3398C4.54353 18.3602 4.53101 18.3754 4.52419 18.3838L4.51833 18.3916V18.3896C4.30255 18.6751 3.89763 18.7325 3.61111 18.5176C3.32415 18.3021 3.2659 17.8955 3.48122 17.6084V17.6064L3.48318 17.6055C3.48381 17.6045 3.48429 17.6027 3.48513 17.6016C3.48698 17.5991 3.48942 17.596 3.49197 17.5928C3.49722 17.586 3.50428 17.5775 3.51247 17.5674C3.52939 17.5465 3.55326 17.5181 3.58279 17.4844C3.64213 17.4166 3.72756 17.3244 3.83962 17.2168C4.0639 17.0015 4.39702 16.7215 4.84744 16.4443C5.75278 15.8872 7.11981 15.3477 9.00076 15.3477ZM8.99978 4.34863C11.5676 4.34888 13.6501 6.43114 13.6502 8.99902C13.6502 11.567 11.5677 13.6492 8.99978 13.6494C6.43165 13.6494 4.34939 11.5671 4.34939 8.99902C4.34949 6.43099 6.43172 4.34863 8.99978 4.34863ZM16.0008 6.34766C18.0165 6.34766 19.6509 7.98239 19.6511 9.99805C19.6511 12.0139 18.0166 13.6484 16.0008 13.6484C15.6418 13.6484 15.3504 13.357 15.3504 12.998C15.3506 12.6393 15.642 12.3477 16.0008 12.3477C17.2986 12.3477 18.3504 11.2959 18.3504 9.99805C18.3502 8.70036 17.2985 7.64844 16.0008 7.64844C15.6418 7.64837 15.3504 7.35699 15.3504 6.99805C15.3506 6.63928 15.642 6.34773 16.0008 6.34766ZM8.99978 5.64941C7.14969 5.64941 5.65027 7.14896 5.65017 8.99902C5.65017 10.8492 7.14962 12.3486 8.99978 12.3486C10.8497 12.3484 12.3494 10.849 12.3494 8.99902C12.3493 7.14911 10.8497 5.64966 8.99978 5.64941Z" fill="#0D1625"/>
</svg>
