<svg width="24" height="24" viewBox="0 0 24 24" fill="none" xmlns="http://www.w3.org/2000/svg">
<path d="M12.9712 6.72803C12.9711 7.69427 12.1874 8.47779 11.2212 8.47803L6.77686 8.47803C5.81044 8.47803 5.02699 7.69441 5.02686 6.72803L5.02686 5.72803C5.02686 4.76153 5.81036 3.97803 6.77686 3.97803L11.2212 3.97803C12.1875 3.97826 12.9712 4.76167 12.9712 5.72803L12.9712 6.72803ZM18.9712 12.5005C18.9712 13.4668 18.1875 14.2503 17.2212 14.2505L6.77686 14.2505C5.81036 14.2505 5.02686 13.467 5.02686 12.5005L5.02686 11.5005C5.02686 10.534 5.81036 9.75049 6.77686 9.75049L17.2212 9.75049C18.1875 9.75072 18.9712 10.5341 18.9712 11.5005L18.9712 12.5005ZM15.9712 18.271C15.9709 19.2371 15.1873 20.0208 14.2212 20.021L6.77685 20.021C5.81052 20.021 5.02712 19.2373 5.02685 18.271L5.02685 17.271C5.02685 16.3045 5.81036 15.521 6.77685 15.521L14.2212 15.521C15.1875 15.5212 15.9712 16.3046 15.9712 17.271L15.9712 18.271ZM11.4712 5.72803C11.4712 5.5901 11.3591 5.47826 11.2212 5.47803L6.77686 5.47803C6.63878 5.47803 6.52686 5.58996 6.52686 5.72803L6.52686 6.72803C6.52699 6.86599 6.63887 6.97803 6.77686 6.97803L11.2212 6.97803C11.359 6.97779 11.4711 6.86584 11.4712 6.72803L11.4712 5.72803ZM17.4712 11.5005C17.4712 11.3626 17.3591 11.2507 17.2212 11.2505L6.77686 11.2505C6.63878 11.2505 6.52686 11.3624 6.52686 11.5005L6.52686 12.5005C6.52686 12.6386 6.63878 12.7505 6.77686 12.7505L17.2212 12.7505C17.3591 12.7503 17.4712 12.6384 17.4712 12.5005L17.4712 11.5005ZM14.4712 17.271C14.4712 17.1331 14.3591 17.0212 14.2212 17.021L6.77685 17.021C6.63878 17.021 6.52685 17.1329 6.52685 17.271L6.52685 18.271C6.52712 18.4088 6.63895 18.521 6.77685 18.521L14.2212 18.521C14.3589 18.5208 14.4709 18.4087 14.4712 18.271L14.4712 17.271Z" fill="currentColor"/>
</svg>
