<svg width="512" height="512" viewBox="0 0 512 512" fill="none" xmlns="http://www.w3.org/2000/svg">
<g clip-path="url(#clip0_9_745)">
<rect width="512" height="512" fill="#82AFFF"/>
<path d="M503.172 423.448H8.828C6.48675 423.448 4.24147 422.518 2.58595 420.862C0.930441 419.207 0.000265162 416.961 0 414.62L0 96.828C0.000265162 94.4868 0.930441 92.2415 2.58595 90.586C4.24147 88.9304 6.48675 88.0003 8.828 88H503.173C505.514 88.0003 507.76 88.9304 509.415 90.586C511.071 92.2415 512.001 94.4868 512.001 96.828V414.62C512 416.961 511.07 419.207 509.414 420.862C507.759 422.518 505.513 423.448 503.172 423.448Z" fill="#82AFFF"/>
<path d="M0 229.241H511.999V282.206H0V229.241Z" fill="#464655"/>
<path d="M0 211.586H511.999V229.241H0V211.586ZM0 282.207H511.999V299.862H0V282.207Z" fill="#F5F5F5"/>
</g>
<defs>
<clipPath id="clip0_9_745">
<rect width="512" height="512" fill="white"/>
</clipPath>
</defs>
</svg>
