<svg width="512" height="512" viewBox="0 0 512 512" fill="none" xmlns="http://www.w3.org/2000/svg">
<g clip-path="url(#clip0_3_638)">
<rect width="512" height="512" fill="#FF4B55"/>
<path d="M655.996 511.999H-98.5257C-102.099 511.998 -105.526 510.579 -108.053 508.052C-110.58 505.525 -112 502.098 -112 498.525V13.4743C-112 9.90078 -110.58 6.47379 -108.053 3.94696C-105.526 1.42014 -102.099 0.000404719 -98.5257 0H655.997C659.571 0.000404719 662.998 1.42014 665.525 3.94696C668.052 6.47379 669.471 9.90078 669.472 13.4743V498.525C669.471 502.098 668.051 505.525 665.524 508.052C662.997 510.579 659.57 511.998 655.996 511.999Z" fill="#FF4B55"/>
<path d="M669.47 215.579H211.367V0.00146484H130.526V215.579H-112V296.421H130.526V511.999H211.367V296.421H669.47V215.579Z" fill="#F5F5F5"/>
</g>
<defs>
<clipPath id="clip0_3_638">
<rect width="512" height="512" fill="white"/>
</clipPath>
</defs>
</svg>
