<svg width="512" height="512" viewBox="0 0 512 512" fill="none" xmlns="http://www.w3.org/2000/svg">
<g clip-path="url(#clip0_3_2384)">
<path d="M-135 390.526V13.467C-135 9.89545 -133.581 6.4703 -131.055 3.94484C-128.53 1.41937 -125.105 0.000404502 -121.533 0H457.521L-135 390.526Z" fill="#73AF00"/>
<path d="M646.049 121.199V498.256C646.048 501.828 644.629 505.253 642.104 507.779C639.578 510.304 636.153 511.723 632.582 511.723H53.5283L646.049 121.199Z" fill="#4173CD"/>
<path d="M646.049 128.792V13.467C646.049 9.89545 644.63 6.4703 642.104 3.94484C639.579 1.41937 636.154 0.000404502 632.582 0H449.474L-135 382.932V498.256C-135 501.828 -133.581 505.253 -131.055 507.778C-128.53 510.304 -125.105 511.723 -121.533 511.723H61.5758L646.049 128.792Z" fill="#FFE15A"/>
<path d="M646.049 80.503V13.467C646.049 9.89545 644.63 6.4703 642.104 3.94484C639.579 1.41937 636.154 0.000404502 632.582 0H523.177L-135 431.222V498.258C-135 501.829 -133.581 505.254 -131.055 507.78C-128.53 510.305 -125.105 511.724 -121.533 511.725H-12.1281L646.049 80.503Z" fill="#464655"/>
</g>
<defs>
<clipPath id="clip0_3_2384">
<rect width="512" height="512" fill="white"/>
</clipPath>
</defs>
</svg>
