<svg width="24" height="24" viewBox="0 0 24 24" fill="none" xmlns="http://www.w3.org/2000/svg">
<path d="M14.1504 3.40564C16.1661 3.40585 17.8008 5.04032 17.8008 7.05603V12.0687C17.8006 12.4274 17.5091 12.7189 17.1504 12.7191C16.7915 12.7191 16.5002 12.4275 16.5 12.0687V7.05603C16.5 5.75829 15.4481 4.70663 14.1504 4.70642H8.15039C6.85252 4.70642 5.80078 5.75816 5.80078 7.05603V18.8822C5.80138 19.1806 6.15108 19.3419 6.37793 19.1478L7.55762 18.1361C8.18876 17.5952 9.12439 17.6081 9.74023 18.1664L10.8838 19.2035C11.02 19.3266 11.2288 19.3239 11.3613 19.1967L11.8604 18.7181C12.1192 18.4695 12.5306 18.4778 12.7793 18.7367C13.0275 18.9956 13.0194 19.4071 12.7607 19.6556L12.2627 20.1342C11.6375 20.7347 10.6532 20.7493 10.0107 20.1674L8.86719 19.1293C8.73658 19.0109 8.53815 19.0088 8.4043 19.1234L7.22461 20.1342C6.15449 21.0514 4.5006 20.2914 4.5 18.8822V7.05603C4.5 5.04019 6.13455 3.40564 8.15039 3.40564H14.1504ZM12.1504 11.4056C12.5092 11.4058 12.8008 11.6972 12.8008 12.056C12.8006 12.4147 12.5091 12.7062 12.1504 12.7064H8.15039C7.79153 12.7064 7.5002 12.4148 7.5 12.056C7.5 11.697 7.79141 11.4056 8.15039 11.4056H12.1504ZM14.1504 7.40564C14.5092 7.40585 14.8008 7.69717 14.8008 8.05603C14.8006 8.41471 14.5091 8.70621 14.1504 8.70642H8.15039C7.79153 8.70642 7.5002 8.41484 7.5 8.05603C7.5 7.69705 7.79141 7.40564 8.15039 7.40564H14.1504Z" fill="currentColor"/>
<path d="M16.6811 14.713C16.8422 14.2776 17.4579 14.2776 17.619 14.713L18.1506 16.1497C18.2013 16.2866 18.3092 16.3945 18.446 16.4451L19.8828 16.9768C20.3181 17.1379 20.3181 17.7536 19.8828 17.9146L18.446 18.4463C18.3092 18.4969 18.2013 18.6048 18.1506 18.7417L17.619 20.1785C17.4579 20.6138 16.8422 20.6138 16.6811 20.1785L16.1495 18.7417C16.0988 18.6048 15.9909 18.4969 15.8541 18.4463L14.4173 17.9146C13.982 17.7536 13.982 17.1379 14.4173 16.9768L15.8541 16.4451C15.9909 16.3945 16.0988 16.2866 16.1495 16.1497L16.6811 14.713Z" fill="currentColor"/>
</svg>
