<svg width="328" height="180" viewBox="0 0 328 180" fill="none" xmlns="http://www.w3.org/2000/svg">
<path d="M128 0C132.418 0 136 3.58172 136 8V32C136 36.4183 132.418 40 128 40H40V172C40 176.418 36.4183 180 32 180H8C3.58172 180 -5.26874e-08 176.418 0 172V8C1.64828e-09 7.86178 0.00381541 7.72439 0.0107422 7.58789C0.22523 3.36114 3.71994 0 8 0H128Z" fill="black"/>
<path d="M232 180C227.582 180 224 176.418 224 172L224 148C224 143.582 227.582 140 232 140H288L288 8C288 3.58172 291.582 -4.38946e-07 296 0L320 2.09815e-06C324.418 4.45425e-05 328 3.58175 328 8L328 172C328 172.138 327.996 172.276 327.989 172.412C327.775 176.639 324.28 180 320 180H232Z" fill="black"/>
<path d="M264 0C268.418 0 272 3.58172 272 8V32C272 36.4183 268.418 40 264 40H208V172C208 176.418 204.418 180 200 180H176C171.582 180 168 176.418 168 172L168 8C168 7.86178 168.004 7.72439 168.011 7.58789C168.225 3.36115 171.72 7.98874e-06 176 0H264Z" fill="black"/>
<rect x="56" y="96" width="64" height="40" rx="8" fill="black"/>
</svg>
