<svg width="512" height="512" viewBox="0 0 512 512" fill="none" xmlns="http://www.w3.org/2000/svg">
<rect width="512" height="512" rx="126" fill="#E51943"/>
<path d="M220 166C224.418 166 228 169.582 228 174V198C228 202.418 224.418 206 220 206H132V338C132 342.418 128.418 346 124 346H100C95.5817 346 92 342.418 92 338V174C92 173.862 92.0038 173.724 92.0107 173.588C92.2252 169.361 95.7199 166 100 166H220Z" fill="white"/>
<path d="M324 346C319.582 346 316 342.418 316 338L316 314C316 309.582 319.582 306 324 306H380L380 174C380 169.582 383.582 166 388 166L412 166C416.418 166 420 169.582 420 174L420 338C420 338.138 419.996 338.276 419.989 338.412C419.775 342.639 416.28 346 412 346H324Z" fill="white"/>
<path d="M356 166C360.418 166 364 169.582 364 174V198C364 202.418 360.418 206 356 206H300V338C300 342.418 296.418 346 292 346H268C263.582 346 260 342.418 260 338V174C260 173.862 260.004 173.724 260.011 173.588C260.225 169.361 263.72 166 268 166H356Z" fill="white"/>
<rect x="148" y="262" width="64" height="40" rx="8" fill="white"/>
</svg>
