<svg width="24" height="24" viewBox="0 0 24 24" fill="none" xmlns="http://www.w3.org/2000/svg">
<path d="M17.0002 5.1004C19.1539 5.10061 20.9002 6.84662 20.9002 9.0004V15.0004C20.9 17.154 19.1538 18.9002 17.0002 18.9004H12.3338C12.3123 18.9004 12.2913 18.9074 12.274 18.9203L9.6502 20.8879C8.61291 21.6657 7.11803 21.1989 6.70762 19.9691L6.33848 18.8617C4.50851 18.6028 3.10078 17.0307 3.10059 15.1293V8.85743C3.10065 6.78251 4.78269 5.10046 6.85762 5.1004H17.0002ZM6.85762 6.9004C5.77681 6.90046 4.90065 7.77662 4.90059 8.85743V15.1293C4.9008 16.2175 5.78344 17.1004 6.87168 17.1004C7.27794 17.1007 7.64434 17.3285 7.82793 17.6805L7.89473 17.8387L8.41621 19.3996C8.43812 19.4639 8.51649 19.4885 8.5709 19.4477L11.1936 17.4801C11.5224 17.2335 11.9228 17.1004 12.3338 17.1004H17.0002C18.1597 17.1002 19.1 16.1599 19.1002 15.0004V9.0004C19.1002 7.84073 18.1598 6.90061 17.0002 6.9004H6.85762ZM13.4389 8.1004C15.2716 8.10063 16.4001 9.7307 16.4002 11.1602C16.4001 11.9355 16.0856 12.6187 15.6982 13.1688C15.3096 13.7206 14.8092 14.1953 14.3377 14.5738C13.8624 14.9553 13.3889 15.2618 13.0311 15.4727C12.8515 15.5785 12.696 15.6626 12.5799 15.7223C12.5227 15.7517 12.4702 15.7783 12.4264 15.7984C12.4057 15.808 12.3783 15.82 12.3502 15.8313C12.337 15.8365 12.3128 15.8463 12.2834 15.8559C12.2687 15.8606 12.2414 15.868 12.2084 15.8758C12.1884 15.8805 12.1068 15.9003 12.001 15.9004C11.8954 15.9004 11.813 15.8806 11.7924 15.8758C11.7599 15.8682 11.7334 15.8607 11.7186 15.8559C11.689 15.8463 11.6639 15.8366 11.6506 15.8313C11.6225 15.82 11.5951 15.808 11.5744 15.7984C11.5306 15.7783 11.478 15.7517 11.4209 15.7223C11.3049 15.6627 11.1502 15.5783 10.9709 15.4727C10.6131 15.2619 10.1396 14.9553 9.66426 14.5738C9.19271 14.1953 8.69128 13.7206 8.30254 13.1688C7.91527 12.6188 7.6007 11.9354 7.60059 11.1602C7.60071 9.7306 8.72896 8.1004 10.5619 8.1004C11.1509 8.10052 11.6266 8.26944 11.9998 8.49181C12.3732 8.26913 12.8493 8.10051 13.4389 8.1004ZM13.4389 9.9004C13.057 9.90058 12.8213 10.0738 12.6713 10.2414C12.5007 10.4321 12.2568 10.5412 12.001 10.5414C11.7451 10.5414 11.5002 10.432 11.3295 10.2414C11.1795 10.0738 10.9437 9.90059 10.5619 9.9004C9.92951 9.9004 9.40071 10.5049 9.40059 11.1602C9.4007 11.44 9.51555 11.7653 9.77441 12.1328C10.0321 12.4985 10.3952 12.8526 10.7904 13.1699C11.1819 13.4841 11.5798 13.7431 11.8838 13.9223C11.9238 13.9458 11.9638 13.9662 11.9998 13.9867C12.0362 13.966 12.0764 13.9462 12.117 13.9223C12.4211 13.7431 12.8187 13.4843 13.2104 13.1699C13.6058 12.8525 13.9687 12.4987 14.2264 12.1328C14.4853 11.7653 14.6001 11.44 14.6002 11.1602C14.6001 10.505 14.0711 9.90065 13.4389 9.9004Z" fill="#0D1625"/>
</svg>
