<svg width="24" height="24" viewBox="0 0 24 24" fill="none" xmlns="http://www.w3.org/2000/svg">
<path d="M11.6771 4.43421C11.888 4.37255 12.1128 4.37248 12.3236 4.43421L12.4271 4.47034L21.0814 7.93226C22.0445 8.31802 22.0443 9.68115 21.0814 10.067L19.6507 10.6393V15.6696C19.6507 16.1294 19.376 16.5459 18.9535 16.7272L12.4535 19.5123C12.1643 19.6363 11.8365 19.6362 11.5472 19.5123L5.04723 16.7272C4.62443 16.546 4.34999 16.1296 4.34997 15.6696V10.6393L2.9193 10.067C1.95596 9.6813 1.95591 8.31793 2.9193 7.93226L11.5736 4.47034L11.6771 4.43421ZM12.2914 8.41859C11.9706 8.25818 11.5801 8.38813 11.4193 8.70863C11.2588 9.02958 11.3885 9.42003 11.7093 9.5807L15.35 11.401V13.4996C15.35 13.8586 15.6414 14.15 16.0004 14.15C16.3592 14.1498 16.6507 13.8585 16.6507 13.4996V10.9996C16.6506 10.7538 16.5112 10.5287 16.2914 10.4186L12.2914 8.41859Z" fill="white"/>
</svg>
