<svg width="24" height="24" viewBox="0 0 24 24" fill="none" xmlns="http://www.w3.org/2000/svg">
<path d="M11.6076 4.19538C11.8642 4.1204 12.1374 4.12026 12.394 4.19538L12.5205 4.23874L21.1748 7.70046C22.347 8.1703 22.3473 9.83131 21.1748 10.3009L19.901 10.8094V15.6704C19.9008 16.23 19.5667 16.7364 19.0526 16.9571L12.5522 19.7426C12.2002 19.8935 11.8014 19.8933 11.4494 19.7426L4.94904 16.9571C4.43441 16.7365 4.10077 16.2303 4.10061 15.6704V10.8094L2.82678 10.3009C1.65341 9.8315 1.65348 8.16988 2.82678 7.70046L11.4811 4.23874L11.6076 4.19538ZM16.8998 12.0094V13.5001C16.8998 13.9971 16.4968 14.4 15.9998 14.4001C15.503 14.3999 15.0999 13.997 15.0998 13.5001V12.729L12.5205 13.7614C12.187 13.8948 11.8146 13.8946 11.4811 13.7614L5.90061 11.529V15.4055L12.0002 18.02L18.101 15.4055V11.529L16.8998 12.0094ZM4.42404 9.00007L12.0002 12.0305L14.249 11.1305L11.5983 9.80515C11.1538 9.58294 10.9732 9.04261 11.1951 8.59812C11.4174 8.15369 11.9577 7.97306 12.4022 8.19499L16.403 10.1954C16.4287 10.2083 16.4527 10.2237 16.4768 10.2387L19.5764 9.00007L12.0002 5.96843L4.42404 9.00007Z" fill="#0D1625"/>
</svg>
