<svg width="24" height="24" viewBox="0 0 24 24" fill="none" xmlns="http://www.w3.org/2000/svg">
<path d="M12.006 4.83633C12.503 4.83633 12.906 5.23927 12.906 5.73633V11.1059H18.2767C18.7734 11.1061 19.1764 11.5091 19.1767 12.0059C19.1767 12.5028 18.7735 12.9057 18.2767 12.9059H12.906V18.2766C12.9058 18.7735 12.5029 19.1766 12.006 19.1766C11.5092 19.1763 11.1062 18.7733 11.106 18.2766V12.9059H5.73643C5.23937 12.9059 4.83643 12.5029 4.83643 12.0059C4.83669 11.509 5.23953 11.1059 5.73643 11.1059H11.106V5.73633C11.106 5.23943 11.5091 4.83659 12.006 4.83633Z" fill="#0D1625"/>
</svg>
