<svg width="24" height="24" viewBox="0 0 24 24" fill="none" xmlns="http://www.w3.org/2000/svg">
<path d="M10.0003 5.09961C10.4973 5.09961 10.9001 5.50273 10.9003 5.99961C10.9003 9.50371 13.3088 12.0992 16.0003 12.0992C16.4971 12.0992 16.8999 12.5025 16.9003 12.9992C16.9003 13.4963 16.4974 13.8992 16.0003 13.8992C13.393 13.8992 11.0512 16.3362 10.9074 19.6742L10.9003 20L10.8957 20.0914C10.8497 20.5453 10.4664 20.9 10.0003 20.9C9.50342 20.9 9.10055 20.4969 9.10034 20C9.10017 16.4961 6.69174 13.8992 4.00034 13.8992C3.50329 13.8992 3.10034 13.4963 3.10034 12.9992C3.10076 12.5025 3.50354 12.0992 4.00034 12.0992C6.69183 12.0992 9.10034 9.5037 9.10034 5.99961C9.10054 5.50273 9.50341 5.09961 10.0003 5.09961ZM10.0003 9.89258C9.35391 11.2005 8.38971 12.2883 7.20894 12.9992C8.38938 13.7098 9.35383 14.7974 10.0003 16.1047C10.6467 14.7977 11.6105 13.7098 12.7906 12.9992C11.6102 12.2883 10.6466 11.2002 10.0003 9.89258ZM17.5003 3.35C17.8593 3.35 18.1507 3.64141 18.1507 4.00039C18.1509 5.02178 18.9786 5.84935 20 5.84961C20.3589 5.84961 20.6503 6.14102 20.6503 6.5C20.6503 6.85898 20.3589 7.15039 20 7.15039C18.9786 7.15065 18.1509 7.97822 18.1507 8.99961C18.1507 9.3586 17.8593 9.65 17.5003 9.65C17.1414 9.64996 16.85 9.35857 16.85 8.99961C16.8497 7.97816 16.0222 7.15056 15.0007 7.15039C14.6417 7.15039 14.3503 6.85898 14.3503 6.5C14.3503 6.14102 14.6417 5.84961 15.0007 5.84961C16.0222 5.84945 16.8497 5.02184 16.85 4.00039C16.85 3.64144 17.1414 3.35005 17.5003 3.35Z" fill="#0D1625"/>
</svg>
