<svg width="24" height="24" viewBox="0 0 24 24" fill="none" xmlns="http://www.w3.org/2000/svg">
<path d="M12.0004 3.00039C16.9707 3.00065 21.0004 7.02999 21.0004 12.0004C21.0002 16.9706 16.9706 21.0001 12.0004 21.0004C7.02993 21.0004 3.00057 16.9708 3.00037 12.0004C3.00037 7.02983 7.0298 3.00039 12.0004 3.00039ZM12.0004 4.80039C8.02392 4.80039 4.80037 8.02394 4.80037 12.0004C4.80057 15.9767 8.02404 19.2004 12.0004 19.2004C15.9765 19.2001 19.2002 15.9765 19.2004 12.0004C19.2004 8.0241 15.9766 4.80065 12.0004 4.80039ZM12.0004 14.0371C12.635 14.0375 13.1511 14.5516 13.1511 15.1867C13.1508 15.8216 12.6348 16.336 12.0004 16.3363C11.3656 16.3362 10.8511 15.8215 10.8508 15.1867C10.8508 14.5516 11.3654 14.0373 12.0004 14.0371ZM12.0004 7.05039C12.6529 7.05076 13.1689 7.60652 13.1183 8.25742L12.8148 12.1574C12.7814 12.5818 12.4265 12.9106 12.0004 12.9109C11.5742 12.9108 11.2194 12.582 11.1859 12.1574L10.8836 8.25742C10.833 7.60658 11.3475 7.05055 12.0004 7.05039Z" fill="#0D1625"/>
</svg>
