<svg width="24" height="24" viewBox="0 0 24 24" fill="none" xmlns="http://www.w3.org/2000/svg">
<path d="M12.0005 3.0001C16.9709 3.00026 21.0005 7.02963 21.0005 12.0001C21.0004 16.9705 16.9709 20.9999 12.0005 21.0001C7.02996 21.0001 3.00055 16.9706 3.00049 12.0001C3.00049 7.02954 7.02993 3.0001 12.0005 3.0001ZM12.0005 14.0368C11.3658 14.0372 10.8509 14.5516 10.8509 15.1864C10.8511 15.8211 11.3659 16.3356 12.0005 16.336C12.6348 16.3355 13.151 15.8212 13.1513 15.1864C13.1512 14.5514 12.6349 14.0373 12.0005 14.0368ZM12.0005 7.0501C11.3479 7.05053 10.8333 7.60652 10.8837 8.25713L11.186 12.1571C11.2194 12.5816 11.5745 12.9102 12.0005 12.9106C12.4265 12.9102 12.7816 12.5815 12.8149 12.1571L13.1185 8.25713C13.1689 7.60636 12.6528 7.05064 12.0005 7.0501Z" fill="#0D1625"/>
</svg>
