<svg width="24" height="24" viewBox="0 0 24 24" fill="none" xmlns="http://www.w3.org/2000/svg">
<path d="M18.9993 15.0996C19.4962 15.0996 19.8991 15.5027 19.8993 15.9996C19.8993 16.4967 19.4964 16.8996 18.9993 16.8996H12.9993C12.5025 16.8994 12.0993 16.4965 12.0993 15.9996C12.0995 15.5029 12.5026 15.0998 12.9993 15.0996H18.9993ZM19.0005 11.1C19.4972 11.1004 19.9005 11.5032 19.9005 12C19.9005 12.4968 19.4972 12.8996 19.0005 12.9H5.0001C4.50304 12.9 4.1001 12.4971 4.1001 12C4.1001 11.5029 4.50304 11.1 5.0001 11.1H19.0005ZM19.0005 7.1004C19.4972 7.1008 19.9005 7.50359 19.9005 8.0004C19.9003 8.49702 19.4971 8.89999 19.0005 8.9004H5.0001C4.50317 8.9004 4.10031 8.49727 4.1001 8.0004C4.1001 7.50334 4.50304 7.1004 5.0001 7.1004H19.0005Z" fill="#0D1625"/>
</svg>
