<svg width="24" height="24" viewBox="0 0 24 24" fill="none" xmlns="http://www.w3.org/2000/svg">
<path d="M19.001 15.0996C19.4975 15.1 19.9008 15.503 19.901 15.9996C19.901 16.4964 19.4977 16.8992 19.001 16.8996H5.00059C4.50353 16.8996 4.10059 16.4967 4.10059 15.9996C4.1008 15.5027 4.50366 15.0996 5.00059 15.0996H19.001ZM19.001 11.1C19.4977 11.1004 19.901 11.5032 19.901 12C19.901 12.4968 19.4977 12.8996 19.001 12.9H5.00059C4.50353 12.9 4.10059 12.4971 4.10059 12C4.10059 11.5029 4.50353 11.1 5.00059 11.1H19.001ZM19.001 7.1004C19.4977 7.10082 19.901 7.5036 19.901 8.0004C19.9008 8.49701 19.4975 8.89997 19.001 8.9004H5.00059C4.50366 8.9004 4.1008 8.49727 4.10059 8.0004C4.10059 7.50334 4.50353 7.1004 5.00059 7.1004H19.001Z" fill="#0D1625"/>
</svg>
