<svg width="24" height="24" viewBox="0 0 24 24" fill="none" xmlns="http://www.w3.org/2000/svg">
<path d="M15 15.0996C15.4969 15.0996 15.8997 15.5027 15.9 15.9996C15.9 16.4967 15.497 16.8996 15 16.8996H8.99995C8.50292 16.8996 8.09995 16.4967 8.09995 15.9996C8.10016 15.5028 8.50305 15.0996 8.99995 15.0996H15ZM19.0007 11.1C19.4975 11.1004 19.9007 11.5032 19.9007 12C19.9007 12.4968 19.4975 12.8996 19.0007 12.9H5.00034C4.50329 12.9 4.10034 12.4971 4.10034 12C4.10034 11.5029 4.50329 11.1 5.00034 11.1H19.0007ZM19.0007 7.1004C19.4975 7.10079 19.9007 7.50358 19.9007 8.0004C19.9005 8.49703 19.4973 8.9 19.0007 8.9004H5.00034C4.50342 8.9004 4.10055 8.49727 4.10034 8.0004C4.10034 7.50334 4.50329 7.1004 5.00034 7.1004H19.0007Z" fill="#0D1625"/>
</svg>
