<svg width="24" height="24" viewBox="0 0 24 24" fill="none" xmlns="http://www.w3.org/2000/svg">
<path d="M12 3C16.9702 3.00023 20.9998 7.02977 21 12C20.9998 16.9702 16.9702 20.9998 12 21C7.02977 20.9998 3.00022 16.9702 3 12C3.00022 7.02977 7.02977 3.00023 12 3ZM12 4.8C8.02388 4.80023 4.80022 8.02388 4.8 12C4.80022 15.9761 8.02388 19.1998 12 19.2C12.0061 19.2 12.0126 19.1989 12.0188 19.1988C12.0058 19.1346 12 19.0676 12 18.9996V4.99922C12 4.93125 12.0057 4.8642 12.0188 4.8C12.0126 4.79999 12.0061 4.8 12 4.8Z" fill="#0D1625"/>
</svg>
