<svg width="24" height="24" viewBox="0 0 24 24" fill="none" xmlns="http://www.w3.org/2000/svg">
<path d="M18.8464 3.03377C19.8899 2.92409 20.8243 3.68102 20.9342 4.72441L21.2976 8.18231C21.4071 9.22578 20.6506 10.1616 19.6071 10.2712L5.62746 11.7406L5.62773 16.2724C5.6278 17.4319 6.56717 18.3716 7.72666 18.3719L16.2732 18.3727C17.4326 18.3724 18.3724 17.432 18.3726 16.2726L18.3727 12.4843C18.3729 11.9875 18.7759 11.5851 19.2727 11.5849C19.7697 11.5849 20.172 11.9878 20.172 12.4849L20.173 16.2719C20.173 18.4258 18.4265 20.1721 16.2726 20.1721L7.72736 20.1723C5.57345 20.1723 3.82719 18.4258 3.82719 16.2719L3.82673 11.4243C3.41428 11.1183 3.12438 10.6493 3.0664 10.0985L2.70296 6.64058C2.59353 5.5974 3.35052 4.66286 4.3936 4.55282L18.8464 3.03377ZM9.49975 13.0999L14.5006 13.0998C14.9973 13.1001 15.3999 13.503 15.4 13.9998C15.4 14.4967 14.997 14.9001 14.5001 14.9004L9.50045 14.9003C9.00354 14.9003 8.60013 14.4973 8.59989 14.0004C8.59989 13.5035 9.00282 13.1 9.49975 13.0999ZM4.58175 6.34296C4.52734 6.34908 4.48758 6.39792 4.4931 6.45243L4.85654 9.91034C4.86243 9.96486 4.91161 10.0055 4.96614 10.0002L19.4189 8.4811C19.4738 8.47534 19.5131 8.42527 19.5075 8.37046L19.144 4.91256C19.1381 4.85784 19.0894 4.81815 19.0346 4.82391L4.58175 6.34296Z" fill="#0D1625"/>
</svg>
