<svg width="24" height="24" viewBox="0 0 24 24" fill="none" xmlns="http://www.w3.org/2000/svg">
<path d="M19.2613 3.84805C20.3103 3.84826 21.1606 4.69863 21.1609 5.74766V9.22461C21.1608 9.94344 20.7606 10.5681 20.1718 10.891V16.2734C20.1714 18.427 18.4255 20.1734 16.2718 20.1734H7.72649C5.57299 20.1733 3.82691 18.4269 3.82649 16.2734V10.8969C3.2326 10.5755 2.82934 9.94716 2.82922 9.22461V5.74766C2.82944 4.69863 3.6798 3.84826 4.72883 3.84805H19.2613ZM5.62649 16.2734C5.62691 17.4328 6.56711 18.3733 7.72649 18.3734H16.2718C17.4313 18.3734 18.3714 17.4329 18.3718 16.2734V11.1254H5.62649V16.2734ZM14.4999 13.1C14.9968 13.1002 15.3999 13.5031 15.3999 14C15.3999 14.4969 14.9968 14.8998 14.4999 14.9H9.49954C9.00266 14.8998 8.59954 14.4969 8.59954 14C8.59954 13.5031 9.00266 13.1002 9.49954 13.1H14.4999ZM4.72883 5.64805C4.67392 5.64826 4.62944 5.69274 4.62922 5.74766V9.22461C4.62939 9.27957 4.67388 9.32518 4.72883 9.32539H19.2613C19.3162 9.32518 19.3607 9.27957 19.3609 9.22461V5.74766C19.3606 5.69275 19.3162 5.64826 19.2613 5.64805H4.72883Z" fill="#0D1625"/>
</svg>
