<svg width="24" height="24" viewBox="0 0 24 24" fill="none" xmlns="http://www.w3.org/2000/svg">
<path d="M11.46 18.4602C11.2062 18.7139 10.7939 18.7138 10.54 18.4602L4.54004 12.4602C4.28621 12.2063 4.28623 11.7941 4.54004 11.5403L10.54 5.54025C10.7939 5.28641 11.2061 5.28641 11.46 5.54025C11.7136 5.79411 11.7137 6.20639 11.46 6.46017L6.57031 11.3498L19 11.3498C19.359 11.3499 19.6504 11.6412 19.6504 12.0002C19.6503 12.3591 19.3589 12.6506 19 12.6506L6.57031 12.6506L11.46 17.5403C11.7136 17.7941 11.7137 18.2064 11.46 18.4602Z" fill="#0D1625"/>
<path d="M10.3901 5.08542C10.7422 4.73484 11.312 4.73582 11.6627 5.08777C12.0134 5.44002 12.0115 6.00974 11.6592 6.36042L6.90493 11.0936H19.2612C19.7582 11.0936 20.1611 11.4966 20.1612 11.9936C20.161 12.4905 19.7581 12.8936 19.2612 12.8936H6.9061L11.6592 17.6257C12.0114 17.9763 12.0132 18.546 11.6627 18.8983C11.3121 19.2504 10.7423 19.2522 10.3901 18.9018L4.09126 12.6311C3.9219 12.4623 3.8265 12.2327 3.82642 11.9936C3.82645 11.8142 3.88051 11.6402 3.97876 11.4932L4.09126 11.355L10.3901 5.08542Z" fill="#0D1625"/>
</svg>
