<svg width="24" height="24" viewBox="0 0 24 24" fill="none" xmlns="http://www.w3.org/2000/svg">
<path d="M18.9477 4.90792C19.4445 4.90805 19.8475 5.31108 19.8477 5.80792C19.8474 6.30465 19.4445 6.70779 18.9477 6.70792H18.166C20.9108 9.90221 20.7742 14.7255 17.7524 17.7552C16.1643 19.3471 14.0784 20.142 11.9973 20.1376C11.5009 20.136 11.0989 19.7317 11.0996 19.2353C11.1009 18.7385 11.5053 18.3368 12.002 18.3376C13.6224 18.341 15.2423 17.7229 16.4785 16.4837C18.7817 14.1742 18.9326 10.5244 16.9332 8.038V8.73058C16.9327 9.22712 16.5299 9.63054 16.0332 9.63058C15.5367 9.63034 15.1338 9.227 15.1332 8.73058V4.90792H18.9477ZM11.9926 3.87433C12.4892 3.87578 12.8911 4.28002 12.8903 4.77667C12.889 5.27348 12.4848 5.67529 11.9879 5.67433C10.3674 5.67096 8.74762 6.28891 7.51136 7.52823C5.20823 9.83775 5.05731 13.4876 7.05667 15.9739V15.2814C7.05714 14.7847 7.45993 14.3814 7.95667 14.3814C8.45336 14.3814 8.8562 14.7848 8.85667 15.2814V19.104H5.04222C4.54537 19.1039 4.14238 18.7009 4.14222 18.204C4.1424 17.7072 4.54538 17.3041 5.04222 17.304H5.82386C3.07908 14.1097 3.21566 9.28643 6.23753 6.25675C7.82564 4.66469 9.91145 3.8699 11.9926 3.87433Z" fill="#0D1625"/>
</svg>
