<svg width="24" height="24" viewBox="0 0 24 24" fill="none" xmlns="http://www.w3.org/2000/svg">
<path d="M12.0006 3.83828C12.4972 3.8387 12.9004 4.24169 12.9006 4.73828V17.0969L17.6385 12.3402C17.9893 11.9882 18.5591 11.9872 18.9112 12.3379C19.2629 12.6888 19.2643 13.2586 18.9135 13.6105L12.6381 19.9094C12.4695 20.0786 12.2396 20.174 12.0006 20.1742C11.8214 20.1742 11.6471 20.12 11.5003 20.0219L11.3631 19.9094L5.08658 13.6105C4.73585 13.2585 4.73691 12.6887 5.08892 12.3379C5.44103 11.9871 6.01077 11.9882 6.36158 12.3402L11.1006 17.0969V4.73828C11.1009 4.24143 11.5037 3.83828 12.0006 3.83828Z" fill="#0D1625"/>
</svg>
