<svg width="24" height="24" viewBox="0 0 24 24" fill="none" xmlns="http://www.w3.org/2000/svg">
<path d="M6.64983 19.5499C7.14682 19.5498 7.54983 19.1469 7.54983 18.6499V7.82297L7.59202 7.86516C7.5945 7.86761 7.59776 7.86972 7.60023 7.87219C7.60269 7.87468 7.60478 7.87792 7.60726 7.88039C7.60976 7.88287 7.61298 7.88494 7.61546 7.88742C7.61794 7.88993 7.62 7.89313 7.62249 7.89563C7.625 7.8981 7.62821 7.90017 7.63069 7.90266C7.63315 7.90514 7.63526 7.90839 7.63773 7.91086L7.65999 7.93313C7.66245 7.93556 7.66575 7.93771 7.66819 7.94016C7.67066 7.94265 7.67275 7.94589 7.67523 7.94836L7.69749 7.97063C7.69996 7.97307 7.70325 7.97521 7.70569 7.97766C7.70815 7.98013 7.71027 7.9834 7.71273 7.98586C7.71504 7.98818 7.71744 7.99058 7.71976 7.99289C7.72219 7.9953 7.72555 7.99751 7.72796 7.99992C7.7304 8.00239 7.73254 8.00568 7.73499 8.00813C7.73731 8.01044 7.73971 8.01284 7.74202 8.01516C7.74445 8.01755 7.74783 8.01979 7.75023 8.02219C7.75266 8.02465 7.75482 8.02795 7.75726 8.03039C7.75957 8.03271 7.76197 8.03511 7.76429 8.03742C7.76673 8.03984 7.77007 8.04203 7.77249 8.04445C7.77491 8.0469 7.7771 8.05023 7.77952 8.05266L7.82288 8.09602C7.82529 8.09839 7.82871 8.10067 7.83108 8.10305C7.83348 8.10547 7.83572 8.10885 7.83812 8.11125L7.85921 8.13234C7.86161 8.13472 7.86504 8.137 7.86741 8.13938C7.86979 8.14178 7.87207 8.1452 7.87444 8.14758L7.9096 8.18273C7.91198 8.18509 7.91545 8.18741 7.9178 8.18977L7.93187 8.20383C7.93421 8.2062 7.93656 8.20969 7.9389 8.21203L8.00921 8.28234C8.01135 8.28445 8.01412 8.28608 8.01624 8.2882L8.0303 8.30227C8.03241 8.3044 8.03404 8.30718 8.03616 8.3093L8.07132 8.34445C8.07343 8.34654 8.07626 8.34822 8.07835 8.35031C8.08046 8.35245 8.08209 8.35523 8.08421 8.35734L8.09827 8.37141C8.10041 8.37351 8.10319 8.37515 8.1053 8.37727C8.10738 8.37937 8.10908 8.38221 8.11116 8.3843L8.12523 8.39836C8.12736 8.40047 8.13014 8.4021 8.13226 8.40422C8.13436 8.40635 8.136 8.40914 8.13812 8.41125C8.14032 8.41345 8.14296 8.41609 8.14515 8.41828C8.14729 8.42039 8.15006 8.42202 8.15218 8.42414C8.15426 8.42625 8.15595 8.42908 8.15804 8.43117C8.16023 8.43336 8.1629 8.43603 8.16507 8.4382C8.16721 8.44031 8.16998 8.44195 8.1721 8.44406C8.17421 8.4462 8.17584 8.44898 8.17796 8.45109L8.19788 8.47102C8.19999 8.47309 8.20283 8.47479 8.20491 8.47688C8.20701 8.479 8.20867 8.4818 8.21077 8.48391C8.2129 8.48601 8.21569 8.48765 8.2178 8.48977C8.21991 8.4919 8.22155 8.49468 8.22366 8.4968C8.2258 8.4989 8.22858 8.50054 8.23069 8.50266C8.23279 8.50478 8.23445 8.50758 8.23655 8.50969C8.23867 8.51177 8.24149 8.51346 8.24358 8.51555C8.24565 8.51764 8.24737 8.52051 8.24944 8.52258L8.26819 8.54133C8.27029 8.54339 8.27316 8.54512 8.27523 8.54719C8.27729 8.54928 8.27902 8.55215 8.28108 8.55422C8.28301 8.55615 8.28502 8.55815 8.28694 8.56008C8.289 8.5621 8.29195 8.56391 8.29398 8.56594C8.29602 8.56801 8.29779 8.57092 8.29983 8.57297C8.30176 8.5749 8.30377 8.57691 8.30569 8.57883C8.30776 8.58086 8.31069 8.58265 8.31273 8.58469C8.31475 8.58674 8.31656 8.58969 8.31858 8.59172L8.3303 8.60344C8.33234 8.60545 8.33533 8.60729 8.33733 8.6093C8.33933 8.61132 8.3412 8.61434 8.34319 8.61633L8.36663 8.63977C8.36863 8.64174 8.37169 8.64366 8.37366 8.64563C8.37559 8.64755 8.3776 8.64956 8.37952 8.65148C8.38148 8.65347 8.38343 8.65656 8.38538 8.65852L8.43226 8.70539C8.43401 8.70711 8.43639 8.70835 8.43812 8.71008C8.44001 8.71197 8.44209 8.71405 8.44398 8.71594C8.44569 8.71769 8.44694 8.72007 8.44866 8.7218L8.4721 8.74523C8.47384 8.74694 8.47624 8.7482 8.47796 8.74992C8.47968 8.75167 8.48092 8.75405 8.48265 8.75578L8.49437 8.7675C8.49609 8.76919 8.49852 8.77049 8.50023 8.77219C8.50194 8.77394 8.50319 8.77632 8.50491 8.77805L8.51077 8.78391C8.51251 8.7856 8.51493 8.78689 8.51663 8.78859C8.51835 8.79035 8.51959 8.79273 8.52132 8.79445L8.53773 8.81086C8.53944 8.81254 8.5419 8.81386 8.54358 8.81555C8.54528 8.81728 8.54657 8.8197 8.54827 8.82141C8.55001 8.8231 8.55243 8.82439 8.55413 8.82609C8.55583 8.82782 8.55712 8.83025 8.55882 8.83195C8.56054 8.83364 8.56299 8.83495 8.56468 8.83664C8.56634 8.83834 8.5677 8.84083 8.56937 8.8425L8.5846 8.85773C8.58631 8.8594 8.58879 8.86075 8.59046 8.86242C8.5921 8.8641 8.5935 8.86664 8.59515 8.86828C8.59669 8.86982 8.5983 8.87144 8.59983 8.87297C8.60152 8.87461 8.60405 8.87601 8.60569 8.87766C8.6073 8.8793 8.60878 8.88191 8.61038 8.88352L8.61976 8.89289C8.62141 8.89451 8.624 8.89596 8.62562 8.89758L8.6303 8.90227C8.6319 8.9039 8.63339 8.90653 8.63499 8.90813L8.7053 8.97844C8.70664 8.97973 8.70869 8.98065 8.70999 8.98195C8.71131 8.98332 8.71217 8.9853 8.71351 8.98664L8.72288 8.99602C8.72422 8.9973 8.72627 8.99823 8.72757 8.99953C8.72889 9.0009 8.72975 9.00288 8.73108 9.00422C8.73251 9.00564 8.73437 9.00751 8.73577 9.00891C8.7371 9.01019 8.73916 9.01113 8.74046 9.01242C8.74178 9.01379 8.74264 9.01577 8.74398 9.01711C8.74534 9.01842 8.74733 9.0193 8.74866 9.02063C8.74995 9.02196 8.75088 9.02402 8.75218 9.02531L8.77679 9.04992C8.77812 9.05121 8.78018 9.05215 8.78148 9.05344C8.78273 9.05474 8.78373 9.05686 8.78499 9.05813C8.78614 9.05927 8.78737 9.0605 8.78851 9.06164C8.78981 9.0629 8.79193 9.06389 8.79319 9.06516C8.79443 9.06644 8.79547 9.0686 8.79671 9.06984L8.80374 9.07688C8.80501 9.0781 8.80721 9.07917 8.80843 9.08039C8.80964 9.08165 8.81074 9.08387 8.81194 9.08508L8.85765 9.13078C8.85863 9.1317 8.86022 9.13218 8.86116 9.13313C8.86207 9.1341 8.86258 9.13571 8.86351 9.13664L8.87054 9.14367C8.87152 9.14459 8.87311 9.14507 8.87405 9.14602C8.87497 9.14699 8.87546 9.1486 8.8764 9.14953C8.87743 9.15057 8.87891 9.15204 8.87991 9.15305C8.88089 9.15396 8.88249 9.15445 8.88343 9.15539C8.88435 9.15638 8.88483 9.15796 8.88577 9.15891L8.90335 9.17648C8.9043 9.17737 8.90596 9.17793 8.90687 9.17883C8.90773 9.17976 8.90833 9.18147 8.90921 9.18234L8.91155 9.18469C8.91248 9.18555 8.9142 9.18616 8.91507 9.18703C8.91591 9.18794 8.91656 9.1897 8.91741 9.19055L8.9221 9.19523C8.92299 9.19605 8.92479 9.19675 8.92562 9.19758L8.92796 9.19992L8.9303 9.20344L8.9514 9.22453L8.95374 9.2257L8.95491 9.22805L8.9596 9.23273L8.96194 9.23391L8.96312 9.23625L8.96546 9.23859L8.9678 9.23977L8.96898 9.24211L8.97132 9.24328L8.97249 9.24563L8.97601 9.24914L8.97835 9.25031L8.97952 9.25266L8.98538 9.25852L8.98773 9.25969L8.9889 9.26203L9.01233 9.28547C9.36375 9.63679 9.9347 9.63789 10.2862 9.28664C10.6155 8.95721 10.6364 8.43542 10.3483 8.08195L10.2862 8.01398L10.2768 8.00461L10.2756 8.00227L10.2627 7.99055L10.2616 7.9882L10.2604 7.98703L10.258 7.98586L10.2569 7.98469L10.2557 7.98234L10.2545 7.98117L10.2522 7.98L10.251 7.97766L10.2487 7.97648L10.2475 7.97414L10.2451 7.97297L10.244 7.97063L10.2416 7.96945L10.2405 7.96711L10.2381 7.96594L10.2358 7.96359L10.2346 7.96125L10.2323 7.96008L10.2276 7.95539L10.2264 7.95305L10.2241 7.9507L10.2217 7.94953L10.203 7.93078L10.2006 7.92727L10.1983 7.92492C10.1974 7.9241 10.1956 7.9234 10.1948 7.92258L10.1901 7.91789C10.1892 7.91704 10.1886 7.91529 10.1877 7.91438C10.1869 7.91351 10.1851 7.91289 10.1842 7.91203L10.1819 7.90969C10.181 7.90881 10.1804 7.9071 10.1795 7.90617C10.1786 7.90527 10.177 7.90472 10.176 7.90383C10.1751 7.90294 10.1745 7.90126 10.1737 7.90031C10.1728 7.89944 10.1711 7.89883 10.1701 7.89797C10.1693 7.8971 10.1687 7.89538 10.1678 7.89445C10.1669 7.89358 10.1652 7.89297 10.1643 7.89211C10.1634 7.89122 10.1628 7.88953 10.1619 7.88859C10.161 7.88768 10.1594 7.88714 10.1584 7.88625C10.1575 7.88531 10.157 7.88372 10.1561 7.88273C10.1551 7.8818 10.1535 7.88131 10.1526 7.88039L10.1491 7.87688C10.1481 7.87594 10.1476 7.87434 10.1467 7.87336C10.1458 7.87242 10.1442 7.87194 10.1432 7.87102C10.1422 7.86998 10.1407 7.86856 10.1397 7.8675C10.1387 7.86655 10.1383 7.86497 10.1373 7.86398L10.1303 7.85695C10.1294 7.85601 10.1278 7.85553 10.1268 7.85461L10.0881 7.81594C10.0869 7.81473 10.0858 7.8125 10.0846 7.81125C10.0835 7.81011 10.0822 7.80888 10.0811 7.80773C10.0799 7.80651 10.0777 7.80544 10.0764 7.80422L10.0694 7.79719C10.0681 7.79595 10.0671 7.79379 10.0659 7.7925C10.0646 7.79124 10.0625 7.79024 10.0612 7.78898C10.06 7.78784 10.0588 7.78662 10.0576 7.78547C10.0564 7.78421 10.0554 7.78208 10.0541 7.78078C10.0528 7.77949 10.0508 7.77855 10.0494 7.77727C10.0482 7.77598 10.0472 7.7739 10.0459 7.77258C10.0447 7.77132 10.0425 7.77032 10.0412 7.76906C10.04 7.76781 10.039 7.76567 10.0377 7.76438C10.0365 7.76313 10.0343 7.7621 10.033 7.76086C10.0318 7.75961 10.0308 7.75747 10.0295 7.75617C10.0283 7.7549 10.0261 7.75392 10.0248 7.75266C10.0235 7.75136 10.0226 7.7493 10.0213 7.74797C10.02 7.74664 10.018 7.74577 10.0166 7.74445C10.0153 7.74312 10.0144 7.74113 10.0131 7.73977C10.0118 7.73847 10.0098 7.73754 10.0084 7.73625C10.007 7.73485 10.0052 7.73299 10.0037 7.73156C10.0024 7.73023 10.0015 7.72824 10.0002 7.72688C9.99881 7.72546 9.99698 7.72363 9.99554 7.72219C9.9942 7.72085 9.99222 7.71999 9.99085 7.71867C9.98941 7.71724 9.98762 7.71544 9.98616 7.71398C9.98483 7.71265 9.98397 7.71066 9.98265 7.7093C9.98119 7.70784 9.97943 7.70608 9.97796 7.70461C9.97662 7.70327 9.97464 7.70241 9.97327 7.70109L9.95452 7.68234C9.95319 7.68101 9.95233 7.67902 9.95101 7.67766L9.93226 7.65891C9.9307 7.65735 9.928 7.65578 9.9264 7.65422L9.90765 7.63547C9.90605 7.63387 9.90456 7.63125 9.90296 7.62961C9.90143 7.62808 9.89981 7.62646 9.89827 7.62492C9.89666 7.62331 9.89407 7.62185 9.89241 7.62023C9.89088 7.6187 9.88926 7.61708 9.88773 7.61555C9.88609 7.61391 9.88467 7.61136 9.88304 7.60969C9.88151 7.60816 9.87989 7.60654 9.87835 7.605C9.8767 7.60335 9.87417 7.60196 9.87249 7.60031L9.8678 7.59563C9.86616 7.59398 9.86476 7.59144 9.86312 7.58977C9.86144 7.58809 9.85896 7.58675 9.85726 7.58508C9.8556 7.58343 9.85422 7.5809 9.85257 7.57922L9.84788 7.57453C9.84624 7.57289 9.8437 7.57148 9.84202 7.56984C9.84035 7.56817 9.839 7.56569 9.83733 7.56398C9.83565 7.56229 9.83319 7.56098 9.83148 7.5593C9.82977 7.55759 9.82848 7.55517 9.82679 7.55344C9.82508 7.55173 9.82266 7.55045 9.82093 7.54875C9.81923 7.54705 9.81794 7.54462 9.81624 7.54289C9.81455 7.5412 9.8121 7.53989 9.81038 7.5382C9.80871 7.53653 9.80736 7.53404 9.80569 7.53234C9.80393 7.53058 9.80162 7.52827 9.79983 7.52648C9.79814 7.52479 9.7957 7.52348 9.79398 7.5218C9.79225 7.52007 9.791 7.51769 9.78929 7.51594C9.78758 7.51423 9.78516 7.51295 9.78343 7.51125C9.78163 7.50946 9.77938 7.5072 9.77757 7.50539C9.77584 7.50366 9.7746 7.50128 9.77288 7.49953C9.77107 7.49772 9.76885 7.4955 9.76702 7.49367C9.7653 7.49194 9.76291 7.4907 9.76116 7.48898C9.75934 7.48716 9.75714 7.48497 9.7553 7.48313C9.75358 7.4814 9.75233 7.47902 9.75062 7.47727C9.74878 7.47543 9.74661 7.47326 9.74476 7.47141C9.74303 7.46968 9.74065 7.46843 9.7389 7.46672L9.72718 7.455C9.72545 7.45327 9.72421 7.45089 9.72249 7.44914L9.69905 7.4257C9.69733 7.42398 9.69495 7.42273 9.69319 7.42102L9.66976 7.39758C9.66782 7.39564 9.66584 7.39252 9.6639 7.39055L9.64046 7.36711C9.63848 7.36513 9.63544 7.36323 9.63343 7.36125L9.62171 7.34953C9.61971 7.34754 9.61785 7.34453 9.61585 7.3425C9.61393 7.34058 9.61192 7.33857 9.60999 7.33664C9.60798 7.33463 9.605 7.33279 9.60296 7.33078L9.59124 7.31906C9.58922 7.31704 9.5874 7.31408 9.58538 7.31203C9.58335 7.31 9.58041 7.3082 9.57835 7.30617C9.57643 7.30425 9.57442 7.30224 9.57249 7.30031C9.57044 7.29827 9.56868 7.29536 9.56663 7.29328C9.56461 7.29126 9.56165 7.28944 9.5596 7.28742C9.55768 7.2855 9.55567 7.28349 9.55374 7.28156C9.55167 7.2795 9.54994 7.27662 9.54788 7.27453C9.54581 7.27246 9.54294 7.27073 9.54085 7.26867C9.53893 7.26675 9.53692 7.26474 9.53499 7.26281C9.53298 7.2608 9.53114 7.25782 9.52913 7.25578C9.52709 7.25374 9.52417 7.25196 9.5221 7.24992C9.52003 7.24785 9.51831 7.24499 9.51624 7.24289C9.51415 7.2408 9.51132 7.23911 9.50921 7.23703C9.5071 7.23493 9.50545 7.23213 9.50335 7.23C9.50124 7.22789 9.49845 7.22625 9.49632 7.22414C9.4942 7.22203 9.49257 7.21925 9.49046 7.21711C9.48835 7.215 9.48556 7.21335 9.48343 7.21125C9.48133 7.20915 9.47966 7.20634 9.47757 7.20422C9.47548 7.20213 9.47265 7.20044 9.47054 7.19836C9.46847 7.19629 9.46674 7.19342 9.46468 7.19133C9.46253 7.18918 9.45982 7.18647 9.45765 7.1843C9.45557 7.18222 9.45271 7.1805 9.45062 7.17844C9.4485 7.17632 9.44687 7.17354 9.44476 7.17141C9.44264 7.16929 9.43986 7.16766 9.43773 7.16555C9.43555 7.16337 9.43288 7.16071 9.43069 7.15852C9.4286 7.15643 9.42692 7.1536 9.42483 7.15148C9.42272 7.14937 9.41994 7.14773 9.4178 7.14563L9.41077 7.13859C9.40866 7.13648 9.40702 7.1337 9.40491 7.13156C9.40279 7.12944 9.40002 7.12781 9.39788 7.1257C9.39567 7.1235 9.39307 7.12089 9.39085 7.11867C9.38873 7.11655 9.3871 7.11378 9.38499 7.11164C9.38277 7.10942 9.38019 7.10684 9.37796 7.10461C9.37584 7.10249 9.37307 7.10086 9.37093 7.09875L9.35687 7.08469C9.35475 7.08257 9.35312 7.07979 9.35101 7.07766C9.34876 7.07541 9.34623 7.07288 9.34398 7.07063C9.34186 7.06851 9.33908 7.06687 9.33694 7.06477L9.31585 7.04367C9.31373 7.04155 9.3121 7.03878 9.30999 7.03664L9.27483 7.00148C9.27272 6.99937 9.26994 6.99773 9.2678 6.99563L9.22562 6.95344C9.22329 6.95111 9.22092 6.94759 9.21858 6.94523L9.18343 6.91008C9.18107 6.90772 9.17761 6.9054 9.17523 6.90305L9.15413 6.88195C9.15176 6.87958 9.14947 6.87615 9.1471 6.87375L9.13304 6.85969C9.13065 6.8573 9.12725 6.85504 9.12483 6.85266L9.11077 6.83859C9.10838 6.8362 9.10614 6.83281 9.10374 6.83039C9.10143 6.82808 9.09903 6.82568 9.09671 6.82336C9.09431 6.82096 9.09093 6.81873 9.08851 6.81633C9.08619 6.81401 9.08379 6.81161 9.08148 6.8093C9.07906 6.80688 9.07685 6.80353 9.07444 6.80109L9.06741 6.79406C9.06499 6.79164 9.06165 6.78945 9.05921 6.78703C9.0569 6.78472 9.0545 6.78232 9.05218 6.78C9.04975 6.77757 9.04757 6.77424 9.04515 6.7718C9.04272 6.76937 9.03939 6.76718 9.03694 6.76477L9.02991 6.75773C9.02748 6.7553 9.02531 6.75199 9.02288 6.74953C9.02057 6.74722 9.01817 6.74482 9.01585 6.7425C9.01343 6.74008 9.01009 6.73789 9.00765 6.73547C9.0052 6.73302 9.00306 6.72973 9.00062 6.72727C8.99821 6.72486 8.99484 6.72264 8.99241 6.72023C8.9901 6.71792 8.9877 6.71552 8.98538 6.7132C8.98292 6.71075 8.9808 6.70748 8.97835 6.705C8.9759 6.70255 8.97261 6.70041 8.97015 6.69797L8.96312 6.69094C8.96069 6.68851 8.9585 6.68518 8.95608 6.68273C8.95362 6.68027 8.95037 6.67816 8.94788 6.6757C8.94541 6.67323 8.94332 6.66999 8.94085 6.6675C8.93841 6.66506 8.93511 6.66291 8.93265 6.66047C8.93033 6.65815 8.92793 6.65575 8.92562 6.65344C8.9232 6.65102 8.921 6.64767 8.91858 6.64523C8.91614 6.64279 8.91284 6.64064 8.91038 6.6382C8.90792 6.63574 8.90581 6.63249 8.90335 6.63C8.90086 6.62751 8.89765 6.62545 8.89515 6.62297C8.89265 6.62048 8.8906 6.61728 8.88812 6.61477C8.88563 6.61228 8.88241 6.61021 8.87991 6.60773C8.87744 6.60526 8.87535 6.60202 8.87288 6.59953C8.87042 6.59707 8.86716 6.59496 8.86468 6.5925C8.86222 6.59004 8.8601 6.58677 8.85765 6.5843C8.85519 6.58184 8.85192 6.57971 8.84944 6.57727C8.84699 6.57481 8.84486 6.57154 8.84241 6.56906C8.83996 6.56661 8.83669 6.56448 8.83421 6.56203C8.83175 6.55957 8.82963 6.55631 8.82718 6.55383C8.82471 6.55136 8.82146 6.54926 8.81898 6.5468C8.8165 6.54432 8.81441 6.54109 8.81194 6.53859C8.80945 6.5361 8.80625 6.53404 8.80374 6.53156C8.80124 6.52906 8.79921 6.52588 8.79671 6.52336C8.7942 6.52085 8.79103 6.51883 8.78851 6.51633C8.78601 6.51383 8.78397 6.51064 8.78148 6.50813C8.77899 6.50564 8.77577 6.50357 8.77327 6.50109C8.77081 6.49863 8.76869 6.49537 8.76624 6.49289C8.76381 6.49045 8.76049 6.48829 8.75804 6.48586C8.7555 6.48332 8.75239 6.48021 8.74983 6.47766C8.74736 6.47518 8.74527 6.47194 8.7428 6.46945C8.7403 6.46695 8.73712 6.46492 8.7346 6.46242C8.73209 6.45991 8.73007 6.45674 8.72757 6.45422C8.72509 6.45174 8.72187 6.44966 8.71937 6.44719C8.71682 6.44464 8.71372 6.44155 8.71116 6.43898C8.70871 6.43653 8.70658 6.43326 8.70413 6.43078C8.70163 6.42828 8.69844 6.42624 8.69593 6.42375C8.69342 6.42124 8.6914 6.41807 8.6889 6.41555C8.68642 6.41307 8.68319 6.41099 8.68069 6.40852C8.67814 6.40596 8.67506 6.40288 8.67249 6.40031C8.67 6.39782 8.66794 6.39461 8.66546 6.39211C8.66295 6.3896 8.65978 6.38758 8.65726 6.38508C8.65477 6.38259 8.6527 6.37937 8.65023 6.37688L8.64202 6.36867C8.63952 6.36617 8.63634 6.36413 8.63382 6.36164C8.63131 6.35913 8.62929 6.35596 8.62679 6.35344C8.62422 6.35087 8.62116 6.34781 8.61858 6.34523C8.6161 6.34275 8.61288 6.34068 8.61038 6.3382C8.60787 6.33569 8.60585 6.33252 8.60335 6.33C8.60087 6.32752 8.59764 6.32544 8.59515 6.32297C8.59257 6.32039 8.58953 6.31735 8.58694 6.31477C8.58443 6.31225 8.58241 6.30909 8.57991 6.30656C8.57743 6.30408 8.57421 6.302 8.57171 6.29953C8.56913 6.29695 8.56609 6.29392 8.56351 6.29133C8.561 6.28882 8.55898 6.28565 8.55648 6.28313C8.55389 6.28054 8.55086 6.27751 8.54827 6.27492C8.54578 6.27243 8.54258 6.27038 8.54007 6.26789C8.53756 6.26538 8.53554 6.26221 8.53304 6.25969C8.53045 6.2571 8.52743 6.25408 8.52483 6.25148C8.52232 6.24897 8.51916 6.24695 8.51663 6.24445C8.51413 6.24195 8.51209 6.23876 8.5096 6.23625L8.5014 6.22805C8.49889 6.22554 8.49572 6.22351 8.49319 6.22102C8.49061 6.21843 8.48759 6.21541 8.48499 6.21281C8.48248 6.2103 8.48046 6.20713 8.47796 6.20461C8.47545 6.20211 8.47227 6.20007 8.46976 6.19758C8.46716 6.19499 8.46415 6.19197 8.46155 6.18938C8.45904 6.18686 8.45702 6.1837 8.45452 6.18117C8.45193 6.17858 8.44892 6.17557 8.44632 6.17297C8.44381 6.17046 8.44064 6.16844 8.43812 6.16594C8.43552 6.16334 8.43252 6.16034 8.42991 6.15773C8.42741 6.15523 8.42538 6.15205 8.42288 6.14953C8.42037 6.14702 8.4172 6.145 8.41468 6.1425C8.41208 6.1399 8.40908 6.1369 8.40648 6.1343C8.40396 6.13179 8.40194 6.12862 8.39944 6.12609C8.39685 6.1235 8.39385 6.1205 8.39124 6.11789C8.38873 6.11538 8.38556 6.11336 8.38304 6.11086C8.38044 6.10826 8.37744 6.10526 8.37483 6.10266C8.37232 6.10015 8.3703 6.09698 8.3678 6.09445C8.3653 6.09195 8.36212 6.08991 8.3596 6.08742C8.357 6.08482 8.354 6.08182 8.3514 6.07922C8.34889 6.07671 8.34687 6.07354 8.34437 6.07102C8.34177 6.06842 8.33877 6.06542 8.33616 6.06281C8.33365 6.0603 8.33048 6.05828 8.32796 6.05578C8.32536 6.05318 8.32236 6.05018 8.31976 6.04758C8.31725 6.04507 8.31522 6.0419 8.31273 6.03938C8.31013 6.03678 8.30713 6.03378 8.30452 6.03117C8.30201 6.02866 8.29884 6.02664 8.29632 6.02414C8.29372 6.02154 8.29072 6.01854 8.28812 6.01594C8.2856 6.01343 8.28358 6.01026 8.28108 6.00773C8.27857 6.00522 8.2754 6.0032 8.27288 6.0007C8.27028 5.9981 8.26728 5.99511 8.26468 5.9925C8.26217 5.98999 8.26015 5.98682 8.25765 5.9843L8.24944 5.97609C8.24693 5.97358 8.24376 5.97156 8.24124 5.96906C8.23864 5.96646 8.23564 5.96346 8.23304 5.96086C8.23053 5.95835 8.22851 5.95518 8.22601 5.95266C8.22341 5.95006 8.22041 5.94706 8.2178 5.94445C8.21529 5.94194 8.21212 5.93992 8.2096 5.93742C8.20709 5.93491 8.20507 5.93174 8.20257 5.92922C8.19997 5.92662 8.19697 5.92362 8.19437 5.92102C8.19185 5.9185 8.18869 5.91648 8.18616 5.91398C8.18357 5.91139 8.18056 5.90838 8.17796 5.90578C8.17545 5.90327 8.17343 5.9001 8.17093 5.89758C8.16833 5.89498 8.16533 5.89198 8.16273 5.88938C8.16021 5.88686 8.15705 5.88484 8.15452 5.88234C8.15201 5.87983 8.14999 5.87666 8.14749 5.87414C8.1449 5.87155 8.14189 5.86854 8.13929 5.86594C8.13678 5.86343 8.13361 5.86141 8.13108 5.85891C8.12849 5.85632 8.12548 5.8533 8.12288 5.8507C8.12037 5.84819 8.11835 5.84502 8.11585 5.8425C8.11335 5.84 8.11016 5.83796 8.10765 5.83547C8.10506 5.83288 8.10204 5.82986 8.09944 5.82727C8.09693 5.82475 8.09491 5.82159 8.09241 5.81906C8.08983 5.81648 8.0868 5.81345 8.08421 5.81086C8.08171 5.80836 8.07852 5.80632 8.07601 5.80383C8.07349 5.80132 8.07147 5.79815 8.06898 5.79563C8.06639 5.79304 8.06336 5.79001 8.06077 5.78742C8.05826 5.78491 8.05509 5.78289 8.05257 5.78039C8.05006 5.77789 8.04803 5.7747 8.04554 5.77219C8.04296 5.76961 8.03992 5.76657 8.03733 5.76398C8.03482 5.76147 8.03165 5.75945 8.02913 5.75695C8.02663 5.75446 8.02459 5.75126 8.0221 5.74875C8.01953 5.74618 8.01648 5.74313 8.0139 5.74055C8.01139 5.73803 8.00822 5.73601 8.00569 5.73352C8.00319 5.73101 8.00115 5.72783 7.99866 5.72531C7.99609 5.72274 7.99304 5.71969 7.99046 5.71711C7.98796 5.71461 7.98477 5.71257 7.98226 5.71008C7.97974 5.70757 7.97772 5.7044 7.97523 5.70188C7.97276 5.69941 7.9695 5.6973 7.96702 5.69484C7.96446 5.69228 7.96139 5.68921 7.95882 5.68664C7.95631 5.68413 7.95429 5.68096 7.95179 5.67844C7.94928 5.67593 7.9461 5.6739 7.94358 5.67141C7.94102 5.66885 7.93795 5.66577 7.93538 5.6632C7.93291 5.66074 7.93081 5.65748 7.92835 5.655C7.92584 5.65249 7.92267 5.65047 7.92015 5.64797C7.91763 5.64546 7.91561 5.64229 7.91312 5.63977C7.91065 5.63729 7.9074 5.63519 7.90491 5.63273C7.90236 5.63018 7.89927 5.62709 7.89671 5.62453C7.89424 5.62206 7.89214 5.61882 7.88968 5.61633C7.88717 5.61382 7.884 5.61179 7.88148 5.6093C7.87896 5.60678 7.87694 5.60362 7.87444 5.60109C7.87196 5.59861 7.86874 5.59653 7.86624 5.59406C7.8637 5.59152 7.86059 5.58841 7.85804 5.58586C7.85561 5.58343 7.85343 5.5801 7.85101 5.57766C7.84855 5.5752 7.84527 5.57307 7.8428 5.57063C7.84033 5.56815 7.83824 5.56491 7.83577 5.56242C7.83328 5.55992 7.83008 5.55787 7.82757 5.55539C7.82506 5.55288 7.82304 5.54971 7.82054 5.54719C7.81803 5.54468 7.81486 5.54265 7.81233 5.54016C7.80984 5.53766 7.80779 5.53446 7.8053 5.53195C7.80282 5.52947 7.79959 5.52739 7.7971 5.52492C7.79463 5.52245 7.79253 5.5192 7.79007 5.51672C7.78761 5.51426 7.78434 5.51214 7.78187 5.50969C7.77941 5.50723 7.77728 5.50396 7.77483 5.50148C7.77238 5.49903 7.7691 5.4969 7.76663 5.49445C7.76418 5.492 7.76204 5.48872 7.7596 5.48625C7.75714 5.48379 7.75387 5.48166 7.7514 5.47922C7.74894 5.47676 7.74682 5.47349 7.74437 5.47102C7.7419 5.46855 7.73864 5.46644 7.73616 5.46398C7.73368 5.46151 7.7316 5.45827 7.72913 5.45578C7.72664 5.45329 7.72343 5.45123 7.72093 5.44875C7.71843 5.44626 7.71638 5.44305 7.7139 5.44055C7.71142 5.43807 7.70819 5.43598 7.70569 5.43352C7.70324 5.43106 7.70111 5.42778 7.69866 5.42531C7.69623 5.42288 7.6929 5.4207 7.69046 5.41828C7.68814 5.41596 7.68574 5.41357 7.68343 5.41125C7.681 5.40882 7.67882 5.40549 7.6764 5.40305C7.67393 5.40058 7.67067 5.39847 7.66819 5.39602C7.66572 5.39354 7.66362 5.3903 7.66116 5.38781C7.65872 5.38537 7.65542 5.38322 7.65296 5.38078C7.65064 5.37846 7.64824 5.37607 7.64593 5.37375C7.6435 5.37132 7.64132 5.36799 7.6389 5.36555C7.63644 5.36309 7.63317 5.36096 7.63069 5.35852C7.62825 5.35607 7.62609 5.35277 7.62366 5.35031C7.62135 5.34799 7.61895 5.3456 7.61663 5.34328C7.61419 5.34083 7.61089 5.33869 7.60843 5.33625C7.60598 5.3338 7.60383 5.33051 7.6014 5.32805C7.59908 5.32573 7.59668 5.32333 7.59437 5.32102C7.59192 5.31857 7.58862 5.31641 7.58616 5.31398C7.58373 5.31155 7.58156 5.30823 7.57913 5.30578C7.57681 5.30346 7.57442 5.30106 7.5721 5.29875C7.56967 5.29632 7.56634 5.29414 7.5639 5.29172C7.56158 5.2894 7.55918 5.287 7.55687 5.28469C7.55444 5.28226 7.55225 5.27892 7.54983 5.27648C7.54752 5.27417 7.54512 5.27177 7.5428 5.26945C7.54039 5.26704 7.53703 5.26483 7.5346 5.26242C7.53228 5.2601 7.52988 5.25771 7.52757 5.25539C7.52516 5.25298 7.52294 5.24961 7.52054 5.24719C7.51822 5.24487 7.51582 5.24247 7.51351 5.24016C7.5111 5.23775 7.50772 5.23552 7.5053 5.23313C7.50299 5.23081 7.50059 5.22841 7.49827 5.22609C7.49588 5.2237 7.49363 5.2203 7.49124 5.21789L7.47718 5.20383C7.4748 5.20145 7.47138 5.19917 7.46898 5.1968L7.44788 5.1757C7.44552 5.17334 7.44321 5.16989 7.44085 5.1675L7.41976 5.14641C7.41741 5.14406 7.41392 5.14172 7.41155 5.13938L7.32718 5.055C7.32506 5.05288 7.32342 5.0501 7.32132 5.04797L7.29319 5.01984C7.29107 5.01772 7.2883 5.01609 7.28616 5.01398C6.93471 4.66254 6.36498 4.66258 6.01351 5.01398C6.01138 5.01611 6.00861 5.01773 6.00648 5.01984L5.97835 5.04797C5.97623 5.05009 5.97461 5.05286 5.97249 5.055L5.88812 5.13938C5.88577 5.14172 5.88229 5.14406 5.87991 5.14641L5.85882 5.1675C5.85645 5.16987 5.85416 5.17331 5.85179 5.1757L5.83069 5.1968C5.82831 5.19918 5.8249 5.20145 5.82249 5.20383L5.80843 5.21789C5.80603 5.22029 5.80379 5.22368 5.8014 5.22609C5.79908 5.22841 5.79669 5.2308 5.79437 5.23313C5.79196 5.23553 5.78859 5.23776 5.78616 5.24016C5.78384 5.24247 5.78145 5.24487 5.77913 5.24719C5.77672 5.2496 5.77451 5.25296 5.7721 5.25539C5.76978 5.25771 5.76739 5.2601 5.76507 5.26242C5.76265 5.26484 5.7593 5.26704 5.75687 5.26945C5.75455 5.27177 5.75216 5.27416 5.74983 5.27648C5.74741 5.27891 5.74523 5.28224 5.7428 5.28469C5.74048 5.28701 5.73809 5.2894 5.73577 5.29172C5.73334 5.29415 5.73002 5.29632 5.72757 5.29875C5.72525 5.30107 5.72286 5.30346 5.72054 5.30578C5.7181 5.30822 5.71594 5.31153 5.71351 5.31398C5.71106 5.31643 5.70776 5.31858 5.7053 5.32102C5.70298 5.32333 5.70059 5.32573 5.69827 5.32805C5.69582 5.3305 5.69369 5.33378 5.69124 5.33625C5.68879 5.3387 5.6855 5.34084 5.68304 5.34328C5.68072 5.3456 5.67833 5.34799 5.67601 5.35031C5.67356 5.35275 5.67141 5.35605 5.66898 5.35852C5.66651 5.36098 5.66325 5.36309 5.66077 5.36555C5.65834 5.36798 5.65617 5.3713 5.65374 5.37375C5.65142 5.37607 5.64903 5.37846 5.64671 5.38078C5.64426 5.38323 5.64097 5.38537 5.63851 5.38781C5.63603 5.39029 5.63395 5.39352 5.63148 5.39602C5.62901 5.39848 5.62575 5.40059 5.62327 5.40305C5.62084 5.40548 5.61867 5.4088 5.61624 5.41125C5.61392 5.41357 5.61153 5.41596 5.60921 5.41828C5.60678 5.42071 5.60346 5.42289 5.60101 5.42531C5.59855 5.42777 5.59643 5.43104 5.59398 5.43352C5.59149 5.436 5.58827 5.43807 5.58577 5.44055C5.58328 5.44304 5.58123 5.44624 5.57874 5.44875C5.57625 5.45124 5.57305 5.4533 5.57054 5.45578C5.56806 5.45826 5.56598 5.46149 5.56351 5.46398C5.56104 5.46645 5.55779 5.46855 5.5553 5.47102C5.55284 5.47348 5.55073 5.47674 5.54827 5.47922C5.54581 5.48168 5.54254 5.4838 5.54007 5.48625C5.53761 5.48871 5.53549 5.49198 5.53304 5.49445C5.53058 5.49691 5.52731 5.49903 5.52483 5.50148C5.52237 5.50394 5.52026 5.50721 5.5178 5.50969C5.51534 5.51215 5.51208 5.51426 5.5096 5.51672C5.50713 5.51919 5.50504 5.52243 5.50257 5.52492C5.50009 5.52741 5.49686 5.52948 5.49437 5.53195C5.49187 5.53445 5.48982 5.53765 5.48733 5.54016C5.48482 5.54267 5.48166 5.54468 5.47913 5.54719C5.47662 5.5497 5.47461 5.55286 5.4721 5.55539C5.4696 5.55789 5.46641 5.55993 5.4639 5.56242C5.46142 5.5649 5.45934 5.56813 5.45687 5.57063C5.45441 5.57308 5.45114 5.5752 5.44866 5.57766C5.44623 5.58009 5.44406 5.58341 5.44163 5.58586C5.43909 5.5884 5.43598 5.59151 5.43343 5.59406C5.43094 5.59655 5.42773 5.59862 5.42523 5.60109C5.42271 5.60361 5.4207 5.60677 5.41819 5.6093C5.41568 5.61181 5.41251 5.61383 5.40999 5.61633C5.40751 5.61881 5.40543 5.62204 5.40296 5.62453C5.40041 5.62709 5.39732 5.63017 5.39476 5.63273C5.39228 5.63521 5.38904 5.6373 5.38655 5.63977C5.38404 5.64228 5.38203 5.64544 5.37952 5.64797C5.37701 5.65048 5.37385 5.6525 5.37132 5.655C5.36885 5.65747 5.36675 5.66072 5.36429 5.6632C5.36173 5.66577 5.35866 5.66883 5.35608 5.67141C5.35358 5.67391 5.3504 5.67594 5.34788 5.67844C5.34537 5.68095 5.34336 5.68411 5.34085 5.68664C5.33828 5.68921 5.33522 5.69227 5.33265 5.69484C5.33018 5.69731 5.32693 5.69941 5.32444 5.70188C5.32193 5.70439 5.31992 5.70755 5.31741 5.71008C5.31491 5.71258 5.31173 5.71461 5.30921 5.71711C5.30664 5.71968 5.30359 5.72273 5.30101 5.72531C5.2985 5.72782 5.29647 5.731 5.29398 5.73352C5.29146 5.73603 5.2883 5.73804 5.28577 5.74055C5.28319 5.74312 5.28016 5.74616 5.27757 5.74875C5.27507 5.75125 5.27303 5.75444 5.27054 5.75695C5.26802 5.75947 5.26486 5.76148 5.26233 5.76398C5.25975 5.76657 5.25672 5.7696 5.25413 5.77219C5.25162 5.7747 5.2496 5.77787 5.2471 5.78039C5.24459 5.78291 5.24142 5.78492 5.2389 5.78742C5.23631 5.79001 5.23329 5.79303 5.23069 5.79563C5.22818 5.79814 5.22617 5.8013 5.22366 5.80383C5.22116 5.80633 5.21798 5.80836 5.21546 5.81086C5.21287 5.81345 5.20985 5.81647 5.20726 5.81906C5.20474 5.82158 5.20273 5.82474 5.20023 5.82727C5.19763 5.82986 5.19462 5.83287 5.19202 5.83547C5.18951 5.83798 5.18634 5.84 5.18382 5.8425C5.1813 5.84502 5.17929 5.84818 5.17679 5.8507C5.17419 5.8533 5.17119 5.85631 5.16858 5.85891C5.16607 5.86142 5.16291 5.86343 5.16038 5.86594C5.15779 5.86853 5.15478 5.87154 5.15218 5.87414C5.14966 5.87665 5.14765 5.87982 5.14515 5.88234C5.14263 5.88486 5.13947 5.88687 5.13694 5.88938C5.13435 5.89197 5.13135 5.89497 5.12874 5.89758C5.12623 5.90009 5.12422 5.90326 5.12171 5.90578C5.11911 5.90838 5.11611 5.91138 5.11351 5.91398C5.11099 5.9165 5.10783 5.91851 5.1053 5.92102C5.10281 5.92351 5.10076 5.92671 5.09827 5.92922C5.09567 5.93182 5.09268 5.93481 5.09007 5.93742C5.08755 5.93994 5.08439 5.94195 5.08187 5.94445C5.07926 5.94706 5.07627 5.95005 5.07366 5.95266C5.07115 5.95517 5.06914 5.95833 5.06663 5.96086C5.06403 5.96346 5.06104 5.96645 5.05843 5.96906C5.05591 5.97158 5.05275 5.97359 5.05023 5.97609C5.04762 5.9787 5.04463 5.98169 5.04202 5.9843C5.03951 5.98681 5.0375 5.98997 5.03499 5.9925C5.03239 5.9951 5.0294 5.99809 5.02679 6.0007C5.02427 6.00322 5.02111 6.00523 5.01858 6.00773C5.01607 6.01025 5.01406 6.01341 5.01155 6.01594C5.00895 6.01854 5.00596 6.02153 5.00335 6.02414C5.00083 6.02666 4.99767 6.02867 4.99515 6.03117C4.99254 6.03378 4.98955 6.03677 4.98694 6.03938C4.98443 6.04189 4.98242 6.04505 4.97991 6.04758C4.97731 6.05018 4.97432 6.05317 4.97171 6.05578C4.96919 6.0583 4.96603 6.06031 4.96351 6.06281C4.9609 6.06542 4.95791 6.06841 4.9553 6.07102C4.95279 6.07353 4.95078 6.07669 4.94827 6.07922C4.94567 6.08182 4.94268 6.08481 4.94007 6.08742C4.93756 6.08993 4.93438 6.09196 4.93187 6.09445C4.92935 6.09697 4.92734 6.10013 4.92483 6.10266C4.92223 6.10526 4.91924 6.10825 4.91663 6.11086C4.91412 6.11338 4.91095 6.11539 4.90843 6.11789C4.90583 6.12049 4.90283 6.12349 4.90023 6.12609C4.89771 6.12861 4.8957 6.13177 4.89319 6.1343C4.89059 6.1369 4.8876 6.13989 4.88499 6.1425C4.88248 6.14502 4.87931 6.14703 4.87679 6.14953C4.87428 6.15204 4.87226 6.15521 4.86976 6.15773C4.86716 6.16033 4.86416 6.16333 4.86155 6.16594C4.85904 6.16845 4.85588 6.17047 4.85335 6.17297C4.85075 6.17557 4.84775 6.17857 4.84515 6.18117C4.84263 6.18369 4.84062 6.18685 4.83812 6.18938C4.83552 6.19197 4.83251 6.19498 4.82991 6.19758C4.8274 6.20009 4.82423 6.20211 4.82171 6.20461C4.81919 6.20713 4.81718 6.21029 4.81468 6.21281C4.81208 6.21541 4.80907 6.21842 4.80648 6.22102C4.80396 6.22353 4.8008 6.22554 4.79827 6.22805C4.79568 6.23064 4.79267 6.23365 4.79007 6.23625C4.78756 6.23876 4.78553 6.24194 4.78304 6.24445C4.78052 6.24697 4.77736 6.24898 4.77483 6.25148C4.77224 6.25407 4.76923 6.25709 4.76663 6.25969C4.76412 6.2622 4.7621 6.26537 4.7596 6.26789C4.7571 6.27039 4.75391 6.27243 4.7514 6.27492C4.74881 6.27751 4.74579 6.28053 4.74319 6.28313C4.74068 6.28564 4.73867 6.2888 4.73616 6.29133C4.73358 6.29391 4.73055 6.29694 4.72796 6.29953C4.72547 6.30202 4.72225 6.30409 4.71976 6.30656C4.71724 6.30908 4.71523 6.31224 4.71273 6.31477C4.71014 6.31735 4.70711 6.32038 4.70452 6.32297C4.70204 6.32545 4.69881 6.32753 4.69632 6.33C4.6938 6.33252 4.69179 6.33568 4.68929 6.3382C4.6868 6.34069 4.68358 6.34276 4.68108 6.34523C4.67851 6.34781 4.67546 6.35086 4.67288 6.35344C4.67037 6.35595 4.66835 6.35911 4.66585 6.36164C4.66334 6.36415 4.66017 6.36617 4.65765 6.36867C4.65508 6.37124 4.65202 6.3743 4.64944 6.37688C4.64695 6.37936 4.64489 6.38258 4.64241 6.38508C4.6399 6.38759 4.63673 6.38961 4.63421 6.39211C4.63172 6.3946 4.62966 6.39781 4.62718 6.40031C4.62461 6.40288 4.62154 6.40595 4.61898 6.40852C4.61649 6.411 4.61327 6.41307 4.61077 6.41555C4.60826 6.41806 4.60624 6.42122 4.60374 6.42375C4.60124 6.42625 4.59805 6.42829 4.59554 6.43078C4.59308 6.43324 4.59096 6.43651 4.58851 6.43898C4.58595 6.44154 4.58286 6.44463 4.5803 6.44719C4.57781 6.44968 4.5746 6.45174 4.5721 6.45422C4.56958 6.45674 4.56757 6.4599 4.56507 6.46242C4.56256 6.46493 4.55939 6.46696 4.55687 6.46945C4.55439 6.47193 4.5523 6.47517 4.54983 6.47766C4.54729 6.4802 4.54418 6.48331 4.54163 6.48586C4.53919 6.4883 4.53588 6.49046 4.53343 6.49289C4.53096 6.49536 4.52885 6.49862 4.5264 6.50109C4.52391 6.50358 4.52069 6.50565 4.51819 6.50813C4.51569 6.51063 4.51366 6.51381 4.51116 6.51633C4.50865 6.51884 4.50548 6.52086 4.50296 6.52336C4.50045 6.52587 4.49843 6.52904 4.49593 6.53156C4.49343 6.53406 4.49023 6.53611 4.48773 6.53859C4.48524 6.54108 4.48317 6.5443 4.48069 6.5468C4.47822 6.54927 4.47498 6.55136 4.47249 6.55383C4.47002 6.5563 4.46792 6.55955 4.46546 6.56203C4.463 6.56449 4.45973 6.56661 4.45726 6.56906C4.4548 6.57152 4.45268 6.57479 4.45023 6.57727C4.44776 6.57973 4.4445 6.58185 4.44202 6.5843C4.43956 6.58676 4.43744 6.59002 4.43499 6.5925C4.43252 6.59497 4.42927 6.59707 4.42679 6.59953C4.42431 6.60201 4.42222 6.60525 4.41976 6.60773C4.41727 6.61022 4.41405 6.61229 4.41155 6.61477C4.40905 6.61727 4.40701 6.62046 4.40452 6.62297C4.40203 6.62546 4.39882 6.62752 4.39632 6.63C4.39385 6.63247 4.39175 6.63572 4.38929 6.6382C4.38684 6.64065 4.38354 6.6428 4.38108 6.64523C4.37866 6.64765 4.37647 6.651 4.37405 6.65344C4.37173 6.65576 4.36934 6.65815 4.36702 6.66047C4.36457 6.66292 4.36128 6.66506 4.35882 6.6675C4.35634 6.66998 4.35426 6.67321 4.35179 6.6757C4.34931 6.67818 4.34607 6.68027 4.34358 6.68273C4.34115 6.68517 4.33898 6.68849 4.33655 6.69094C4.33423 6.69326 4.33184 6.69565 4.32952 6.69797C4.32707 6.70042 4.32378 6.70256 4.32132 6.705C4.31885 6.70746 4.31674 6.71073 4.31429 6.7132C4.31197 6.71552 4.30958 6.71792 4.30726 6.72023C4.30484 6.72265 4.30148 6.72486 4.29905 6.72727C4.2966 6.72972 4.29447 6.733 4.29202 6.73547C4.28959 6.7379 4.28626 6.74008 4.28382 6.7425C4.2815 6.74482 4.27911 6.74721 4.27679 6.74953C4.27434 6.75198 4.27219 6.75528 4.26976 6.75773C4.26743 6.76006 4.26504 6.76245 4.26273 6.76477C4.2603 6.7672 4.25696 6.76938 4.25452 6.7718C4.25209 6.77423 4.24992 6.77755 4.24749 6.78C4.24517 6.78232 4.24278 6.78471 4.24046 6.78703C4.23803 6.78946 4.2347 6.79165 4.23226 6.79406C4.22993 6.79638 4.22754 6.79878 4.22523 6.80109C4.22281 6.80351 4.2206 6.80686 4.21819 6.8093C4.21587 6.81162 4.21348 6.81401 4.21116 6.81633C4.20875 6.81874 4.20539 6.82096 4.20296 6.82336C4.20064 6.82568 4.19825 6.82807 4.19593 6.83039C4.19352 6.83279 4.19129 6.83618 4.1889 6.83859L4.17483 6.85266C4.17244 6.85505 4.16904 6.8573 4.16663 6.85969L4.15257 6.87375C4.15019 6.87613 4.14791 6.87956 4.14554 6.88195L4.12444 6.90305C4.12208 6.90541 4.11862 6.90772 4.11624 6.91008L4.08108 6.94523C4.07875 6.94757 4.07639 6.95108 4.07405 6.95344L4.03187 6.99563C4.02974 6.99775 4.02697 6.99937 4.02483 7.00148L3.98968 7.03664C3.98755 7.03877 3.98593 7.04154 3.98382 7.04367L3.96273 7.06477C3.9606 7.06689 3.95783 7.06852 3.95569 7.07063C3.95344 7.07288 3.95091 7.0754 3.94866 7.07766C3.94654 7.07978 3.94491 7.08255 3.9428 7.08469L3.92874 7.09875C3.92661 7.10088 3.92384 7.1025 3.92171 7.10461C3.91948 7.10684 3.91691 7.10941 3.91468 7.11164C3.91255 7.11377 3.91093 7.11654 3.90882 7.11867C3.9066 7.12089 3.90401 7.12349 3.90179 7.1257C3.89966 7.12783 3.89689 7.12945 3.89476 7.13156C3.89264 7.13368 3.891 7.13646 3.8889 7.13859C3.8867 7.14079 3.88407 7.14342 3.88187 7.14563C3.87974 7.14775 3.87697 7.14937 3.87483 7.15148C3.87273 7.15358 3.87106 7.15641 3.86898 7.15852C3.86679 7.1607 3.86413 7.16336 3.86194 7.16555C3.85982 7.16767 3.85705 7.1693 3.85491 7.17141C3.85279 7.17353 3.85116 7.1763 3.84905 7.17844C3.84697 7.18052 3.84412 7.18223 3.84202 7.1843C3.83986 7.18646 3.83716 7.18916 3.83499 7.19133C3.83292 7.1934 3.83119 7.19627 3.82913 7.19836C3.82704 7.20046 3.82421 7.20214 3.8221 7.20422C3.81999 7.20633 3.81834 7.20913 3.81624 7.21125C3.81412 7.21337 3.81134 7.21501 3.80921 7.21711C3.80708 7.21923 3.80546 7.22201 3.80335 7.22414C3.80123 7.22626 3.79845 7.2279 3.79632 7.23C3.7942 7.23212 3.79256 7.23491 3.79046 7.23703C3.78836 7.23913 3.78554 7.24081 3.78343 7.24289C3.78135 7.24497 3.77963 7.24783 3.77757 7.24992C3.77551 7.25198 3.7726 7.25374 3.77054 7.25578C3.76852 7.2578 3.76669 7.26078 3.76468 7.26281C3.76275 7.26474 3.76075 7.26674 3.75882 7.26867C3.75674 7.27075 3.75388 7.27247 3.75179 7.27453C3.74971 7.27661 3.74799 7.27948 3.74593 7.28156C3.744 7.28349 3.742 7.28549 3.74007 7.28742C3.73803 7.28946 3.73509 7.29126 3.73304 7.29328C3.73098 7.29534 3.72922 7.29824 3.72718 7.30031C3.72525 7.30224 3.72325 7.30425 3.72132 7.30617C3.71927 7.30822 3.71635 7.31 3.71429 7.31203C3.71225 7.31406 3.71045 7.31702 3.70843 7.31906L3.69671 7.33078C3.69469 7.3328 3.69171 7.33463 3.68968 7.33664C3.68775 7.33857 3.68575 7.34057 3.68382 7.3425C3.68181 7.34451 3.67995 7.34751 3.67796 7.34953L3.66624 7.36125C3.66426 7.36324 3.66121 7.36513 3.65921 7.36711L3.63577 7.39055C3.63382 7.3925 3.63186 7.39561 3.62991 7.39758L3.60648 7.42102C3.60474 7.42275 3.60236 7.42399 3.60062 7.4257L3.57718 7.44914C3.57544 7.45088 3.57421 7.45325 3.57249 7.455L3.56077 7.46672C3.55903 7.46846 3.55666 7.46969 3.55491 7.47141C3.55306 7.47326 3.5509 7.47542 3.54905 7.47727C3.54732 7.479 3.54608 7.48138 3.54437 7.48313C3.54253 7.48496 3.54034 7.48715 3.53851 7.48898C3.53677 7.49072 3.53439 7.49196 3.53265 7.49367C3.53083 7.49549 3.52861 7.49771 3.52679 7.49953C3.52505 7.50127 3.52382 7.50364 3.5221 7.50539C3.5203 7.5072 3.51805 7.50944 3.51624 7.51125C3.51452 7.51297 3.51211 7.51424 3.51038 7.51594C3.50864 7.51768 3.50741 7.52005 3.50569 7.5218C3.50399 7.5235 3.50155 7.5248 3.49983 7.52648C3.49806 7.52826 3.49575 7.53057 3.49398 7.53234C3.49229 7.53403 3.49095 7.53651 3.48929 7.5382C3.48759 7.5399 3.48514 7.54121 3.48343 7.54289C3.48171 7.5446 3.48043 7.54703 3.47874 7.54875C3.47702 7.55047 3.47461 7.55174 3.47288 7.55344C3.47117 7.55515 3.46989 7.55757 3.46819 7.5593C3.46649 7.561 3.46405 7.5623 3.46233 7.56398C3.46065 7.56567 3.45931 7.56815 3.45765 7.56984C3.45599 7.5715 3.45346 7.5729 3.45179 7.57453C3.45025 7.57607 3.44864 7.57768 3.4471 7.57922C3.44544 7.58088 3.44406 7.5834 3.44241 7.58508C3.44073 7.58676 3.43825 7.5881 3.43655 7.58977C3.4349 7.59142 3.4335 7.59396 3.43187 7.59563C3.43032 7.59717 3.42871 7.59878 3.42718 7.60031C3.42552 7.60197 3.42299 7.60336 3.42132 7.605C3.41978 7.60654 3.41817 7.60815 3.41663 7.60969C3.41499 7.61133 3.41357 7.61389 3.41194 7.61555C3.4104 7.61709 3.40879 7.6187 3.40726 7.62023C3.40563 7.62186 3.40304 7.62331 3.4014 7.62492C3.39985 7.62647 3.39824 7.62807 3.39671 7.62961C3.3951 7.63122 3.39362 7.63384 3.39202 7.63547L3.37327 7.65422C3.37171 7.65579 3.369 7.65735 3.36741 7.65891L3.34866 7.67766C3.34732 7.679 3.34647 7.68098 3.34515 7.68234L3.3264 7.70109C3.32505 7.70244 3.32307 7.70329 3.32171 7.70461C3.32024 7.70608 3.31849 7.70783 3.31702 7.7093C3.31567 7.71065 3.31483 7.71263 3.31351 7.71398C3.31206 7.71543 3.31027 7.71722 3.30882 7.71867C3.30747 7.72002 3.30549 7.72087 3.30413 7.72219C3.3027 7.72362 3.30088 7.72544 3.29944 7.72688C3.2981 7.72822 3.29725 7.7302 3.29593 7.73156C3.29452 7.73298 3.29266 7.73483 3.29124 7.73625C3.28993 7.73756 3.28788 7.73848 3.28655 7.73977C3.28521 7.74111 3.28436 7.74309 3.28304 7.74445C3.2817 7.74579 3.2797 7.74666 3.27835 7.74797C3.27704 7.74928 3.27612 7.75133 3.27483 7.75266C3.27355 7.75394 3.27145 7.75491 3.27015 7.75617C3.26888 7.75744 3.26788 7.75957 3.26663 7.76086C3.26537 7.76212 3.26322 7.76314 3.26194 7.76438C3.26068 7.76564 3.25967 7.76778 3.25843 7.76906C3.25716 7.77034 3.25503 7.77133 3.25374 7.77258C3.25244 7.77388 3.2515 7.77595 3.25023 7.77727C3.24892 7.77857 3.24686 7.7795 3.24554 7.78078C3.24426 7.78206 3.24328 7.78418 3.24202 7.78547C3.24087 7.78662 3.23965 7.78784 3.23851 7.78898C3.23723 7.79026 3.23511 7.79125 3.23382 7.7925C3.23256 7.79376 3.23154 7.79591 3.2303 7.79719L3.22327 7.80422C3.22204 7.80546 3.21985 7.80652 3.21858 7.80773C3.21743 7.80889 3.21621 7.81011 3.21507 7.81125C3.21385 7.81247 3.21275 7.81469 3.21155 7.81594L3.17288 7.85461C3.17193 7.85557 3.17034 7.85603 3.16937 7.85695L3.16233 7.86398C3.16138 7.86494 3.16091 7.86652 3.15999 7.8675C3.15894 7.86855 3.15753 7.86996 3.15648 7.87102C3.15552 7.87197 3.15394 7.87244 3.15296 7.87336C3.15201 7.87431 3.15153 7.87591 3.15062 7.87688C3.1496 7.87789 3.14813 7.87937 3.1471 7.88039C3.14615 7.88134 3.14455 7.88182 3.14358 7.88273C3.14263 7.88369 3.14216 7.88528 3.14124 7.88625C3.14032 7.88718 3.13868 7.8877 3.13773 7.88859C3.13682 7.88949 3.13625 7.89118 3.13538 7.89211C3.1345 7.89299 3.13278 7.8936 3.13187 7.89445C3.13098 7.89534 3.13038 7.89706 3.12952 7.89797C3.12864 7.89886 3.12692 7.89945 3.12601 7.90031C3.1251 7.90122 3.12454 7.9029 3.12366 7.90383C3.12275 7.90475 3.12109 7.90529 3.12015 7.90617C3.11926 7.90706 3.11867 7.90877 3.1178 7.90969L3.11546 7.91203C3.11458 7.91292 3.11286 7.91352 3.11194 7.91438C3.11108 7.91524 3.11044 7.91699 3.1096 7.91789L3.10491 7.92258L3.1014 7.92492L3.09905 7.92727L3.09671 7.93078L3.07796 7.94953L3.07562 7.9507L3.07327 7.95305L3.0721 7.95539L3.06741 7.96008L3.06507 7.96125L3.0639 7.96359L3.06155 7.96594L3.05921 7.96711L3.05804 7.96945L3.05569 7.97063L3.05452 7.97297L3.05218 7.97414L3.05101 7.97648L3.04866 7.97766L3.04749 7.98L3.04515 7.98117L3.04398 7.98234L3.0428 7.98469L3.04163 7.98586L3.03929 7.98703L3.03812 7.9882L3.03694 7.99055L3.02523 8.00227L3.02288 8.00344L3.02171 8.00578L3.01351 8.01398C2.66223 8.36547 2.6621 8.93523 3.01351 9.28664C3.365 9.63783 3.93478 9.63685 4.28616 9.28547L4.28733 9.2843L4.29319 9.27961L4.31077 9.26203L4.31194 9.25969L4.31429 9.25852L4.32015 9.25266L4.32132 9.25031L4.32366 9.24914L4.32718 9.24563L4.32835 9.24328L4.33069 9.24211L4.33187 9.23977L4.33421 9.23859L4.33655 9.23625L4.33773 9.23391L4.34007 9.23273L4.34476 9.22805L4.34593 9.2257L4.34827 9.22453L4.36937 9.20344L4.37171 9.19992L4.37405 9.19758L4.37757 9.19523L4.38226 9.19055C4.3831 9.18965 4.38373 9.1879 4.3846 9.18703C4.38551 9.18618 4.38723 9.18557 4.38812 9.18469L4.39046 9.18234C4.39132 9.18143 4.39191 9.17972 4.3928 9.17883C4.39375 9.17794 4.3954 9.1774 4.39632 9.17648L4.4139 9.15891C4.41482 9.15793 4.41528 9.15635 4.41624 9.15539C4.41721 9.15448 4.41881 9.154 4.41976 9.15305C4.42078 9.15202 4.42225 9.15055 4.42327 9.14953C4.42419 9.14857 4.42467 9.14696 4.42562 9.14602C4.42659 9.1451 4.42817 9.14463 4.42913 9.14367L4.43616 9.13664C4.43707 9.13568 4.43756 9.13407 4.43851 9.13313C4.43948 9.1322 4.44107 9.13174 4.44202 9.13078L4.48773 9.08508C4.48893 9.08383 4.49002 9.08161 4.49124 9.08039C4.4925 9.07917 4.49469 9.07811 4.49593 9.07688L4.50296 9.06984C4.50419 9.06857 4.50522 9.06641 4.50648 9.06516C4.50777 9.0639 4.50989 9.06292 4.51116 9.06164C4.51231 9.0605 4.51353 9.05928 4.51468 9.05813C4.51593 9.05683 4.51692 9.05471 4.51819 9.05344C4.51952 9.05216 4.52158 9.05123 4.52288 9.04992L4.54749 9.02531C4.54877 9.02399 4.5497 9.02193 4.55101 9.02063C4.55236 9.01931 4.55435 9.01845 4.55569 9.01711C4.55701 9.01575 4.55786 9.01377 4.55921 9.01242C4.56053 9.01114 4.56259 9.01021 4.5639 9.00891C4.56531 9.00749 4.56717 9.00563 4.56858 9.00422C4.56991 9.00286 4.57075 9.00088 4.5721 8.99953C4.57343 8.99824 4.57548 8.99733 4.57679 8.99602L4.58616 8.98664C4.58748 8.98528 4.58833 8.9833 4.58968 8.98195C4.59101 8.98066 4.59305 8.97975 4.59437 8.97844L4.66468 8.90813C4.66627 8.9065 4.66776 8.90388 4.66937 8.90227C4.6709 8.90073 4.67251 8.89912 4.67405 8.89758C4.6757 8.89597 4.67829 8.89452 4.67991 8.89289L4.68929 8.88352C4.69089 8.88188 4.69236 8.87927 4.69398 8.87766C4.69565 8.87601 4.69817 8.87463 4.69983 8.87297C4.70137 8.87143 4.70298 8.86982 4.70452 8.86828C4.70616 8.86661 4.70756 8.86408 4.70921 8.86242C4.71091 8.86076 4.71338 8.85942 4.71507 8.85773L4.7303 8.8425C4.73197 8.84081 4.73331 8.83832 4.73499 8.83664C4.7367 8.83496 4.73915 8.83365 4.74085 8.83195C4.74254 8.83023 4.74382 8.82781 4.74554 8.82609C4.74726 8.8244 4.74968 8.82312 4.7514 8.82141C4.75309 8.81968 4.75437 8.81726 4.75608 8.81555C4.7578 8.81387 4.76024 8.81256 4.76194 8.81086L4.77835 8.79445C4.78007 8.79271 4.7813 8.79033 4.78304 8.78859C4.78477 8.7869 4.78718 8.78562 4.7889 8.78391C4.7907 8.7821 4.79295 8.77985 4.79476 8.77805C4.79647 8.7763 4.79771 8.77393 4.79944 8.77219C4.80117 8.7705 4.80359 8.76921 4.8053 8.7675L4.81702 8.75578C4.81874 8.75404 4.81997 8.75166 4.82171 8.74992C4.82345 8.74822 4.82584 8.74696 4.82757 8.74523L4.85101 8.7218C4.85272 8.72005 4.85396 8.71768 4.85569 8.71594C4.85758 8.71405 4.85966 8.71197 4.86155 8.71008C4.8633 8.70836 4.86568 8.70713 4.86741 8.70539L4.91429 8.65852C4.91624 8.65653 4.91818 8.65345 4.92015 8.65148C4.92207 8.64956 4.92407 8.64756 4.92601 8.64563C4.928 8.64366 4.93106 8.64174 4.93304 8.63977L4.95648 8.61633C4.95847 8.61431 4.96033 8.6113 4.96233 8.6093C4.96437 8.60729 4.96735 8.60546 4.96937 8.60344L4.98108 8.59172C4.98311 8.58967 4.98491 8.58672 4.98694 8.58469C4.989 8.58266 4.99193 8.58087 4.99398 8.57883C4.9959 8.5769 4.9979 8.5749 4.99983 8.57297C5.00188 8.5709 5.00364 8.568 5.00569 8.56594C5.00774 8.56392 5.01069 8.56211 5.01273 8.56008C5.01465 8.55815 5.01665 8.55615 5.01858 8.55422C5.02065 8.55213 5.02237 8.54926 5.02444 8.54719C5.02653 8.54513 5.0294 8.54341 5.03148 8.54133L5.05023 8.52258C5.05229 8.52049 5.054 8.51763 5.05608 8.51555C5.05819 8.51346 5.06101 8.51179 5.06312 8.50969C5.06521 8.50756 5.06686 8.50477 5.06898 8.50266C5.07111 8.50055 5.07388 8.49892 5.07601 8.4968C5.07811 8.49466 5.07974 8.49189 5.08187 8.48977C5.08399 8.48766 5.08678 8.48603 5.0889 8.48391C5.09099 8.48179 5.09264 8.47899 5.09476 8.47688C5.09686 8.47479 5.09969 8.47311 5.10179 8.47102L5.12171 8.45109C5.12382 8.44896 5.12544 8.44619 5.12757 8.44406C5.1297 8.44195 5.13247 8.44033 5.1346 8.4382C5.13679 8.43602 5.13945 8.43335 5.14163 8.43117C5.14372 8.42906 5.14539 8.42624 5.14749 8.42414C5.14963 8.42203 5.1524 8.42041 5.15452 8.41828L5.16155 8.41125C5.16366 8.40912 5.16529 8.40634 5.16741 8.40422C5.16955 8.40211 5.17232 8.40049 5.17444 8.39836L5.18851 8.3843C5.19059 8.38219 5.19227 8.37936 5.19437 8.37727C5.1965 8.37516 5.19927 8.37353 5.2014 8.37141L5.21546 8.35734C5.21757 8.35521 5.21919 8.35244 5.22132 8.35031C5.22343 8.34823 5.22625 8.34655 5.22835 8.34445L5.26351 8.3093C5.26562 8.30716 5.26724 8.30439 5.26937 8.30227L5.28343 8.2882C5.28556 8.28609 5.28833 8.28447 5.29046 8.28234L5.36077 8.21203C5.36311 8.20967 5.36546 8.20618 5.3678 8.20383L5.38187 8.18977C5.38424 8.18741 5.38771 8.18509 5.39007 8.18273L5.42523 8.14758C5.4276 8.14518 5.42987 8.14176 5.43226 8.13938C5.43466 8.137 5.43808 8.13473 5.44046 8.13234L5.46155 8.11125C5.46395 8.10883 5.46618 8.10545 5.46858 8.10305C5.47099 8.10067 5.4744 8.0984 5.47679 8.09602L5.52015 8.05266C5.52257 8.05021 5.52474 8.04689 5.52718 8.04445C5.52962 8.04203 5.53295 8.03985 5.53538 8.03742C5.5377 8.0351 5.54009 8.03271 5.54241 8.03039C5.54485 8.02793 5.547 8.02463 5.54944 8.02219C5.55187 8.01979 5.55524 8.01756 5.55765 8.01516C5.55997 8.01284 5.56236 8.01045 5.56468 8.00813C5.56712 8.00566 5.56925 8.00238 5.57171 7.99992C5.57414 7.99751 5.5775 7.99531 5.57991 7.99289C5.58223 7.99057 5.58462 7.98818 5.58694 7.98586C5.5894 7.98338 5.59151 7.98012 5.59398 7.97766C5.59644 7.97521 5.59973 7.97308 5.60218 7.97063L5.62444 7.94836C5.62691 7.94587 5.62899 7.94264 5.63148 7.94016C5.63394 7.93772 5.63723 7.93557 5.63968 7.93313L5.66194 7.91086C5.66441 7.90838 5.6665 7.90513 5.66898 7.90266C5.67148 7.90017 5.67468 7.89812 5.67718 7.89563C5.67967 7.89312 5.68171 7.88992 5.68421 7.88742C5.68671 7.88495 5.68992 7.88288 5.69241 7.88039C5.69488 7.8779 5.69697 7.87467 5.69944 7.87219C5.70192 7.86973 5.70518 7.86763 5.70765 7.86516L5.74983 7.82297V18.6499C5.74984 19.147 6.15278 19.5499 6.64983 19.5499Z" fill="#0D1625"/>
<path d="M16.7994 7.8007C17.2963 7.8007 17.699 7.39742 17.6994 6.9007C17.6994 6.40365 17.2965 6.0007 16.7994 6.0007H13.1994C12.7027 6.00102 12.2994 6.40384 12.2994 6.9007C12.2998 7.39723 12.7029 7.80039 13.1994 7.8007H16.7994Z" fill="#0D1625"/>
<path d="M17.9994 11.4007C18.4963 11.4007 18.899 10.9974 18.8994 10.5007C18.8994 10.0036 18.4965 9.6007 17.9994 9.6007H13.1994C12.7027 9.60101 12.2994 10.0038 12.2994 10.5007C12.2998 10.9972 12.7029 11.4004 13.1994 11.4007H17.9994Z" fill="#0D1625"/>
<path d="M19.1994 15.0007C19.6963 15.0007 20.099 14.5974 20.0994 14.1007C20.0994 13.6036 19.6965 13.2007 19.1994 13.2007H13.1994C12.7027 13.201 12.2994 13.6038 12.2994 14.1007C12.2998 14.5972 12.7029 15.0004 13.1994 15.0007H19.1994Z" fill="#0D1625"/>
<path d="M20.3994 18.6007C20.8963 18.6007 21.299 18.1974 21.2994 17.7007C21.2994 17.2036 20.8965 16.8007 20.3994 16.8007H13.1994C12.7027 16.801 12.2994 17.2038 12.2994 17.7007C12.2998 18.1972 12.7029 18.6004 13.1994 18.6007H20.3994Z" fill="#0D1625"/>
</svg>
