<svg width="24" height="24" viewBox="0 0 24 24" fill="none" xmlns="http://www.w3.org/2000/svg">
<path d="M16.7505 8.99996C16.7505 8.5029 17.1534 8.09996 17.6505 8.09996C18.1474 8.10016 18.5505 8.50303 18.5505 8.99996V15C18.5505 15.4969 18.1474 15.8998 17.6505 15.9C17.1534 15.9 16.7505 15.497 16.7505 15V8.99996Z" fill="#0D1625"/>
<path d="M13.7505 7.00074C13.7505 6.50368 14.1534 6.10074 14.6505 6.10074C15.1474 6.10093 15.5505 6.5038 15.5505 7.00074V17.0003C15.5502 17.4971 15.1472 17.9002 14.6505 17.9003C14.1536 17.9003 13.7507 17.4972 13.7505 17.0003V7.00074Z" fill="#0D1625"/>
<path d="M10.7505 4.99918C10.7509 4.50246 11.1537 4.09918 11.6505 4.09918C12.1472 4.09935 12.5501 4.50256 12.5505 4.99918V18.9996C12.5505 19.4965 12.1474 19.8994 11.6505 19.8996C11.1534 19.8996 10.7505 19.4966 10.7505 18.9996V4.99918Z" fill="#0D1625"/>
<path d="M7.75049 7.00074C7.75049 6.50368 8.15343 6.10074 8.65049 6.10074C9.14737 6.10094 9.55049 6.50381 9.55049 7.00074V17.0003C9.55026 17.4971 9.14723 17.9001 8.65049 17.9003C8.15358 17.9003 7.75072 17.4972 7.75049 17.0003V7.00074Z" fill="#0D1625"/>
<path d="M4.75049 8.99996C4.75049 8.5029 5.15343 8.09996 5.65049 8.09996C6.14739 8.10014 6.55049 8.50302 6.55049 8.99996L6.55049 15C6.55047 15.4969 6.14738 15.8998 5.65049 15.9C5.15344 15.9 4.75051 15.497 4.75049 15L4.75049 8.99996Z" fill="#0D1625"/>
</svg>
