<svg width="24" height="24" viewBox="0 0 24 24" fill="none" xmlns="http://www.w3.org/2000/svg">
<path d="M5.06455 11.6022L19.0638 12.6018C19.5595 12.6372 19.9334 13.0682 19.8981 13.5639C19.8627 14.0597 19.4318 14.4325 18.936 14.3971L12.8997 13.9658V18.1002H14.0001C14.497 18.1003 14.9001 18.5032 14.9001 19.0002C14.9 19.4971 14.497 19.9001 14.0001 19.9002H10.0005C9.50349 19.9002 9.10059 19.4972 9.10049 19.0002C9.10049 18.5032 9.50343 18.1002 10.0005 18.1002H11.0997V13.8369L4.93564 13.3975C4.44009 13.3618 4.06704 12.931 4.10244 12.4354C4.1381 11.9399 4.56898 11.5668 5.06455 11.6022ZM17.0001 4.09982C18.8776 4.09995 20.4006 5.62201 20.4009 7.49943C20.4009 9.37712 18.8778 10.9001 17.0001 10.9002C15.1225 10.9 13.6005 9.37707 13.6005 7.49943C13.6008 5.62206 15.1227 4.10003 17.0001 4.09982ZM7.49971 3.10021C9.37735 3.10021 10.9003 4.62223 10.9005 6.49982C10.9004 8.37749 9.3774 9.9006 7.49971 9.9006C5.62225 9.90032 4.10022 8.37731 4.1001 6.49982C4.10031 4.62241 5.62231 3.1005 7.49971 3.10021ZM7.49971 4.90021C6.61642 4.9005 5.90031 5.61652 5.9001 6.49982C5.90022 7.3832 6.61637 8.10032 7.49971 8.1006C8.38329 8.1006 9.10037 7.38338 9.10049 6.49982C9.10028 5.61635 8.38323 4.90021 7.49971 4.90021Z" fill="#0D1625"/>
</svg>
