<svg width="24" height="24" viewBox="0 0 24 24" fill="none" xmlns="http://www.w3.org/2000/svg">
<path d="M11.5383 2.18812C11.8408 2.11248 12.158 2.11248 12.4605 2.18812L19.4602 3.93772C20.3059 4.1492 20.8992 4.90926 20.8992 5.78108V8.00061C20.8989 9.04967 20.0487 9.90021 18.9996 9.90022H18.9V15.0998H18.9996C20.0488 15.0998 20.8989 15.9503 20.8992 16.9994V18.9998C20.8992 20.0492 20.0489 20.8994 18.9996 20.8994H4.99922C3.95006 20.8992 3.09961 20.049 3.09961 18.9998V16.9994C3.09988 15.9505 3.95023 15.1 4.99922 15.0998H5.1V9.90022H4.99922C3.95026 9.90001 3.09994 9.04955 3.09961 8.00061V5.78108C3.09961 4.90928 3.69293 4.14923 4.53867 3.93772L11.5383 2.18812ZM4.99922 16.8998C4.94434 16.9 4.89988 16.9446 4.89961 16.9994V18.9998C4.89961 19.0549 4.94417 19.0992 4.99922 19.0994H18.9996C19.0548 19.0994 19.0992 19.0551 19.0992 18.9998V16.9994C19.0989 16.9445 19.0547 16.8998 18.9996 16.8998H4.99922ZM10.8996 15.0998H13.0992V9.90022H10.8996V15.0998ZM14.8992 15.0998H17.1V9.90022H14.8992V15.0998ZM6.9 15.0998H9.09961V9.90022H6.9V15.0998ZM4.97578 5.68382C4.93128 5.69496 4.89961 5.73521 4.89961 5.78108V8.00061C4.89994 8.05543 4.94437 8.10002 4.99922 8.10022H18.9996C19.0546 8.10021 19.0989 8.05556 19.0992 8.00061V5.78108C19.0992 5.73532 19.0685 5.69508 19.0242 5.68382L12.0234 3.93421C12.0076 3.93031 11.9912 3.93026 11.9754 3.93421L4.97578 5.68382Z" fill="#0D1625"/>
</svg>
