<svg width="24" height="24" viewBox="0 0 24 24" fill="none" xmlns="http://www.w3.org/2000/svg">
<path d="M17.2705 4.82461C19.4243 4.82467 21.1705 6.57073 21.1705 8.72461V15.2766C21.1701 17.4301 19.4241 19.1765 17.2705 19.1766H6.72947C4.57579 19.1766 2.82985 17.4301 2.82947 15.2766V8.72461C2.82947 6.5707 4.57556 4.82461 6.72947 4.82461H17.2705ZM6.72947 6.62461C5.56967 6.62461 4.62947 7.56481 4.62947 8.72461V15.2766C4.62985 16.436 5.5699 17.3766 6.72947 17.3766H17.2705C18.43 17.3765 19.3701 16.436 19.3705 15.2766V8.72461C19.3705 7.56485 18.4302 6.62467 17.2705 6.62461H6.72947ZM7.99978 11.8125C8.49684 11.8125 8.89978 12.2154 8.89978 12.7125V15.252C8.89953 15.7488 8.49668 16.152 7.99978 16.152C7.50299 16.1518 7.10003 15.7487 7.09978 15.252V12.7125C7.09978 12.2155 7.50283 11.8126 7.99978 11.8125ZM12.0006 7.85508C12.4973 7.85537 12.9005 8.25828 12.9006 8.75508V15.2426C12.9004 15.7393 12.4973 16.1423 12.0006 16.1426C11.5036 16.1426 11.1008 15.7395 11.1006 15.2426V8.75508C11.1007 8.2581 11.5036 7.85508 12.0006 7.85508ZM16.0002 9.88125C16.497 9.88133 16.8999 10.2844 16.9002 10.7812V15.2426C16.9002 15.7396 16.4972 16.1425 16.0002 16.1426C15.5031 16.1426 15.1002 15.7396 15.1002 15.2426V10.7812C15.1004 10.2844 15.5033 9.88125 16.0002 9.88125Z" fill="#0D1625"/>
</svg>
