<svg width="24" height="24" viewBox="0 0 24 24" fill="none" xmlns="http://www.w3.org/2000/svg">
<path d="M13.5652 17.8996C13.8965 17.5295 14.4651 17.4983 14.8355 17.8293C15.2057 18.1607 15.238 18.7292 14.907 19.0996C14.1941 19.8961 13.1547 20.3992 11.9995 20.3992C10.8446 20.3991 9.80603 19.8959 9.09329 19.0996C8.76213 18.7292 8.79337 18.1607 9.1636 17.8293C9.53385 17.498 10.1024 17.5296 10.4339 17.8996C10.8196 18.3306 11.3778 18.5991 11.9995 18.5992C12.6213 18.5992 13.1794 18.3306 13.5652 17.8996ZM11.9995 3.6004C15.258 3.6004 17.8999 6.24231 17.8999 9.50079V10.1277L18.6042 10.832C19.4776 11.7057 19.7823 12.9976 19.3917 14.1695C18.9476 15.5012 17.7017 16.4006 16.298 16.4008H7.70227C6.29845 16.4006 5.0514 15.5013 4.60735 14.1695C4.21691 12.9977 4.52273 11.7056 5.39602 10.832L6.10032 10.1266V9.50079C6.10032 6.24253 8.74136 3.60076 11.9995 3.6004ZM11.9995 5.4004C9.73547 5.40076 7.90032 7.23664 7.90032 9.50079V10.2262C7.90021 10.6401 7.73482 11.0374 7.44212 11.3301L6.66868 12.1047C6.27737 12.4963 6.14088 13.076 6.31594 13.6012C6.51516 14.1976 7.07343 14.6006 7.70227 14.6008H16.298C16.9267 14.6006 17.4851 14.1975 17.6843 13.6012C17.8594 13.0759 17.7229 12.4963 17.3316 12.1047L16.557 11.3301C16.2645 11.0374 16.1 10.64 16.0999 10.2262V9.50079C16.0999 7.23642 14.2639 5.4004 11.9995 5.4004Z" fill="#0D1625"/>
</svg>
