<svg width="24" height="24" viewBox="0 0 24 24" fill="none" xmlns="http://www.w3.org/2000/svg">
<path d="M12.0005 2.6C12.4974 2.60021 12.9005 3.00308 12.9005 3.5V4.1H19.9997C20.4968 4.1 20.8997 4.50295 20.8997 5C20.8997 5.49706 20.4968 5.9 19.9997 5.9H19.9001V11.9996C19.9001 14.1534 18.1538 15.8994 16.0001 15.8996H14.172L17.636 19.3637C17.9873 19.7152 17.9874 20.2849 17.636 20.6363C17.2846 20.9875 16.7148 20.9875 16.3634 20.6363L12.9005 17.1734V20C12.9003 20.4967 12.4972 20.8998 12.0005 20.9C11.5036 20.9 11.1007 20.4969 11.1005 20V17.1723L7.63643 20.6363C7.285 20.9875 6.71519 20.9875 6.36377 20.6363C6.01258 20.2849 6.01257 19.7151 6.36377 19.3637L9.82783 15.8996H7.99971C5.84598 15.8994 4.09971 14.1534 4.09971 11.9996V5.9H4.0001C3.50304 5.9 3.1001 5.49706 3.1001 5C3.1001 4.50295 3.50305 4.1 4.0001 4.1H11.1005V3.5C11.1005 3.00295 11.5034 2.6 12.0005 2.6ZM5.89971 11.9996C5.89971 13.1593 6.84009 14.0994 7.99971 14.0996H16.0001C17.1597 14.0994 18.1001 13.1593 18.1001 11.9996V5.9H5.89971V11.9996ZM14.8646 8.36328C15.2161 8.01241 15.7859 8.01201 16.1372 8.36328C16.4883 8.71457 16.488 9.28448 16.1372 9.63594L13.6364 12.1355C13.285 12.487 12.7152 12.487 12.3638 12.1355L10.9997 10.7715L9.63682 12.1355C9.28534 12.487 8.71563 12.487 8.36416 12.1355C8.01289 11.7841 8.01276 11.2143 8.36416 10.8629L10.3646 8.86367L10.4325 8.80156C10.786 8.5136 11.3078 8.5343 11.6372 8.86367L13.0001 10.2266L14.8646 8.36328Z" fill="#0D1625"/>
</svg>
