<svg width="24" height="24" viewBox="0 0 24 24" fill="none" xmlns="http://www.w3.org/2000/svg">
<path d="M12.4992 4.59961C14.653 4.59961 16.399 6.34588 16.3992 8.49961C16.3992 9.30963 16.1516 10.0617 15.7289 10.6852C17.7972 11.0836 19.4002 12.8351 19.4004 15C19.4002 17.4134 17.408 19.3116 15 19.3957V19.3992H9C7.39868 19.399 6.09982 18.1013 6.09961 16.5V7.5C6.09982 5.89868 7.39868 4.59981 9 4.59961H12.4992ZM7.89961 16.5C7.89982 17.1072 8.39279 17.599 9 17.5992H14.8336C16.4012 17.5991 17.6002 16.3967 17.6004 15C17.6002 13.6033 16.4012 12.3997 14.8336 12.3996H7.89961V16.5ZM9 6.39961C8.39279 6.39981 7.89982 6.89279 7.89961 7.5V10.5996H12.4992C13.659 10.5996 14.5992 9.65941 14.5992 8.49961C14.599 7.33999 13.6589 6.39961 12.4992 6.39961H9Z" fill="#0D1625"/>
</svg>
