<svg width="24" height="24" viewBox="0 0 24 24" fill="none" xmlns="http://www.w3.org/2000/svg">
<path d="M16.1881 5.09856C17.7517 5.09941 19.1944 5.70315 20.5627 6.79778C20.7759 6.96858 20.9002 7.22769 20.9002 7.50091V16.9193C20.9 17.7354 20.4055 18.3401 19.8303 18.649C19.2652 18.9523 18.5384 19.0251 17.8814 18.7497C16.3168 18.0933 14.6365 18.3204 12.5002 19.7482C12.1977 19.9503 11.8032 19.9502 11.5006 19.7482C9.36438 18.3205 7.68394 18.0935 6.11934 18.7497C5.46243 19.0252 4.73565 18.9522 4.17051 18.649C3.59527 18.3401 3.10075 17.7355 3.10059 16.9193V7.50091C3.10059 7.2276 3.22473 6.96858 3.43809 6.79778C4.80649 5.70307 6.24899 5.0993 7.8127 5.09856C9.19914 5.09801 10.5842 5.57321 11.9998 6.4345C13.4158 5.57281 14.8013 5.09801 16.1881 5.09856ZM7.81387 6.89856C6.85839 6.89902 5.90683 7.22463 4.90059 7.94974V16.9193C4.90065 16.9416 4.90624 17.001 5.02246 17.0634C5.14916 17.131 5.30752 17.1388 5.42324 17.0904C7.28229 16.3105 9.15675 16.4795 11.101 17.4372V7.99544C9.86153 7.23465 8.78659 6.89828 7.81387 6.89856ZM16.1881 6.89856C15.2155 6.8981 14.1402 7.23381 12.901 7.99427V17.4372C14.845 16.4798 16.7187 16.3106 18.5775 17.0904C18.6935 17.1388 18.8527 17.1315 18.9795 17.0634C19.0955 17.0011 19.1001 16.9416 19.1002 16.9193V7.94974C18.0943 7.22493 17.1432 6.8992 16.1881 6.89856Z" fill="#0D1625"/>
</svg>
