<svg width="24" height="24" viewBox="0 0 24 24" fill="none" xmlns="http://www.w3.org/2000/svg">
<path d="M15.0004 3.09998C17.1541 3.10019 18.9008 4.84659 18.9008 7.00037V17.7982C18.9001 19.8322 16.5272 20.9434 14.9642 19.642L12.7045 17.7592C12.2966 17.4192 11.7042 17.4193 11.2963 17.7592L9.0365 19.642C7.47351 20.9439 5.10059 19.8324 5.09998 17.7982V7.00037C5.09998 4.84646 6.84646 3.09998 9.00037 3.09998H15.0004ZM9.00037 4.90076C7.84057 4.90076 6.90076 5.84058 6.90076 7.00037V17.7982C6.90137 18.3063 7.49356 18.5841 7.88416 18.2592L10.1439 16.3764C11.2194 15.4802 12.7814 15.4802 13.8568 16.3764L16.1166 18.2592C16.5072 18.5836 17.0994 18.3061 17.1 17.7982V7.00037C17.1 5.84071 16.16 4.90097 15.0004 4.90076H9.00037Z" fill="#0D1625"/>
</svg>
