<svg width="24" height="24" viewBox="0 0 24 24" fill="none" xmlns="http://www.w3.org/2000/svg">
<path d="M14.8004 3.1C15.3454 3.1 15.8093 3.09954 16.1879 3.13047C16.5768 3.16229 16.9558 3.23209 17.3176 3.41641C17.8629 3.69441 18.3064 4.13788 18.5844 4.6832C18.7687 5.04501 18.8385 5.42387 18.8703 5.81289C18.9012 6.19154 18.9008 6.6552 18.9008 7.20039V19.0996H19.8008C20.2975 19.0998 20.7006 19.5028 20.7008 19.9996C20.7008 20.4965 20.2977 20.8994 19.8008 20.8996H4.20078C3.70372 20.8996 3.30078 20.4967 3.30078 19.9996C3.30098 19.5027 3.70385 19.0996 4.20078 19.0996H5.10078V7.20039C5.10078 6.65519 5.10031 6.19154 5.13125 5.81289C5.16306 5.42383 5.23282 5.04505 5.41719 4.6832C5.69518 4.13785 6.13861 3.69437 6.68398 3.41641C7.04575 3.23215 7.42471 3.16226 7.81367 3.13047C8.19225 3.09956 8.65616 3.1 9.20117 3.1H14.8004ZM9.20117 4.9C8.62653 4.9 8.24846 4.90108 7.96016 4.92461C7.68384 4.94721 7.56797 4.98607 7.50195 5.01953C7.29503 5.12496 7.12578 5.29427 7.02031 5.50117C6.98682 5.56713 6.94803 5.68263 6.92539 5.95937C6.90183 6.24773 6.90078 6.62549 6.90078 7.20039V10.0996H8.00117C9.0499 10.1 9.90037 10.9505 9.90078 11.9992V15.5992H10.6355C11.8843 15.5996 12.7934 16.7847 12.4707 17.991L12.173 19.0996H14.1008V14.8996H12.0008C11.5037 14.8996 11.1008 14.4967 11.1008 13.9996C11.101 13.5027 11.5038 13.0996 12.0008 13.0996H17.1008V7.20039C17.1008 6.62551 17.0997 6.24772 17.0762 5.95937C17.0536 5.68283 17.0147 5.56716 16.9812 5.50117C16.8758 5.2943 16.7064 5.125 16.4996 5.01953C16.4337 4.98605 16.3179 4.94725 16.0414 4.92461C15.7531 4.90105 15.3751 4.9 14.8004 4.9H9.20117ZM15.9008 19.0996H17.1008V14.8996H15.9008V19.0996ZM6.90078 19.0996H10.3098L10.7316 17.5258C10.7483 17.4626 10.7009 17.3996 10.6355 17.3992H8.10078V11.9992C8.10038 11.9446 8.05578 11.9 8.00117 11.8996H6.90078V19.0996Z" fill="#0D1625"/>
</svg>
