<svg width="24" height="24" viewBox="0 0 24 24" fill="none" xmlns="http://www.w3.org/2000/svg">
<path d="M12.999 3.10038C14.6007 3.10038 15.8994 4.39915 15.8994 6.00077V6.10038H16.9998C19.1536 6.1006 20.8998 7.8466 20.8998 10.0004V16.0004C20.8996 18.154 19.1534 19.9002 16.9998 19.9004H7.00022C4.84644 19.9004 3.10043 18.1541 3.10022 16.0004V10.0004C3.10022 7.84647 4.84631 6.10038 7.00022 6.10038H8.09944V6.00077C8.09944 4.39928 9.39838 3.10059 10.9998 3.10038H12.999ZM7.00022 7.90038C5.84042 7.90038 4.90022 8.84059 4.90022 10.0004V16.0004C4.90043 17.16 5.84055 18.1004 7.00022 18.1004H7.09983V7.90038H7.00022ZM16.9002 18.1004H16.9998C18.1593 18.1002 19.0996 17.1599 19.0998 16.0004V10.0004C19.0998 8.84072 18.1594 7.9006 16.9998 7.90038H16.9002V18.1004ZM8.89983 18.1004H15.1002V7.90038H8.89983V18.1004ZM10.9998 4.90038C10.3925 4.90059 9.89944 5.39339 9.89944 6.00077V6.10038H14.0994V6.00077C14.0994 5.39326 13.6066 4.90038 12.999 4.90038H10.9998Z" fill="#0D1625"/>
</svg>
