<svg width="24" height="24" viewBox="0 0 24 24" fill="none" xmlns="http://www.w3.org/2000/svg">
<path d="M16.6615 13.0795C17.1114 12.5804 17.8886 12.5804 18.3385 13.0795C18.6031 13.3732 19.1048 13.9683 19.5443 14.7237C19.9761 15.4657 20.3997 16.4498 20.3998 17.4998C20.3997 19.1012 19.1019 20.4 17.5006 20.4002C15.899 20.4002 14.6003 19.1013 14.6002 17.4998C14.6003 16.4498 15.0239 15.4657 15.4556 14.7237C15.8951 13.9684 16.3968 13.3733 16.6615 13.0795ZM17.4994 14.8971C17.3405 15.1104 17.1697 15.3582 17.0119 15.6295C16.6498 16.252 16.4003 16.9092 16.4002 17.4998C16.4003 18.1072 16.8931 18.6002 17.5006 18.6002C18.1078 18.6 18.5997 18.1071 18.5998 17.4998C18.5997 16.9091 18.3503 16.2521 17.9881 15.6295C17.83 15.3579 17.6584 15.1106 17.4994 14.8971ZM8.36581 3.90139C9.17933 3.08822 10.3969 3.21601 11.3424 3.55335C12.3592 3.91632 13.4531 4.64001 14.4221 5.60882C15.3912 6.57793 16.1172 7.67375 16.4822 8.69202C16.821 9.63719 16.9539 10.8591 16.1389 11.6744C16.0203 11.793 15.8916 11.889 15.758 11.9698L10.4693 15.9389C8.71765 17.2528 6.26616 17.0782 4.71776 15.5299L4.56424 15.3776C3.0291 13.8421 2.84346 11.4158 4.12713 9.66468L8.05291 4.31038C8.13682 4.16634 8.23888 4.02832 8.36581 3.90139ZM5.57909 10.7287C4.82037 11.7636 4.93072 13.1976 5.83807 14.1049L5.99041 14.2573C6.90538 15.1721 8.35379 15.275 9.38885 14.4987L12.8553 11.8971C11.9251 11.5052 10.9471 10.8327 10.0732 9.95882C9.21117 9.0967 8.54391 8.13544 8.15135 7.2178L5.57909 10.7287ZM10.7377 5.24905C10.0316 4.99709 9.73705 5.11106 9.65838 5.16233L9.59627 5.24905C9.54598 5.37823 9.50104 5.68253 9.71229 6.27444C9.96737 6.98879 10.5226 7.86281 11.3459 8.68616C12.1693 9.50956 13.0463 10.0662 13.7635 10.3233C14.378 10.5435 14.6818 10.487 14.8029 10.4358L14.8767 10.3807C14.9272 10.3021 15.0416 10.0073 14.7877 9.29905C14.5305 8.58195 13.9727 7.70602 13.1494 6.88264C12.326 6.0593 11.4521 5.50411 10.7377 5.24905Z" fill="#0D1625"/>
</svg>
