<svg width="24" height="24" viewBox="0 0 24 24" fill="none" xmlns="http://www.w3.org/2000/svg">
<path d="M10.0885 3.04308C11.2756 2.37552 12.7252 2.37537 13.9123 3.04308L18.9127 5.85558C20.1403 6.54632 20.9 7.84543 20.9002 9.25401V14.7454C20.9001 16.154 20.1402 17.453 18.9127 18.1439L13.9123 20.9564C12.7252 21.6241 11.2756 21.6241 10.0885 20.9564L5.08809 18.1439C3.86047 17.4531 3.10067 16.1541 3.10059 14.7454V9.25401C3.10078 7.84547 3.86055 6.54633 5.08809 5.85558L10.0885 3.04308ZM4.91699 8.98917C4.90591 9.07635 4.90061 9.16478 4.90059 9.25401V14.7454C4.90067 15.5039 5.30947 16.2039 5.97051 16.5759L10.9709 19.3884C11.0127 19.4119 11.0569 19.4301 11.0998 19.4505V12.5212L4.91699 8.98917ZM12.8998 12.5212V19.4505C12.9429 19.43 12.9879 19.412 13.0299 19.3884L15.0021 18.2775C15.0016 18.2631 14.9998 18.2487 14.9998 18.2341V15.0665C14.9998 14.7153 15.1849 14.3894 15.4861 14.2087L16.7424 13.454C17.0756 13.2541 17.5005 13.4944 17.5006 13.8829V16.8735L18.0303 16.5759C18.6912 16.2039 19.1001 15.5038 19.1002 14.7454V9.25401C19.1002 9.16476 19.0937 9.07636 19.0826 8.98917L12.8998 12.5212ZM13.0299 4.61105C12.3909 4.25176 11.61 4.25181 10.9709 4.61105L5.97051 7.42355C5.94324 7.43889 5.91604 7.45516 5.88965 7.47159L11.9998 10.9638L18.1088 7.47159C18.0828 7.45544 18.0571 7.43864 18.0303 7.42355L13.0299 4.61105Z" fill="#0D1625"/>
</svg>
