<svg width="24" height="24" viewBox="0 0 24 24" fill="none" xmlns="http://www.w3.org/2000/svg">
<path d="M15.0002 3.1004C17.154 3.1006 18.9002 4.84661 18.9002 7.0004V17C18.9 19.1536 17.1538 20.8998 15.0002 20.9H9.00022C6.84644 20.9 5.10043 19.1537 5.10022 17V7.0004C5.10022 4.84648 6.84631 3.1004 9.00022 3.1004H15.0002ZM6.90022 16.9004V17C6.90043 18.1596 7.84055 19.1 9.00022 19.1H9.09983V16.9004H6.90022ZM10.8998 16.9004V19.1H13.0994V16.9004H10.8998ZM14.8994 19.1H15.0002C16.1597 19.0998 17.1 18.1595 17.1002 17V12.8996H14.8994V19.1ZM6.90022 15.1004H9.09983V12.8996H6.90022V15.1004ZM10.8998 15.1004H13.0994V12.8996H10.8998V15.1004ZM6.90022 11.0996H9.09983V8.9H6.90022V11.0996ZM10.8998 11.0996H13.0994V8.9H10.8998V11.0996ZM14.8994 11.0996H17.1002V8.9H14.8994V11.0996ZM9.00022 4.9004C7.84042 4.9004 6.90022 5.8406 6.90022 7.0004V7.1H17.1002V7.0004C17.1002 5.84073 16.1598 4.9006 15.0002 4.9004H9.00022Z" fill="#0D1625"/>
</svg>
