<svg width="24" height="24" viewBox="0 0 24 24" fill="none" xmlns="http://www.w3.org/2000/svg">
<path d="M16.226 3.87442H7.77445C5.62054 3.87442 3.87445 5.62051 3.87445 7.77442V16.226C3.87461 18.3798 5.62064 20.126 7.77445 20.126H16.226C18.3797 20.1259 20.1258 18.3797 20.126 16.226V7.77442C20.126 5.62059 18.3798 3.87455 16.226 3.87442ZM5.67445 16.226V10.3197H18.326V16.226C18.3258 17.3856 17.3856 18.3259 16.226 18.326H7.77445C6.61475 18.326 5.67461 17.3856 5.67445 16.226ZM7.77445 5.67442H16.226C17.3857 5.67455 18.326 6.6147 18.326 7.77442V8.51973H5.67445V7.77442C5.67445 6.61462 6.61465 5.67442 7.77445 5.67442Z" fill="#0D1625"/>
<path d="M15 2.85001C15.497 2.85001 15.9 3.25299 15.9 3.75001V6.36095C15.9 6.85799 15.497 7.26095 15 7.26095C14.503 7.26094 14.1 6.85798 14.1 6.36095V3.75001C14.1 3.253 14.503 2.85002 15 2.85001Z" fill="#0D1625"/>
<path d="M9.00001 2.74843C9.49704 2.74844 9.89998 3.15141 9.90001 3.64843V6.25937C9.89999 6.7564 9.49705 7.15936 9.00001 7.15937C8.50297 7.15937 8.10003 6.75641 8.10001 6.25937V3.64843C8.10004 3.1514 8.50298 2.74843 9.00001 2.74843Z" fill="#0D1625"/>
</svg>
