<svg width="24" height="24" viewBox="0 0 24 24" fill="none" xmlns="http://www.w3.org/2000/svg">
<path d="M16.4997 14.1004C16.9966 14.1006 17.3997 14.5035 17.3997 15.0004V18.8289L18.3642 17.8645C18.7156 17.513 19.2854 17.513 19.6368 17.8645C19.9875 18.216 19.988 18.7859 19.6368 19.1371L17.136 21.6367C16.7847 21.9879 16.2148 21.9877 15.8634 21.6367L13.3638 19.1371C13.0124 18.7857 13.0125 18.216 13.3638 17.8645C13.7152 17.513 14.285 17.513 14.6364 17.8645L15.5997 18.8277V15.0004C15.5997 14.5035 16.0028 14.1006 16.4997 14.1004ZM14.9997 2.1004C15.4966 2.10062 15.8997 2.50348 15.8997 3.0004V4.10079H16.0005C18.154 4.10122 19.9005 5.84715 19.9005 8.00079V12.0004C19.9003 12.497 19.497 12.9 19.0005 12.9004C18.5036 12.9004 18.1007 12.4973 18.1005 12.0004V10.9H5.9001V16C5.90032 17.1596 6.84043 18.1 8.0001 18.1H10.0005C10.497 18.1004 10.9003 18.5034 10.9005 19C10.9003 19.4966 10.497 19.8996 10.0005 19.9H8.0001C5.84632 19.9 4.10032 18.1537 4.1001 16V8.00079C4.1001 5.84688 5.84619 4.10079 8.0001 4.10079H8.09971V3.0004C8.09971 2.50347 8.50283 2.10061 8.99971 2.1004C9.49657 2.10062 9.89971 2.50348 9.89971 3.0004V4.10079H14.0997V3.0004C14.0997 2.50347 14.5028 2.10061 14.9997 2.1004ZM8.0001 5.90079C6.8403 5.90079 5.9001 6.84099 5.9001 8.00079V9.10001H18.1005V8.00079C18.1005 6.84126 17.1599 5.90123 16.0005 5.90079H15.8997V7.00001C15.8995 7.49674 15.4964 7.89978 14.9997 7.90001C14.503 7.8998 14.0999 7.49675 14.0997 7.00001V5.90079H9.89971V7.00001C9.89949 7.49674 9.49644 7.89978 8.99971 7.90001C8.50296 7.8998 8.09992 7.49675 8.09971 7.00001V5.90079H8.0001Z" fill="#0D1625"/>
</svg>
