<svg width="24" height="24" viewBox="0 0 24 24" fill="none" xmlns="http://www.w3.org/2000/svg">
<path d="M16.3638 13.8633C16.7152 13.5123 17.2851 13.5122 17.6364 13.8633L20.6364 16.8633C20.8051 17.032 20.9 17.2611 20.9001 17.4996C20.9001 17.7381 20.805 17.9672 20.6364 18.1359L17.6364 21.1359C17.2849 21.4872 16.7152 21.4873 16.3638 21.1359C16.0126 20.7845 16.0126 20.2147 16.3638 19.8633L17.8274 18.3996H13.0005C12.5034 18.3996 12.1005 17.9967 12.1005 17.4996C12.1007 17.0027 12.5036 16.5996 13.0005 16.5996H17.8274L16.3638 15.1359C16.0126 14.7845 16.0126 14.2147 16.3638 13.8633ZM14.9997 2.1C15.4968 2.1 15.8997 2.50294 15.8997 3V4.10039H16.0005C18.1542 4.1006 19.9005 5.84661 19.9005 8.00039V12C19.9005 12.4969 19.4974 12.8998 19.0005 12.9C18.5034 12.9 18.1005 12.4971 18.1005 12V10.8996H5.9001V15.9996C5.9001 17.1594 6.8403 18.0996 8.0001 18.0996H10.0005C10.4972 18.0998 10.9003 18.5029 10.9005 18.9996C10.9005 19.4965 10.4974 19.8994 10.0005 19.8996H8.0001C5.84619 19.8996 4.1001 18.1535 4.1001 15.9996V8.00039C4.1001 5.84648 5.84619 4.10039 8.0001 4.10039H8.09971V3C8.09971 2.50307 8.50283 2.10021 8.99971 2.1C9.49676 2.1 9.89971 2.50294 9.89971 3V4.10039H14.0997V3C14.0997 2.50307 14.5028 2.10021 14.9997 2.1ZM8.0001 5.90039C6.8403 5.90039 5.9001 6.84059 5.9001 8.00039V9.09961H18.1005V8.00039C18.1005 6.84072 17.1601 5.9006 16.0005 5.90039H15.8997V6.99961C15.8997 7.49666 15.4968 7.89961 14.9997 7.89961C14.5028 7.8994 14.0997 7.49653 14.0997 6.99961V5.90039H9.89971V6.99961C9.89971 7.49666 9.49676 7.89961 8.99971 7.89961C8.50283 7.8994 8.09971 7.49653 8.09971 6.99961V5.90039H8.0001Z" fill="#0D1625"/>
</svg>
