<svg width="24" height="24" viewBox="0 0 24 24" fill="none" xmlns="http://www.w3.org/2000/svg">
<path d="M15.3646 13.8637C15.7162 13.5126 16.286 13.5123 16.6373 13.8637C16.9883 14.2151 16.9882 14.785 16.6373 15.1363L15.1736 16.6H20.0006C20.4975 16.6002 20.9006 17.0031 20.9006 17.5C20.9006 17.9969 20.4975 18.3998 20.0006 18.4H15.1736L16.6373 19.8637C16.9883 20.2151 16.9882 20.785 16.6373 21.1363C16.286 21.4877 15.7162 21.4874 15.3646 21.1363L12.3646 18.1363C12.1959 17.9676 12.101 17.7387 12.101 17.5C12.101 17.2613 12.1959 17.0325 12.3646 16.8637L15.3646 13.8637ZM15.0002 2.1004C15.4971 2.10061 15.9002 2.50347 15.9002 3.0004V4.10079H16.001C18.1545 4.10121 19.901 5.84714 19.901 8.00079V12.0004C19.9008 12.497 19.4975 12.9 19.001 12.9004C18.5041 12.9004 18.1012 12.4973 18.101 12.0004V10.9H5.90059V16C5.9008 17.1596 6.84092 18.1 8.00059 18.1H10.001C10.4975 18.1004 10.9008 18.5034 10.901 19C10.9008 19.4966 10.4975 19.8996 10.001 19.9H8.00059C5.84681 19.9 4.1008 18.1537 4.10059 16V8.00079C4.10059 5.84688 5.84668 4.10079 8.00059 4.10079H8.1002V3.0004C8.1002 2.50347 8.50332 2.10061 9.0002 2.1004C9.49707 2.10061 9.90019 2.50347 9.90019 3.0004V4.10079H14.1002V3.0004C14.1002 2.50347 14.5033 2.10061 15.0002 2.1004ZM8.00059 5.90079C6.84079 5.90079 5.90059 6.84099 5.90059 8.00079V9.10001H18.101V8.00079C18.101 6.84125 17.1604 5.90121 16.001 5.90079H15.9002V7.00001C15.9 7.49675 15.4969 7.8998 15.0002 7.90001C14.5035 7.8998 14.1004 7.49675 14.1002 7.00001V5.90079H9.90019V7.00001C9.89998 7.49675 9.49694 7.8998 9.0002 7.90001C8.50345 7.8998 8.10041 7.49675 8.1002 7.00001V5.90079H8.00059Z" fill="#0D1625"/>
</svg>
