<svg width="24" height="24" viewBox="0 0 24 24" fill="none" xmlns="http://www.w3.org/2000/svg">
<g>
<path d="M13.323 3.59988C14.5777 3.60002 15.2032 4.50637 15.5437 4.96042C15.9526 5.50552 16.0783 5.60015 16.323 5.60027C17.0769 5.60027 17.607 5.5939 18.0656 5.69988C19.4986 6.03136 20.6233 7.14141 20.9742 8.5698C21.0865 9.02696 21.0882 9.55625 21.0984 10.31L21.157 14.6225C21.1684 15.4578 21.1784 16.139 21.1406 16.6909C21.1021 17.2531 21.0104 17.7622 20.7738 18.2378C20.4038 18.9812 19.8058 19.5873 19.0676 19.9675C18.5953 20.2105 18.087 20.3092 17.5254 20.3553C16.9742 20.4006 16.2932 20.3999 15.4582 20.3999H8.54295C7.70761 20.3999 7.02593 20.4006 6.47459 20.3553C5.91298 20.3092 5.40583 20.2104 4.93357 19.9675C4.19494 19.5873 3.5963 18.9815 3.22615 18.2378C2.98948 17.7621 2.89787 17.2532 2.85935 16.6909C2.82156 16.139 2.83159 15.4578 2.84295 14.6225L2.90154 10.31C2.91178 9.55629 2.9135 9.02694 3.02576 8.5698C3.37667 7.14139 4.50128 6.03127 5.93435 5.69988C6.39307 5.59387 6.92289 5.60027 7.67693 5.60027C7.92183 5.60017 8.04823 5.50598 8.4574 4.96042C8.798 4.50626 9.42231 3.59988 10.6769 3.59988H13.323ZM10.6769 5.39988C10.4318 5.39988 10.3058 5.49401 9.89646 6.03972C9.55592 6.49378 8.93142 7.40008 7.67693 7.40027C6.8234 7.40027 6.5481 7.40607 6.33982 7.45417C5.56839 7.63262 4.96327 8.22984 4.7742 8.9987C4.72321 9.2063 4.71314 9.48119 4.70154 10.3346L4.64295 14.6471C4.63119 15.5123 4.62427 16.1068 4.65584 16.5678C4.68668 17.0181 4.75053 17.2601 4.83748 17.435C5.03678 17.8356 5.35962 18.1619 5.7574 18.3667C5.93113 18.456 6.1724 18.5242 6.62224 18.5612C7.08275 18.599 7.67791 18.5999 8.54295 18.5999H15.4582C16.3232 18.5999 16.9184 18.599 17.3789 18.5612C17.8286 18.5242 18.0701 18.4561 18.2437 18.3667C18.6412 18.1619 18.9633 17.8353 19.1625 17.435C19.2494 17.2601 19.3145 17.0181 19.3453 16.5678C19.3769 16.1069 19.3688 15.5122 19.357 14.6471L19.2984 10.3346C19.2868 9.48119 19.2779 9.2063 19.2269 8.9987C19.038 8.22972 18.4316 7.63268 17.6601 7.45417C17.4519 7.40606 17.1764 7.40027 16.323 7.40027C15.0686 7.40004 14.444 6.49377 14.1035 6.03972C13.6943 5.49413 13.568 5.39996 13.323 5.39988H10.6769ZM12 8.99988C14.2087 9.00012 16.0005 10.7907 16.0008 12.9995L15.9949 13.2057C15.8878 15.3191 14.1399 17 12 17.0003L11.7949 16.9944C9.68125 16.8875 8.00037 15.1397 8.00037 12.9995C8.00065 10.7907 9.79119 9.00009 12 8.99988ZM12 10.7999C10.7853 10.8001 9.80065 11.7848 9.80037 12.9995C9.80037 14.2144 10.7851 15.2001 12 15.2003C13.2148 15.2 14.2008 14.2144 14.2008 12.9995C14.2005 11.7848 13.2146 10.8001 12 10.7999Z" fill="#0D1625"/>
</g>
</svg>
