<svg width="24" height="24" viewBox="0 0 24 24" fill="none" xmlns="http://www.w3.org/2000/svg">
<path d="M17 5.1004C19.1537 5.10061 20.9 6.84662 20.9 9.0004V15.0004C20.8997 17.154 19.1535 18.9002 17 18.9004H7.00034C4.84657 18.9004 3.10056 17.1541 3.10034 15.0004V9.0004C3.10034 6.84649 4.84643 5.1004 7.00034 5.1004H17ZM7.00034 6.9004C5.84054 6.9004 4.90034 7.8406 4.90034 9.0004V15.0004C4.90056 16.16 5.84068 17.1004 7.00034 17.1004H17C18.1594 17.1002 19.0997 16.1599 19.1 15.0004V9.0004C19.1 7.84073 18.1596 6.90061 17 6.9004H7.00034ZM8.35151 10.8004C9.01407 10.8006 9.55151 11.3378 9.55151 12.0004C9.55131 12.6628 9.01394 13.2002 8.35151 13.2004C7.6889 13.2004 7.15171 12.663 7.15151 12.0004C7.15151 11.3377 7.68877 10.8004 8.35151 10.8004ZM11.9996 10.8004C12.6623 10.8004 13.1996 11.3377 13.1996 12.0004C13.1994 12.663 12.6622 13.2004 11.9996 13.2004C11.3371 13.2002 10.7998 12.6628 10.7996 12.0004C10.7996 11.3378 11.337 10.8006 11.9996 10.8004ZM15.6488 10.8004C16.3115 10.8004 16.8488 11.3377 16.8488 12.0004C16.8486 12.663 16.3114 13.2004 15.6488 13.2004C14.9862 13.2004 14.449 12.663 14.4488 12.0004C14.4488 11.3377 14.9861 10.8004 15.6488 10.8004Z" fill="#0D1625"/>
</svg>
