<svg width="24" height="24" viewBox="0 0 24 24" fill="none" xmlns="http://www.w3.org/2000/svg">
<path d="M17.2704 4.82461C19.4242 4.82467 21.1704 6.57074 21.1704 8.72461V15.2766C21.17 17.4301 19.424 19.1765 17.2704 19.1766H6.72935C4.57567 19.1766 2.82972 17.4301 2.82935 15.2766V8.72461C2.82935 6.5707 4.57544 4.82461 6.72935 4.82461H17.2704ZM6.72935 6.62461C5.56955 6.62461 4.62935 7.56481 4.62935 8.72461V15.2766C4.62972 16.436 5.56978 17.3766 6.72935 17.3766H17.2704C18.4299 17.3765 19.37 16.436 19.3704 15.2766V8.72461C19.3704 7.56485 18.4301 6.62467 17.2704 6.62461H6.72935ZM8.87974 9.65976C9.17826 9.26234 9.74325 9.18194 10.1407 9.48047C10.5378 9.77906 10.6172 10.3441 10.3188 10.7414C10.0557 11.092 9.90055 11.5267 9.90044 12C9.90069 13.1596 10.8408 14.1 12.0004 14.1C12.4737 14.0999 12.9084 13.9448 13.259 13.6816C13.6564 13.3831 14.2214 13.4624 14.52 13.8598C14.8182 14.2572 14.738 14.8223 14.3407 15.1207C13.689 15.6102 12.8771 15.8999 12.0004 15.9C9.84669 15.9 8.10069 14.1537 8.10044 12C8.10055 11.1234 8.39031 10.3115 8.87974 9.65976ZM11.718 8.88164C11.8169 8.39465 12.2916 8.0799 12.7786 8.17851C14.3082 8.48909 15.5114 9.69224 15.8219 11.2219C15.9202 11.7087 15.6056 12.1836 15.1188 12.2824C14.6319 12.3812 14.1573 12.0661 14.0583 11.5793C13.8915 10.7582 13.2422 10.109 12.4211 9.94219C11.9342 9.84335 11.6195 9.36855 11.718 8.88164Z" fill="#0D1625"/>
</svg>
