<svg width="24" height="24" viewBox="0 0 24 24" fill="none" xmlns="http://www.w3.org/2000/svg">
<path d="M3.54148 4.60039C4.0383 4.60067 4.44148 5.0035 4.44148 5.50039V10.5008C4.44148 11.915 4.44156 12.9222 4.50594 13.7105C4.56952 14.4884 4.69093 14.975 4.88797 15.3617C5.28103 16.133 5.90842 16.7605 6.67976 17.1535C7.06637 17.3505 7.55222 17.472 8.32976 17.5355C9.11825 17.6 10.1261 17.6 11.5407 17.6H20.4997C20.9966 17.6 21.3995 18.0031 21.3997 18.5C21.3995 18.9969 20.9966 19.4 20.4997 19.4H11.5407C10.1557 19.4 9.06205 19.4015 8.18328 19.3297C7.29445 19.257 6.54542 19.1054 5.86297 18.7578C4.75293 18.1922 3.8493 17.2885 3.28367 16.1785C2.93605 15.4961 2.78447 14.747 2.71179 13.8582C2.64 12.9795 2.64148 11.8857 2.64148 10.5008V5.50039C2.64148 5.00346 3.0446 4.60059 3.54148 4.60039ZM19.5001 7.60039C19.7388 7.60039 19.9676 7.69528 20.1364 7.86406C20.3051 8.03282 20.4001 8.26179 20.4001 8.50039V11.5004C20.3999 11.9973 19.997 12.4004 19.5001 12.4004C19.0032 12.4004 18.6003 11.9973 18.6001 11.5004V10.673L15.136 14.1371C14.9673 14.3055 14.7381 14.4008 14.4997 14.4008C14.2612 14.4007 14.032 14.3057 13.8634 14.1371L10.9993 11.273L8.1364 14.1371C7.78503 14.4881 7.21512 14.4881 6.86375 14.1371C6.5124 13.7858 6.51266 13.216 6.86375 12.8645L10.3641 9.36406L10.4321 9.30195C10.7856 9.01378 11.3073 9.03461 11.6368 9.36406L14.4997 12.227L17.3274 9.40039H16.5001C16.0032 9.40039 15.6003 8.99726 15.6001 8.50039C15.6001 8.00333 16.003 7.60039 16.5001 7.60039H19.5001Z" fill="#0D1625"/>
</svg>
