<svg width="24" height="24" viewBox="0 0 24 24" fill="none" xmlns="http://www.w3.org/2000/svg">
<path d="M10.9997 5.10039C11.4968 5.10039 11.8997 5.50333 11.8997 6.00039V12.1H18.0005C18.4972 12.1002 18.9003 12.5033 18.9005 13C18.9003 17.3629 15.3626 20.9008 10.9997 20.9008C6.63698 20.9006 3.10032 17.3627 3.1001 13C3.10031 8.63726 6.63697 5.10061 10.9997 5.10039ZM10.0997 6.96601C7.15783 7.40126 4.90029 9.93715 4.9001 13C4.90032 16.3686 7.63109 19.1006 10.9997 19.1008C14.0628 19.1008 16.5986 16.8422 17.0337 13.9H10.9997C10.503 13.8998 10.0999 13.4967 10.0997 13V6.96601ZM13.9997 3.1C17.8105 3.1 20.8997 6.18923 20.8997 10C20.8997 10.497 20.4968 10.9 19.9997 10.9H13.9997C13.5028 10.8998 13.0997 10.4969 13.0997 10V4C13.0997 3.50308 13.5028 3.10022 13.9997 3.1ZM14.8997 9.1H19.0188C18.6457 7.00493 16.9948 5.35276 14.8997 4.97969V9.1Z" fill="#0D1625"/>
</svg>
