<svg width="24" height="24" viewBox="0 0 24 24" fill="none" xmlns="http://www.w3.org/2000/svg">
<path d="M17.2706 4.82461C19.4245 4.82467 21.1706 6.57073 21.1706 8.72461V15.2766C21.1702 17.4301 19.4242 19.1765 17.2706 19.1766H6.72959C4.57591 19.1766 2.82997 17.4301 2.82959 15.2766V8.72461C2.82959 6.5707 4.57568 4.82461 6.72959 4.82461H17.2706ZM6.72959 6.62461C5.56979 6.62461 4.62959 7.56481 4.62959 8.72461V15.2766C4.62997 16.436 5.57003 17.3766 6.72959 17.3766H17.2706C18.4301 17.3765 19.3702 16.436 19.3706 15.2766V8.72461C19.3706 7.56485 18.4304 6.62467 17.2706 6.62461H6.72959ZM10.694 9.09961C10.9441 9.09907 11.1831 9.20283 11.3538 9.38555L13.8476 12.0562L16.3425 9.38555C16.6817 9.02255 17.2507 9.00321 17.614 9.34219C17.9771 9.68122 17.9972 10.2503 17.6585 10.6137L14.5062 13.9898C14.3361 14.172 14.0979 14.2756 13.8487 14.2758C13.5993 14.2758 13.3603 14.1722 13.1901 13.9898L10.6987 11.3215L7.66123 14.6109C7.32387 14.9757 6.75471 14.9974 6.38975 14.6602C6.02486 14.3228 6.0021 13.7537 6.33936 13.3887L10.0354 9.38906L10.1022 9.32344C10.265 9.18057 10.4754 9.10017 10.694 9.09961Z" fill="#0D1625"/>
</svg>
