<svg width="24" height="24" viewBox="0 0 24 24" fill="none" xmlns="http://www.w3.org/2000/svg">
<path d="M3.73142 4.82355C4.22818 4.8239 4.63142 5.22671 4.63142 5.72355V10.2646C4.63142 11.6793 4.63145 12.687 4.69588 13.4755C4.75946 14.253 4.88097 14.7389 5.07791 15.1255C5.47098 15.8967 6.09844 16.5243 6.8697 16.9173C7.25639 17.1142 7.74307 17.2358 8.52088 17.2993C9.30926 17.3637 10.3164 17.3638 11.7306 17.3638H20.2607C20.7574 17.364 21.1604 17.7671 21.1607 18.2638C21.1606 18.7606 20.7575 19.1636 20.2607 19.1638H11.7306C10.3461 19.1638 9.25303 19.1652 8.37439 19.0935C7.48532 19.0208 6.73549 18.8692 6.05291 18.5216C4.94288 17.956 4.04045 17.0523 3.47478 15.9423C3.12704 15.2597 2.97442 14.511 2.90174 13.622C2.82993 12.7432 2.83142 11.6496 2.83142 10.2646V5.72355C2.83142 5.22649 3.23437 4.82355 3.73142 4.82355ZM18.6529 8.36027C19.0062 8.01088 19.576 8.0141 19.9256 8.3673C20.2749 8.72061 20.2717 9.29042 19.9185 9.63995L16.5072 13.0161L16.4392 13.0771C16.087 13.3617 15.5704 13.3413 15.2416 13.0161L12.4631 10.2669L8.22205 14.4634C7.86879 14.8126 7.29894 14.8094 6.94939 14.4564C6.60007 14.1031 6.60329 13.5333 6.95642 13.1837L11.8303 8.36027C12.1809 8.01358 12.7453 8.01345 13.0959 8.36027L15.8744 11.1107L18.6529 8.36027Z" fill="#0D1625"/>
</svg>
