<svg width="24" height="24" viewBox="0 0 24 24" fill="none" xmlns="http://www.w3.org/2000/svg">
<path d="M17.2706 4.82461C19.4245 4.82468 21.1706 6.57074 21.1706 8.72461V15.2766C21.1702 17.4301 19.4242 19.1765 17.2706 19.1766H6.72959C4.57591 19.1766 2.82997 17.4301 2.82959 15.2766V8.72461C2.82959 6.5707 4.57568 4.82461 6.72959 4.82461H17.2706ZM6.72959 6.62461C5.56979 6.62461 4.62959 7.56481 4.62959 8.72461V15.2766C4.62997 16.436 5.57003 17.3766 6.72959 17.3766H17.2706C18.4301 17.3765 19.3702 16.436 19.3706 15.2766V8.72461C19.3706 7.56485 18.4303 6.62468 17.2706 6.62461H6.72959ZM13.1116 8.85234C13.1933 8.36224 13.6575 8.03036 14.1476 8.11172C14.6217 8.19074 14.947 8.62748 14.894 9.09961H15.0007C15.4973 9.09992 15.9005 9.50292 15.9007 9.99961C15.9007 10.4965 15.4975 10.8993 15.0007 10.8996H14.5964L14.2624 12.9H14.614C15.111 12.9 15.514 13.3029 15.514 13.8C15.514 14.2971 15.111 14.7 14.614 14.7H13.9624L13.8874 15.1477C13.8057 15.6379 13.3417 15.97 12.8515 15.8883C12.3616 15.8063 12.0305 15.3423 12.112 14.8523L12.1378 14.7H10.462L10.387 15.1477C10.3053 15.6379 9.84134 15.97 9.35107 15.8883C8.86144 15.8061 8.53021 15.3422 8.61162 14.8523L8.6374 14.7H8.61396C8.11715 14.6997 7.71396 14.2969 7.71396 13.8C7.71396 13.3031 8.11715 12.9003 8.61396 12.9H8.9374L9.27139 10.8996H9.00068C8.50363 10.8996 8.10068 10.4967 8.10068 9.99961C8.10089 9.50273 8.50376 9.09961 9.00068 9.09961H9.57139L9.6124 8.85234C9.69414 8.36223 10.1582 8.03024 10.6483 8.11172C11.1222 8.191 11.4466 8.62765 11.3937 9.09961H13.0706L13.1116 8.85234ZM10.762 12.9H12.4378L12.7706 10.8996H11.096L10.762 12.9Z" fill="#0D1625"/>
</svg>
