<svg width="24" height="24" viewBox="0 0 24 24" fill="none" xmlns="http://www.w3.org/2000/svg">
<path d="M12.0002 3.00001C16.9707 3.00013 21.0002 7.02952 21.0002 12C21.0002 16.9705 16.9707 20.9999 12.0002 21C7.02968 21 3.00024 16.9706 3.00024 12C3.00024 7.02945 7.02968 3.00001 12.0002 3.00001ZM12.0002 4.80001C8.02379 4.80001 4.80024 8.02356 4.80024 12C4.80024 15.9765 8.02379 19.2 12.0002 19.2C15.9766 19.1999 19.2002 15.9764 19.2002 12C19.2002 8.02363 15.9766 4.80013 12.0002 4.80001ZM14.6979 9.00352C15.0494 8.65242 15.6192 8.65217 15.9706 9.00352C16.3217 9.35489 16.3216 9.92475 15.9706 10.2762L11.2479 14.9988C11.072 15.1747 10.8409 15.2615 10.6104 15.2613C10.4957 15.2613 10.3809 15.2405 10.2729 15.1969C10.1886 15.1628 10.109 15.1146 10.0362 15.0539C10.0151 15.0364 9.99385 15.0186 9.97407 14.9988L8.02993 13.0547C7.67856 12.7033 7.67875 12.1335 8.02993 11.782C8.3814 11.4306 8.95112 11.4306 9.30259 11.782L10.6104 13.0899L14.6979 9.00352Z" fill="#0D1625"/>
</svg>
