<svg width="24" height="24" viewBox="0 0 24 24" fill="none" xmlns="http://www.w3.org/2000/svg">
<path d="M17.5869 6.95543C17.9384 6.60427 18.5082 6.60406 18.8595 6.95543C19.2106 7.30682 19.2106 7.87668 18.8595 8.22809L10.0435 17.0441C10.0215 17.0661 9.99909 17.087 9.97554 17.1062C9.95214 17.1253 9.92764 17.1426 9.90288 17.1589C9.75301 17.258 9.58019 17.3079 9.40718 17.3078C9.20562 17.3078 9.0038 17.2407 8.83882 17.1062C8.81535 17.0871 8.79273 17.0659 8.77085 17.0441L5.14038 13.4136C4.78918 13.0622 4.78911 12.4924 5.14038 12.141C5.49178 11.7896 6.06155 11.7897 6.41304 12.141L9.40718 15.1339L17.5869 6.95543Z" fill="#0D1625"/>
</svg>
