<svg width="24" height="24" viewBox="0 0 24 24" fill="none" xmlns="http://www.w3.org/2000/svg">
<path d="M18.8635 8.36422C19.2149 8.01281 19.7846 8.01294 20.1361 8.36422C20.4874 8.71571 20.4875 9.28549 20.1361 9.63688L11.6365 18.1365C11.2851 18.4876 10.7153 18.4876 10.3639 18.1365C10.0127 17.7851 10.0128 17.2153 10.3639 16.8638L18.8635 8.36422ZM15.8635 5.86344C16.2148 5.51218 16.7847 5.51234 17.1361 5.86344C17.4876 6.21488 17.4875 6.78461 17.1361 7.13609L8.63652 15.6369C8.46076 15.8125 8.23054 15.9007 8.0002 15.9005C7.94294 15.9005 7.88552 15.895 7.8291 15.8841C7.65879 15.8512 7.49578 15.7686 7.36387 15.6369L3.86348 12.1365C3.51225 11.7851 3.51236 11.2153 3.86348 10.8638C4.2149 10.5124 4.78465 10.5125 5.13613 10.8638L7.99902 13.7267L15.8635 5.86344Z" fill="#0D1625"/>
</svg>
