<svg width="24" height="24" viewBox="0 0 24 24" fill="none" xmlns="http://www.w3.org/2000/svg">
<path d="M15.0005 3.1C15.4974 3.10022 15.9005 3.50308 15.9005 4V5.23515C16.2048 5.29607 16.4943 5.38472 16.7712 5.52578C17.5046 5.89967 18.1013 6.4962 18.4751 7.22969C18.6161 7.50661 18.7037 7.79603 18.7646 8.10039H19.9997C20.4968 8.10039 20.8997 8.50333 20.8997 9.00039C20.8995 9.49726 20.4966 9.90039 19.9997 9.90039H18.8958C18.8982 10.178 18.9005 10.4778 18.9005 10.8004V13.2004C18.9005 13.5232 18.8982 13.8227 18.8958 14.1004H19.9997C20.4968 14.1004 20.8997 14.5033 20.8997 15.0004C20.8995 15.4973 20.4966 15.9004 19.9997 15.9004H18.7646C18.7036 16.2046 18.6162 16.4943 18.4751 16.7711C18.1012 17.5046 17.5047 18.1011 16.7712 18.475C16.4944 18.6161 16.2047 18.7035 15.9005 18.7645V20.0008C15.9001 20.4973 15.4971 20.9006 15.0005 20.9008C14.5037 20.9008 14.1009 20.4975 14.1005 20.0008V18.8957C13.8228 18.8981 13.5233 18.9004 13.2005 18.9004H10.8005C10.4779 18.9004 10.1781 18.8981 9.90049 18.8957V20.0008C9.90006 20.4973 9.4971 20.9006 9.00049 20.9008C8.5037 20.9008 8.10092 20.4975 8.10049 20.0008V18.7645C7.79613 18.7036 7.5067 18.616 7.22979 18.475C6.4963 18.1012 5.89977 17.5045 5.52588 16.7711C5.38482 16.4942 5.29616 16.2047 5.23525 15.9004H4.0001C3.50336 15.9002 3.10032 15.4971 3.1001 15.0004C3.1001 14.5035 3.50322 14.1006 4.0001 14.1004H5.104C5.10156 13.8227 5.10049 13.5232 5.10049 13.2004V10.8004C5.10049 10.4778 5.10156 10.178 5.104 9.90039H4.0001C3.50336 9.90018 3.10032 9.49713 3.1001 9.00039C3.1001 8.50346 3.50322 8.1006 4.0001 8.10039H5.23525C5.29615 7.79589 5.38474 7.50673 5.52588 7.22969C5.89975 6.49604 6.49614 5.89965 7.22979 5.52578C7.50683 5.38464 7.79599 5.29605 8.10049 5.23515V4C8.10049 3.50294 8.50343 3.1 9.00049 3.1C9.49736 3.10022 9.90049 3.50308 9.90049 4V5.1039C10.1781 5.10147 10.4779 5.10039 10.8005 5.10039H13.2005C13.5233 5.10039 13.8228 5.10146 14.1005 5.1039V4C14.1005 3.50294 14.5034 3.1 15.0005 3.1ZM10.8005 6.90039C9.94579 6.90039 9.35828 6.90074 8.90322 6.93789C8.45884 6.97421 8.2194 7.04088 8.04658 7.1289C7.65165 7.3302 7.3303 7.65155 7.129 8.04648C7.04098 8.2193 6.9743 8.45874 6.93799 8.90312C6.90083 9.35818 6.90049 9.94569 6.90049 10.8004V13.2004C6.90049 14.0551 6.90081 14.6426 6.93799 15.0977C6.97432 15.5419 7.04097 15.7815 7.129 15.9543C7.33032 16.349 7.65181 16.6707 8.04658 16.8719C8.21938 16.9598 8.45912 17.0266 8.90322 17.0629C9.35827 17.1 9.94583 17.1004 10.8005 17.1004H13.2005C14.0552 17.1004 14.6427 17.1001 15.0978 17.0629C15.542 17.0266 15.7816 16.9599 15.9544 16.8719C16.3492 16.6706 16.6707 16.3491 16.872 15.9543C16.96 15.7815 17.0267 15.5419 17.063 15.0977C17.1002 14.6426 17.1005 14.0551 17.1005 13.2004V10.8004C17.1005 9.94573 17.1001 9.35817 17.063 8.90312C17.0267 8.45902 16.9599 8.21928 16.872 8.04648C16.6708 7.65172 16.3491 7.33022 15.9544 7.1289C15.7816 7.04087 15.542 6.97422 15.0978 6.93789C14.6427 6.90071 14.0552 6.90039 13.2005 6.90039H10.8005ZM14.3642 11.3641C14.7156 11.0126 15.2853 11.0126 15.6368 11.3641C15.9879 11.7156 15.9882 12.2854 15.6368 12.6367L12.6368 15.6367C12.2855 15.9881 11.7157 15.9878 11.3642 15.6367C11.0127 15.2852 11.0127 14.7155 11.3642 14.3641L14.3642 11.3641ZM11.3642 8.36406C11.7156 8.01259 12.2853 8.01259 12.6368 8.36406C12.9879 8.71557 12.9882 9.28538 12.6368 9.63672L9.63682 12.6367C9.28548 12.9881 8.71566 12.9878 8.36416 12.6367C8.01269 12.2852 8.01269 11.7155 8.36416 11.3641L11.3642 8.36406Z" fill="#0D1625"/>
</svg>
