<svg width="24" height="24" viewBox="0 0 24 24" fill="none" xmlns="http://www.w3.org/2000/svg">
<path d="M12 3.1C16.9152 3.10021 20.8992 7.08519 20.8992 12.0004C20.8992 12.4559 20.8647 12.9041 20.7984 13.3422C20.7239 13.8335 20.2656 14.1713 19.7742 14.0969C19.2829 14.0224 18.9452 13.564 19.0195 13.0727C19.0724 12.7235 19.0992 12.3654 19.0992 12.0004C19.0992 8.0793 15.921 4.90021 12 4.9C8.07878 4.9 4.89961 8.07917 4.89961 12.0004C4.89983 15.9214 8.07891 19.0996 12 19.0996C12.3012 19.0996 12.5977 19.0808 12.8883 19.0445C13.3813 18.9831 13.8308 19.3333 13.8926 19.8262C13.9541 20.3194 13.6042 20.7701 13.1109 20.8316C12.7466 20.8771 12.3758 20.8996 12 20.8996C7.0848 20.8996 3.09983 16.9155 3.09961 12.0004C3.09961 7.08505 7.08467 3.1 12 3.1ZM18 15.1C18.4969 15.1002 18.9 15.5031 18.9 16V17.1004H19.9992C20.4963 17.1004 20.8992 17.5033 20.8992 18.0004C20.899 18.4973 20.4961 18.9004 19.9992 18.9004H18.9V19.9996C18.9 20.4965 18.4969 20.8994 18 20.8996C17.5029 20.8996 17.1 20.4967 17.1 19.9996V18.9004H15.9996C15.5027 18.9004 15.0998 18.4973 15.0996 18.0004C15.0996 17.5033 15.5026 17.1004 15.9996 17.1004H17.1V16C17.1 15.5029 17.5029 15.1 18 15.1ZM12 8.10039C12.4969 8.1006 12.9 8.50346 12.9 9.00039V11.4777L15.9469 13.2191C16.3778 13.466 16.5273 14.016 16.2809 14.4473C16.0342 14.8782 15.4852 15.0273 15.0539 14.7812L11.5535 12.782C11.2732 12.6219 11.1001 12.3232 11.1 12.0004V9.00039C11.1 8.50333 11.5029 8.10039 12 8.10039Z" fill="#0D1625"/>
</svg>
