<svg width="24" height="24" viewBox="0 0 24 24" fill="none" xmlns="http://www.w3.org/2000/svg">
<path d="M12 3C16.9705 3.00006 21 7.02947 21 12C21 16.9705 16.9705 20.9999 12 21C7.02944 21 3 16.9706 3 12C3 7.02944 7.02944 3 12 3ZM12 4.8C8.02355 4.8 4.8 8.02355 4.8 12C4.8 15.9765 8.02355 19.2 12 19.2C15.9764 19.1999 19.2 15.9764 19.2 12C19.2 8.02359 15.9764 4.80006 12 4.8ZM12 8.7C12.497 8.70004 12.9 9.10297 12.9 9.6V11.727L15.1359 13.9641C15.4874 14.3155 15.4874 14.8853 15.1359 15.2367C14.7844 15.5878 14.2146 15.588 13.8633 15.2367L11.3637 12.7371C11.3197 12.6931 11.2806 12.6453 11.2477 12.5953L11.1703 12.45C11.1694 12.4477 11.1689 12.4452 11.168 12.443C11.1583 12.4194 11.1533 12.3944 11.1457 12.3703C11.1185 12.2845 11.0988 12.1943 11.0988 12.0996L11.1 9.6C11.1 9.10294 11.5029 8.7 12 8.7Z" fill="#0D1625"/>
</svg>
