<svg width="24" height="24" viewBox="0 0 24 24" fill="none" xmlns="http://www.w3.org/2000/svg">
<g>
<path d="M12.2534 3.0682C13.8037 3.00089 15.3908 3.35875 16.8343 4.19203C20.8734 6.52405 22.2572 11.6887 19.9257 15.728C19.3254 16.7676 18.5357 17.6305 17.6276 18.3002C17.5969 18.323 17.5649 18.3448 17.5339 18.367C17.4618 18.4187 17.3883 18.4701 17.3148 18.5194C17.2565 18.5585 17.1967 18.5967 17.1378 18.6342C17.0835 18.6687 17.0288 18.7042 16.9737 18.7373C16.908 18.7771 16.8411 18.8156 16.7745 18.8534C16.7257 18.8809 16.6761 18.9088 16.6269 18.9354C16.5364 18.9843 16.4433 19.0306 16.3515 19.076C16.333 19.0851 16.3149 19.0963 16.2964 19.1053C16.1932 19.1553 16.0882 19.2027 15.9835 19.2483C15.9617 19.2578 15.9386 19.2671 15.9167 19.2764C15.8132 19.3204 15.7086 19.3622 15.6038 19.4018C15.5845 19.4091 15.5645 19.4169 15.5452 19.4241C15.4384 19.4635 15.3298 19.5004 15.2218 19.5354C15.2008 19.5422 15.1795 19.5498 15.1585 19.5565C15.0557 19.5889 14.9516 19.6195 14.8479 19.6479C14.8168 19.6564 14.7854 19.6655 14.7542 19.6737C14.6524 19.7003 14.5497 19.7248 14.4471 19.7475C14.4224 19.753 14.397 19.7586 14.3721 19.7639C14.2709 19.7854 14.1681 19.806 14.0663 19.8237C14.024 19.8311 13.981 19.8368 13.9386 19.8436C13.8659 19.8551 13.7923 19.8668 13.7194 19.8764C13.6405 19.8869 13.5607 19.8951 13.4815 19.9034C13.4414 19.9075 13.401 19.9127 13.3608 19.9163C13.2585 19.9255 13.1553 19.9331 13.0526 19.9385C13.0184 19.9403 12.9837 19.9407 12.9495 19.942C12.8561 19.9459 12.7618 19.9484 12.6682 19.9491C12.6298 19.9493 12.5906 19.9493 12.5522 19.9491C12.4474 19.9484 12.3419 19.9454 12.237 19.9409C12.2151 19.9399 12.192 19.9396 12.1702 19.9385C12.0574 19.9327 11.9443 19.9243 11.8315 19.9139C11.8017 19.9112 11.7711 19.9088 11.7413 19.9057C11.6413 19.8954 11.5411 19.8833 11.4413 19.8694C11.3973 19.8633 11.3527 19.8563 11.3088 19.8495C11.2194 19.8355 11.1297 19.8195 11.0405 19.8026C11.0082 19.7965 10.9754 19.7903 10.9432 19.7838C10.8376 19.7625 10.732 19.739 10.6268 19.7135C10.602 19.7075 10.5766 19.701 10.5518 19.6948C10.4549 19.6703 10.3575 19.6454 10.2612 19.6174C10.2013 19.6001 10.1415 19.581 10.0819 19.5623C10.0174 19.542 9.95275 19.521 9.88851 19.4991C9.81493 19.4741 9.74121 19.4477 9.6682 19.4206C9.61289 19.3999 9.55685 19.3803 9.50179 19.3584C8.45999 18.9464 7.48268 18.3202 6.64005 17.4776C6.28865 17.1261 6.2886 16.5552 6.64005 16.2038C6.99158 15.8531 7.56268 15.8538 7.91389 16.2049C8.33427 16.6252 8.79725 16.9767 9.28851 17.2608L9.58968 17.4237C9.8036 17.5331 10.0225 17.6277 10.2424 17.712C10.3269 17.7442 10.4112 17.7771 10.4967 17.8057C10.5196 17.8134 10.5429 17.8205 10.5659 17.828C11.1371 18.0123 11.7285 18.1186 12.3225 18.1444C12.4027 18.1478 12.4839 18.1486 12.5639 18.1491C12.5911 18.1493 12.6187 18.1492 12.646 18.1491C12.7303 18.1486 12.815 18.1481 12.8991 18.1444C12.9199 18.1435 12.9415 18.1408 12.9624 18.1397C13.0337 18.1359 13.1057 18.1318 13.1768 18.1256C13.2224 18.1218 13.2684 18.1175 13.3139 18.1127C13.3737 18.1063 13.4337 18.0985 13.4932 18.0905C13.538 18.0845 13.5833 18.0774 13.628 18.0706C13.6794 18.0626 13.7315 18.054 13.7827 18.0448C13.8515 18.0325 13.9205 18.0194 13.9889 18.0049C14.0121 18 14.0362 17.9948 14.0593 17.9897C14.1367 17.9725 14.2144 17.9535 14.2913 17.9334C14.3228 17.9252 14.3548 17.9164 14.3862 17.9077C14.4568 17.8881 14.5282 17.8674 14.5983 17.8456C14.6257 17.837 14.6542 17.8287 14.6815 17.8198C14.7617 17.7936 14.8424 17.7659 14.9218 17.7366C15.1436 17.6544 15.362 17.5597 15.5745 17.4541C15.6432 17.4199 15.7118 17.3831 15.7796 17.3463C15.8078 17.331 15.8371 17.3152 15.8651 17.2995C15.9255 17.2655 15.986 17.23 16.0456 17.194C16.0882 17.1683 16.1312 17.1421 16.1733 17.1155C16.22 17.0858 16.2679 17.0562 16.314 17.0252C16.3666 16.99 16.4181 16.9507 16.4698 16.9139C16.6737 16.7681 16.874 16.611 17.064 16.4393L17.3112 16.2038C17.7122 15.8021 18.0699 15.3428 18.3671 14.828C20.2014 11.6497 19.1124 7.58556 15.9343 5.75062C14.8046 5.09855 13.563 4.81678 12.3495 4.86586C12.3044 4.86761 12.2584 4.87024 12.2135 4.87289C12.155 4.87646 12.0961 4.88067 12.0378 4.88578C11.9805 4.89068 11.9223 4.89585 11.8655 4.90219C10.8055 5.02289 9.78103 5.39693 8.8889 5.99906C8.53546 6.23849 8.20493 6.5111 7.90451 6.81234C7.85156 6.86553 7.79998 6.92118 7.74865 6.97641C7.72454 7.00229 7.6997 7.02866 7.676 7.05492C7.63106 7.10486 7.58716 7.15691 7.54357 7.20844C7.51754 7.23912 7.49055 7.27103 7.46506 7.30219C7.43122 7.34372 7.39723 7.38623 7.36427 7.42875C7.32364 7.48098 7.28383 7.53466 7.24474 7.58812C7.23033 7.60792 7.2156 7.62906 7.20138 7.64906C7.14813 7.72363 7.09572 7.79959 7.04552 7.87641C7.03657 7.89016 7.02742 7.90475 7.01857 7.91859C6.48655 8.74661 6.13583 9.70133 6.01543 10.7264L6.03184 10.71C6.38333 10.3587 6.95309 10.3586 7.30451 10.71C7.65545 11.0615 7.65566 11.6313 7.30451 11.9827L5.71426 13.5729C5.54558 13.7416 5.3153 13.8365 5.07675 13.8366C4.83843 13.8364 4.60904 13.7413 4.44042 13.5729L2.85017 11.9827C2.49873 11.6312 2.49878 11.0615 2.85017 10.71C3.20165 10.3586 3.77138 10.3585 4.12284 10.71L4.19667 10.7838C4.30448 9.51671 4.6932 8.32922 5.29824 7.28344L5.29707 7.28226C5.30418 7.27009 5.31341 7.25808 5.32051 7.24594C5.37655 7.15025 5.43547 7.05559 5.49512 6.96234C5.5122 6.93553 5.52933 6.90804 5.54668 6.88148C5.60186 6.79738 5.65972 6.71386 5.71778 6.63187C5.74563 6.59233 5.77252 6.55126 5.80098 6.51234C5.84607 6.45097 5.89374 6.3908 5.94043 6.3307C5.98242 6.27644 6.02505 6.22198 6.06817 6.16898C6.10085 6.12897 6.13439 6.08885 6.16778 6.04945C6.22779 5.97841 6.28857 5.90718 6.35059 5.83851C6.36288 5.82498 6.37692 5.81095 6.38927 5.7975C6.84038 5.30485 7.342 4.87307 7.88225 4.50844C7.91064 4.48923 7.94034 4.46989 7.96897 4.45101C8.05211 4.39637 8.13607 4.34083 8.22092 4.2893C9.1069 3.74916 10.1013 3.36895 11.1624 3.18539C11.1872 3.18105 11.2125 3.17662 11.2374 3.1725C11.3303 3.1573 11.4247 3.14362 11.5186 3.13148C11.5684 3.12494 11.6187 3.11838 11.6686 3.11273C11.7431 3.10446 11.8185 3.09796 11.8936 3.09164C11.9624 3.08571 12.0321 3.08065 12.101 3.0764C12.1514 3.0734 12.2028 3.07032 12.2534 3.0682ZM12.5885 8.10023C13.0852 8.10065 13.4884 8.50352 13.4885 9.00023V11.0686L15.721 13.2729C16.0738 13.6222 16.078 14.1921 15.7292 14.5455C15.3803 14.899 14.8103 14.902 14.4565 14.5538L11.9557 12.0846C11.8876 12.0172 11.8361 11.9391 11.794 11.8584C11.7292 11.7342 11.6886 11.5946 11.6885 11.4448V9.00023C11.6886 8.50326 12.0915 8.10023 12.5885 8.10023Z" fill="#0D1625"/>
</g>
</svg>
