<svg width="24" height="24" viewBox="0 0 24 24" fill="none" xmlns="http://www.w3.org/2000/svg">
<path d="M12.001 5.1004C14.4242 5.10078 16.4352 6.86044 16.8291 9.17149C19.1404 9.56543 20.9002 11.5772 20.9002 14.0008C20.8998 16.7065 18.7063 18.9002 16.0006 18.9004H8.0002C5.29444 18.9002 3.10101 16.7065 3.10059 14.0008C3.10059 11.5772 4.86034 9.56541 7.17168 9.17149C7.56559 6.86016 9.57738 5.1004 12.001 5.1004ZM12.001 6.9004C10.289 6.9004 8.90041 8.28811 8.9002 10C8.89998 10.4968 8.49694 10.8998 8.0002 10.9C6.28829 10.9002 4.90059 12.2888 4.90059 14.0008C4.90101 15.7124 6.28856 17.1002 8.0002 17.1004H16.0006C17.7122 17.1002 19.0998 15.7124 19.1002 14.0008C19.1002 12.2888 17.7125 10.9002 16.0006 10.9C15.5037 10.9 15.1008 10.4969 15.1006 10C15.1004 8.28837 13.7126 6.90082 12.001 6.9004Z" fill="#0D1625"/>
</svg>
