<svg width="24" height="24" viewBox="0 0 24 24" fill="none" xmlns="http://www.w3.org/2000/svg">
<path d="M8.36391 6.36353C8.71535 6.0123 9.28515 6.01227 9.63657 6.36353C9.98778 6.71495 9.98778 7.28477 9.63657 7.63619L5.2725 11.9991L9.63657 16.3631C9.98791 16.7145 9.98765 17.2843 9.63657 17.6358C9.28509 17.9872 8.71538 17.9873 8.36391 17.6358L3.36352 12.6366C3.01227 12.2852 3.01231 11.7154 3.36352 11.3639L8.36391 6.36353ZM14.3627 6.36353C14.714 6.01224 15.2839 6.0126 15.6354 6.36353L20.6358 11.3639C20.9871 11.7154 20.9872 12.2852 20.6358 12.6366L15.6354 17.6358C15.2839 17.9871 14.7141 17.9872 14.3627 17.6358C14.0121 17.2843 14.0117 16.7144 14.3627 16.3631L18.7268 11.9991L14.3627 7.63619C14.0119 7.28481 14.0119 6.71486 14.3627 6.36353Z" fill="#0D1625"/>
</svg>
