<svg width="24" height="24" viewBox="0 0 24 24" fill="none" xmlns="http://www.w3.org/2000/svg">
<path d="M15.0006 6.59974C16.0496 6.59995 16.8999 7.45039 16.9002 8.49935V10.106C16.9329 10.1024 16.9661 10.1002 16.9998 10.1001H17.5002C19.1016 10.1004 20.3994 11.399 20.3994 13.0005V14.9998C20.3993 16.6012 19.1016 17.8999 17.5002 17.9002H16.9998C16.9307 17.9001 16.8641 17.8892 16.7994 17.8744C16.4023 19.607 14.8531 20.9 13.0002 20.9002H9.00059C6.84681 20.9002 5.1008 19.1539 5.10059 17.0002V8.49935C5.10088 7.45039 5.95122 6.59995 7.0002 6.59974H15.0006ZM7.0002 8.39974C6.94533 8.39995 6.90088 8.44451 6.90059 8.49935V17.0002C6.9008 18.1598 7.84092 19.1002 9.00059 19.1002H13.0002C14.1597 19.1 15.1 18.1597 15.1002 17.0002V8.49935C15.0999 8.4445 15.0555 8.39995 15.0006 8.39974H7.0002ZM16.9002 16.106C16.9329 16.1024 16.9661 16.1002 16.9998 16.1002H17.5002C18.1075 16.0999 18.5993 15.607 18.5994 14.9998V13.0005C18.5994 12.3932 18.1075 11.9004 17.5002 11.9001H16.9998C16.9661 11.9001 16.9329 11.8967 16.9002 11.8931V16.106ZM8.96426 1.36379C9.31574 1.01242 9.88548 1.01235 10.2369 1.36379C10.588 1.71526 10.5882 2.28508 10.2369 2.63645C9.92564 2.94772 9.92564 3.45253 10.2369 3.7638C10.588 4.11526 10.5882 4.68508 10.2369 5.03646C9.88555 5.38782 9.31576 5.38761 8.96426 5.03646C7.95004 4.02224 7.95004 2.37801 8.96426 1.36379ZM12.5643 1.36379C12.9157 1.01242 13.4855 1.01235 13.8369 1.36379C14.188 1.71526 14.1882 2.28508 13.8369 2.63645C13.5256 2.94772 13.5256 3.45253 13.8369 3.7638C14.188 4.11526 14.1882 4.68508 13.8369 5.03646C13.4855 5.38782 12.9158 5.38761 12.5643 5.03646C11.55 4.02224 11.55 2.37801 12.5643 1.36379Z" fill="#0D1625"/>
</svg>
