<svg width="24" height="24" viewBox="0 0 24 24" fill="none" xmlns="http://www.w3.org/2000/svg">
<path d="M16.9997 3.9C19.1536 3.9 20.8997 5.64609 20.8997 7.8V13.8C20.8997 15.9539 19.1536 17.7 16.9997 17.7H12.3333C12.3118 17.7 12.2908 17.707 12.2735 17.7199L9.64971 19.6875C8.61229 20.4654 7.11731 19.9988 6.70713 18.7688L6.33799 17.6613C4.50789 17.4024 3.1001 15.8305 3.1001 13.9289V7.65703C3.10016 5.58211 4.78221 3.90006 6.85713 3.9H16.9997ZM6.85713 5.7C5.77632 5.70006 4.90016 6.57622 4.9001 7.65703V13.9289C4.9001 15.0173 5.78281 15.9 6.87119 15.9C7.27761 15.9002 7.64379 16.1279 7.82744 16.4801L7.89424 16.6383L8.41572 18.1992C8.43741 18.2638 8.51587 18.2882 8.57041 18.2473L11.1931 16.2797C11.5219 16.0331 11.9222 15.9 12.3333 15.9H16.9997C18.1595 15.9 19.0997 14.9598 19.0997 13.8V7.8C19.0997 6.6402 18.1595 5.7 16.9997 5.7H6.85713Z" fill="#0D1625"/>
</svg>
