<svg width="24" height="24" viewBox="0 0 24 24" fill="none" xmlns="http://www.w3.org/2000/svg">
<path d="M17.5009 4.59957C19.6542 4.6 21.4006 6.34613 21.4009 8.49957V15.4992C21.4009 17.6528 19.6544 19.3988 17.5009 19.3992H6.50046C4.34656 19.3992 2.60046 17.6531 2.60046 15.4992V8.49957C2.60071 6.34587 4.34671 4.59957 6.50046 4.59957H17.5009ZM6.50046 6.39957C5.34082 6.39957 4.40071 7.33998 4.40046 8.49957V15.4992C4.40046 16.659 5.34067 17.5992 6.50046 17.5992H17.5009C18.6603 17.5988 19.6009 16.6587 19.6009 15.4992V8.49957C19.6006 7.34025 18.6601 6.4 17.5009 6.39957H6.50046ZM7.36414 8.36363C7.71562 8.01238 8.28539 8.01223 8.63679 8.36363L11.6368 11.3636C11.988 11.715 11.988 12.2849 11.6368 12.6363L8.63679 15.6363C8.28538 15.9877 7.71562 15.9876 7.36414 15.6363C7.01266 15.2848 7.01266 14.7151 7.36414 14.3636L9.72781 12L7.36414 9.63629C7.01266 9.28482 7.01266 8.71511 7.36414 8.36363ZM15.9997 14.1C16.4967 14.1 16.8997 14.5029 16.8997 15C16.8997 15.497 16.4967 15.9 15.9997 15.9H12.9997C12.5028 15.8998 12.0997 15.4969 12.0997 15C12.0997 14.503 12.5028 14.1002 12.9997 14.1H15.9997Z" fill="#0D1625"/>
</svg>
