<svg width="24" height="24" viewBox="0 0 24 24" fill="none" xmlns="http://www.w3.org/2000/svg">
<path d="M12.5005 6.10039C12.9974 6.1006 13.4005 6.50346 13.4005 7.00039C13.4003 7.49714 12.9972 7.90018 12.5005 7.90039H6.20049C5.6256 7.90039 5.24782 7.90144 4.95947 7.925C4.68274 7.94764 4.56723 7.98643 4.50127 8.01992C4.29437 8.12539 4.12506 8.29464 4.01963 8.50156C3.98617 8.56758 3.94731 8.68343 3.92471 8.95977C3.90118 9.24807 3.9001 9.62613 3.9001 10.2008V11.8004C3.9001 12.3748 3.90119 12.752 3.92471 13.0402C3.94738 13.3174 3.9861 13.4337 4.01963 13.4996C4.1251 13.7065 4.29439 13.8747 4.50127 13.9801C4.5672 14.0136 4.68243 14.0535 4.95947 14.0762C5.24782 14.0997 5.6256 14.1008 6.20049 14.1008H8.97666C8.98445 14.1006 8.99226 14.0996 9.0001 14.0996C9.00793 14.0996 9.01575 14.1006 9.02354 14.1008H12.5005C12.9974 14.101 13.4005 14.5039 13.4005 15.0008C13.4001 15.4974 12.9971 15.9006 12.5005 15.9008H9.9001V17.0996H13.0009C13.4975 17.1 13.9007 17.503 13.9009 17.9996C13.9009 18.4964 13.4976 18.8992 13.0009 18.8996H5.00049C4.50343 18.8996 4.10049 18.4967 4.10049 17.9996C4.10071 17.5027 4.50357 17.0996 5.00049 17.0996H8.1001V15.9008H6.20049C5.6553 15.9008 5.19164 15.9012 4.81299 15.8703C4.42395 15.8385 4.04513 15.7687 3.6833 15.5844C3.1378 15.3064 2.69452 14.8619 2.4165 14.3164C2.23227 13.9547 2.16237 13.5756 2.13057 13.1867C2.09968 12.8083 2.1001 12.3452 2.1001 11.8004V10.2008C2.1001 9.65576 2.09966 9.19187 2.13057 8.81328C2.16236 8.42432 2.23225 8.04536 2.4165 7.68359C2.69447 7.13823 3.13796 6.69479 3.6833 6.4168C4.04514 6.23243 4.42393 6.16267 4.81299 6.13086C5.19164 6.09992 5.6553 6.10039 6.20049 6.10039H12.5005ZM18.0001 4.1C18.4537 4.1 18.8389 4.0995 19.1556 4.12109C19.4801 4.14324 19.7979 4.19136 20.1095 4.32031C20.82 4.61464 21.3854 5.18005 21.6798 5.89062C21.8087 6.20217 21.8569 6.51997 21.879 6.84453C21.9006 7.16116 21.9001 7.54643 21.9001 8V14.9996C21.9001 15.453 21.9006 15.8385 21.879 16.1551C21.8568 16.4798 21.8089 16.7984 21.6798 17.1102C21.3854 17.8207 20.82 18.385 20.1095 18.6793C19.7979 18.8083 19.4802 18.8564 19.1556 18.8785C18.8389 18.9001 18.4537 18.8996 18.0001 18.8996C17.5465 18.8996 17.1613 18.9001 16.8446 18.8785C16.52 18.8564 16.2023 18.8083 15.8907 18.6793C15.1802 18.385 14.6148 17.8207 14.3204 17.1102C14.1913 16.7985 14.1433 16.4798 14.1212 16.1551C14.0996 15.8385 14.1001 15.453 14.1001 14.9996V8C14.1001 7.54643 14.0996 7.16116 14.1212 6.84453C14.1433 6.51997 14.1915 6.20217 14.3204 5.89062C14.6147 5.18005 15.1801 4.61465 15.8907 4.32031C16.2023 4.19136 16.5201 4.14324 16.8446 4.12109C17.1613 4.0995 17.5465 4.1 18.0001 4.1ZM18.0001 5.9C17.5219 5.9 17.2077 5.89995 16.9665 5.91641C16.7338 5.93232 16.6344 5.96009 16.5786 5.9832C16.3093 6.09484 16.0949 6.30921 15.9833 6.57852C15.9602 6.6343 15.9324 6.73369 15.9165 6.96641C15.9 7.20758 15.9001 7.52175 15.9001 8V14.9996C15.9001 15.4779 15.9 15.792 15.9165 16.0332C15.9324 16.2661 15.9602 16.3653 15.9833 16.4211C16.0949 16.6905 16.3093 16.9047 16.5786 17.0164C16.6344 17.0395 16.7338 17.0673 16.9665 17.0832C17.2077 17.0997 17.5219 17.0996 18.0001 17.0996C18.4783 17.0996 18.7925 17.0997 19.0337 17.0832C19.2664 17.0673 19.3658 17.0395 19.4216 17.0164C19.6909 16.9047 19.9053 16.6905 20.0169 16.4211C20.04 16.3653 20.0678 16.2661 20.0837 16.0332C20.1001 15.792 20.1001 15.4779 20.1001 14.9996V8C20.1001 7.52175 20.1001 7.20758 20.0837 6.96641C20.0678 6.73369 20.04 6.6343 20.0169 6.57852C19.9053 6.30921 19.6909 6.09484 19.4216 5.9832C19.3658 5.9601 19.2664 5.93231 19.0337 5.91641C18.7925 5.89995 18.4783 5.9 18.0001 5.9Z" fill="#0D1625"/>
</svg>
