<svg width="24" height="24" viewBox="0 0 24 24" fill="none" xmlns="http://www.w3.org/2000/svg">
<path d="M14.2978 4.43755C14.6086 4.04983 15.1744 3.98751 15.5622 4.29809C17.816 6.10476 19.2617 8.88354 19.2618 11.9997C19.2618 15.1159 17.8161 17.8957 15.5622 19.7024C15.1745 20.0127 14.6085 19.9505 14.2978 19.5629C13.9871 19.1752 14.0497 18.6082 14.4372 18.2973C16.2829 16.8175 17.4618 14.5464 17.4618 11.9997C17.4617 9.45285 16.2831 7.18173 14.4372 5.702C14.0497 5.39116 13.9873 4.82529 14.2978 4.43755ZM10.2982 6.95473C10.609 6.56695 11.1748 6.5045 11.5626 6.81528C13.0793 8.03123 14.054 9.90273 14.054 12.0008C14.0538 14.0987 13.0793 15.9706 11.5626 17.1864C11.175 17.4965 10.609 17.4341 10.2982 17.0469C9.98735 16.6592 10.05 16.0922 10.4376 15.7813C11.5462 14.8924 12.2538 13.5293 12.254 12.0008C12.254 10.472 11.5464 9.1082 10.4376 8.21919C10.0499 7.90842 9.98769 7.34255 10.2982 6.95473ZM6.50012 10.4997C7.32844 10.4997 7.99994 11.1714 8.00012 11.9997C8.00012 12.8281 7.32855 13.4997 6.50012 13.4997C5.67169 13.4997 5.00012 12.8281 5.00012 11.9997C5.0003 11.1714 5.67181 10.4997 6.50012 10.4997Z" fill="#0D1625"/>
</svg>
