<svg width="24" height="24" viewBox="0 0 24 24" fill="none" xmlns="http://www.w3.org/2000/svg">
<path d="M15.8636 10.8631C16.215 10.5121 16.7851 10.5121 17.1364 10.8631C17.4876 11.2145 17.4875 11.7845 17.1364 12.1359L12.1356 17.1368C11.7841 17.4877 11.2141 17.4879 10.8628 17.1368C10.5118 16.7854 10.5119 16.2154 10.8628 15.864L15.8636 10.8631ZM15.3631 5.36426C15.7145 5.01286 16.2844 5.01299 16.6359 5.36426C16.987 5.71577 16.9864 6.28489 16.6351 6.63623L6.6359 16.6354C6.28456 16.9868 5.71544 16.9873 5.36394 16.6363C5.01263 16.2848 5.01252 15.7149 5.36394 15.3635L15.3631 5.36426Z" fill="#0D1625"/>
</svg>
