<svg width="24" height="24" viewBox="0 0 24 24" fill="none" xmlns="http://www.w3.org/2000/svg">
<path d="M17.5001 4.6C19.6536 4.60032 21.3999 6.3465 21.4001 8.5V15.4996C21.4001 17.6533 19.6538 19.3993 17.5001 19.3996H6.49973C4.34582 19.3996 2.59973 17.6535 2.59973 15.4996V8.5C2.59998 6.3463 4.34598 4.6 6.49973 4.6H17.5001ZM4.39973 15.4996C4.39973 16.6594 5.33993 17.5996 6.49973 17.5996H17.5001C18.6596 17.5993 19.6001 16.6592 19.6001 15.4996V10.9H4.39973V15.4996ZM10.5005 13.0996C10.9972 13.0999 11.4003 13.5029 11.4005 13.9996C11.4005 14.4965 10.9973 14.8993 10.5005 14.8996H7.00012C6.50324 14.8994 6.10012 14.4965 6.10012 13.9996C6.10035 13.5029 6.50339 13.0998 7.00012 13.0996H10.5005ZM6.49973 6.4C5.34009 6.4 4.39998 7.34041 4.39973 8.5V9.1H19.6001V8.5C19.5999 7.34061 18.6595 6.40032 17.5001 6.4H6.49973Z" fill="#0D1625"/>
</svg>
