<svg width="24" height="24" viewBox="0 0 24 24" fill="none" xmlns="http://www.w3.org/2000/svg">
<path d="M12.0002 3.0001C16.9707 3.00026 21.0002 7.02963 21.0002 12.0001C21.0002 16.9705 16.9706 20.9999 12.0002 21.0001C7.02972 21.0001 3.0003 16.9706 3.00024 12.0001C3.00024 7.02954 7.02968 3.0001 12.0002 3.0001ZM15.6366 8.36377C15.2851 8.01233 14.7154 8.01238 14.3639 8.36377L12.0002 10.7274L9.63657 8.36377C9.28512 8.01232 8.71539 8.01236 8.36392 8.36377C8.01244 8.71524 8.01244 9.28496 8.36392 9.63643L10.7276 12.0001L8.36392 14.3638C8.01246 14.7152 8.01245 15.285 8.36392 15.6364C8.7154 15.9877 9.28516 15.9878 9.63657 15.6364L12.0002 13.2728L14.3639 15.6364C14.7154 15.9877 15.2852 15.9878 15.6366 15.6364C15.9879 15.285 15.9879 14.7152 15.6366 14.3638L13.2729 12.0001L15.6366 9.63643C15.9879 9.28501 15.9878 8.71523 15.6366 8.36377Z" fill="#0D1625"/>
</svg>
