<svg width="24" height="24" viewBox="0 0 24 24" fill="none" xmlns="http://www.w3.org/2000/svg">
<path d="M17.3636 5.36352C17.715 5.0121 18.2848 5.01219 18.6363 5.36352C18.9877 5.71499 18.9877 6.2847 18.6363 6.63618L13.2726 11.9987L18.6374 17.3635C18.9885 17.715 18.9888 18.286 18.6374 18.6373C18.2861 18.9887 17.7151 18.9884 17.3636 18.6373L11.9999 13.2725L6.63627 18.6373C6.2849 18.9881 5.71493 18.9882 5.36362 18.6373C5.01227 18.286 5.01252 17.715 5.36362 17.3635L10.7261 11.9998L5.36362 6.63618C5.01231 6.28469 5.0122 5.71494 5.36362 5.36352C5.71504 5.01212 6.28479 5.01222 6.63627 5.36352L11.9999 10.726L17.3636 5.36352Z" fill="#0D1625"/>
</svg>
