<svg width="24" height="24" viewBox="0 0 24 24" fill="none" xmlns="http://www.w3.org/2000/svg">
<path d="M10.1976 5.06181C10.775 3.32961 13.2249 3.32964 13.8023 5.06181L15.0281 8.74033C15.0458 8.79338 15.1044 8.82211 15.157 8.80361L17.9015 7.80517C19.3406 7.28187 20.7759 8.58872 20.3894 10.0704L18.4558 17.4849C18.0077 19.2019 16.4558 20.4005 14.6812 20.4005H9.31755C7.54311 20.4003 5.99221 19.2018 5.54412 17.4849L3.60935 10.0704C3.22299 8.58893 4.65835 7.28234 6.09724 7.80517L8.84177 8.80361C8.89453 8.82262 8.95283 8.7935 8.97068 8.74033L10.1976 5.06181ZM11.9379 5.57861C11.933 5.58192 11.9279 5.58608 11.9238 5.5915C11.9198 5.59689 11.9123 5.6086 11.9051 5.63017L10.6781 9.30986C10.3398 10.3243 9.23153 10.8601 8.22654 10.4946L5.48201 9.49736C5.45535 9.48773 5.43873 9.48801 5.4281 9.49033C5.41434 9.49351 5.39738 9.5026 5.38123 9.51728C5.36508 9.53207 5.35513 9.54839 5.35076 9.56181C5.34748 9.57218 5.34375 9.58854 5.35076 9.61572L7.28552 17.0302C7.52672 17.9547 8.3621 18.6003 9.31755 18.6005H14.6812C15.6368 18.6005 16.4719 17.9547 16.7133 17.0302L18.648 9.61572C18.6551 9.58829 18.6525 9.57218 18.6492 9.56181C18.6449 9.54836 18.6349 9.53213 18.6187 9.51728C18.6023 9.50237 18.5846 9.49335 18.5707 9.49033C18.56 9.48808 18.5433 9.48771 18.5168 9.49736L15.7722 10.4946C14.7674 10.8596 13.6588 10.3242 13.3207 9.30986L12.0949 5.63017C12.0875 5.60807 12.079 5.59677 12.075 5.5915C12.0709 5.58615 12.0669 5.58189 12.0621 5.57861C12.0511 5.57124 12.0294 5.56228 12 5.5622C11.9707 5.56229 11.9489 5.57127 11.9379 5.57861Z" fill="#0D1625"/>
</svg>
