<svg width="24" height="24" viewBox="0 0 24 24" fill="none" xmlns="http://www.w3.org/2000/svg">
<path d="M13.0008 2.60001C15.1542 2.60041 16.9006 4.34651 16.9008 6.50001V6.59962H19.5C19.9969 6.59962 20.3998 7.00273 20.4 7.49962C20.4 7.99668 19.997 8.39962 19.5 8.39962H18.9V17.4992C18.9 19.6531 17.1539 21.3992 15 21.3992H8.99998C6.84607 21.3992 5.09998 19.6531 5.09998 17.4992V8.39962H4.49998C4.00293 8.39962 3.59998 7.99668 3.59998 7.49962C3.60017 7.00274 4.00305 6.59963 4.49998 6.59962H7.10037V6.50001C7.10056 4.34627 8.84658 2.60001 11.0004 2.60001H13.0008ZM6.89998 17.4992C6.89998 18.659 7.84018 19.5992 8.99998 19.5992H15C16.1598 19.5992 17.1 18.659 17.1 17.4992V8.39962H6.89998V17.4992ZM9.99958 11.0996C10.4965 11.0996 10.8994 11.5027 10.8996 11.9996V15.9992C10.8996 16.4963 10.4966 16.8992 9.99958 16.8992C9.50271 16.899 9.09958 16.4962 9.09958 15.9992V11.9996C9.09978 11.5029 9.50283 11.0998 9.99958 11.0996ZM14.0004 11.0996C14.4971 11.0998 14.9002 11.5029 14.9004 11.9996V15.9992C14.9004 16.4962 14.4973 16.899 14.0004 16.8992C13.5033 16.8992 13.1004 16.4963 13.1004 15.9992V11.9996C13.1006 11.5027 13.5034 11.0996 14.0004 11.0996ZM11.0004 4.40001C9.84069 4.40001 8.90056 5.34038 8.90037 6.50001V6.59962H15.1008V6.50001C15.1006 5.34063 14.1601 4.40041 13.0008 4.40001H11.0004Z" fill="#0D1625"/>
</svg>
