<svg width="24" height="24" viewBox="0 0 24 24" fill="none" xmlns="http://www.w3.org/2000/svg">
<path d="M12 3C16.9706 3 21 7.02944 21 12C21 16.9706 16.9706 21 12 21C7.02944 21 3 16.9706 3 12C3 7.02944 7.02944 3 12 3ZM7.58555 17.6859C8.80485 18.6339 10.3359 19.2 12 19.2C15.9765 19.2 19.2 15.9765 19.2 12C19.2 10.3359 18.6339 8.80485 17.6859 7.58555L7.58555 17.6859ZM12 4.8C8.02355 4.8 4.8 8.02355 4.8 12C4.8 13.6635 5.36549 15.1942 6.31289 16.4133L16.4133 6.31289C15.1942 5.36549 13.6635 4.8 12 4.8Z" fill="#0D1625"/>
</svg>
