<svg width="24" height="24" viewBox="0 0 24 24" fill="none" xmlns="http://www.w3.org/2000/svg">
<path d="M6.64983 4.75039C7.14682 4.75048 7.54983 5.15339 7.54983 5.65039V16.4773L7.59202 16.4352C7.5945 16.4327 7.59776 16.4306 7.60023 16.4281C7.60269 16.4256 7.60478 16.4224 7.60726 16.4199C7.60976 16.4174 7.61298 16.4154 7.61546 16.4129C7.61794 16.4104 7.62 16.4072 7.62249 16.4047C7.625 16.4022 7.62821 16.4001 7.63069 16.3977C7.63315 16.3952 7.63526 16.3919 7.63773 16.3895L7.65999 16.3672C7.66245 16.3648 7.66575 16.3626 7.66819 16.3602C7.67066 16.3577 7.67275 16.3544 7.67523 16.352L7.69749 16.3297C7.69996 16.3272 7.70325 16.3251 7.70569 16.3227C7.70815 16.3202 7.71027 16.3169 7.71273 16.3145C7.71504 16.3121 7.71744 16.3097 7.71976 16.3074C7.72219 16.305 7.72555 16.3028 7.72796 16.3004C7.7304 16.2979 7.73254 16.2946 7.73499 16.2922C7.73731 16.2899 7.73971 16.2875 7.74202 16.2852C7.74445 16.2828 7.74783 16.2805 7.75023 16.2781C7.75266 16.2757 7.75482 16.2724 7.75726 16.2699C7.75957 16.2676 7.76197 16.2652 7.76429 16.2629C7.76673 16.2605 7.77007 16.2583 7.77249 16.2559C7.77491 16.2534 7.7771 16.2501 7.77952 16.2477L7.82288 16.2043C7.82529 16.2019 7.82871 16.1996 7.83108 16.1973C7.83348 16.1948 7.83572 16.1915 7.83812 16.1891L7.85921 16.168C7.86161 16.1656 7.86504 16.1633 7.86741 16.1609C7.86979 16.1585 7.87207 16.1551 7.87444 16.1527L7.9096 16.1176C7.91198 16.1152 7.91545 16.1129 7.9178 16.1105L7.93187 16.0965C7.93421 16.0941 7.93656 16.0906 7.9389 16.0883L8.00921 16.018C8.01135 16.0159 8.01412 16.0142 8.01624 16.0121L8.0303 15.998C8.03241 15.9959 8.03404 15.9931 8.03616 15.991L8.07132 15.9559C8.07343 15.9538 8.07626 15.9521 8.07835 15.95C8.08046 15.9479 8.08209 15.9451 8.08421 15.943L8.09827 15.9289C8.10041 15.9268 8.10319 15.9252 8.1053 15.923C8.10738 15.9209 8.10908 15.9181 8.11116 15.916L8.12523 15.902C8.12736 15.8998 8.13014 15.8982 8.13226 15.8961C8.13436 15.894 8.136 15.8912 8.13812 15.8891C8.14032 15.8869 8.14296 15.8842 8.14515 15.882C8.14729 15.8799 8.15006 15.8783 8.15218 15.8762C8.15426 15.8741 8.15595 15.8712 8.15804 15.8691C8.16023 15.867 8.1629 15.8643 8.16507 15.8621C8.16721 15.86 8.16998 15.8584 8.1721 15.8563C8.17421 15.8541 8.17584 15.8513 8.17796 15.8492L8.19788 15.8293C8.19999 15.8272 8.20283 15.8255 8.20491 15.8234C8.20701 15.8213 8.20867 15.8185 8.21077 15.8164C8.2129 15.8143 8.21569 15.8127 8.2178 15.8105C8.21991 15.8084 8.22155 15.8056 8.22366 15.8035C8.2258 15.8014 8.22858 15.7998 8.23069 15.7977C8.23279 15.7955 8.23445 15.7927 8.23655 15.7906C8.23867 15.7885 8.24149 15.7869 8.24358 15.7848C8.24565 15.7827 8.24737 15.7798 8.24944 15.7777L8.26819 15.759C8.27029 15.7569 8.27316 15.7552 8.27523 15.7531C8.27729 15.751 8.27902 15.7482 8.28108 15.7461C8.28301 15.7442 8.28502 15.7422 8.28694 15.7402C8.289 15.7382 8.29195 15.7364 8.29398 15.7344C8.29602 15.7323 8.29779 15.7294 8.29983 15.7273C8.30176 15.7254 8.30377 15.7234 8.30569 15.7215C8.30776 15.7195 8.31069 15.7177 8.31273 15.7156C8.31475 15.7136 8.31656 15.7106 8.31858 15.7086L8.3303 15.6969C8.33234 15.6949 8.33533 15.693 8.33733 15.691C8.33933 15.689 8.3412 15.686 8.34319 15.684L8.36663 15.6605C8.36863 15.6586 8.37169 15.6567 8.37366 15.6547C8.37559 15.6528 8.3776 15.6508 8.37952 15.6488C8.38148 15.6468 8.38343 15.6438 8.38538 15.6418L8.43226 15.5949C8.43401 15.5932 8.43639 15.592 8.43812 15.5902C8.44001 15.5883 8.44209 15.5863 8.44398 15.5844C8.44569 15.5826 8.44694 15.5802 8.44866 15.5785L8.4721 15.5551C8.47384 15.5534 8.47624 15.5521 8.47796 15.5504C8.47968 15.5486 8.48092 15.5463 8.48265 15.5445L8.49437 15.5328C8.49609 15.5311 8.49852 15.5298 8.50023 15.5281C8.50194 15.5264 8.50319 15.524 8.50491 15.5223L8.51077 15.5164C8.51251 15.5147 8.51493 15.5134 8.51663 15.5117C8.51835 15.51 8.51959 15.5076 8.52132 15.5059L8.53773 15.4895C8.53944 15.4878 8.5419 15.4865 8.54358 15.4848C8.54528 15.483 8.54657 15.4806 8.54827 15.4789C8.55001 15.4772 8.55243 15.4759 8.55413 15.4742C8.55583 15.4725 8.55712 15.4701 8.55882 15.4684C8.56054 15.4667 8.56299 15.4654 8.56468 15.4637C8.56634 15.462 8.5677 15.4595 8.56937 15.4578L8.5846 15.4426C8.58631 15.4409 8.58879 15.4396 8.59046 15.4379C8.5921 15.4362 8.5935 15.4337 8.59515 15.432C8.59669 15.4305 8.5983 15.4289 8.59983 15.4273C8.60152 15.4257 8.60405 15.4243 8.60569 15.4227C8.6073 15.421 8.60878 15.4184 8.61038 15.4168L8.61976 15.4074C8.62141 15.4058 8.624 15.4044 8.62562 15.4027L8.6303 15.398C8.6319 15.3964 8.63339 15.3938 8.63499 15.3922L8.7053 15.3219C8.70664 15.3206 8.70869 15.3197 8.70999 15.3184C8.71131 15.317 8.71217 15.315 8.71351 15.3137L8.72288 15.3043C8.72422 15.303 8.72627 15.3021 8.72757 15.3008C8.72889 15.2994 8.72975 15.2974 8.73108 15.2961C8.73251 15.2947 8.73437 15.2928 8.73577 15.2914C8.7371 15.2901 8.73916 15.2892 8.74046 15.2879C8.74178 15.2865 8.74264 15.2845 8.74398 15.2832C8.74534 15.2819 8.74733 15.281 8.74866 15.2797C8.74995 15.2784 8.75088 15.2763 8.75218 15.275L8.77679 15.2504C8.77812 15.2491 8.78018 15.2482 8.78148 15.2469C8.78273 15.2456 8.78373 15.2435 8.78499 15.2422C8.78614 15.241 8.78737 15.2398 8.78851 15.2387C8.78981 15.2374 8.79193 15.2364 8.79319 15.2352C8.79443 15.2339 8.79547 15.2317 8.79671 15.2305L8.80374 15.2234C8.80501 15.2222 8.80721 15.2211 8.80843 15.2199C8.80964 15.2187 8.81074 15.2164 8.81194 15.2152L8.85765 15.1695C8.85863 15.1686 8.86022 15.1681 8.86116 15.1672C8.86207 15.1662 8.86258 15.1646 8.86351 15.1637L8.87054 15.1566C8.87152 15.1557 8.87311 15.1552 8.87405 15.1543C8.87497 15.1533 8.87546 15.1517 8.8764 15.1508C8.87743 15.1497 8.87891 15.1483 8.87991 15.1473C8.88089 15.1464 8.88249 15.1459 8.88343 15.1449C8.88435 15.1439 8.88483 15.1424 8.88577 15.1414L8.90335 15.1238C8.9043 15.1229 8.90596 15.1224 8.90687 15.1215C8.90773 15.1206 8.90833 15.1188 8.90921 15.118L8.91155 15.1156C8.91248 15.1148 8.9142 15.1142 8.91507 15.1133C8.91591 15.1124 8.91656 15.1106 8.91741 15.1098L8.9221 15.1051C8.92299 15.1043 8.92479 15.1036 8.92562 15.1027L8.92796 15.1004L8.9303 15.0969L8.9514 15.0758L8.95374 15.0746L8.95491 15.0723L8.9596 15.0676L8.96194 15.0664L8.96312 15.0641L8.96546 15.0617L8.9678 15.0605L8.96898 15.0582L8.97132 15.057L8.97249 15.0547L8.97601 15.0512L8.97835 15.05L8.97952 15.0477L8.98538 15.0418L8.98773 15.0406L8.9889 15.0383L9.00179 15.0254H9.00296V15.0242L9.0053 15.0219H9.00648V15.0207L9.01116 15.016H9.01233V15.0148C9.36375 14.6635 9.9347 14.6624 10.2862 15.0137C10.6155 15.3431 10.6364 15.8649 10.3483 16.2184L10.2862 16.2863L10.285 16.2875V16.2887H10.2838V16.2898H10.2826V16.291H10.2815V16.2922H10.2803L10.2791 16.2934V16.2945H10.278L10.2768 16.2957V16.2969L10.2756 16.298H10.2744L10.2627 16.3098L10.2616 16.3121L10.2604 16.3133L10.258 16.3145L10.2569 16.3156L10.2557 16.318L10.2545 16.3191L10.2522 16.3203L10.251 16.3227L10.2487 16.3238L10.2475 16.3262L10.2451 16.3273L10.244 16.3297L10.2416 16.3309L10.2405 16.3332L10.2381 16.3344L10.2358 16.3367L10.2346 16.3391L10.2323 16.3402L10.2276 16.3449L10.2264 16.3473L10.2241 16.3496L10.2217 16.3508L10.203 16.3695L10.2006 16.373L10.1983 16.3754C10.1974 16.3762 10.1956 16.3769 10.1948 16.3777L10.1901 16.3824C10.1892 16.3833 10.1886 16.385 10.1877 16.3859C10.1869 16.3868 10.1851 16.3874 10.1842 16.3883L10.1819 16.3906C10.181 16.3915 10.1804 16.3932 10.1795 16.3941C10.1786 16.395 10.177 16.3956 10.176 16.3965C10.1751 16.3974 10.1745 16.3991 10.1737 16.4C10.1728 16.4009 10.1711 16.4015 10.1701 16.4023C10.1693 16.4032 10.1687 16.4049 10.1678 16.4059C10.1669 16.4067 10.1652 16.4073 10.1643 16.4082C10.1634 16.4091 10.1628 16.4108 10.1619 16.4117C10.161 16.4126 10.1594 16.4132 10.1584 16.4141C10.1575 16.415 10.157 16.4166 10.1561 16.4176C10.1551 16.4185 10.1535 16.419 10.1526 16.4199L10.1491 16.4234C10.1481 16.4244 10.1476 16.426 10.1467 16.427C10.1458 16.4279 10.1442 16.4284 10.1432 16.4293C10.1422 16.4303 10.1407 16.4318 10.1397 16.4328C10.1387 16.4338 10.1383 16.4353 10.1373 16.4363L10.1303 16.4434C10.1294 16.4443 10.1278 16.4448 10.1268 16.4457L10.0881 16.4844C10.0869 16.4856 10.0858 16.4878 10.0846 16.4891C10.0835 16.4902 10.0822 16.4914 10.0811 16.4926C10.0799 16.4938 10.0777 16.4949 10.0764 16.4961L10.0694 16.5031C10.0681 16.5044 10.0671 16.5065 10.0659 16.5078C10.0646 16.5091 10.0625 16.5101 10.0612 16.5113C10.06 16.5125 10.0588 16.5137 10.0576 16.5148C10.0564 16.5161 10.0554 16.5182 10.0541 16.5195C10.0528 16.5208 10.0508 16.5218 10.0494 16.523C10.0482 16.5243 10.0472 16.5264 10.0459 16.5277C10.0447 16.529 10.0425 16.53 10.0412 16.5313C10.04 16.5325 10.039 16.5346 10.0377 16.5359C10.0365 16.5372 10.0343 16.5382 10.033 16.5395C10.0318 16.5407 10.0308 16.5428 10.0295 16.5441C10.0283 16.5454 10.0261 16.5464 10.0248 16.5477C10.0235 16.549 10.0226 16.551 10.0213 16.5523C10.02 16.5537 10.018 16.5545 10.0166 16.5559C10.0153 16.5572 10.0144 16.5592 10.0131 16.5605C10.0118 16.5618 10.0098 16.5628 10.0084 16.5641C10.007 16.5655 10.0052 16.5673 10.0037 16.5688C10.0024 16.5701 10.0015 16.5721 10.0002 16.5734C9.99881 16.5749 9.99698 16.5767 9.99554 16.5781C9.9942 16.5795 9.99222 16.5803 9.99085 16.5816C9.98941 16.5831 9.98762 16.5849 9.98616 16.5863C9.98483 16.5877 9.98397 16.5897 9.98265 16.591C9.98119 16.5925 9.97943 16.5942 9.97796 16.5957C9.97662 16.597 9.97464 16.5979 9.97327 16.5992L9.95452 16.618C9.95319 16.6193 9.95233 16.6213 9.95101 16.6227L9.93226 16.6414C9.9307 16.643 9.928 16.6445 9.9264 16.6461L9.90765 16.6648C9.90605 16.6664 9.90456 16.6691 9.90296 16.6707C9.90143 16.6722 9.89981 16.6739 9.89827 16.6754C9.89666 16.677 9.89407 16.6785 9.89241 16.6801C9.89088 16.6816 9.88926 16.6832 9.88773 16.6848C9.88609 16.6864 9.88467 16.689 9.88304 16.6906C9.88151 16.6922 9.87989 16.6938 9.87835 16.6953C9.8767 16.697 9.87417 16.6984 9.87249 16.7L9.8678 16.7047C9.86616 16.7063 9.86476 16.7089 9.86312 16.7105C9.86144 16.7122 9.85896 16.7136 9.85726 16.7152C9.8556 16.7169 9.85422 16.7194 9.85257 16.7211L9.84788 16.7258C9.84624 16.7274 9.8437 16.7288 9.84202 16.7305C9.84035 16.7321 9.839 16.7346 9.83733 16.7363C9.83565 16.738 9.83319 16.7393 9.83148 16.741C9.82977 16.7427 9.82848 16.7451 9.82679 16.7469C9.82508 16.7486 9.82266 16.7499 9.82093 16.7516C9.81923 16.7533 9.81794 16.7557 9.81624 16.7574C9.81455 16.7591 9.8121 16.7604 9.81038 16.7621C9.80871 16.7638 9.80736 16.7663 9.80569 16.768C9.80393 16.7697 9.80162 16.772 9.79983 16.7738C9.79814 16.7755 9.7957 16.7768 9.79398 16.7785C9.79225 16.7802 9.791 16.7826 9.78929 16.7844C9.78758 16.7861 9.78516 16.7874 9.78343 16.7891C9.78163 16.7909 9.77938 16.7931 9.77757 16.7949C9.77584 16.7967 9.7746 16.799 9.77288 16.8008C9.77107 16.8026 9.76885 16.8048 9.76702 16.8066C9.7653 16.8084 9.76291 16.8096 9.76116 16.8113C9.75934 16.8132 9.75714 16.8153 9.7553 16.8172C9.75358 16.8189 9.75233 16.8213 9.75062 16.823C9.74878 16.8249 9.74661 16.8271 9.74476 16.8289C9.74303 16.8306 9.74065 16.8319 9.7389 16.8336L9.72718 16.8453C9.72545 16.847 9.72421 16.8494 9.72249 16.8512L9.69905 16.8746C9.69733 16.8763 9.69495 16.8776 9.69319 16.8793L9.66976 16.9027C9.66782 16.9047 9.66584 16.9078 9.6639 16.9098L9.64046 16.9332C9.63848 16.9352 9.63544 16.9371 9.63343 16.9391L9.62171 16.9508C9.61971 16.9528 9.61785 16.9558 9.61585 16.9578C9.61393 16.9597 9.61192 16.9617 9.60999 16.9637C9.60798 16.9657 9.605 16.9675 9.60296 16.9695L9.59124 16.9813C9.58922 16.9833 9.5874 16.9862 9.58538 16.9883C9.58335 16.9903 9.58041 16.9921 9.57835 16.9941C9.57643 16.9961 9.57442 16.9981 9.57249 17C9.57044 17.002 9.56868 17.005 9.56663 17.007C9.56461 17.0091 9.56165 17.0109 9.5596 17.0129C9.55768 17.0148 9.55567 17.0168 9.55374 17.0188C9.55167 17.0208 9.54994 17.0237 9.54788 17.0258C9.54581 17.0278 9.54294 17.0296 9.54085 17.0316C9.53893 17.0336 9.53692 17.0356 9.53499 17.0375C9.53298 17.0395 9.53114 17.0425 9.52913 17.0445C9.52709 17.0466 9.52417 17.0484 9.5221 17.0504C9.52003 17.0525 9.51831 17.0553 9.51624 17.0574C9.51415 17.0595 9.51132 17.0612 9.50921 17.0633C9.5071 17.0654 9.50545 17.0682 9.50335 17.0703C9.50124 17.0724 9.49845 17.0741 9.49632 17.0762C9.4942 17.0783 9.49257 17.0811 9.49046 17.0832C9.48835 17.0853 9.48556 17.087 9.48343 17.0891C9.48133 17.0912 9.47966 17.094 9.47757 17.0961C9.47548 17.0982 9.47265 17.0999 9.47054 17.102C9.46847 17.104 9.46674 17.1069 9.46468 17.109C9.46253 17.1111 9.45982 17.1138 9.45765 17.116C9.45557 17.1181 9.45271 17.1198 9.45062 17.1219C9.4485 17.124 9.44687 17.1268 9.44476 17.1289C9.44264 17.131 9.43986 17.1327 9.43773 17.1348C9.43555 17.1369 9.43288 17.1396 9.43069 17.1418C9.4286 17.1439 9.42692 17.1467 9.42483 17.1488C9.42272 17.1509 9.41994 17.1526 9.4178 17.1547L9.41077 17.1617C9.40866 17.1638 9.40702 17.1666 9.40491 17.1688C9.40279 17.1709 9.40002 17.1725 9.39788 17.1746C9.39567 17.1768 9.39307 17.1794 9.39085 17.1816C9.38873 17.1838 9.3871 17.1865 9.38499 17.1887C9.38277 17.1909 9.38019 17.1935 9.37796 17.1957C9.37584 17.1978 9.37307 17.1995 9.37093 17.2016L9.35687 17.2156C9.35475 17.2177 9.35312 17.2205 9.35101 17.2227C9.34876 17.2249 9.34623 17.2274 9.34398 17.2297C9.34186 17.2318 9.33908 17.2334 9.33694 17.2355L9.31585 17.2566C9.31373 17.2588 9.3121 17.2615 9.30999 17.2637L9.27483 17.2988C9.27272 17.3009 9.26994 17.3026 9.2678 17.3047L9.22562 17.3469C9.22329 17.3492 9.22092 17.3527 9.21858 17.3551L9.18343 17.3902C9.18107 17.3926 9.17761 17.3949 9.17523 17.3973L9.15413 17.4184C9.15176 17.4207 9.14947 17.4242 9.1471 17.4266L9.13304 17.4406C9.13065 17.443 9.12725 17.4453 9.12483 17.4477L9.11077 17.4617C9.10838 17.4641 9.10614 17.4675 9.10374 17.4699C9.10143 17.4722 9.09903 17.4746 9.09671 17.477C9.09431 17.4794 9.09093 17.4816 9.08851 17.484C9.08619 17.4863 9.08379 17.4887 9.08148 17.491C9.07906 17.4934 9.07685 17.4968 9.07444 17.4992L9.06741 17.5063C9.06499 17.5087 9.06165 17.5109 9.05921 17.5133C9.0569 17.5156 9.0545 17.518 9.05218 17.5203C9.04975 17.5227 9.04757 17.5261 9.04515 17.5285C9.04272 17.5309 9.03939 17.5331 9.03694 17.5355L9.02991 17.5426C9.02748 17.545 9.02531 17.5483 9.02288 17.5508C9.02057 17.5531 9.01817 17.5555 9.01585 17.5578C9.01343 17.5602 9.01009 17.5624 9.00765 17.5648C9.0052 17.5673 9.00306 17.5706 9.00062 17.573C8.99821 17.5755 8.99484 17.5777 8.99241 17.5801C8.9901 17.5824 8.9877 17.5848 8.98538 17.5871C8.98292 17.5896 8.9808 17.5928 8.97835 17.5953C8.9759 17.5978 8.97261 17.5999 8.97015 17.6023L8.96312 17.6094C8.96069 17.6118 8.9585 17.6151 8.95608 17.6176C8.95362 17.62 8.95037 17.6222 8.94788 17.6246C8.94541 17.6271 8.94332 17.6303 8.94085 17.6328C8.93841 17.6353 8.93511 17.6374 8.93265 17.6398C8.93033 17.6422 8.92793 17.6446 8.92562 17.6469C8.9232 17.6493 8.921 17.6526 8.91858 17.6551C8.91614 17.6575 8.91284 17.6597 8.91038 17.6621C8.90792 17.6646 8.90581 17.6678 8.90335 17.6703C8.90086 17.6728 8.89765 17.6749 8.89515 17.6773C8.89265 17.6798 8.8906 17.683 8.88812 17.6855C8.88563 17.688 8.88241 17.6901 8.87991 17.6926C8.87744 17.6951 8.87535 17.6983 8.87288 17.7008C8.87042 17.7032 8.86716 17.7054 8.86468 17.7078C8.86222 17.7103 8.8601 17.7135 8.85765 17.716C8.85519 17.7185 8.85192 17.7206 8.84944 17.723C8.84699 17.7255 8.84486 17.7288 8.84241 17.7313C8.83996 17.7337 8.83669 17.7358 8.83421 17.7383C8.83175 17.7407 8.82963 17.744 8.82718 17.7465C8.82471 17.749 8.82146 17.7511 8.81898 17.7535C8.8165 17.756 8.81441 17.7592 8.81194 17.7617C8.80945 17.7642 8.80625 17.7663 8.80374 17.7688C8.80124 17.7713 8.79921 17.7744 8.79671 17.777C8.7942 17.7795 8.79103 17.7815 8.78851 17.784C8.78601 17.7865 8.78397 17.7897 8.78148 17.7922C8.77899 17.7947 8.77577 17.7967 8.77327 17.7992C8.77081 17.8017 8.76869 17.8049 8.76624 17.8074C8.76381 17.8099 8.76049 17.812 8.75804 17.8145C8.7555 17.817 8.75239 17.8201 8.74983 17.8227C8.74736 17.8251 8.74527 17.8284 8.7428 17.8309C8.7403 17.8334 8.73712 17.8354 8.7346 17.8379C8.73209 17.8404 8.73007 17.8436 8.72757 17.8461C8.72509 17.8486 8.72187 17.8507 8.71937 17.8531C8.71682 17.8557 8.71372 17.8588 8.71116 17.8613C8.70871 17.8638 8.70658 17.8671 8.70413 17.8695C8.70163 17.872 8.69844 17.8741 8.69593 17.8766C8.69342 17.8791 8.6914 17.8822 8.6889 17.8848C8.68642 17.8872 8.68319 17.8893 8.68069 17.8918C8.67814 17.8944 8.67506 17.8974 8.67249 17.9C8.67 17.9025 8.66794 17.9057 8.66546 17.9082C8.66295 17.9107 8.65978 17.9127 8.65726 17.9152C8.65477 17.9177 8.6527 17.9209 8.65023 17.9234L8.64202 17.9316C8.63952 17.9341 8.63634 17.9362 8.63382 17.9387C8.63131 17.9412 8.62929 17.9444 8.62679 17.9469C8.62422 17.9494 8.62116 17.9525 8.61858 17.9551C8.6161 17.9576 8.61288 17.9596 8.61038 17.9621C8.60787 17.9646 8.60585 17.9678 8.60335 17.9703C8.60087 17.9728 8.59764 17.9749 8.59515 17.9773C8.59257 17.9799 8.58953 17.983 8.58694 17.9855C8.58443 17.9881 8.58241 17.9912 8.57991 17.9938C8.57743 17.9962 8.57421 17.9983 8.57171 18.0008C8.56913 18.0034 8.56609 18.0064 8.56351 18.009C8.561 18.0115 8.55898 18.0147 8.55648 18.0172C8.55389 18.0198 8.55086 18.0228 8.54827 18.0254C8.54578 18.0279 8.54258 18.0299 8.54007 18.0324C8.53756 18.0349 8.53554 18.0381 8.53304 18.0406C8.53045 18.0432 8.52743 18.0462 8.52483 18.0488C8.52232 18.0513 8.51916 18.0534 8.51663 18.0559C8.51413 18.0584 8.51209 18.0615 8.5096 18.0641L8.5014 18.0723C8.49889 18.0748 8.49572 18.0768 8.49319 18.0793C8.49061 18.0819 8.48759 18.0849 8.48499 18.0875C8.48248 18.09 8.48046 18.0932 8.47796 18.0957C8.47545 18.0982 8.47227 18.1002 8.46976 18.1027C8.46716 18.1053 8.46415 18.1083 8.46155 18.1109C8.45904 18.1135 8.45702 18.1166 8.45452 18.1191C8.45193 18.1217 8.44892 18.1247 8.44632 18.1273C8.44381 18.1299 8.44064 18.1319 8.43812 18.1344C8.43552 18.137 8.43252 18.14 8.42991 18.1426C8.42741 18.1451 8.42538 18.1483 8.42288 18.1508C8.42037 18.1533 8.4172 18.1553 8.41468 18.1578C8.41208 18.1604 8.40908 18.1634 8.40648 18.166C8.40396 18.1685 8.40194 18.1717 8.39944 18.1742C8.39685 18.1768 8.39385 18.1798 8.39124 18.1824C8.38873 18.1849 8.38556 18.187 8.38304 18.1895C8.38044 18.1921 8.37744 18.1951 8.37483 18.1977C8.37232 18.2002 8.3703 18.2033 8.3678 18.2059C8.3653 18.2084 8.36212 18.2104 8.3596 18.2129C8.357 18.2155 8.354 18.2185 8.3514 18.2211C8.34889 18.2236 8.34687 18.2268 8.34437 18.2293C8.34177 18.2319 8.33877 18.2349 8.33616 18.2375C8.33365 18.24 8.33048 18.242 8.32796 18.2445C8.32536 18.2471 8.32236 18.2501 8.31976 18.2527C8.31725 18.2552 8.31522 18.2584 8.31273 18.2609C8.31013 18.2635 8.30713 18.2665 8.30452 18.2691C8.30201 18.2717 8.29884 18.2737 8.29632 18.2762C8.29372 18.2788 8.29072 18.2818 8.28812 18.2844C8.2856 18.2869 8.28358 18.2901 8.28108 18.2926C8.27857 18.2951 8.2754 18.2971 8.27288 18.2996C8.27028 18.3022 8.26728 18.3052 8.26468 18.3078C8.26217 18.3103 8.26015 18.3135 8.25765 18.316L8.24944 18.3242C8.24693 18.3267 8.24376 18.3288 8.24124 18.3313C8.23864 18.3339 8.23564 18.3368 8.23304 18.3395C8.23053 18.342 8.22851 18.3451 8.22601 18.3477C8.22341 18.3503 8.22041 18.3533 8.2178 18.3559C8.21529 18.3584 8.21212 18.3604 8.2096 18.3629C8.20709 18.3654 8.20507 18.3686 8.20257 18.3711C8.19997 18.3737 8.19697 18.3767 8.19437 18.3793C8.19185 18.3818 8.18869 18.3838 8.18616 18.3863C8.18357 18.3889 8.18056 18.3919 8.17796 18.3945C8.17545 18.397 8.17343 18.4002 8.17093 18.4027C8.16833 18.4053 8.16533 18.4083 8.16273 18.4109C8.16021 18.4135 8.15705 18.4155 8.15452 18.418C8.15201 18.4205 8.14999 18.4237 8.14749 18.4262C8.1449 18.4288 8.14189 18.4318 8.13929 18.4344C8.13678 18.4369 8.13361 18.4389 8.13108 18.4414C8.12849 18.444 8.12548 18.447 8.12288 18.4496C8.12037 18.4521 8.11835 18.4553 8.11585 18.4578C8.11335 18.4603 8.11016 18.4624 8.10765 18.4648C8.10506 18.4674 8.10204 18.4705 8.09944 18.473C8.09693 18.4756 8.09491 18.4787 8.09241 18.4813C8.08983 18.4838 8.0868 18.4869 8.08421 18.4895C8.08171 18.492 8.07852 18.494 8.07601 18.4965C8.07349 18.499 8.07147 18.5022 8.06898 18.5047C8.06639 18.5073 8.06336 18.5103 8.06077 18.5129C8.05826 18.5154 8.05509 18.5174 8.05257 18.5199C8.05006 18.5224 8.04803 18.5256 8.04554 18.5281C8.04296 18.5307 8.03992 18.5337 8.03733 18.5363C8.03482 18.5388 8.03165 18.5409 8.02913 18.5434C8.02663 18.5459 8.02459 18.5491 8.0221 18.5516C8.01953 18.5541 8.01648 18.5572 8.0139 18.5598C8.01139 18.5623 8.00822 18.5643 8.00569 18.5668C8.00319 18.5693 8.00115 18.5725 7.99866 18.575C7.99609 18.5776 7.99304 18.5806 7.99046 18.5832C7.98796 18.5857 7.98477 18.5877 7.98226 18.5902C7.97974 18.5927 7.97772 18.5959 7.97523 18.5984C7.97276 18.6009 7.9695 18.603 7.96702 18.6055C7.96446 18.608 7.96139 18.6111 7.95882 18.6137C7.95631 18.6162 7.95429 18.6194 7.95179 18.6219C7.94928 18.6244 7.9461 18.6264 7.94358 18.6289C7.94102 18.6315 7.93795 18.6345 7.93538 18.6371C7.93291 18.6396 7.93081 18.6428 7.92835 18.6453C7.92584 18.6478 7.92267 18.6498 7.92015 18.6523C7.91763 18.6549 7.91561 18.658 7.91312 18.6605C7.91065 18.663 7.9074 18.6651 7.90491 18.6676C7.90236 18.6701 7.89927 18.6732 7.89671 18.6758C7.89424 18.6783 7.89214 18.6815 7.88968 18.684C7.88717 18.6865 7.884 18.6885 7.88148 18.691C7.87896 18.6935 7.87694 18.6967 7.87444 18.6992C7.87196 18.7017 7.86874 18.7038 7.86624 18.7063C7.8637 18.7088 7.86059 18.7119 7.85804 18.7145C7.85561 18.7169 7.85343 18.7202 7.85101 18.7227C7.84855 18.7251 7.84527 18.7272 7.8428 18.7297C7.84033 18.7322 7.83824 18.7354 7.83577 18.7379C7.83328 18.7404 7.83008 18.7424 7.82757 18.7449C7.82506 18.7474 7.82304 18.7506 7.82054 18.7531C7.81803 18.7556 7.81486 18.7577 7.81233 18.7602C7.80984 18.7627 7.80779 18.7659 7.8053 18.7684C7.80282 18.7708 7.79959 18.7729 7.7971 18.7754C7.79463 18.7779 7.79253 18.7811 7.79007 18.7836C7.78761 18.7861 7.78434 18.7882 7.78187 18.7906C7.77941 18.7931 7.77728 18.7964 7.77483 18.7988C7.77238 18.8013 7.7691 18.8034 7.76663 18.8059C7.76418 18.8083 7.76204 18.8116 7.7596 18.8141C7.75714 18.8165 7.75387 18.8187 7.7514 18.8211C7.74894 18.8236 7.74682 18.8268 7.74437 18.8293C7.7419 18.8318 7.73864 18.8339 7.73616 18.8363C7.73368 18.8388 7.7316 18.842 7.72913 18.8445C7.72664 18.847 7.72343 18.8491 7.72093 18.8516C7.71843 18.8541 7.71638 18.8573 7.7139 18.8598C7.71142 18.8622 7.70819 18.8643 7.70569 18.8668C7.70324 18.8693 7.70111 18.8725 7.69866 18.875C7.69623 18.8774 7.6929 18.8796 7.69046 18.882C7.68814 18.8844 7.68574 18.8867 7.68343 18.8891C7.681 18.8915 7.67882 18.8948 7.6764 18.8973C7.67393 18.8997 7.67067 18.9018 7.66819 18.9043C7.66572 18.9068 7.66362 18.91 7.66116 18.9125C7.65872 18.9149 7.65542 18.9171 7.65296 18.9195C7.65064 18.9219 7.64824 18.9242 7.64593 18.9266C7.6435 18.929 7.64132 18.9323 7.6389 18.9348C7.63644 18.9372 7.63317 18.9393 7.63069 18.9418C7.62825 18.9442 7.62609 18.9475 7.62366 18.95C7.62135 18.9523 7.61895 18.9547 7.61663 18.957C7.61419 18.9595 7.61089 18.9616 7.60843 18.9641C7.60598 18.9665 7.60383 18.9698 7.6014 18.9723C7.59908 18.9746 7.59668 18.977 7.59437 18.9793C7.59192 18.9817 7.58862 18.9839 7.58616 18.9863C7.58373 18.9888 7.58156 18.9921 7.57913 18.9945C7.57681 18.9969 7.57442 18.9992 7.5721 19.0016C7.56967 19.004 7.56634 19.0062 7.5639 19.0086C7.56158 19.0109 7.55918 19.0133 7.55687 19.0156C7.55444 19.0181 7.55225 19.0214 7.54983 19.0238C7.54752 19.0261 7.54512 19.0285 7.5428 19.0309C7.54039 19.0333 7.53703 19.0355 7.5346 19.0379C7.53228 19.0402 7.52988 19.0426 7.52757 19.0449C7.52516 19.0473 7.52294 19.0507 7.52054 19.0531C7.51822 19.0554 7.51582 19.0578 7.51351 19.0602C7.5111 19.0626 7.50772 19.0648 7.5053 19.0672C7.50299 19.0695 7.50059 19.0719 7.49827 19.0742C7.49588 19.0766 7.49363 19.08 7.49124 19.0824L7.47718 19.0965C7.4748 19.0989 7.47138 19.1011 7.46898 19.1035L7.44788 19.1246C7.44552 19.127 7.44321 19.1304 7.44085 19.1328L7.41976 19.1539C7.41741 19.1563 7.41392 19.1586 7.41155 19.1609L7.32718 19.2453C7.32506 19.2474 7.32342 19.2502 7.32132 19.2523L7.29319 19.2805C7.29107 19.2826 7.2883 19.2842 7.28616 19.2863C6.93471 19.6378 6.36498 19.6377 6.01351 19.2863C6.01138 19.2842 6.00861 19.2826 6.00648 19.2805L5.97835 19.2523C5.97623 19.2502 5.97461 19.2475 5.97249 19.2453L5.88812 19.1609C5.88577 19.1586 5.88229 19.1563 5.87991 19.1539L5.85882 19.1328C5.85645 19.1304 5.85416 19.127 5.85179 19.1246L5.83069 19.1035C5.82831 19.1011 5.8249 19.0989 5.82249 19.0965L5.80843 19.0824C5.80603 19.08 5.80379 19.0766 5.8014 19.0742C5.79908 19.0719 5.79669 19.0695 5.79437 19.0672C5.79196 19.0648 5.78859 19.0626 5.78616 19.0602C5.78384 19.0578 5.78145 19.0554 5.77913 19.0531C5.77672 19.0507 5.77451 19.0474 5.7721 19.0449C5.76978 19.0426 5.76739 19.0402 5.76507 19.0379C5.76265 19.0355 5.7593 19.0333 5.75687 19.0309C5.75455 19.0285 5.75216 19.0262 5.74983 19.0238C5.74741 19.0214 5.74523 19.0181 5.7428 19.0156C5.74048 19.0133 5.73809 19.0109 5.73577 19.0086C5.73334 19.0062 5.73002 19.004 5.72757 19.0016C5.72525 18.9992 5.72286 18.9969 5.72054 18.9945C5.7181 18.9921 5.71594 18.9888 5.71351 18.9863C5.71106 18.9839 5.70776 18.9817 5.7053 18.9793C5.70298 18.977 5.70059 18.9746 5.69827 18.9723C5.69582 18.9698 5.69369 18.9665 5.69124 18.9641C5.68879 18.9616 5.6855 18.9595 5.68304 18.957C5.68072 18.9547 5.67833 18.9523 5.67601 18.95C5.67356 18.9476 5.67141 18.9443 5.66898 18.9418C5.66651 18.9393 5.66325 18.9372 5.66077 18.9348C5.65834 18.9323 5.65617 18.929 5.65374 18.9266C5.65142 18.9242 5.64903 18.9219 5.64671 18.9195C5.64426 18.9171 5.64097 18.9149 5.63851 18.9125C5.63603 18.91 5.63395 18.9068 5.63148 18.9043C5.62901 18.9018 5.62575 18.8997 5.62327 18.8973C5.62084 18.8948 5.61867 18.8915 5.61624 18.8891C5.61392 18.8867 5.61153 18.8844 5.60921 18.882C5.60678 18.8796 5.60346 18.8774 5.60101 18.875C5.59855 18.8725 5.59643 18.8693 5.59398 18.8668C5.59149 18.8643 5.58827 18.8622 5.58577 18.8598C5.58328 18.8573 5.58123 18.8541 5.57874 18.8516C5.57625 18.8491 5.57305 18.847 5.57054 18.8445C5.56806 18.8421 5.56598 18.8388 5.56351 18.8363C5.56104 18.8339 5.55779 18.8318 5.5553 18.8293C5.55284 18.8268 5.55073 18.8236 5.54827 18.8211C5.54581 18.8186 5.54254 18.8165 5.54007 18.8141C5.53761 18.8116 5.53549 18.8083 5.53304 18.8059C5.53058 18.8034 5.52731 18.8013 5.52483 18.7988C5.52237 18.7964 5.52026 18.7931 5.5178 18.7906C5.51534 18.7882 5.51208 18.7861 5.5096 18.7836C5.50713 18.7811 5.50504 18.7779 5.50257 18.7754C5.50009 18.7729 5.49686 18.7708 5.49437 18.7684C5.49187 18.7659 5.48982 18.7627 5.48733 18.7602C5.48482 18.7576 5.48166 18.7556 5.47913 18.7531C5.47662 18.7506 5.47461 18.7475 5.4721 18.7449C5.4696 18.7424 5.46641 18.7404 5.4639 18.7379C5.46142 18.7354 5.45934 18.7322 5.45687 18.7297C5.45441 18.7272 5.45114 18.7251 5.44866 18.7227C5.44623 18.7202 5.44406 18.7169 5.44163 18.7145C5.43909 18.7119 5.43598 18.7088 5.43343 18.7063C5.43094 18.7038 5.42773 18.7017 5.42523 18.6992C5.42271 18.6967 5.4207 18.6935 5.41819 18.691C5.41568 18.6885 5.41251 18.6865 5.40999 18.684C5.40751 18.6815 5.40543 18.6783 5.40296 18.6758C5.40041 18.6732 5.39732 18.6701 5.39476 18.6676C5.39228 18.6651 5.38904 18.663 5.38655 18.6605C5.38404 18.658 5.38203 18.6549 5.37952 18.6523C5.37701 18.6498 5.37385 18.6478 5.37132 18.6453C5.36885 18.6428 5.36675 18.6396 5.36429 18.6371C5.36173 18.6345 5.35866 18.6315 5.35608 18.6289C5.35358 18.6264 5.3504 18.6244 5.34788 18.6219C5.34537 18.6194 5.34336 18.6162 5.34085 18.6137C5.33828 18.6111 5.33522 18.608 5.33265 18.6055C5.33018 18.603 5.32693 18.6009 5.32444 18.5984C5.32193 18.5959 5.31992 18.5928 5.31741 18.5902C5.31491 18.5877 5.31173 18.5857 5.30921 18.5832C5.30664 18.5806 5.30359 18.5776 5.30101 18.575C5.2985 18.5725 5.29647 18.5693 5.29398 18.5668C5.29146 18.5643 5.2883 18.5623 5.28577 18.5598C5.28319 18.5572 5.28016 18.5541 5.27757 18.5516C5.27507 18.5491 5.27303 18.5459 5.27054 18.5434C5.26802 18.5408 5.26486 18.5388 5.26233 18.5363C5.25975 18.5337 5.25672 18.5307 5.25413 18.5281C5.25162 18.5256 5.2496 18.5224 5.2471 18.5199C5.24459 18.5174 5.24142 18.5154 5.2389 18.5129C5.23631 18.5103 5.23329 18.5073 5.23069 18.5047C5.22818 18.5022 5.22617 18.499 5.22366 18.4965C5.22116 18.494 5.21798 18.492 5.21546 18.4895C5.21287 18.4869 5.20985 18.4838 5.20726 18.4813C5.20474 18.4787 5.20273 18.4756 5.20023 18.473C5.19763 18.4705 5.19462 18.4674 5.19202 18.4648C5.18951 18.4623 5.18634 18.4603 5.18382 18.4578C5.1813 18.4553 5.17929 18.4521 5.17679 18.4496C5.17419 18.447 5.17119 18.444 5.16858 18.4414C5.16607 18.4389 5.16291 18.4369 5.16038 18.4344C5.15779 18.4318 5.15478 18.4288 5.15218 18.4262C5.14966 18.4237 5.14765 18.4205 5.14515 18.418C5.14263 18.4155 5.13947 18.4134 5.13694 18.4109C5.13435 18.4083 5.13135 18.4053 5.12874 18.4027C5.12623 18.4002 5.12422 18.3971 5.12171 18.3945C5.11911 18.3919 5.11611 18.3889 5.11351 18.3863C5.11099 18.3838 5.10783 18.3818 5.1053 18.3793C5.10281 18.3768 5.10076 18.3736 5.09827 18.3711C5.09567 18.3685 5.09268 18.3655 5.09007 18.3629C5.08755 18.3604 5.08439 18.3584 5.08187 18.3559C5.07926 18.3533 5.07627 18.3503 5.07366 18.3477C5.07115 18.3451 5.06914 18.342 5.06663 18.3395C5.06403 18.3369 5.06104 18.3339 5.05843 18.3313C5.05591 18.3287 5.05275 18.3267 5.05023 18.3242C5.04762 18.3216 5.04463 18.3186 5.04202 18.316C5.03951 18.3135 5.0375 18.3103 5.03499 18.3078C5.03239 18.3052 5.0294 18.3022 5.02679 18.2996C5.02427 18.2971 5.02111 18.2951 5.01858 18.2926C5.01607 18.2901 5.01406 18.2869 5.01155 18.2844C5.00895 18.2818 5.00596 18.2788 5.00335 18.2762C5.00083 18.2737 4.99767 18.2716 4.99515 18.2691C4.99254 18.2665 4.98955 18.2635 4.98694 18.2609C4.98443 18.2584 4.98242 18.2553 4.97991 18.2527C4.97731 18.2501 4.97432 18.2471 4.97171 18.2445C4.96919 18.242 4.96603 18.24 4.96351 18.2375C4.9609 18.2349 4.95791 18.2319 4.9553 18.2293C4.95279 18.2268 4.95078 18.2236 4.94827 18.2211C4.94567 18.2185 4.94268 18.2155 4.94007 18.2129C4.93756 18.2104 4.93438 18.2084 4.93187 18.2059C4.92935 18.2033 4.92734 18.2002 4.92483 18.1977C4.92223 18.1951 4.91924 18.1921 4.91663 18.1895C4.91412 18.1869 4.91095 18.1849 4.90843 18.1824C4.90583 18.1798 4.90283 18.1768 4.90023 18.1742C4.89771 18.1717 4.8957 18.1685 4.89319 18.166C4.89059 18.1634 4.8876 18.1604 4.88499 18.1578C4.88248 18.1553 4.87931 18.1533 4.87679 18.1508C4.87428 18.1483 4.87226 18.1451 4.86976 18.1426C4.86716 18.14 4.86416 18.137 4.86155 18.1344C4.85904 18.1319 4.85588 18.1298 4.85335 18.1273C4.85075 18.1247 4.84775 18.1217 4.84515 18.1191C4.84263 18.1166 4.84062 18.1135 4.83812 18.1109C4.83552 18.1083 4.83251 18.1053 4.82991 18.1027C4.8274 18.1002 4.82423 18.0982 4.82171 18.0957C4.81919 18.0932 4.81718 18.09 4.81468 18.0875C4.81208 18.0849 4.80907 18.0819 4.80648 18.0793C4.80396 18.0768 4.8008 18.0748 4.79827 18.0723C4.79568 18.0697 4.79267 18.0667 4.79007 18.0641C4.78756 18.0616 4.78553 18.0584 4.78304 18.0559C4.78052 18.0533 4.77736 18.0513 4.77483 18.0488C4.77224 18.0462 4.76923 18.0432 4.76663 18.0406C4.76412 18.0381 4.7621 18.0349 4.7596 18.0324C4.7571 18.0299 4.75391 18.0279 4.7514 18.0254C4.74881 18.0228 4.74579 18.0198 4.74319 18.0172C4.74068 18.0147 4.73867 18.0115 4.73616 18.009C4.73358 18.0064 4.73055 18.0034 4.72796 18.0008C4.72547 17.9983 4.72225 17.9962 4.71976 17.9938C4.71724 17.9912 4.71523 17.9881 4.71273 17.9855C4.71014 17.983 4.70711 17.9799 4.70452 17.9773C4.70204 17.9749 4.69881 17.9728 4.69632 17.9703C4.6938 17.9678 4.69179 17.9646 4.68929 17.9621C4.6868 17.9596 4.68358 17.9576 4.68108 17.9551C4.67851 17.9525 4.67546 17.9495 4.67288 17.9469C4.67037 17.9444 4.66835 17.9412 4.66585 17.9387C4.66334 17.9362 4.66017 17.9341 4.65765 17.9316C4.65508 17.9291 4.65202 17.926 4.64944 17.9234C4.64695 17.9209 4.64489 17.9177 4.64241 17.9152C4.6399 17.9127 4.63673 17.9107 4.63421 17.9082C4.63172 17.9057 4.62966 17.9025 4.62718 17.9C4.62461 17.8974 4.62154 17.8944 4.61898 17.8918C4.61649 17.8893 4.61327 17.8872 4.61077 17.8848C4.60826 17.8823 4.60624 17.8791 4.60374 17.8766C4.60124 17.8741 4.59805 17.872 4.59554 17.8695C4.59308 17.8671 4.59096 17.8638 4.58851 17.8613C4.58595 17.8588 4.58286 17.8557 4.5803 17.8531C4.57781 17.8506 4.5746 17.8486 4.5721 17.8461C4.56958 17.8436 4.56757 17.8404 4.56507 17.8379C4.56256 17.8354 4.55939 17.8334 4.55687 17.8309C4.55439 17.8284 4.5523 17.8251 4.54983 17.8227C4.54729 17.8201 4.54418 17.817 4.54163 17.8145C4.53919 17.812 4.53588 17.8099 4.53343 17.8074C4.53096 17.805 4.52885 17.8017 4.5264 17.7992C4.52391 17.7967 4.52069 17.7947 4.51819 17.7922C4.51569 17.7897 4.51366 17.7865 4.51116 17.784C4.50865 17.7815 4.50548 17.7795 4.50296 17.777C4.50045 17.7744 4.49843 17.7713 4.49593 17.7688C4.49343 17.7663 4.49023 17.7642 4.48773 17.7617C4.48524 17.7592 4.48317 17.756 4.48069 17.7535C4.47822 17.751 4.47498 17.749 4.47249 17.7465C4.47002 17.744 4.46792 17.7408 4.46546 17.7383C4.463 17.7358 4.45973 17.7337 4.45726 17.7313C4.4548 17.7288 4.45268 17.7255 4.45023 17.723C4.44776 17.7206 4.4445 17.7185 4.44202 17.716C4.43956 17.7136 4.43744 17.7103 4.43499 17.7078C4.43252 17.7053 4.42927 17.7032 4.42679 17.7008C4.42431 17.6983 4.42222 17.6951 4.41976 17.6926C4.41727 17.6901 4.41405 17.688 4.41155 17.6855C4.40905 17.683 4.40701 17.6799 4.40452 17.6773C4.40203 17.6748 4.39882 17.6728 4.39632 17.6703C4.39385 17.6678 4.39175 17.6646 4.38929 17.6621C4.38684 17.6597 4.38354 17.6575 4.38108 17.6551C4.37866 17.6527 4.37647 17.6493 4.37405 17.6469C4.37173 17.6446 4.36934 17.6422 4.36702 17.6398C4.36457 17.6374 4.36128 17.6353 4.35882 17.6328C4.35634 17.6303 4.35426 17.6271 4.35179 17.6246C4.34931 17.6221 4.34607 17.62 4.34358 17.6176C4.34115 17.6151 4.33898 17.6118 4.33655 17.6094C4.33423 17.6071 4.33184 17.6047 4.32952 17.6023C4.32707 17.5999 4.32378 17.5978 4.32132 17.5953C4.31885 17.5928 4.31674 17.5896 4.31429 17.5871C4.31197 17.5848 4.30958 17.5824 4.30726 17.5801C4.30484 17.5777 4.30148 17.5755 4.29905 17.573C4.2966 17.5706 4.29447 17.5673 4.29202 17.5648C4.28959 17.5624 4.28626 17.5602 4.28382 17.5578C4.2815 17.5555 4.27911 17.5531 4.27679 17.5508C4.27434 17.5483 4.27219 17.545 4.26976 17.5426C4.26743 17.5403 4.26504 17.5379 4.26273 17.5355C4.2603 17.5331 4.25696 17.5309 4.25452 17.5285C4.25209 17.5261 4.24992 17.5228 4.24749 17.5203C4.24517 17.518 4.24278 17.5156 4.24046 17.5133C4.23803 17.5109 4.2347 17.5087 4.23226 17.5063C4.22993 17.5039 4.22754 17.5015 4.22523 17.4992C4.22281 17.4968 4.2206 17.4935 4.21819 17.491C4.21587 17.4887 4.21348 17.4863 4.21116 17.484C4.20875 17.4816 4.20539 17.4794 4.20296 17.477C4.20064 17.4746 4.19825 17.4722 4.19593 17.4699C4.19352 17.4675 4.19129 17.4641 4.1889 17.4617L4.17483 17.4477C4.17244 17.4453 4.16904 17.443 4.16663 17.4406L4.15257 17.4266C4.15019 17.4242 4.14791 17.4208 4.14554 17.4184L4.12444 17.3973C4.12208 17.3949 4.11862 17.3926 4.11624 17.3902L4.08108 17.3551C4.07875 17.3527 4.07639 17.3492 4.07405 17.3469L4.03187 17.3047C4.02974 17.3026 4.02697 17.3009 4.02483 17.2988L3.98968 17.2637C3.98755 17.2615 3.98593 17.2588 3.98382 17.2566L3.96273 17.2355C3.9606 17.2334 3.95783 17.2318 3.95569 17.2297C3.95344 17.2274 3.95091 17.2249 3.94866 17.2227C3.94654 17.2205 3.94491 17.2178 3.9428 17.2156L3.92874 17.2016C3.92661 17.1994 3.92384 17.1978 3.92171 17.1957C3.91948 17.1935 3.91691 17.1909 3.91468 17.1887C3.91255 17.1865 3.91093 17.1838 3.90882 17.1816C3.9066 17.1794 3.90401 17.1768 3.90179 17.1746C3.89966 17.1725 3.89689 17.1709 3.89476 17.1688C3.89264 17.1666 3.891 17.1638 3.8889 17.1617C3.8867 17.1595 3.88407 17.1569 3.88187 17.1547C3.87974 17.1526 3.87697 17.1509 3.87483 17.1488C3.87273 17.1467 3.87106 17.1439 3.86898 17.1418C3.86679 17.1396 3.86413 17.137 3.86194 17.1348C3.85982 17.1326 3.85705 17.131 3.85491 17.1289C3.85279 17.1268 3.85116 17.124 3.84905 17.1219C3.84697 17.1198 3.84412 17.1181 3.84202 17.116C3.83986 17.1139 3.83716 17.1112 3.83499 17.109C3.83292 17.1069 3.83119 17.104 3.82913 17.102C3.82704 17.0999 3.82421 17.0982 3.8221 17.0961C3.81999 17.094 3.81834 17.0912 3.81624 17.0891C3.81412 17.0869 3.81134 17.0853 3.80921 17.0832C3.80708 17.0811 3.80546 17.0783 3.80335 17.0762C3.80123 17.0741 3.79845 17.0724 3.79632 17.0703C3.7942 17.0682 3.79256 17.0654 3.79046 17.0633C3.78836 17.0612 3.78554 17.0595 3.78343 17.0574C3.78135 17.0553 3.77963 17.0525 3.77757 17.0504C3.77551 17.0483 3.7726 17.0466 3.77054 17.0445C3.76852 17.0425 3.76669 17.0395 3.76468 17.0375C3.76275 17.0356 3.76075 17.0336 3.75882 17.0316C3.75674 17.0296 3.75388 17.0278 3.75179 17.0258C3.74971 17.0237 3.74799 17.0208 3.74593 17.0188C3.744 17.0168 3.742 17.0148 3.74007 17.0129C3.73803 17.0109 3.73509 17.0091 3.73304 17.007C3.73098 17.005 3.72922 17.0021 3.72718 17C3.72525 16.9981 3.72325 16.9961 3.72132 16.9941C3.71927 16.9921 3.71635 16.9903 3.71429 16.9883C3.71225 16.9862 3.71045 16.9833 3.70843 16.9813L3.69671 16.9695C3.69469 16.9675 3.69171 16.9657 3.68968 16.9637C3.68775 16.9617 3.68575 16.9597 3.68382 16.9578C3.68181 16.9558 3.67995 16.9528 3.67796 16.9508L3.66624 16.9391C3.66426 16.9371 3.66121 16.9352 3.65921 16.9332L3.63577 16.9098C3.63382 16.9078 3.63186 16.9047 3.62991 16.9027L3.60648 16.8793C3.60474 16.8776 3.60236 16.8763 3.60062 16.8746L3.57718 16.8512C3.57544 16.8494 3.57421 16.8471 3.57249 16.8453L3.56077 16.8336C3.55903 16.8319 3.55666 16.8306 3.55491 16.8289C3.55306 16.8271 3.5509 16.8249 3.54905 16.823C3.54732 16.8213 3.54608 16.8189 3.54437 16.8172C3.54253 16.8154 3.54034 16.8132 3.53851 16.8113C3.53677 16.8096 3.53439 16.8084 3.53265 16.8066C3.53083 16.8048 3.52861 16.8026 3.52679 16.8008C3.52505 16.799 3.52382 16.7967 3.5221 16.7949C3.5203 16.7931 3.51805 16.7909 3.51624 16.7891C3.51452 16.7873 3.51211 16.7861 3.51038 16.7844C3.50864 16.7826 3.50741 16.7803 3.50569 16.7785C3.50399 16.7768 3.50155 16.7755 3.49983 16.7738C3.49806 16.7721 3.49575 16.7697 3.49398 16.768C3.49229 16.7663 3.49095 16.7638 3.48929 16.7621C3.48759 16.7604 3.48514 16.7591 3.48343 16.7574C3.48171 16.7557 3.48043 16.7533 3.47874 16.7516C3.47702 16.7498 3.47461 16.7486 3.47288 16.7469C3.47117 16.7452 3.46989 16.7427 3.46819 16.741C3.46649 16.7393 3.46405 16.738 3.46233 16.7363C3.46065 16.7346 3.45931 16.7322 3.45765 16.7305C3.45599 16.7288 3.45346 16.7274 3.45179 16.7258C3.45025 16.7242 3.44864 16.7226 3.4471 16.7211C3.44544 16.7194 3.44406 16.7169 3.44241 16.7152C3.44073 16.7136 3.43825 16.7122 3.43655 16.7105C3.4349 16.7089 3.4335 16.7064 3.43187 16.7047C3.43032 16.7031 3.42871 16.7015 3.42718 16.7C3.42552 16.6983 3.42299 16.697 3.42132 16.6953C3.41978 16.6938 3.41817 16.6922 3.41663 16.6906C3.41499 16.689 3.41357 16.6864 3.41194 16.6848C3.4104 16.6832 3.40879 16.6816 3.40726 16.6801C3.40563 16.6785 3.40304 16.677 3.4014 16.6754C3.39985 16.6738 3.39824 16.6722 3.39671 16.6707C3.3951 16.6691 3.39362 16.6665 3.39202 16.6648L3.37327 16.6461C3.37171 16.6445 3.369 16.643 3.36741 16.6414L3.34866 16.6227C3.34732 16.6213 3.34647 16.6193 3.34515 16.618L3.3264 16.5992C3.32505 16.5979 3.32307 16.597 3.32171 16.5957C3.32024 16.5942 3.31849 16.5925 3.31702 16.591C3.31567 16.5897 3.31483 16.5877 3.31351 16.5863C3.31206 16.5849 3.31027 16.5831 3.30882 16.5816C3.30747 16.5803 3.30549 16.5794 3.30413 16.5781C3.3027 16.5767 3.30088 16.5749 3.29944 16.5734C3.2981 16.5721 3.29725 16.5701 3.29593 16.5688C3.29452 16.5673 3.29266 16.5655 3.29124 16.5641C3.28993 16.5628 3.28788 16.5618 3.28655 16.5605C3.28521 16.5592 3.28436 16.5572 3.28304 16.5559C3.2817 16.5545 3.2797 16.5537 3.27835 16.5523C3.27704 16.551 3.27612 16.549 3.27483 16.5477C3.27355 16.5464 3.27145 16.5454 3.27015 16.5441C3.26888 16.5429 3.26788 16.5407 3.26663 16.5395C3.26537 16.5382 3.26322 16.5372 3.26194 16.5359C3.26068 16.5347 3.25967 16.5325 3.25843 16.5313C3.25716 16.53 3.25503 16.529 3.25374 16.5277C3.25244 16.5264 3.2515 16.5244 3.25023 16.523C3.24892 16.5217 3.24686 16.5208 3.24554 16.5195C3.24426 16.5183 3.24328 16.5161 3.24202 16.5148C3.24087 16.5137 3.23965 16.5125 3.23851 16.5113C3.23723 16.5101 3.23511 16.5091 3.23382 16.5078C3.23256 16.5066 3.23154 16.5044 3.2303 16.5031L3.22327 16.4961C3.22204 16.4949 3.21985 16.4938 3.21858 16.4926C3.21743 16.4914 3.21621 16.4902 3.21507 16.4891C3.21385 16.4878 3.21275 16.4856 3.21155 16.4844L3.17288 16.4457C3.17193 16.4447 3.17034 16.4443 3.16937 16.4434L3.16233 16.4363C3.16138 16.4354 3.16091 16.4338 3.15999 16.4328C3.15894 16.4318 3.15753 16.4304 3.15648 16.4293C3.15552 16.4283 3.15394 16.4279 3.15296 16.427C3.15201 16.426 3.15153 16.4244 3.15062 16.4234C3.1496 16.4224 3.14813 16.4209 3.1471 16.4199C3.14615 16.419 3.14455 16.4185 3.14358 16.4176C3.14263 16.4166 3.14216 16.415 3.14124 16.4141C3.14032 16.4131 3.13868 16.4126 3.13773 16.4117C3.13682 16.4108 3.13625 16.4091 3.13538 16.4082C3.1345 16.4073 3.13278 16.4067 3.13187 16.4059C3.13098 16.405 3.13038 16.4033 3.12952 16.4023C3.12864 16.4015 3.12692 16.4009 3.12601 16.4C3.1251 16.3991 3.12454 16.3974 3.12366 16.3965C3.12275 16.3956 3.12109 16.395 3.12015 16.3941C3.11926 16.3933 3.11867 16.3915 3.1178 16.3906L3.11546 16.3883C3.11458 16.3874 3.11286 16.3868 3.11194 16.3859C3.11108 16.3851 3.11044 16.3833 3.1096 16.3824L3.10491 16.3777L3.1014 16.3754L3.09905 16.373L3.09671 16.3695L3.07796 16.3508L3.07562 16.3496L3.07327 16.3473L3.0721 16.3449L3.06741 16.3402L3.06507 16.3391L3.0639 16.3367L3.06155 16.3344L3.05921 16.3332L3.05804 16.3309L3.05569 16.3297L3.05452 16.3273L3.05218 16.3262L3.05101 16.3238L3.04866 16.3227L3.04749 16.3203L3.04515 16.3191L3.04398 16.318L3.0428 16.3156L3.04163 16.3145L3.03929 16.3133L3.03812 16.3121L3.03694 16.3098L3.02523 16.298H3.02405L3.02288 16.2969V16.2957L3.02171 16.2945H3.02054V16.2934L3.01937 16.2922H3.01819V16.291H3.01702V16.2898H3.01585V16.2887H3.01468V16.2875H3.01351V16.2863C2.66223 15.9348 2.6621 15.3651 3.01351 15.0137C3.365 14.6625 3.93478 14.6635 4.28616 15.0148H4.28733V15.016H4.28851L4.29319 15.0207V15.0219H4.29437L4.29671 15.0242V15.0254H4.29788L4.31077 15.0383L4.31194 15.0406L4.31429 15.0418L4.32015 15.0477L4.32132 15.05L4.32366 15.0512L4.32718 15.0547L4.32835 15.057L4.33069 15.0582L4.33187 15.0605L4.33421 15.0617L4.33655 15.0641L4.33773 15.0664L4.34007 15.0676L4.34476 15.0723L4.34593 15.0746L4.34827 15.0758L4.36937 15.0969L4.37171 15.1004L4.37405 15.1027L4.37757 15.1051L4.38226 15.1098C4.3831 15.1107 4.38373 15.1124 4.3846 15.1133C4.38551 15.1141 4.38723 15.1147 4.38812 15.1156L4.39046 15.118C4.39132 15.1189 4.39191 15.1206 4.3928 15.1215C4.39375 15.1224 4.3954 15.1229 4.39632 15.1238L4.4139 15.1414C4.41482 15.1424 4.41528 15.144 4.41624 15.1449C4.41721 15.1458 4.41881 15.1463 4.41976 15.1473C4.42078 15.1483 4.42225 15.1498 4.42327 15.1508C4.42419 15.1517 4.42467 15.1534 4.42562 15.1543C4.42659 15.1552 4.42817 15.1557 4.42913 15.1566L4.43616 15.1637C4.43707 15.1646 4.43756 15.1662 4.43851 15.1672C4.43948 15.1681 4.44107 15.1686 4.44202 15.1695L4.48773 15.2152C4.48893 15.2165 4.49002 15.2187 4.49124 15.2199C4.4925 15.2211 4.49469 15.2222 4.49593 15.2234L4.50296 15.2305C4.50419 15.2317 4.50522 15.2339 4.50648 15.2352C4.50777 15.2364 4.50989 15.2374 4.51116 15.2387C4.51231 15.2398 4.51353 15.241 4.51468 15.2422C4.51593 15.2435 4.51692 15.2456 4.51819 15.2469C4.51952 15.2482 4.52158 15.2491 4.52288 15.2504L4.54749 15.275C4.54877 15.2763 4.5497 15.2784 4.55101 15.2797C4.55236 15.281 4.55435 15.2819 4.55569 15.2832C4.55701 15.2846 4.55786 15.2865 4.55921 15.2879C4.56053 15.2892 4.56259 15.2901 4.5639 15.2914C4.56531 15.2928 4.56717 15.2947 4.56858 15.2961C4.56991 15.2975 4.57075 15.2994 4.5721 15.3008C4.57343 15.3021 4.57548 15.303 4.57679 15.3043L4.58616 15.3137C4.58748 15.315 4.58833 15.317 4.58968 15.3184C4.59101 15.3197 4.59305 15.3206 4.59437 15.3219L4.66468 15.3922C4.66627 15.3938 4.66776 15.3964 4.66937 15.398C4.6709 15.3996 4.67251 15.4012 4.67405 15.4027C4.6757 15.4043 4.67829 15.4058 4.67991 15.4074L4.68929 15.4168C4.69089 15.4184 4.69236 15.421 4.69398 15.4227C4.69565 15.4243 4.69817 15.4257 4.69983 15.4273C4.70137 15.4289 4.70298 15.4305 4.70452 15.432C4.70616 15.4337 4.70756 15.4362 4.70921 15.4379C4.71091 15.4396 4.71338 15.4409 4.71507 15.4426L4.7303 15.4578C4.73197 15.4595 4.73331 15.462 4.73499 15.4637C4.7367 15.4654 4.73915 15.4667 4.74085 15.4684C4.74254 15.4701 4.74382 15.4725 4.74554 15.4742C4.74726 15.4759 4.74968 15.4772 4.7514 15.4789C4.75309 15.4806 4.75437 15.4831 4.75608 15.4848C4.7578 15.4864 4.76024 15.4878 4.76194 15.4895L4.77835 15.5059C4.78007 15.5076 4.7813 15.51 4.78304 15.5117C4.78477 15.5134 4.78718 15.5147 4.7889 15.5164C4.7907 15.5182 4.79295 15.5205 4.79476 15.5223C4.79647 15.524 4.79771 15.5264 4.79944 15.5281C4.80117 15.5298 4.80359 15.5311 4.8053 15.5328L4.81702 15.5445C4.81874 15.5463 4.81997 15.5487 4.82171 15.5504C4.82345 15.5521 4.82584 15.5534 4.82757 15.5551L4.85101 15.5785C4.85272 15.5803 4.85396 15.5826 4.85569 15.5844C4.85758 15.5863 4.85966 15.5883 4.86155 15.5902C4.8633 15.592 4.86568 15.5932 4.86741 15.5949L4.91429 15.6418C4.91624 15.6438 4.91818 15.6469 4.92015 15.6488C4.92207 15.6508 4.92407 15.6528 4.92601 15.6547C4.928 15.6567 4.93106 15.6586 4.93304 15.6605L4.95648 15.684C4.95847 15.686 4.96033 15.689 4.96233 15.691C4.96437 15.693 4.96735 15.6949 4.96937 15.6969L4.98108 15.7086C4.98311 15.7106 4.98491 15.7136 4.98694 15.7156C4.989 15.7177 4.99193 15.7194 4.99398 15.7215C4.9959 15.7234 4.9979 15.7254 4.99983 15.7273C5.00188 15.7294 5.00364 15.7323 5.00569 15.7344C5.00774 15.7364 5.01069 15.7382 5.01273 15.7402C5.01465 15.7422 5.01665 15.7442 5.01858 15.7461C5.02065 15.7482 5.02237 15.7511 5.02444 15.7531C5.02653 15.7552 5.0294 15.7569 5.03148 15.759L5.05023 15.7777C5.05229 15.7798 5.054 15.7827 5.05608 15.7848C5.05819 15.7869 5.06101 15.7885 5.06312 15.7906C5.06521 15.7927 5.06686 15.7955 5.06898 15.7977C5.07111 15.7998 5.07388 15.8014 5.07601 15.8035C5.07811 15.8056 5.07974 15.8084 5.08187 15.8105C5.08399 15.8127 5.08678 15.8143 5.0889 15.8164C5.09099 15.8185 5.09264 15.8213 5.09476 15.8234C5.09686 15.8255 5.09969 15.8272 5.10179 15.8293L5.12171 15.8492C5.12382 15.8514 5.12544 15.8541 5.12757 15.8563C5.1297 15.8584 5.13247 15.86 5.1346 15.8621C5.13679 15.8643 5.13945 15.867 5.14163 15.8691C5.14372 15.8713 5.14539 15.8741 5.14749 15.8762C5.14963 15.8783 5.1524 15.8799 5.15452 15.882L5.16155 15.8891C5.16366 15.8912 5.16529 15.894 5.16741 15.8961C5.16955 15.8982 5.17232 15.8998 5.17444 15.902L5.18851 15.916C5.19059 15.9181 5.19227 15.921 5.19437 15.923C5.1965 15.9252 5.19927 15.9268 5.2014 15.9289L5.21546 15.943C5.21757 15.9451 5.21919 15.9479 5.22132 15.95C5.22343 15.9521 5.22625 15.9538 5.22835 15.9559L5.26351 15.991C5.26562 15.9932 5.26724 15.9959 5.26937 15.998L5.28343 16.0121C5.28556 16.0142 5.28833 16.0158 5.29046 16.018L5.36077 16.0883C5.36311 16.0906 5.36546 16.0941 5.3678 16.0965L5.38187 16.1105C5.38424 16.1129 5.38771 16.1152 5.39007 16.1176L5.42523 16.1527C5.4276 16.1551 5.42987 16.1586 5.43226 16.1609C5.43466 16.1633 5.43808 16.1656 5.44046 16.168L5.46155 16.1891C5.46395 16.1915 5.46618 16.1949 5.46858 16.1973C5.47099 16.1996 5.4744 16.2019 5.47679 16.2043L5.52015 16.2477C5.52257 16.2501 5.52474 16.2534 5.52718 16.2559C5.52962 16.2583 5.53295 16.2605 5.53538 16.2629C5.5377 16.2652 5.54009 16.2676 5.54241 16.2699C5.54485 16.2724 5.547 16.2757 5.54944 16.2781C5.55187 16.2805 5.55524 16.2828 5.55765 16.2852C5.55997 16.2875 5.56236 16.2899 5.56468 16.2922C5.56712 16.2947 5.56925 16.2979 5.57171 16.3004C5.57414 16.3028 5.5775 16.305 5.57991 16.3074C5.58223 16.3097 5.58462 16.3121 5.58694 16.3145C5.5894 16.3169 5.59151 16.3202 5.59398 16.3227C5.59644 16.3251 5.59973 16.3272 5.60218 16.3297L5.62444 16.352C5.62691 16.3544 5.62899 16.3577 5.63148 16.3602C5.63394 16.3626 5.63723 16.3647 5.63968 16.3672L5.66194 16.3895C5.66441 16.3919 5.6665 16.3952 5.66898 16.3977C5.67148 16.4001 5.67468 16.4022 5.67718 16.4047C5.67967 16.4072 5.68171 16.4104 5.68421 16.4129C5.68671 16.4154 5.68992 16.4174 5.69241 16.4199C5.69488 16.4224 5.69697 16.4256 5.69944 16.4281C5.70192 16.4306 5.70518 16.4327 5.70765 16.4352L5.74983 16.4773V5.65039C5.74984 5.15334 6.15278 4.75039 6.64983 4.75039ZM16.7994 16.4996C17.2963 16.4996 17.699 16.9029 17.6994 17.3996C17.6994 17.8967 17.2965 18.2996 16.7994 18.2996H13.1994C12.7027 18.2993 12.2994 17.8965 12.2994 17.3996C12.2998 16.9031 12.7029 16.4999 13.1994 16.4996H16.7994ZM17.9994 12.8996C18.4963 12.8996 18.899 13.3029 18.8994 13.7996C18.8994 14.2967 18.4965 14.6996 17.9994 14.6996H13.1994C12.7027 14.6993 12.2994 14.2965 12.2994 13.7996C12.2998 13.3031 12.7029 12.8999 13.1994 12.8996H17.9994ZM19.1994 9.29961C19.6963 9.29961 20.099 9.70289 20.0994 10.1996C20.0994 10.6967 19.6965 11.0996 19.1994 11.0996H13.1994C12.7027 11.0993 12.2994 10.6965 12.2994 10.1996C12.2998 9.70308 12.7029 9.29992 13.1994 9.29961H19.1994ZM20.3994 5.69961C20.8963 5.69961 21.299 6.10289 21.2994 6.59961C21.2994 7.09667 20.8965 7.49961 20.3994 7.49961H13.1994C12.7027 7.4993 12.2994 7.09648 12.2994 6.59961C12.2998 6.10308 12.7029 5.69992 13.1994 5.69961H20.3994Z" fill="#0D1625"/>
</svg>
