<svg width="24" height="24" viewBox="0 0 24 24" fill="none" xmlns="http://www.w3.org/2000/svg">
<path d="M13.8 2.7C14.345 2.7 14.8078 2.69955 15.1863 2.73047C15.5755 2.76227 15.9541 2.83199 16.316 3.01641C16.8617 3.29444 17.306 3.73753 17.584 4.2832C17.7684 4.64508 17.8381 5.0238 17.8699 5.41289C17.9009 5.79155 17.8992 6.25519 17.8992 6.80039V8.4C17.8992 8.94492 17.9008 9.40779 17.8699 9.78633C17.8381 10.1753 17.7682 10.5543 17.584 10.916C17.306 11.4617 16.8617 11.906 16.316 12.184C15.9895 12.3503 15.6491 12.421 15.3 12.457V13.5H19.9992C20.4963 13.5 20.8992 13.9029 20.8992 14.4C20.8992 14.8971 20.4963 15.3 19.9992 15.3H18.9V20.4C18.9 20.8969 18.4969 21.2998 18 21.3C17.5029 21.3 17.1 20.8971 17.1 20.4V15.3H6.9V20.4C6.9 20.8969 6.49687 21.2998 6 21.3C5.50294 21.3 5.1 20.8971 5.1 20.4V15.3H3.99961C3.50255 15.3 3.09961 14.8971 3.09961 14.4C3.09961 13.9029 3.50255 13.5 3.99961 13.5H8.7V12.457C8.35047 12.421 8.00963 12.3505 7.68281 12.184C7.13721 11.9059 6.69402 11.4616 6.41602 10.916C6.23172 10.5542 6.16186 10.1754 6.13008 9.78633C6.09919 9.40777 6.09961 8.94495 6.09961 8.4V6.80039C6.09961 6.25519 6.09914 5.79155 6.13008 5.41289C6.16188 5.02382 6.23164 4.64506 6.41602 4.2832C6.69401 3.73778 7.13739 3.2944 7.68281 3.01641C8.04467 2.83203 8.42342 2.76227 8.8125 2.73047C9.19115 2.69953 9.6548 2.7 10.2 2.7H13.8ZM10.5 13.2996H13.5V12.6996H10.5V13.2996ZM10.2 4.5C9.6251 4.5 9.24734 4.50105 8.95898 4.52461C8.68222 4.54725 8.56674 4.58604 8.50078 4.61953C8.2938 4.72499 8.1246 4.89419 8.01914 5.10117C7.98565 5.16714 7.94686 5.28261 7.92422 5.55938C7.90066 5.84773 7.89961 6.22549 7.89961 6.80039V8.4C7.89961 8.97462 7.90069 9.35155 7.92422 9.63985C7.94689 9.9173 7.9856 10.0333 8.01914 10.0992C8.1246 10.3062 8.2938 10.4742 8.50078 10.5797C8.56669 10.6132 8.68175 10.6531 8.95898 10.6758C9.24734 10.6993 9.6251 10.7004 10.2 10.7004H13.8C14.3746 10.7004 14.7516 10.6993 15.0398 10.6758C15.3177 10.6531 15.4333 10.6133 15.4992 10.5797C15.706 10.4742 15.8743 10.3061 15.9797 10.0992C16.0132 10.0333 16.0531 9.91752 16.0758 9.63985C16.0993 9.35156 16.0992 8.97457 16.0992 8.4V6.80039C16.0992 6.22549 16.0993 5.84773 16.0758 5.55938C16.0531 5.28234 16.0132 5.16711 15.9797 5.10117C15.8742 4.8942 15.7062 4.72499 15.4992 4.61953C15.4333 4.58596 15.3177 4.54731 15.0398 4.52461C14.7516 4.50106 14.3747 4.5 13.8 4.5H10.2Z" fill="#0D1625"/>
</svg>
