<svg width="24" height="24" viewBox="0 0 24 24" fill="none" xmlns="http://www.w3.org/2000/svg">
<path d="M17.5004 3.1C19.654 3.1003 21.4004 4.84629 21.4004 7V13.9996C21.4004 16.1533 19.654 17.8993 17.5004 17.8996H15.8996V19.6H17.5004C17.9972 19.6002 18.4004 20.0031 18.4004 20.5C18.4004 20.9969 17.9972 21.3998 17.5004 21.4H6.49998C6.0031 21.3998 5.59998 20.9969 5.59998 20.5C5.59998 20.0031 6.0031 19.6002 6.49998 19.6H8.09958V17.8996H6.49998C4.34607 17.8996 2.59998 16.1535 2.59998 13.9996V7C2.59999 4.8461 4.34608 3.1 6.49998 3.1H17.5004ZM9.89958 17.8996V19.6H14.0996V17.8996H9.89958ZM6.49998 4.9C5.34019 4.9 4.39999 5.84022 4.39998 7V13.9996C4.39998 15.1594 5.34018 16.0996 6.49998 16.0996H17.5004C18.6599 16.0993 19.6004 15.1592 19.6004 13.9996V7C19.6004 5.8404 18.6599 4.9003 17.5004 4.9H6.49998Z" fill="#0D1625"/>
</svg>
