<svg width="24" height="24" viewBox="0 0 24 24" fill="none" xmlns="http://www.w3.org/2000/svg">
<path d="M11.9998 2.1004C14.2349 2.1004 16.252 3.02955 17.6893 4.52149C19.5551 4.15605 21.1147 5.36924 22.1143 6.80899C23.2184 8.39977 23.9002 10.5789 23.9002 12.5008C23.8999 13.6369 23.1687 14.6274 22.3416 15.2289C21.7774 15.639 21.0536 15.9492 20.2979 15.9918C20.271 16.4156 20.22 16.8308 20.1256 17.2234C19.822 18.4851 19.0802 19.6107 17.5662 20.0559C17.2675 20.1437 16.9455 20.1997 16.5994 20.2293C16.5734 20.2669 16.5489 20.3103 16.5174 20.3524C16.3388 20.5904 16.0683 20.8986 15.6877 21.2031C14.9146 21.8215 13.7183 22.4008 11.9998 22.4008C10.2816 22.4007 9.08611 21.8215 8.31309 21.2031C7.93239 20.8986 7.66199 20.5904 7.4834 20.3524C7.46818 20.3321 7.45517 20.3107 7.44121 20.2914C7.09294 20.2735 6.76944 20.2292 6.46973 20.1543C5.74964 19.9743 5.16449 19.6301 4.72129 19.1371C4.2852 18.6519 4.02757 18.0683 3.87754 17.4684C3.76153 17.0043 3.70526 16.5042 3.68652 15.9906C2.93668 15.9445 2.21931 15.636 1.65918 15.2289C0.832106 14.6274 0.10093 13.6369 0.100586 12.5008C0.100586 10.5788 0.782264 8.39979 1.88652 6.80899C2.88571 5.36973 4.44419 4.15724 6.30918 4.52149C7.74623 3.02905 9.76438 2.10051 11.9998 2.1004ZM11.9998 19.4512C11.2108 19.7173 10.4853 19.9183 9.82012 20.0594C10.3096 20.3486 11.0128 20.6007 11.9998 20.6008C12.9971 20.6008 13.7047 20.3431 14.1947 20.05C13.5243 19.9164 12.7939 19.7181 11.9998 19.4512ZM11.9998 3.9004C8.63118 3.90061 5.90041 6.63138 5.9002 10C5.90016 11.1832 5.70268 12.5877 5.58379 13.8063C5.45822 15.0935 5.41575 16.2009 5.62363 17.0324C5.7236 17.4319 5.87212 17.7238 6.06074 17.9336C6.24244 18.1356 6.5013 18.3071 6.90566 18.4082C7.69324 18.6051 8.9983 18.5262 11.0998 17.8516V17.2012C10.8192 17.0764 10.5737 16.9077 10.3697 16.7359C9.96296 16.3935 9.62744 15.9661 9.37481 15.5945C8.58725 14.4359 9.40872 13.1011 10.5525 12.8723L10.6475 12.8535C11.5406 12.6749 12.4602 12.6749 13.3533 12.8535L13.4482 12.8723C14.592 13.1011 15.4135 14.436 14.626 15.5945C14.3733 15.9662 14.0368 16.3934 13.6299 16.7359C13.4258 16.9076 13.1804 17.0763 12.8998 17.2012V17.8504C14.9918 18.5161 16.2832 18.5565 17.0588 18.3285C17.7942 18.1123 18.1782 17.6195 18.3748 16.8027C18.5857 15.9258 18.5418 14.7915 18.417 13.5414C18.2996 12.3663 18.1006 11.0257 18.1006 10C18.1004 6.63125 15.3686 3.9004 11.9998 3.9004ZM13.0006 14.6184C12.3404 14.4863 11.6604 14.4863 11.0002 14.6184L10.9053 14.6371H10.9029C11.0984 14.9177 11.3128 15.1763 11.5299 15.359C11.7682 15.5594 11.9236 15.6003 11.9998 15.6004C12.0759 15.6004 12.2321 15.5599 12.4709 15.359C12.6879 15.1763 12.9013 14.9175 13.0967 14.6371H13.0955L13.0006 14.6184ZM4.96621 6.40235C4.42429 6.61975 3.88064 7.09342 3.36543 7.83555C2.46994 9.12558 1.90059 10.9465 1.90059 12.5008C1.90098 12.8643 2.17019 13.3742 2.71738 13.7723C3.06764 14.0269 3.43045 14.159 3.74629 14.1883C3.76144 14.0011 3.77411 13.815 3.79199 13.6316C3.92307 12.2882 4.10015 11.0665 4.1002 10C4.10026 8.70422 4.41322 7.48138 4.96621 6.40235ZM19.0322 6.40235C19.5856 7.48159 19.9005 8.70386 19.9006 10C19.9006 10.9072 20.0762 12.0346 20.2088 13.3621C20.2357 13.6312 20.2584 13.9074 20.2779 14.1871C20.5882 14.1534 20.9418 14.0206 21.2834 13.7723C21.8306 13.3742 22.0998 12.8643 22.1002 12.5008C22.1002 10.9465 21.5308 9.12557 20.6354 7.83555C20.1196 7.09265 19.5747 6.61944 19.0322 6.40235ZM8.99981 9.10001C9.49686 9.10001 9.89981 9.50295 9.89981 10V10.9996C9.8998 11.4967 9.49686 11.8996 8.99981 11.8996C8.50293 11.8994 8.09981 11.4965 8.09981 10.9996V10C8.09981 9.50308 8.50293 9.10022 8.99981 9.10001ZM14.9998 9.10001C15.4969 9.10001 15.8998 9.50295 15.8998 10V10.9996C15.8998 11.4967 15.4969 11.8996 14.9998 11.8996C14.5029 11.8994 14.0998 11.4965 14.0998 10.9996V10C14.0998 9.50308 14.5029 9.10022 14.9998 9.10001Z" fill="#0D1625"/>
</svg>
