<svg width="24" height="24" viewBox="0 0 24 24" fill="none" xmlns="http://www.w3.org/2000/svg">
<path d="M12.0005 3.09998C16.3908 3.10016 20.036 6.27992 20.7649 10.4617L21.3638 9.86404C21.7152 9.51263 22.2849 9.51276 22.6364 9.86404C22.9875 10.2155 22.9878 10.7854 22.6364 11.1367L20.6372 13.1371C20.286 13.4883 19.7161 13.4878 19.3646 13.1371L17.3642 11.1367C17.0127 10.7852 17.0127 10.2155 17.3642 9.86404C17.7156 9.51257 18.2853 9.51257 18.6368 9.86404L18.8267 10.0539C17.9803 7.0794 15.2463 4.90015 12.0005 4.89998C8.07927 4.89998 4.9001 8.07915 4.9001 12.0004C4.90031 15.9214 8.0794 19.0996 12.0005 19.0996C13.8915 19.0995 15.6083 18.3611 16.8813 17.1554C17.2423 16.814 17.8123 16.8298 18.154 17.1906C18.4956 17.5515 18.4797 18.1215 18.1188 18.4633C16.5248 19.9728 14.3699 20.8995 12.0005 20.8996C7.08529 20.8996 3.10031 16.9155 3.1001 12.0004C3.1001 7.08503 7.08516 3.09998 12.0005 3.09998ZM12.0005 7.09959C12.4973 7.09978 12.9003 7.50283 12.9005 7.99959V8.10037H14.5001C14.997 8.10058 15.4001 8.50344 15.4001 9.00037C15.3999 9.4971 14.9968 9.90016 14.5001 9.90037H10.9997C10.6685 9.90057 10.3997 10.1691 10.3997 10.5004C10.3999 10.8314 10.6686 11.1002 10.9997 11.1004H13.0001C14.3254 11.1006 15.4001 12.175 15.4001 13.5004C15.3999 14.8255 14.3253 15.9002 13.0001 15.9004H12.9005V16C12.9003 16.4967 12.4972 16.8998 12.0005 16.9C11.5036 16.9 11.1007 16.4968 11.1005 16V15.9004H9.49971C9.00296 15.9002 8.59994 15.4971 8.59971 15.0004C8.59971 14.5034 9.00282 14.1006 9.49971 14.1004H13.0001C13.3311 14.1002 13.5999 13.8314 13.6001 13.5004C13.6001 13.1691 13.3313 12.9006 13.0001 12.9004H10.9997C9.67453 12.9002 8.59994 11.8255 8.59971 10.5004C8.59971 9.17501 9.67439 8.10057 10.9997 8.10037H11.1005V7.99959C11.1007 7.5027 11.5036 7.09959 12.0005 7.09959Z" fill="#0D1625"/>
</svg>
