<svg width="24" height="24" viewBox="0 0 24 24" fill="none" xmlns="http://www.w3.org/2000/svg">
<path d="M17 5.10036C19.1537 5.10056 20.9 6.84658 20.9 9.00036V15.0004C20.8997 17.154 19.1536 18.9002 17 18.9004H7.00034C4.84656 18.9004 3.10055 17.1541 3.10034 15.0004V9.00036C3.10034 6.84645 4.84643 5.10036 7.00034 5.10036H17ZM7.00034 6.90036C5.84054 6.90036 4.90034 7.84057 4.90034 9.00036V15.0004C4.90055 16.16 5.84068 17.1004 7.00034 17.1004H17C18.1595 17.1002 19.0997 16.1599 19.1 15.0004V9.00036C19.1 7.84069 18.1596 6.90056 17 6.90036H7.00034ZM14 8.10036C14.4968 8.10056 14.9 8.50343 14.9 9.00036C14.8997 9.49713 14.4967 9.90017 14 9.90036H11.5003C11.169 9.90036 10.9003 10.169 10.9003 10.5004C10.9005 10.8316 11.1691 11.1004 11.5003 11.1004H12.5C13.8253 11.1006 14.9 12.175 14.9 13.5004C14.8997 14.8256 13.8251 15.9002 12.5 15.9004H10.0003C9.50341 15.9004 9.10055 15.4972 9.10034 15.0004C9.10034 14.5033 9.50329 14.1004 10.0003 14.1004H12.5C12.831 14.1002 13.0997 13.8314 13.1 13.5004C13.1 13.1691 12.8312 12.9006 12.5 12.9004H11.5003C10.175 12.9004 9.10055 11.8257 9.10034 10.5004C9.10034 9.17488 10.1749 8.10036 11.5003 8.10036H14ZM7.00034 10.9996C7.55246 10.9998 7.99995 11.4482 7.99995 12.0004C7.99978 12.5524 7.55235 12.9998 7.00034 13C6.44816 13 5.99973 12.5525 5.99956 12.0004C5.99956 11.4481 6.44806 10.9996 7.00034 10.9996ZM17 10.9996C17.5522 10.9996 17.9996 11.4481 17.9996 12.0004C17.9994 12.5525 17.5521 13 17 13C16.4478 13 16.0005 12.5525 16.0003 12.0004C16.0003 11.4481 16.4477 10.9996 17 10.9996Z" fill="#0D1625"/>
</svg>
