<svg width="24" height="24" viewBox="0 0 24 24" fill="none" xmlns="http://www.w3.org/2000/svg">
<path d="M14.7988 3.09961C15.3438 3.09961 15.8079 3.09995 16.1865 3.13086C16.5754 3.16266 16.9547 3.23179 17.3164 3.41602C17.8617 3.69399 18.305 4.13829 18.583 4.68359C18.7672 5.04522 18.8373 5.42369 18.8691 5.8125C18.9001 6.19111 18.8994 6.65507 18.8994 7.2002V19.0996H19.7988C20.2958 19.0996 20.699 19.5031 20.6992 20C20.699 20.4969 20.2957 20.8994 19.7988 20.8994H4.19922C3.70248 20.8992 3.29905 20.4967 3.29883 20C3.29903 19.5032 3.70247 19.0998 4.19922 19.0996H5.09961V7.2002C5.09961 6.65509 5.09895 6.19111 5.12988 5.8125C5.16169 5.42368 5.23183 5.04523 5.41602 4.68359C5.69395 4.13827 6.13733 3.69402 6.68262 3.41602C7.04426 3.23182 7.42367 3.16267 7.8125 3.13086C8.19091 3.09997 8.65452 3.09961 9.19922 3.09961H14.7988ZM9.19922 4.90039C8.625 4.90039 8.24716 4.90129 7.95898 4.9248C7.68249 4.94745 7.56593 4.98605 7.5 5.01953C7.29333 5.125 7.12391 5.29423 7.01855 5.50098C6.9851 5.56694 6.94645 5.68271 6.92383 5.95898C6.90027 6.2473 6.89941 6.62542 6.89941 7.2002V19.0996H17.0996V7.2002C17.0996 6.62539 17.0978 6.24731 17.0742 5.95898C17.0516 5.68252 17.013 5.56691 16.9795 5.50098C16.874 5.29417 16.7049 5.12493 16.498 5.01953C16.4321 4.98608 16.3162 4.94741 16.04 4.9248C15.7517 4.90128 15.3735 4.90039 14.7988 4.90039H9.19922ZM9.89941 10.5C10.7278 10.5 11.3994 11.1716 11.3994 12C11.3994 12.8284 10.7278 13.5 9.89941 13.5C9.07117 13.4998 8.39941 12.8283 8.39941 12C8.39941 11.1717 9.07117 10.5002 9.89941 10.5Z" fill="#0D1625"/>
</svg>
