<svg width="24" height="24" viewBox="0 0 24 24" fill="none" xmlns="http://www.w3.org/2000/svg">
<path d="M11.2922 19.166C11.5246 19.1886 11.7607 19.2 12 19.2V21C11.7022 21 11.408 20.9837 11.1176 20.9555L11.2922 19.166ZM12.7945 20.0613L12.859 20.7164L12.8813 20.9555C12.5912 20.9837 12.2974 21 12 21V19.2C12.2393 19.2 12.4754 19.1886 12.7078 19.166L12.7945 20.0613ZM8.60625 18.3527C9.01813 18.5733 9.45396 18.7542 9.9082 18.8918L9.64688 19.752L9.64805 19.7531L9.39258 20.5957L9.38672 20.6133C8.81733 20.4408 8.27214 20.2133 7.75664 19.9371L7.91836 19.6371L8.60625 18.3527ZM16.2422 19.9371C15.7266 20.2132 15.1816 20.4408 14.6121 20.6133L14.6074 20.5957L14.352 19.7531L14.0918 18.8918C14.546 18.7542 14.9819 18.5733 15.3938 18.3527L16.2422 19.9371ZM6.43359 16.5668C6.73339 16.9317 7.06832 17.2666 7.4332 17.5664L6.29063 18.9563C5.83503 18.5819 5.41687 18.1639 5.04258 17.7082L6.43359 16.5668ZM18.9563 17.7082C18.5819 18.1639 18.1639 18.5819 17.7082 18.9563L16.5668 17.5664C16.9317 17.2666 17.2666 16.9317 17.5664 16.5668L18.9563 17.7082ZM5.1082 14.0918C5.24585 14.546 5.42665 14.9819 5.64727 15.3938L4.06172 16.2422C3.78566 15.7267 3.55797 15.1815 3.38555 14.6121L5.1082 14.0918ZM19.752 14.352L20.6133 14.6121C20.4408 15.1816 20.2132 15.7266 19.9371 16.2422L18.3527 15.3938C18.5733 14.9819 18.7542 14.546 18.8918 14.0918L19.752 14.352ZM3 12C3 11.7022 3.0151 11.4079 3.04336 11.1176L3.93867 11.2043L4.83398 11.2922C4.81138 11.5246 4.8 11.7607 4.8 12C4.8 12.2393 4.81138 12.4754 4.83398 12.7078L3.04336 12.8813C3.01518 12.5913 3 12.2974 3 12ZM21 12C21 12.2974 20.9837 12.5912 20.9555 12.8813L20.0613 12.7957L19.166 12.7078C19.1886 12.4754 19.2 12.2393 19.2 12C19.2 11.7607 19.1886 11.5246 19.166 11.2922L20.0613 11.2043L20.9555 11.1176C20.9837 11.408 21 11.7022 21 12ZM5.64727 8.60625C5.42665 9.01813 5.24585 9.45396 5.1082 9.9082L4.24688 9.64688L3.38555 9.38672C3.55803 8.81739 3.78561 8.27209 4.06172 7.75664L5.64727 8.60625ZM19.9371 7.75664C20.2133 8.27214 20.4408 8.81733 20.6133 9.38672L19.7531 9.64805L19.752 9.64688L18.8918 9.9082C18.7542 9.45396 18.5733 9.01813 18.3527 8.60625L19.9371 7.75664ZM7.4332 6.43359C7.06832 6.73339 6.73339 7.06832 6.43359 7.4332L5.04258 6.29063C5.41688 5.83504 5.83504 5.41688 6.29063 5.04258L7.4332 6.43359ZM17.7082 5.04258C18.1639 5.41687 18.5819 5.83503 18.9563 6.29063L17.5664 7.4332C17.2666 7.06832 16.9317 6.73339 16.5668 6.43359L17.7082 5.04258ZM9.9082 5.1082C9.45396 5.24585 9.01813 5.42665 8.60625 5.64727L7.75664 4.06172C8.27209 3.78561 8.81739 3.55803 9.38672 3.38555L9.9082 5.1082ZM14.6121 3.38555C15.1815 3.55797 15.7267 3.78566 16.2422 4.06172L15.3938 5.64727C14.9819 5.42665 14.546 5.24585 14.0918 5.1082L14.4094 4.06055L14.6121 3.38555ZM12 3C12.2974 3 12.5913 3.01518 12.8813 3.04336L12.7957 3.93867L12.7945 3.9375L12.7078 4.83398C12.4754 4.81138 12.2393 4.8 12 4.8C11.7607 4.8 11.5246 4.81138 11.2922 4.83398L11.2043 3.9375L11.1176 3.04336C11.4079 3.0151 11.7022 3 12 3Z" fill="#0D1625"/>
</svg>
