<svg width="24" height="24" viewBox="0 0 24 24" fill="none" xmlns="http://www.w3.org/2000/svg">
<path d="M20.4004 11.1C20.8974 11.1002 21.3004 11.503 21.3004 12V16.2C21.3004 18.3538 19.5542 20.0998 17.4004 20.1H6.60044C4.44653 20.1 2.70044 18.3539 2.70044 16.2V12C2.70044 11.5029 3.10338 11.1 3.60044 11.1C4.09736 11.1002 4.50044 11.503 4.50044 12V16.2C4.50044 17.3598 5.44064 18.3 6.60044 18.3H17.4004C18.5601 18.2998 19.5004 17.3597 19.5004 16.2V12C19.5004 11.5029 19.9034 11.1 20.4004 11.1ZM12.0004 2.85C12.4973 2.85024 12.9004 3.25309 12.9004 3.75V13.077L14.5399 11.4375C14.8913 11.0864 15.4612 11.0863 15.8125 11.4375C16.1638 11.7889 16.1636 12.3587 15.8125 12.7102L12.6368 15.8859C12.4681 16.0546 12.239 16.1495 12.0004 16.1496C11.7618 16.1496 11.5328 16.0546 11.3641 15.8859L8.18833 12.7113C7.83694 12.3599 7.8371 11.7902 8.18833 11.4387C8.5398 11.0872 9.10951 11.0872 9.46099 11.4387L11.1004 13.077V3.75C11.1004 3.25299 11.5034 2.85007 12.0004 2.85Z" fill="#0D1625"/>
</svg>
