<svg width="24" height="24" viewBox="0 0 24 24" fill="none" xmlns="http://www.w3.org/2000/svg">
<rect x="3.99951" y="4" width="16" height="16" rx="4" fill="#052657" fill-opacity="0.06"/>
<path d="M7.16347 14.3561C6.81203 14.0046 6.81207 13.4349 7.16347 13.0834L11.2721 8.97482C11.2756 8.97112 11.279 8.96674 11.2826 8.9631C11.3264 8.91938 11.3736 8.88109 11.4232 8.84825C11.4732 8.81525 11.526 8.78821 11.5803 8.76622C11.9052 8.63435 12.2916 8.69971 12.5553 8.9631L16.7553 13.1631C17.1067 13.5145 17.1065 14.0843 16.7553 14.4358C16.4038 14.7872 15.8341 14.7872 15.4826 14.4358L11.9189 10.8733L8.43613 14.3561C8.08474 14.7074 7.51494 14.7073 7.16347 14.3561Z" fill="#0D1625"/>
</svg>
