<svg width="24" height="24" viewBox="0 0 24 24" fill="none" xmlns="http://www.w3.org/2000/svg">
<rect x="4" y="4" width="16" height="16" rx="4" fill="#052657" fill-opacity="0.06"/>
<path d="M7.24396 9.64362C6.89257 9.99502 6.89271 10.5648 7.24396 10.9163L11.3537 15.026C11.357 15.0294 11.3598 15.0333 11.3631 15.0366C11.3743 15.0478 11.3866 15.0577 11.3983 15.0682C11.5236 15.1811 11.6725 15.2538 11.8283 15.2839C12.1116 15.3385 12.4163 15.2559 12.6358 15.0366L16.8358 10.8366C17.1872 10.4851 17.1872 9.91541 16.8358 9.56393C16.4843 9.21247 15.9146 9.21247 15.5631 9.56393L11.9994 13.1264L8.51661 9.64362C8.1652 9.29245 7.59537 9.29245 7.24396 9.64362Z" fill="#0D1625"/>
</svg>
