<svg width="24" height="24" viewBox="0 0 24 24" fill="none" xmlns="http://www.w3.org/2000/svg">
<path d="M13.5 6.5C13.5 7.32843 12.8284 8 12 8C11.1716 8 10.5 7.32843 10.5 6.5C10.5 5.67157 11.1716 5 12 5C12.8284 5 13.5 5.67157 13.5 6.5ZM13.5 11.9996C13.5 12.828 12.8284 13.4996 12 13.4996C11.1716 13.4996 10.5 12.828 10.5 11.9996C10.5002 11.1714 11.1717 10.4996 12 10.4996C12.8283 10.4996 13.4998 11.1714 13.5 11.9996ZM13.5 17.5004C13.4998 18.3286 12.8283 19.0004 12 19.0004C11.1717 19.0004 10.5002 18.3286 10.5 17.5004C10.5 16.672 11.1716 16.0004 12 16.0004C12.8284 16.0004 13.5 16.672 13.5 17.5004Z" fill="#0D1625"/>
</svg>
