<svg width="24" height="24" viewBox="0 0 24 24" fill="none" xmlns="http://www.w3.org/2000/svg">
<path d="M10.7022 3.00352C11.542 2.70724 12.4582 2.70718 13.2979 3.00352L17.9666 4.65117L18.7987 4.94414C20.3574 5.49446 21.3998 6.96854 21.4002 8.62149V15.4992C21.4002 17.653 19.654 19.3991 17.5002 19.3992H6.49985C4.34615 19.399 2.5999 17.653 2.59985 15.4992V8.62149C2.60031 6.9684 3.64367 5.49435 5.20259 4.94414L6.03345 4.65117L10.7022 3.00352ZM13.2979 12.4969C12.4582 12.7931 11.5419 12.7931 10.7022 12.4969L4.39985 10.2715V15.4992C4.3999 16.6588 5.34027 17.599 6.49985 17.5992H17.5002C18.6599 17.5991 19.6002 16.6589 19.6002 15.4992V10.2715L13.2979 12.4969ZM12.6991 4.70039C12.247 4.54086 11.7531 4.54093 11.301 4.70039L6.63345 6.34805L5.80142 6.64219C5.04276 6.90997 4.51176 7.58411 4.41626 8.36836L11.301 10.7988C11.7532 10.9584 12.2469 10.9584 12.6991 10.7988L19.5827 8.36836C19.4871 7.58416 18.9573 6.90997 18.1987 6.64219L17.3678 6.34805L12.6991 4.70039Z" fill="#0D1625"/>
</svg>
