<svg width="24" height="24" viewBox="0 0 24 24" fill="none" xmlns="http://www.w3.org/2000/svg">
<path d="M17.4998 4.6004C19.6537 4.6004 21.3998 6.34648 21.3998 8.50039V15.5C21.3996 17.6537 19.6535 19.4 17.4998 19.4H6.49937C4.34594 19.3996 2.59956 17.6535 2.59937 15.5V8.50039C2.59937 6.34674 4.34581 4.60082 6.49937 4.6004H17.4998ZM13.2986 12.4965C12.4589 12.7928 11.5426 12.7927 10.7029 12.4965L4.39937 10.2711V15.5C4.39956 16.6594 5.34005 17.5996 6.49937 17.6H17.4998C18.6594 17.6 19.5996 16.6596 19.5998 15.5V10.2711L13.2986 12.4965ZM6.49937 6.4004C5.38552 6.4008 4.47635 7.26817 4.4064 8.36446L11.3017 10.7984C11.7539 10.958 12.2476 10.958 12.6998 10.7984L19.5927 8.36563C19.5233 7.26855 18.6143 6.4004 17.4998 6.4004H6.49937Z" fill="#0D1625"/>
</svg>
