<svg width="24" height="24" viewBox="0 0 24 24" fill="none" xmlns="http://www.w3.org/2000/svg">
<path d="M11.9001 19.0008C11.8997 19.4975 11.4969 19.9008 11.0001 19.9008H8.0001C5.84645 19.9008 4.10052 18.1543 4.1001 16.0008L4.1001 8.00039C4.1001 5.84649 5.84619 4.1004 8.0001 4.1004L11.0001 4.1004C11.4972 4.1004 11.9001 4.50334 11.9001 5.0004C11.8999 5.49727 11.497 5.90039 11.0001 5.9004L8.0001 5.9004C6.8403 5.9004 5.9001 6.8406 5.9001 8.00039L5.9001 16.0008C5.90052 17.1602 6.84056 18.1008 8.0001 18.1008H11.0001C11.4972 18.1008 11.9001 18.5037 11.9001 19.0008Z" fill="#0D1625"/>
<path d="M19.6989 11.4316C19.9871 11.7851 19.9661 12.3069 19.6368 12.6363L16.6368 15.6363C16.2854 15.9877 15.7156 15.9876 15.3642 15.6363C15.0127 15.2849 15.0127 14.7151 15.3642 14.3637L16.8278 12.9L10.0005 12.9C9.50343 12.9 9.10049 12.4971 9.10049 12C9.10049 11.5029 9.50343 11.1 10.0005 11.1L16.8278 11.1L15.3642 9.63633C15.0127 9.28486 15.0127 8.71515 15.3642 8.36368C15.7156 8.0124 16.2854 8.01227 16.6368 8.36368L19.6368 11.3637L19.6989 11.4316Z" fill="#0D1625"/>
</svg>
