<svg width="24" height="24" viewBox="0 0 24 24" fill="none" xmlns="http://www.w3.org/2000/svg">
<path d="M11.5151 3.82754C12.012 3.82778 12.4151 4.23063 12.4151 4.72754C12.4149 5.22428 12.0119 5.6273 11.5151 5.62754H7.72764C6.56784 5.62754 5.62764 6.56774 5.62764 7.72754V16.2728C5.62784 17.4325 6.56796 18.3728 7.72764 18.3728H16.2729C17.4324 18.3726 18.3728 17.4323 18.3729 16.2728V12.4853C18.3729 11.9884 18.776 11.5855 19.2729 11.5853C19.7698 11.5856 20.1729 11.9884 20.1729 12.4853V16.2728C20.1728 18.4264 18.4265 20.1726 16.2729 20.1728H7.72764C5.57385 20.1728 3.82784 18.4266 3.82764 16.2728V7.72754C3.82764 5.57363 5.57373 3.82754 7.72764 3.82754H11.5151ZM20.2503 2.84902C20.4888 2.84902 20.7179 2.94412 20.8866 3.11269C21.0554 3.28147 21.1503 3.51033 21.1503 3.74902V8.24082C21.15 8.73764 20.7472 9.14082 20.2503 9.14082C19.7537 9.14046 19.3506 8.73742 19.3503 8.24082V5.92168L12.4034 12.8686C12.0519 13.2199 11.4822 13.22 11.1308 12.8686C10.7797 12.5171 10.7796 11.9473 11.1308 11.5959L18.0776 4.64902H15.7597C15.2628 4.64885 14.8597 4.24597 14.8597 3.74902C14.8597 3.25208 15.2628 2.84919 15.7597 2.84902H20.2503Z" fill="#0D1625"/>
</svg>
