<svg width="24" height="24" viewBox="0 0 24 24" fill="none" xmlns="http://www.w3.org/2000/svg">
<path d="M11.9991 4.6004C14.2634 4.6004 16.3361 5.58786 17.951 6.9336C19.5624 8.27642 20.7934 10.0373 21.353 11.716C21.4145 11.9007 21.4145 12.1009 21.353 12.2856C20.7933 13.9639 19.562 15.7243 17.951 17.0668C16.3362 18.4124 14.2632 19.4 11.9991 19.4C9.73508 19.3997 7.66302 18.4124 6.0483 17.0668C4.43713 15.7241 3.20483 13.9641 2.64518 12.2856C2.58369 12.1011 2.58388 11.9005 2.64518 11.716C3.2047 10.0375 4.43715 8.27638 6.0483 6.9336C7.663 5.58808 9.73516 4.60065 11.9991 4.6004ZM11.9991 6.4004C10.2638 6.40065 8.58509 7.16238 7.20026 8.31641C5.91076 9.39114 4.94135 10.7538 4.4569 12.0008C4.94148 13.2476 5.91096 14.6095 7.20026 15.684C8.58509 16.838 10.2638 17.5997 11.9991 17.6C13.7344 17.6 15.413 16.8379 16.7979 15.684C18.0872 14.6096 19.0566 13.2475 19.5413 12.0008C19.0567 10.7537 18.0876 9.39113 16.7979 8.31641C15.4129 7.16243 13.7345 6.4004 11.9991 6.4004ZM11.9991 8C14.2081 8 15.9996 9.79067 15.9999 11.9996L15.994 12.2059C15.8869 14.3193 14.1392 16.0004 11.9991 16.0004L11.794 15.9945C9.6806 15.8873 7.99948 14.1397 7.99948 11.9996C7.9997 9.79097 9.7905 8.0005 11.9991 8ZM11.9991 9.8C10.7846 9.80049 9.7997 10.7851 9.79948 11.9996C9.79948 13.2143 10.7845 14.1999 11.9991 14.2004C13.2141 14.2004 14.1999 13.2146 14.1999 11.9996C14.1996 10.7848 13.214 9.8 11.9991 9.8Z" fill="#0D1625"/>
</svg>
