<svg width="24" height="24" viewBox="0 0 24 24" fill="none" xmlns="http://www.w3.org/2000/svg">
<path d="M18.864 7.70088C19.0212 7.22961 19.5317 6.97448 20.0031 7.13135C20.4744 7.28861 20.7285 7.79898 20.5714 8.27041C20.1458 9.54727 19.2973 10.8712 18.1808 11.9864L20.3546 14.1603C20.7058 14.5117 20.706 15.0815 20.3546 15.4329C20.0032 15.784 19.4334 15.784 19.082 15.4329L16.8003 13.1513C15.6674 13.9532 14.3392 14.5496 12.9003 14.7298V17.9935C12.9003 18.4903 12.4972 18.8932 12.0003 18.8935C11.5033 18.8934 11.1004 18.4905 11.1003 17.9935V14.7298C9.66064 14.5497 8.33135 13.9539 7.198 13.1513L4.91753 15.4329C4.56611 15.7839 3.99624 15.784 3.64487 15.4329C3.29378 15.0815 3.29384 14.5117 3.64487 14.1603L5.81753 11.9864C4.7012 10.8714 3.85244 9.54702 3.4269 8.27041C3.26999 7.79905 3.52516 7.28859 3.99643 7.13135C4.46786 6.97421 4.97817 7.22956 5.1355 7.70088C5.52989 8.88407 6.44443 10.2247 7.69487 11.2669C8.9418 12.306 10.4477 12.9881 11.9992 12.9884C13.5509 12.9884 15.0575 12.3061 16.3046 11.2669C17.5552 10.2247 18.4696 8.88413 18.864 7.70088Z" fill="#0D1625"/>
</svg>
