<svg width="24" height="24" viewBox="0 0 24 24" fill="none" xmlns="http://www.w3.org/2000/svg">
<path fill-rule="evenodd" clip-rule="evenodd" d="M12.0005 3C16.9711 3 21.0005 7.02944 21.0005 12C21.0005 16.9706 16.9711 21 12.0005 21C7.02993 21 3.00049 16.9706 3.00049 12C3.00049 7.02944 7.02993 3 12.0005 3ZM9.00049 14C8.48284 14 8.0567 14.3934 8.00537 14.8975L8.00049 15C8.00049 15.9347 8.62373 16.6989 9.30029 17.1748C10.0122 17.6755 10.9634 18 12.0005 18C13.0376 18 13.9888 17.6755 14.7007 17.1748C15.3773 16.6989 16.0005 15.9347 16.0005 15C16.0005 14.4823 15.6071 14.0562 15.103 14.0049L15.0005 14H9.00049ZM8.75049 9C7.86352 9.00002 7.13529 9.51775 6.67334 10.1982L6.61963 10.2861C6.37921 10.732 6.5109 11.2962 6.93896 11.5869C7.36729 11.8776 7.94054 11.7916 8.26611 11.4033L8.32764 11.3213C8.52391 11.0322 8.69589 11 8.75049 11C8.79035 11 8.92291 11.0175 9.10303 11.2314L9.18311 11.3359L9.24561 11.416C9.57783 11.7991 10.1532 11.8754 10.5767 11.5771C10.9996 11.2789 11.121 10.7121 10.8726 10.2705L10.8179 10.1836L10.6333 9.94434C10.1754 9.40337 9.53458 9.00002 8.75049 9ZM15.2505 9C14.3635 9.00002 13.6353 9.51775 13.1733 10.1982L13.1196 10.2861C12.8792 10.732 13.0109 11.2962 13.439 11.5869C13.8673 11.8776 14.4405 11.7916 14.7661 11.4033L14.8276 11.3213C15.0239 11.0322 15.1959 11 15.2505 11C15.2904 11 15.4229 11.0175 15.603 11.2314L15.6831 11.3359L15.7456 11.416C16.0778 11.7991 16.6532 11.8754 17.0767 11.5771C17.4996 11.2789 17.621 10.7121 17.3726 10.2705L17.3179 10.1836L17.1333 9.94434C16.6754 9.40337 16.0346 9.00002 15.2505 9Z" fill="#0D1625"/>
</svg>
