<svg width="24" height="24" viewBox="0 0 24 24" fill="none" xmlns="http://www.w3.org/2000/svg">
<path d="M5.00059 15.1008C5.49747 15.101 5.90059 15.5039 5.90059 16.0008C5.90101 17.1602 6.84105 18.1008 8.00059 18.1008C8.49747 18.101 8.90059 18.5039 8.90059 19.0008C8.90016 19.4974 8.49721 19.9006 8.00059 19.9008C5.84694 19.9008 4.10101 18.1543 4.10059 16.0008C4.10059 15.5037 4.50353 15.1008 5.00059 15.1008ZM19.001 15.1008C19.4977 15.1012 19.901 15.504 19.901 16.0008C19.9006 18.1541 18.1543 19.9004 16.001 19.9008C15.5042 19.9008 15.1014 19.4975 15.101 19.0008C15.101 18.5037 15.5039 18.1008 16.001 18.1008C17.1602 18.1004 18.1006 17.16 18.101 16.0008C18.101 15.5037 18.5039 15.1008 19.001 15.1008ZM13.9385 13.2973C14.3265 12.9871 14.8924 13.0502 15.2029 13.4379C15.513 13.826 15.4503 14.3931 15.0623 14.7035C13.2722 16.1353 10.7282 16.1353 8.93809 14.7035C8.54997 14.393 8.487 13.826 8.79746 13.4379C9.10797 13.0498 9.67495 12.9868 10.0631 13.2973C11.196 14.2032 12.8057 14.2035 13.9385 13.2973ZM9.9998 9.09961C10.4967 9.09961 10.8996 9.50274 10.8998 9.99961V10.9992C10.8998 11.4963 10.4969 11.8992 9.9998 11.8992C9.50293 11.899 9.0998 11.4961 9.0998 10.9992V9.99961C9.10002 9.50287 9.50306 9.09983 9.9998 9.09961ZM14.0006 9.09961C14.4973 9.09982 14.9004 9.50287 14.9006 9.99961V10.9992C14.9006 11.4962 14.4975 11.899 14.0006 11.8992C13.5035 11.8992 13.1006 11.4963 13.1006 10.9992V9.99961C13.1008 9.50274 13.5037 9.09961 14.0006 9.09961ZM8.00059 4.1004C8.49747 4.1006 8.90059 4.50347 8.90059 5.0004C8.90037 5.49714 8.49734 5.90019 8.00059 5.9004C6.84079 5.9004 5.90059 6.8406 5.90059 8.00039C5.90037 8.49714 5.49734 8.90019 5.00059 8.90039C4.50366 8.90039 4.1008 8.49727 4.10059 8.00039C4.10059 5.84648 5.84668 4.1004 8.00059 4.1004ZM16.001 4.1004C18.1545 4.10081 19.901 5.84674 19.901 8.00039C19.9008 8.49701 19.4975 8.89998 19.001 8.90039C18.5041 8.90039 18.1012 8.49727 18.101 8.00039C18.101 6.84086 17.1604 5.90081 16.001 5.9004C15.5041 5.9004 15.1012 5.49727 15.101 5.0004C15.101 4.50334 15.5039 4.1004 16.001 4.1004Z" fill="#0D1625"/>
</svg>
