<svg width="24" height="24" viewBox="0 0 24 24" fill="none" xmlns="http://www.w3.org/2000/svg">
<path d="M11.9995 3C16.9701 3 20.9995 7.02944 20.9995 12C20.9995 16.9706 16.9701 21 11.9995 21C7.02895 21 2.99951 16.9706 2.99951 12C2.99951 7.02944 7.02895 3 11.9995 3ZM11.9995 13.5C10.9624 13.5 10.0112 13.8245 9.29932 14.3252C8.62278 14.801 7.99959 15.5654 7.99951 16.5C7.99958 17.0176 8.39296 17.4437 8.89697 17.4951L8.99951 17.5H14.9995C15.5171 17.4999 15.9432 17.1066 15.9946 16.6025L15.9995 16.5C15.9994 15.5655 15.3762 14.801 14.6997 14.3252C13.9878 13.8246 13.0365 13.5 11.9995 13.5ZM8.43994 8.10254C7.98536 7.87888 7.42634 8.03102 7.15186 8.46973C6.8776 8.90859 6.98523 9.47831 7.38525 9.78906L7.46924 9.84766L8.11279 10.25L7.46924 10.6523C7.00125 10.9451 6.85937 11.5621 7.15186 12.0303C7.44469 12.4982 8.06162 12.6402 8.52979 12.3477L10.5298 11.0977L10.6333 11.0234C10.8633 10.835 10.9995 10.5518 10.9995 10.25C10.9995 9.9483 10.8632 9.665 10.6333 9.47656L10.5298 9.40234L8.52979 8.15234L8.43994 8.10254ZM16.8472 8.46973C16.5726 8.03107 16.0136 7.8788 15.5591 8.10254L15.4692 8.15234L13.4692 9.40234L13.3657 9.47656C13.1357 9.665 12.9996 9.94824 12.9995 10.25C12.9996 10.5517 13.1358 10.835 13.3657 11.0234L13.4692 11.0977L15.4692 12.3477C15.9374 12.6401 16.5544 12.4982 16.8472 12.0303C17.1397 11.5621 16.9977 10.9452 16.5298 10.6523L15.8862 10.25L16.5298 9.84766L16.6138 9.78906C17.0139 9.47836 17.1214 8.90864 16.8472 8.46973Z" fill="#0D1625"/>
</svg>
