<svg width="24" height="24" viewBox="0 0 24 24" fill="none" xmlns="http://www.w3.org/2000/svg">
<path d="M9.50007 5.6004C9.8527 5.60055 10.1731 5.8068 10.3192 6.12774L14.4993 15.3258L16.1809 11.6285L16.2442 11.5125C16.4082 11.2582 16.6916 11.1001 17.0001 11.1H20.0001C20.4968 11.1002 20.8999 11.5033 20.9001 12C20.8999 12.4968 20.4968 12.8998 20.0001 12.9H17.579L15.3196 17.8723C15.1736 18.1933 14.8532 18.4006 14.5005 18.4008C14.1477 18.4008 13.8275 18.1933 13.6813 17.8723L9.50007 8.67422L7.8196 12.3727C7.67358 12.6937 7.35318 12.8999 7.00046 12.9H4.00046C3.50354 12.9 3.10067 12.4969 3.10046 12C3.10068 11.5031 3.50354 11.1 4.00046 11.1H6.42156L8.68093 6.12774L8.74421 6.0129C8.90816 5.75846 9.19154 5.60053 9.50007 5.6004Z" fill="#0D1625"/>
</svg>
