<svg width="24" height="24" viewBox="0 0 24 24" fill="none" xmlns="http://www.w3.org/2000/svg">
<path d="M12.5328 2.84982C13.5459 2.84987 14.5193 3.24508 15.2469 3.95021L17.9679 6.5881C18.7256 7.32257 19.1538 8.33251 19.1539 9.38771V17.251C19.1539 19.4049 17.4078 21.151 15.2539 21.151H8.74998C6.59631 21.1507 4.84998 19.4047 4.84998 17.251V6.74982C4.85007 4.59617 6.59638 2.85011 8.74998 2.84982H12.5328ZM8.74998 4.64982C7.59049 4.65011 6.65007 5.59028 6.64998 6.74982V17.251C6.64998 18.4106 7.59043 19.3507 8.74998 19.351H15.2539C16.4137 19.351 17.3539 18.4108 17.3539 17.251V9.38771C17.3538 8.81963 17.1231 8.27611 16.7152 7.88067L13.9941 5.24161C13.6024 4.86221 13.0781 4.64987 12.5328 4.64982H8.74998Z" fill="#0D1625"/>
</svg>
