<svg width="24" height="24" viewBox="0 0 24 24" fill="none" xmlns="http://www.w3.org/2000/svg">
<path d="M19.0442 9.37266C19.5409 9.37306 19.9442 9.77585 19.9442 10.2727V12.416C19.9442 13.8009 19.9445 14.8947 19.8727 15.7734C19.8 16.6626 19.6487 17.4123 19.3008 18.0949C18.7352 19.2048 17.8325 20.1074 16.7227 20.673C16.0401 21.0208 15.2903 21.1722 14.4012 21.2449C13.5225 21.3167 12.4286 21.3164 11.0438 21.3164H9.26138C8.76465 21.3163 8.3617 20.9131 8.36138 20.4164C8.36138 19.9194 8.76445 19.5166 9.26138 19.5164H11.0438C12.4583 19.5164 13.4663 19.5152 14.2547 19.4508C15.0323 19.3872 15.5193 19.2669 15.9059 19.0699C16.677 18.6769 17.3047 18.0492 17.6977 17.2781C17.8947 16.8915 18.015 16.4047 18.0786 15.627C18.143 14.8385 18.1442 13.8306 18.1442 12.416V10.2727C18.1442 9.7757 18.5473 9.37281 19.0442 9.37266ZM10.7942 3.02695C11.7948 3.02713 12.7576 3.41178 13.4825 4.10156L15.1219 5.6625C15.8951 6.39861 16.3336 7.42033 16.3336 8.48789V14.1516C16.3332 16.3105 14.5785 18.0591 12.4196 18.0516L8.68481 18.0375C6.53703 18.0293 4.80052 16.2852 4.80005 14.1375V6.92695C4.80005 4.77304 6.54614 3.02695 8.70005 3.02695H10.7942ZM8.70005 4.82695C7.54025 4.82695 6.60005 5.76716 6.60005 6.92695V14.1375C6.60052 15.2939 7.5354 16.2332 8.69185 16.2375L12.4254 16.2516C13.5878 16.2556 14.5332 15.3139 14.5336 14.1516V8.48789C14.5336 7.91315 14.2971 7.36198 13.8809 6.96563L12.2415 5.40586C11.8512 5.03451 11.3329 4.82713 10.7942 4.82695H8.70005Z" fill="#0D1625"/>
</svg>
