<svg width="24" height="24" viewBox="0 0 24 24" fill="none" xmlns="http://www.w3.org/2000/svg">
<path d="M12.5327 2.84981C13.5459 2.84986 14.5193 3.24508 15.2468 3.9502L17.9679 6.58809C18.7255 7.32256 19.1537 8.3325 19.1538 9.3877V17.251C19.1538 19.4049 17.4077 21.151 15.2538 21.151H8.74991C6.59626 21.1507 4.84991 19.4047 4.84991 17.251V6.74981C4.85001 4.59617 6.59632 2.85011 8.74991 2.84981H12.5327ZM8.74991 4.64981C7.59043 4.65011 6.65001 5.59028 6.64991 6.74981V17.251C6.64991 18.4106 7.59037 19.3507 8.74991 19.351H15.2538C16.4136 19.351 17.3538 18.4108 17.3538 17.251V9.3877C17.3537 8.81962 17.123 8.2761 16.7151 7.88067L13.9941 5.2416C13.6024 4.86221 13.078 4.64986 12.5327 4.64981H8.74991ZM12.003 15.1006C12.4999 15.1007 12.9028 15.5038 12.903 16.0006C12.903 16.4976 12.5 16.9005 12.003 16.9006H9.00304C8.50598 16.9006 8.10304 16.4976 8.10304 16.0006C8.10325 15.5037 8.50611 15.1006 9.00304 15.1006H12.003ZM15.003 12.1006C15.4999 12.1007 15.9028 12.5038 15.903 13.0006C15.903 13.4976 15.5 13.9005 15.003 13.9006H9.00304C8.50598 13.9006 8.10304 13.4976 8.10304 13.0006C8.10327 12.5037 8.50612 12.1006 9.00304 12.1006H15.003Z" fill="#0D1625"/>
</svg>
