<svg width="24" height="24" viewBox="0 0 24 24" fill="none" xmlns="http://www.w3.org/2000/svg">
<path d="M17.9197 3.6C19.5126 3.6002 20.3982 5.44274 19.4033 6.68672L14.922 12.2883C14.9079 12.3059 14.8998 12.3278 14.8998 12.3504V16.5855C14.8998 17.0894 14.6994 17.5734 14.3431 17.9297L12.3439 19.9289C11.147 21.1258 9.10027 20.2786 9.10015 18.5859V12.3504C9.10006 12.3278 9.09196 12.3059 9.07788 12.2883L4.59663 6.68672C3.60197 5.44281 4.48756 3.60042 6.08023 3.6H17.9197ZM6.02632 5.41289C6.01461 5.42066 6.00136 5.4353 5.99116 5.45625C5.98089 5.47763 5.97814 5.49835 5.97945 5.5125C5.98045 5.52277 5.98387 5.53912 6.00288 5.56289L10.4841 11.1633C10.7535 11.5001 10.9001 11.9191 10.9001 12.3504V18.5859C10.9002 18.6208 10.9091 18.6349 10.9142 18.6422C10.9223 18.6536 10.9381 18.6685 10.9623 18.6785C10.9861 18.6883 11.0072 18.689 11.0209 18.6867C11.0297 18.6852 11.0466 18.6809 11.0712 18.6562L13.0705 16.657C13.0892 16.6383 13.0998 16.612 13.0998 16.5855V12.3504C13.0998 11.9191 13.2475 11.5001 13.5169 11.1633L17.9982 5.56289C18.0172 5.5391 18.0206 5.52275 18.0216 5.5125C18.0229 5.49836 18.0202 5.47761 18.0099 5.45625C17.9997 5.43505 17.9854 5.42069 17.9736 5.41289C17.965 5.40725 17.9503 5.40004 17.9197 5.4H6.08023C6.04979 5.40009 6.03488 5.40726 6.02632 5.41289Z" fill="#0D1625"/>
</svg>
