<svg width="24" height="24" viewBox="0 0 24 24" fill="none" xmlns="http://www.w3.org/2000/svg">
<path d="M5.99998 3.1C6.49703 3.1 6.89997 3.50294 6.89998 4V4.34336C8.16886 4.06329 9.20557 3.99333 10.1121 4.10664C11.2994 4.25513 12.1828 4.70707 12.9996 5.25156C14.1358 6.00879 15.7185 6.08622 17.4597 4.78047C17.7323 4.57605 18.0971 4.54277 18.4019 4.69492C18.7067 4.84736 18.8999 5.15919 18.9 5.5V15.0004C18.8999 15.2834 18.7666 15.55 18.5402 15.7199C16.2819 17.4136 13.8648 17.4908 12.0011 16.2484C11.318 15.793 10.7007 15.4945 9.88826 15.393C9.16647 15.3028 8.23137 15.3611 6.89998 15.6906V19.9996C6.89998 20.4967 6.49703 20.8996 5.99998 20.8996C5.50292 20.8996 5.09998 20.4967 5.09998 19.9996V4C5.09998 3.50294 5.50292 3.1 5.99998 3.1ZM9.88826 5.89375C9.16644 5.80352 8.23143 5.86189 6.89998 6.1914V13.8437C8.16895 13.564 9.20554 13.4937 10.1121 13.607C11.2993 13.7555 12.1828 14.2063 12.9996 14.7508C14.0573 15.4559 15.5007 15.5711 17.1 14.5305V7.07265C15.2885 7.88415 13.4731 7.73028 12.0011 6.74922C11.318 6.29379 10.7007 5.99531 9.88826 5.89375Z" fill="#0D1625"/>
</svg>
