<svg width="24" height="24" viewBox="0 0 24 24" fill="none" xmlns="http://www.w3.org/2000/svg">
<path d="M16.0007 3.1C16.4975 3.1003 16.9007 3.50313 16.9007 4C16.9007 4.49686 16.4975 4.8997 16.0007 4.9H15.7042V9.4457C15.7043 10.2759 15.9565 11.0869 16.4272 11.7707L19.5843 16.3551C20.9087 18.279 19.5305 20.8995 17.1948 20.8996H6.60928C4.27339 20.8996 2.8964 18.2791 4.221 16.3551L7.37685 11.7707C7.84757 11.0869 8.09981 10.2758 8.0999 9.4457V4.9H8.00029C7.50324 4.9 7.1003 4.49705 7.10029 4C7.10029 3.50294 7.50324 3.1 8.00029 3.1H16.0007ZM7.06396 15.4L5.70342 17.3758C5.20098 18.1056 5.72325 19.0996 6.60928 19.0996H17.1948C18.0807 19.0995 18.6041 18.1055 18.1019 17.3758L16.7413 15.4H7.06396ZM9.8999 9.4457C9.89981 10.6404 9.53788 11.8074 8.86045 12.7914L8.30381 13.6H15.5015L14.9448 12.7914C14.2674 11.8074 13.9043 10.6404 13.9042 9.4457V4.9H9.8999V9.4457Z" fill="#0D1625"/>
</svg>
