<svg width="25" height="24" viewBox="0 0 25 24" fill="none" xmlns="http://www.w3.org/2000/svg">
<path d="M20.2957 9.09973C20.7924 9.09998 21.1954 9.5031 21.1957 9.99973V14.2724C21.1956 17.5306 18.5535 20.1725 15.2953 20.1728H5.71641C5.21971 20.1724 4.81649 19.7695 4.81641 19.2728C4.81657 18.7761 5.21976 18.3731 5.71641 18.3728H15.2953C17.5594 18.3725 19.3956 16.5365 19.3957 14.2724V9.99973C19.396 9.50301 19.7989 9.09983 20.2957 9.09973ZM8.11875 3.79348C8.90448 3.81705 9.65668 4.12177 10.2387 4.65012C10.2774 4.68534 10.317 4.72198 10.3664 4.76966C10.4226 4.82386 10.439 4.84001 10.4531 4.85286C10.7174 5.09293 11.0595 5.23094 11.4164 5.24192C11.4357 5.2425 11.4582 5.24309 11.5371 5.24309H13.4215C14.0783 5.24309 14.6263 5.24193 15.0715 5.27825C15.5269 5.31548 15.955 5.39703 16.3594 5.60286C16.98 5.91908 17.4855 6.42376 17.802 7.04426C18.0081 7.44881 18.0881 7.87768 18.1254 8.33333C18.1618 8.77854 18.1617 9.32641 18.1617 9.98333V12.456C18.1617 13.1126 18.1617 13.6597 18.1254 14.1048C18.0882 14.5606 18.0081 14.9892 17.802 15.3939C17.4856 16.0148 16.9803 16.5201 16.3594 16.8365C15.955 17.0423 15.5269 17.1227 15.0715 17.1599C14.6263 17.1962 14.0784 17.1962 13.4215 17.1962H7.56446C6.90757 17.1962 6.35965 17.1963 5.91446 17.1599C5.45916 17.1226 5.03084 17.0423 4.62657 16.8365C4.00599 16.52 3.50024 16.0145 3.18399 15.3939C2.97805 14.9894 2.8966 14.5604 2.85938 14.1048C2.82309 13.6597 2.82422 13.1125 2.82422 12.456V8.44348C2.82422 7.82758 2.82378 7.31367 2.85586 6.89544C2.88872 6.46783 2.95989 6.06455 3.1418 5.6802C3.46806 4.99122 4.02317 4.4362 4.71211 4.10989C5.09641 3.928 5.49983 3.85681 5.92735 3.82395C6.34538 3.79188 6.85874 3.79231 7.47422 3.79231H7.94414C8.013 3.79231 8.0666 3.79195 8.11875 3.79348ZM7.47422 5.59231C6.83129 5.59231 6.39885 5.59255 6.06563 5.61809C5.74221 5.64295 5.58482 5.6878 5.48204 5.73645C5.16915 5.88476 4.91661 6.1372 4.76836 6.45012C4.71971 6.55292 4.67486 6.71004 4.65 7.03372C4.62445 7.36713 4.62422 7.80001 4.62422 8.44348V12.456C4.62422 13.1421 4.6246 13.6035 4.65352 13.9583C4.68161 14.3021 4.73305 14.4684 4.78829 14.5771C4.93198 14.8588 5.16164 15.0884 5.44336 15.2322C5.55193 15.2875 5.71716 15.3376 6.06094 15.3657C6.41587 15.3947 6.87795 15.3962 7.56446 15.3962H13.4215C14.108 15.3962 14.57 15.3947 14.925 15.3657C15.2689 15.3376 15.4339 15.2874 15.5426 15.2322C15.8247 15.0884 16.0538 14.8591 16.1977 14.5771C16.253 14.4684 16.3043 14.3028 16.3324 13.9583C16.3614 13.6034 16.3617 13.1422 16.3617 12.456V9.98333C16.3617 9.29679 16.3614 8.83476 16.3324 8.47981C16.3043 8.13586 16.253 7.97085 16.1977 7.86223C16.0538 7.58031 15.8246 7.34967 15.5426 7.20598C15.4339 7.15081 15.2684 7.10047 14.925 7.07239C14.57 7.04344 14.1079 7.04309 13.4215 7.04309H11.5371C11.4686 7.04309 11.4148 7.04232 11.3625 7.04075C10.5769 7.01692 9.8244 6.71377 9.24258 6.18528C9.204 6.1502 9.1653 6.11328 9.11602 6.06575C9.05973 6.01144 9.04345 5.99541 9.0293 5.98255C8.7648 5.74257 8.42184 5.60419 8.06485 5.59348C8.04581 5.59292 8.02265 5.59231 7.94414 5.59231H7.47422Z" fill="#0D1625"/>
</svg>
