<svg width="24" height="24" viewBox="0 0 24 24" fill="none" xmlns="http://www.w3.org/2000/svg">
<path d="M9.00365 3.85964C9.98345 3.87659 10.9211 4.26216 11.6298 4.93894C11.6553 4.96332 11.6808 4.98917 11.7165 5.02449C11.7567 5.06416 11.7704 5.07653 11.7822 5.08777C12.1637 5.45203 12.6681 5.65977 13.1954 5.66902C13.2118 5.6693 13.2302 5.67019 13.2869 5.67019H15.4408C16.266 5.67019 16.9391 5.66899 17.4845 5.71355C18.0404 5.75897 18.5426 5.85552 19.0115 6.09441C19.7452 6.46832 20.3415 7.0657 20.7154 7.79949C20.9541 8.26823 21.052 8.77072 21.0974 9.32644C21.1419 9.87168 21.1408 10.5454 21.1408 11.3702V14.4393C21.1408 15.2642 21.1419 15.9378 21.0974 16.4831C21.052 17.0388 20.9542 17.5413 20.7154 18.01C20.3415 18.7437 19.7452 19.3413 19.0115 19.7151C18.5427 19.9539 18.0403 20.0506 17.4845 20.096C16.9391 20.1405 16.266 20.1393 15.4408 20.1393H8.55834C7.73313 20.1393 7.05999 20.1405 6.51459 20.096C5.95879 20.0506 5.45645 19.9539 4.98764 19.7151C4.25391 19.3413 3.65765 18.7437 3.28373 18.01C3.04491 17.5413 2.94713 17.0388 2.9017 16.4831C2.85718 15.9378 2.85834 15.2642 2.85834 14.4393V9.303C2.85834 8.59664 2.85826 8.02006 2.89115 7.55105C2.92466 7.07363 2.99566 6.6391 3.1724 6.22566C3.56695 5.30333 4.30206 4.5683 5.22436 4.1737C5.63787 3.99686 6.07228 3.92598 6.54975 3.89245C7.01877 3.85954 7.59528 3.85964 8.3017 3.85964H9.00365ZM8.3017 5.65964C7.56982 5.65964 7.06654 5.66029 6.67514 5.68777C6.29248 5.71466 6.08362 5.76362 5.93217 5.82839C5.4356 6.04087 5.03953 6.43688 4.82709 6.93347C4.76241 7.08487 4.71334 7.29403 4.68647 7.67644C4.65902 8.06784 4.65834 8.57133 4.65834 9.303V14.4393C4.65834 15.2939 4.65868 15.8816 4.69584 16.3366C4.73217 16.7809 4.79883 17.0204 4.88686 17.1932C5.08813 17.5881 5.4096 17.9095 5.80443 18.1108C5.97725 18.1988 6.21671 18.2655 6.66107 18.3018C7.11617 18.339 7.70343 18.3393 8.55834 18.3393H15.4408C16.2957 18.3393 16.8829 18.339 17.338 18.3018C17.7824 18.2655 18.0219 18.1988 18.1947 18.1108C18.5895 17.9095 18.911 17.5881 19.1122 17.1932C19.2003 17.0204 19.2669 16.7809 19.3033 16.3366C19.3404 15.8816 19.3408 15.2939 19.3408 14.4393V11.3702C19.3408 10.5158 19.3404 9.92792 19.3033 9.47292C19.267 9.02872 19.2002 8.78909 19.1122 8.61628C18.911 8.22134 18.5895 7.90006 18.1947 7.6987C18.0218 7.61064 17.7826 7.54402 17.338 7.50769C16.8829 7.47051 16.2957 7.47019 15.4408 7.47019H13.2869C13.2364 7.47019 13.2004 7.46963 13.165 7.46902C12.1851 7.45209 11.2475 7.06652 10.5388 6.38972C10.5132 6.36526 10.4868 6.33962 10.4509 6.30417C10.4112 6.2649 10.3982 6.25207 10.3865 6.24089C10.0048 5.87648 9.49961 5.66875 8.97201 5.65964H8.3017Z" fill="#0D1625"/>
</svg>
