<svg width="24" height="24" viewBox="0 0 24 24" fill="none" xmlns="http://www.w3.org/2000/svg">
<path d="M9.24908 3.59989C10.3191 3.59989 11.328 4.10428 11.9702 4.96043C12.2723 5.363 12.7465 5.60026 13.2499 5.60028H15.7002C16.5253 5.60028 17.1987 5.59908 17.744 5.64364C18.2997 5.68907 18.8022 5.78568 19.271 6.02449C20.0046 6.39839 20.601 6.99587 20.9749 7.72957C21.2137 8.19836 21.3103 8.70076 21.3557 9.25653C21.4003 9.80185 21.4002 10.4753 21.4002 11.3003V14.6999C21.4002 15.525 21.4003 16.1983 21.3557 16.7436C21.3103 17.2995 21.2137 17.8018 20.9749 18.2706C20.601 19.0042 20.0045 19.6006 19.271 19.9745C18.8022 20.2133 18.2997 20.3111 17.744 20.3565C17.1987 20.4011 16.5253 20.3999 15.7002 20.3999H8.29986C7.47465 20.3999 6.8015 20.4011 6.25611 20.3565C5.70021 20.3111 5.19803 20.2134 4.72915 19.9745C3.99554 19.6006 3.39911 19.0042 3.02525 18.2706C2.78639 17.8017 2.68863 17.2995 2.64322 16.7436C2.59867 16.1983 2.59986 15.525 2.59986 14.6999V9.16629C2.59986 8.40317 2.59909 7.78055 2.63736 7.27489C2.67637 6.75986 2.76006 6.2929 2.96548 5.85223C3.35299 5.02128 4.02124 4.35299 4.8522 3.96551C5.29288 3.7601 5.75984 3.67639 6.27486 3.63739C6.78055 3.59912 7.40311 3.59989 8.16626 3.59989H9.24908ZM11.9995 16.8995C10.495 16.8996 9.32034 17.5124 8.20025 18.5987C8.23304 18.5987 8.26624 18.5999 8.29986 18.5999H15.7002C15.7749 18.5999 15.8476 18.5987 15.9182 18.5987C14.779 17.49 13.5749 16.8995 11.9995 16.8995ZM8.16626 5.39989C7.37573 5.39989 6.83278 5.40077 6.41079 5.4327C5.99839 5.46393 5.77468 5.52131 5.61275 5.59676C5.16532 5.8054 4.80539 6.16536 4.59673 6.61278C4.52128 6.77469 4.46391 6.9984 4.43267 7.41082C4.40074 7.8328 4.39986 8.37582 4.39986 9.16629V14.6999C4.39986 15.5547 4.40018 16.1421 4.43736 16.5972C4.47368 17.0416 4.54034 17.281 4.62837 17.4538C4.82966 17.8487 5.15105 18.1701 5.54595 18.3714C5.6317 18.4151 5.73398 18.453 5.86939 18.485C6.82749 17.3262 7.89117 16.3169 9.19751 15.7089C8.51906 15.0071 8.09947 14.0527 8.09947 12.9995C8.09974 10.846 9.84591 9.09971 11.9995 9.09949C14.1532 9.09949 15.8992 10.8458 15.8995 12.9995C15.8995 14.0382 15.4904 14.9795 14.8284 15.6784C16.1391 16.2571 17.2158 17.2313 18.1963 18.43C18.2039 18.4392 18.2103 18.4498 18.2174 18.4593C18.3105 18.4324 18.387 18.405 18.453 18.3714C18.8479 18.1701 19.1692 17.8487 19.3706 17.4538C19.4586 17.281 19.5253 17.0416 19.5616 16.5972C19.5988 16.1421 19.6002 15.5547 19.6002 14.6999V11.3003C19.6002 10.4455 19.5987 9.85807 19.5616 9.40301C19.5252 8.9585 19.4586 8.7192 19.3706 8.54637C19.1692 8.15141 18.848 7.83006 18.453 7.62879C18.2802 7.54083 18.0415 7.47409 17.5975 7.43778C17.1425 7.4006 16.5549 7.40028 15.7002 7.40028H13.2499C12.1797 7.40026 11.172 6.89586 10.5299 6.03973C10.2278 5.63701 9.75272 5.39989 9.24908 5.39989H8.16626ZM11.9995 10.8995C10.84 10.8997 9.89974 11.8401 9.89947 12.9995C9.89947 14.1592 10.8399 15.0993 11.9995 15.0995C13.1593 15.0995 14.0995 14.1593 14.0995 12.9995C14.0992 11.8399 13.1591 10.8995 11.9995 10.8995Z" fill="#0D1625"/>
</svg>
