<svg width="24" height="24" viewBox="0 0 24 24" fill="none" xmlns="http://www.w3.org/2000/svg">
<path d="M17.0039 14.1105C17.3554 13.7593 17.9252 13.7593 18.2766 14.1105L21.0375 16.8715C21.3889 17.2229 21.3889 17.7927 21.0375 18.1441L18.2766 20.9051C17.9251 21.2561 17.3553 21.2564 17.0039 20.9051C16.6527 20.5537 16.6529 19.9839 17.0039 19.6324L18.2286 18.4078H12.9996C12.5029 18.4076 12.0998 18.0046 12.0997 17.5078C12.0997 17.0109 12.5028 16.6081 12.9996 16.6078H18.2286L17.0039 15.3832C16.6527 15.0318 16.6529 14.462 17.0039 14.1105ZM9.00707 3.85547C9.98677 3.87242 10.9246 4.25811 11.6332 4.93477C11.6587 4.9591 11.6844 4.9851 11.72 5.02031C11.7599 5.05976 11.7739 5.0724 11.7856 5.08359C12.1671 5.44785 12.6715 5.65559 13.1989 5.66484C13.2152 5.66513 13.2336 5.66601 13.2903 5.66602H15.4442C16.2694 5.66602 16.9425 5.66482 17.4879 5.70937C18.0437 5.75479 18.5461 5.85141 19.0149 6.09023C19.7485 6.46409 20.3449 7.06168 20.7188 7.79531C20.9575 8.26395 21.0554 8.7667 21.1008 9.32227C21.1453 9.86742 21.1442 10.5414 21.1442 11.366V12.9C21.1439 13.3969 20.7411 13.8 20.2442 13.8C19.7473 13.7999 19.3444 13.3968 19.3442 12.9V11.366C19.3442 10.5118 19.3438 9.92367 19.3067 9.46875C19.2704 9.0248 19.2036 8.78487 19.1157 8.61211C18.9144 8.21731 18.5929 7.89583 18.1981 7.69453C18.0253 7.60651 17.7858 7.53983 17.3414 7.50352C16.8863 7.46634 16.2991 7.46602 15.4442 7.46602H13.2903C13.2398 7.46601 13.2038 7.46545 13.1684 7.46484C12.1886 7.44791 11.2509 7.06234 10.5422 6.38555C10.5167 6.36115 10.4901 6.33536 10.4543 6.3C10.4148 6.26088 10.4016 6.24788 10.3899 6.23672C10.0083 5.87243 9.50293 5.66458 8.97543 5.65547H8.30512C7.57326 5.65547 7.06995 5.65612 6.67856 5.68359C6.29602 5.71048 6.08703 5.75948 5.93559 5.82422C5.43914 6.03665 5.04298 6.43287 4.83051 6.9293C4.76585 7.08064 4.71677 7.29011 4.68988 7.67227C4.66244 8.06359 4.66176 8.56738 4.66176 9.29883V14.4352C4.66176 15.2894 4.66214 15.8775 4.69926 16.3324C4.73557 16.7764 4.80233 17.0163 4.89027 17.1891C5.09152 17.5839 5.4131 17.9053 5.80785 18.1066C5.98066 18.1947 6.22015 18.2613 6.66449 18.2977C7.11959 18.3348 7.70686 18.3352 8.56176 18.3352H10.1719C10.6687 18.3352 11.0715 18.7385 11.0719 19.2352C11.0717 19.732 10.6688 20.1352 10.1719 20.1352H8.56176C7.73656 20.1352 7.0634 20.1364 6.51801 20.0918C5.96222 20.0464 5.45985 19.9498 4.99106 19.7109C4.25741 19.3371 3.66104 18.7395 3.28715 18.0059C3.04845 17.5372 2.95054 17.0345 2.90512 16.4789C2.86063 15.9337 2.86176 15.2598 2.86176 14.4352V9.29883C2.86176 8.59266 2.86168 8.01579 2.89457 7.54687C2.92809 7.06962 2.99913 6.63481 3.17582 6.22148C3.5704 5.29932 4.30559 4.56408 5.22777 4.16953C5.64125 3.99273 6.07575 3.9218 6.55316 3.88828C7.02218 3.85536 7.59871 3.85547 8.30512 3.85547H9.00707Z" fill="#0D1625"/>
</svg>
