<svg width="24" height="24" viewBox="0 0 24 24" fill="none" xmlns="http://www.w3.org/2000/svg">
<path d="M12.2344 3.00586C17.0966 3.13019 21 7.10782 21 12C21 16.8926 17.0959 20.8692 12.2332 20.993L12.0059 21.1957L11.7727 20.9941C6.90719 20.8735 3 16.8945 3 12C3 7.10585 6.90655 3.12595 11.7715 3.00469L12.0059 2.80312L12.2344 3.00586ZM16.2867 12.9C16.1103 15.1806 15.2893 17.0285 14.4762 18.3387C14.3566 18.5313 14.2365 18.7125 14.1188 18.8824C16.784 18.0629 18.7874 15.7381 19.1414 12.9H16.2867ZM4.85859 12.9C5.21083 15.7235 7.19541 18.0388 9.84023 18.8695C9.72465 18.7056 9.60715 18.5305 9.48984 18.3457C8.65823 17.0353 7.8178 15.1849 7.63711 12.9H4.85859ZM9.44297 12.9C9.61788 14.7563 10.3085 16.2761 11.0098 17.3812C11.359 17.9316 11.7088 18.3738 11.9906 18.6973C12.2651 18.3746 12.6062 17.9363 12.9457 17.3895C13.6318 16.2839 14.3086 14.7612 14.4797 12.9H9.44297ZM14.1176 5.1164C14.2356 5.28676 14.3563 5.46818 14.4762 5.66133C15.2892 6.9714 16.1102 8.81978 16.2867 11.1H19.1414C18.7873 8.26136 16.7836 5.93556 14.1176 5.1164ZM11.9918 5.30039C11.7098 5.62396 11.3596 6.06638 11.0098 6.61758C10.3084 7.72265 9.61915 9.24351 9.44414 11.1H14.4797C14.3085 9.23902 13.6318 7.71601 12.9457 6.61055C12.6061 6.06342 12.2663 5.62311 11.9918 5.30039ZM9.84023 5.1293C7.19524 5.95991 5.21084 8.27633 4.85859 11.1H7.63711C7.81787 8.81487 8.65817 6.96354 9.48984 5.65312C9.60725 5.46814 9.72455 5.29336 9.84023 5.1293Z" fill="#0D1625"/>
</svg>
