<svg width="24" height="24" viewBox="0 0 24 24" fill="none" xmlns="http://www.w3.org/2000/svg">
<path d="M7.50046 3.6004C8.5495 3.60061 9.39986 4.45098 9.40007 5.50001V5.59962H14.5997V5.50001C14.5999 4.45111 15.4504 3.60082 16.4993 3.6004H18.4997C19.5489 3.6004 20.3991 4.45085 20.3993 5.50001V7.5004C20.3991 8.54957 19.5489 9.40001 18.4997 9.40001H18.4001V14.5996H18.4997C19.5488 14.5996 20.3989 15.4503 20.3993 16.4992V18.4996C20.3993 19.549 19.549 20.3992 18.4997 20.3992H16.4993C15.4503 20.3988 14.5997 19.5487 14.5997 18.4996V18.4H9.40007V18.4996C9.40007 19.5488 8.54962 20.399 7.50046 20.3992H5.50007C4.45091 20.399 3.60046 19.5488 3.60046 18.4996V16.4992C3.6009 15.4504 4.45118 14.5998 5.50007 14.5996H5.59968V9.40001H5.50007C4.45103 9.3998 3.60067 8.54944 3.60046 7.5004V5.50001C3.60067 4.45098 4.45104 3.60061 5.50007 3.6004H7.50046ZM5.50007 16.3996C5.44529 16.3998 5.40089 16.4445 5.40046 16.4992V18.4996C5.40046 18.5547 5.44503 18.599 5.50007 18.5992H7.50046C7.55551 18.599 7.60007 18.5547 7.60007 18.4996V16.4992C7.59965 16.4445 7.55524 16.3998 7.50046 16.3996H5.50007ZM16.4993 16.3996C16.4447 16.4 16.4001 16.4446 16.3997 16.4992V18.4996C16.3997 18.5546 16.4444 18.5988 16.4993 18.5992H18.4997C18.5549 18.5992 18.5993 18.5548 18.5993 18.4996V16.4992C18.5989 16.4444 18.5546 16.3996 18.4997 16.3996H16.4993ZM9.40007 7.5004C9.39987 8.54944 8.5495 9.3998 7.50046 9.40001H7.39968V14.5996H7.50046C8.54936 14.5998 9.39964 15.4504 9.40007 16.4992V16.6H14.5997V16.4992C14.6001 15.4505 15.4506 14.6 16.4993 14.5996H16.6001V9.40001H16.4993C15.4504 9.39959 14.5999 8.54931 14.5997 7.5004V7.39962H9.40007V7.5004ZM5.50007 5.4004C5.44515 5.40061 5.40067 5.44509 5.40046 5.50001V7.5004C5.40066 7.55532 5.44515 7.5998 5.50007 7.60001H7.50046C7.55539 7.5998 7.59988 7.55532 7.60007 7.5004V5.50001C7.59986 5.44509 7.55538 5.40061 7.50046 5.4004H5.50007ZM16.4993 5.4004C16.4446 5.40082 16.3999 5.44522 16.3997 5.50001V7.5004C16.3999 7.5552 16.4445 7.59959 16.4993 7.60001H18.4997C18.5548 7.60001 18.5991 7.55545 18.5993 7.5004V5.50001C18.5991 5.44496 18.5548 5.4004 18.4997 5.4004H16.4993Z" fill="#0D1625"/>
</svg>
