<svg width="24" height="24" viewBox="0 0 24 24" fill="none" xmlns="http://www.w3.org/2000/svg">
<path d="M15.1001 15.5C15.1003 14.1747 16.1748 13.1 17.5001 13.1H18.4997C19.8249 13.1002 20.8995 14.1748 20.8997 15.5V16.4996C20.8997 17.8249 19.825 18.8994 18.4997 18.8996H17.5001C16.1746 18.8996 15.1001 17.8251 15.1001 16.4996V15.5ZM16.9001 16.4996C16.9001 16.8309 17.1687 17.0996 17.5001 17.0996H18.4997C18.8309 17.0994 19.0997 16.8308 19.0997 16.4996V15.5C19.0995 15.1689 18.8308 14.9001 18.4997 14.9H17.5001C17.1689 14.9 16.9003 15.1688 16.9001 15.5V16.4996Z" fill="#0D1625"/>
<path d="M3.1001 7.50075C3.1001 6.17526 4.17462 5.10075 5.5001 5.10075L18.4997 5.10075C19.825 5.10093 20.8997 6.17538 20.8997 7.50075V8.50036C20.8995 9.82556 19.8249 10.9002 18.4997 10.9004H5.5001C4.17474 10.9004 3.1003 9.82567 3.1001 8.50036L3.1001 7.50075ZM4.9001 8.50036C4.9003 8.83156 5.16885 9.10036 5.5001 9.10036L18.4997 9.10036C18.8308 9.10017 19.0995 8.83144 19.0997 8.50036V7.50075C19.0997 7.16949 18.8309 6.90093 18.4997 6.90075L5.5001 6.90075C5.16873 6.90075 4.9001 7.16938 4.9001 7.50075V8.50036Z" fill="#0D1625"/>
<path d="M9.1001 15.5C9.10032 14.1747 10.1748 13.1 11.5001 13.1H12.4997C13.8249 13.1001 14.8995 14.1748 14.8997 15.5V16.4996C14.8997 17.8249 13.825 18.8994 12.4997 18.8996H11.5001C10.1746 18.8996 9.1001 17.8251 9.1001 16.4996V15.5ZM10.9001 16.4996C10.9001 16.8309 11.1687 17.0996 11.5001 17.0996H12.4997C12.8309 17.0994 13.0997 16.8308 13.0997 16.4996V15.5C13.0995 15.1689 12.8308 14.9001 12.4997 14.9H11.5001C11.1689 14.9 10.9003 15.1688 10.9001 15.5V16.4996Z" fill="#0D1625"/>
<path d="M3.1001 15.5C3.10032 14.1747 4.17475 13.1 5.5001 13.1H6.49971C7.8249 13.1001 8.89949 14.1748 8.89971 15.5V16.4996C8.89971 17.8249 7.82503 18.8994 6.49971 18.8996H5.5001C4.17461 18.8996 3.1001 17.8251 3.1001 16.4996L3.1001 15.5ZM4.9001 16.4996C4.9001 16.8309 5.16873 17.0996 5.5001 17.0996H6.49971C6.83092 17.0994 7.09971 16.8308 7.09971 16.4996V15.5C7.09949 15.1689 6.83078 14.9001 6.49971 14.9H5.5001C5.16886 14.9 4.90032 15.1688 4.9001 15.5V16.4996Z" fill="#0D1625"/>
</svg>
