<svg width="24" height="24" viewBox="0 0 24 24" fill="none" xmlns="http://www.w3.org/2000/svg">
<path d="M7.24211 5.48469C8.76508 3.96197 11.234 3.96202 12.757 5.48469L13.0113 5.73899C14.5435 4.46665 16.8216 4.54891 18.2577 5.98508L19.807 7.53547C21.7204 9.44905 21.7205 12.5512 19.807 14.4648L15.0503 19.2226C13.9178 20.3549 12.0812 20.3549 10.9488 19.2226L10.9218 19.1956C9.81634 19.8193 8.38978 19.6635 7.44836 18.7222L7.36985 18.6437C6.53418 18.9825 5.54098 18.8139 4.86321 18.1363L4.6136 17.8866C3.70417 16.9772 3.58844 15.5745 4.26672 14.5398L3.9843 14.2573C2.46163 12.7344 2.46159 10.2655 3.9843 8.7425L7.24211 5.48469ZM16.9839 7.25774C16.2517 6.52598 15.1148 6.44842 14.2956 7.02336L15.3855 8.11321C16.4273 9.15503 16.4273 10.8448 15.3855 11.8866C14.3437 12.928 12.6549 12.9281 11.6132 11.8866L10.4988 10.7722L6.63508 14.6359L6.63625 14.637L5.88625 15.387C5.54757 15.7259 5.54744 16.2752 5.88625 16.614L6.13586 16.8636C6.31152 17.0391 6.58311 17.0608 6.78274 16.9292L6.8636 16.8636L9.36321 14.364C9.71461 14.0126 10.2844 14.0127 10.6359 14.364C10.987 14.7155 10.9872 15.2853 10.6359 15.6366L8.77492 17.4964C9.20688 17.8767 9.86453 17.8621 10.2773 17.4495L12.3632 15.3636C12.7146 15.0124 13.2844 15.0124 13.6359 15.3636C13.9872 15.715 13.9871 16.2848 13.6359 16.6363L12.2741 17.9968C12.7062 18.3772 13.3649 18.3625 13.7777 17.9499L18.5343 13.1921C19.7449 11.9815 19.7448 10.0188 18.5343 8.80813L16.9839 7.25774ZM11.4843 6.75735C10.6642 5.93762 9.33479 5.93757 8.51477 6.75735L5.25696 10.0152C4.43719 10.8352 4.43723 12.1646 5.25696 12.9847L5.49953 13.2273L9.8636 8.86321L9.93156 8.80227C10.285 8.51379 10.8067 8.53371 11.1363 8.86321L12.8859 10.614C13.2246 10.9525 13.774 10.9524 14.1128 10.614C14.4517 10.2751 14.4517 9.72475 14.1128 9.38586L11.4843 6.75735Z" fill="#0D1625"/>
</svg>
