<svg width="24" height="24" viewBox="0 0 24 24" fill="none" xmlns="http://www.w3.org/2000/svg">
<g>
<path d="M8.99997 16.9996C9.82824 16.9996 10.4998 17.6714 10.5 18.4996C10.5 19.328 9.82837 19.9996 8.99997 19.9996C8.17155 19.9996 7.49997 19.328 7.49997 18.4996C7.50018 17.6714 8.17168 16.9996 8.99997 16.9996ZM15 16.9996C15.8282 16.9996 16.4998 17.6714 16.5 18.4996C16.5 19.328 15.8284 19.9996 15 19.9996C14.1715 19.9996 13.5 19.328 13.5 18.4996C13.5002 17.6714 14.1717 16.9996 15 16.9996ZM8.99997 10.5004C9.82837 10.5004 10.5 11.172 10.5 12.0004C10.4998 12.8286 9.82824 13.5004 8.99997 13.5004C8.17168 13.5004 7.50018 12.8286 7.49997 12.0004C7.49997 11.172 8.17155 10.5004 8.99997 10.5004ZM15 10.5004C15.8284 10.5004 16.5 11.172 16.5 12.0004C16.4998 12.8286 15.8282 13.5004 15 13.5004C14.1717 13.5004 13.5002 12.8286 13.5 12.0004C13.5 11.172 14.1715 10.5004 15 10.5004ZM8.99997 4C9.82837 4.00003 10.5 4.67159 10.5 5.5C10.5 6.32841 9.82837 6.99997 8.99997 7C8.17154 7 7.49997 6.32842 7.49997 5.5C7.49997 4.67157 8.17154 4 8.99997 4ZM15 4C15.8284 4.00001 16.5 4.67158 16.5 5.5C16.5 6.32842 15.8284 6.99999 15 7C14.1715 7 13.5 6.32842 13.5 5.5C13.5 4.67157 14.1715 4 15 4Z" fill="#0D1625"/>
</g>
</svg>
