<svg width="24" height="24" viewBox="0 0 24 24" fill="none" xmlns="http://www.w3.org/2000/svg">
<path d="M15.1575 3.1C16.9471 3.1 18.5075 4.31814 18.9415 6.0543L20.8728 13.7816C20.8751 13.7909 20.8754 13.8005 20.8774 13.8098C20.8798 13.8207 20.8825 13.8315 20.8845 13.8426C20.8871 13.8575 20.8896 13.8722 20.8915 13.8871C20.8938 13.9053 20.895 13.9237 20.8962 13.9422C20.8968 13.9512 20.897 13.9602 20.8974 13.9691C20.8977 13.9793 20.8997 13.9894 20.8997 13.9996V15.1996C20.8997 16.0246 20.9009 16.698 20.8564 17.2434C20.8109 17.7991 20.7143 18.3015 20.4755 18.7703C20.1016 19.5041 19.5042 20.1003 18.7704 20.4742C18.3015 20.7131 17.7993 20.8108 17.2435 20.8562C16.6981 20.9008 16.0248 20.8996 15.1997 20.8996H8.8001C7.97488 20.8996 7.30175 20.9008 6.75635 20.8562C6.20046 20.8108 5.69827 20.7131 5.2294 20.4742C4.49583 20.1003 3.89934 19.5039 3.52549 18.7703C3.2867 18.3015 3.18887 17.7991 3.14346 17.2434C3.09893 16.698 3.1001 16.0246 3.1001 15.1996V13.9996C3.1001 13.9894 3.1021 13.9793 3.10244 13.9691C3.10276 13.9602 3.10303 13.9512 3.10362 13.9422C3.10479 13.9237 3.10602 13.9053 3.1083 13.8871C3.1102 13.8722 3.11267 13.8575 3.11533 13.8426C3.11729 13.8315 3.12001 13.8207 3.12237 13.8098C3.12437 13.8005 3.12474 13.7909 3.12705 13.7816L5.0583 6.0543C5.49233 4.31819 7.05277 3.10007 8.84229 3.1H15.1575ZM4.9001 15.1996C4.9001 16.0543 4.90045 16.6418 4.9376 17.0969C4.97391 17.5411 5.04063 17.7807 5.12862 17.9535C5.32989 18.3484 5.65134 18.6698 6.04619 18.8711C6.21902 18.9591 6.45835 19.0258 6.90283 19.0621C7.35794 19.0993 7.94518 19.0996 8.8001 19.0996H15.1997C16.0545 19.0996 16.6419 19.0993 17.097 19.0621C17.5415 19.0258 17.7808 18.9591 17.9536 18.8711C18.3485 18.6698 18.6699 18.3484 18.8712 17.9535C18.9592 17.7807 19.0259 17.5411 19.0622 17.0969C19.0994 16.6418 19.0997 16.0543 19.0997 15.1996V14.8996H4.9001V15.1996ZM7.99971 16.0996C8.49664 16.0996 8.8995 16.5027 8.89971 16.9996C8.89971 17.4967 8.49677 17.8996 7.99971 17.8996H7.0001C6.50305 17.8996 6.1001 17.4967 6.1001 16.9996C6.1003 16.5027 6.50318 16.0996 7.0001 16.0996H7.99971ZM12.1997 16.0996C12.6966 16.0996 13.0995 16.5027 13.0997 16.9996C13.0997 17.4967 12.6968 17.8996 12.1997 17.8996H11.2001C10.7031 17.8996 10.3001 17.4967 10.3001 16.9996C10.3003 16.5027 10.7032 16.0996 11.2001 16.0996H12.1997ZM8.84229 4.9C7.87891 4.90007 7.03945 5.55571 6.80557 6.49023L5.15323 13.0996H18.8466L17.1954 6.49023C16.9616 5.55556 16.121 4.9 15.1575 4.9H8.84229Z" fill="#0D1625"/>
</svg>
