<svg width="24" height="24" viewBox="0 0 24 24" fill="none" xmlns="http://www.w3.org/2000/svg">
<path d="M11.0002 6.10039C11.4971 6.1006 11.9002 6.50346 11.9002 7.00039V17C11.9 17.4967 11.4969 17.8998 11.0002 17.9C10.5034 17.8998 10.1004 17.4967 10.1002 17V12.9008H4.90059V17C4.90038 17.4967 4.49733 17.8998 4.00059 17.9C3.50366 17.9 3.10079 17.4969 3.10059 17V7.00039C3.10059 6.50333 3.50353 6.10039 4.00059 6.10039C4.49746 6.1006 4.90059 6.50346 4.90059 7.00039V11.1008H10.1002V7.00039C10.1002 6.50346 10.5033 6.1006 11.0002 6.10039ZM17.4994 6.10039C19.3771 6.10039 20.9 7.62241 20.9002 9.5C20.9001 10.4899 20.4741 11.3781 19.7986 11.9996C20.4745 12.6212 20.9002 13.5101 20.9002 14.5004C20.9 16.378 19.377 17.9 17.4994 17.9H17.0002C15.3988 17.8998 14.0998 16.6011 14.0998 14.9996C14.1 14.5029 14.5031 14.0998 14.9998 14.0996C15.4967 14.0996 15.8996 14.5027 15.8998 14.9996C15.8998 15.607 16.3929 16.0998 17.0002 16.1H17.4994C18.3829 16.1 19.1 15.3839 19.1002 14.5004C19.1002 13.6201 18.3889 12.9051 17.51 12.8996C17.5066 12.8996 17.5028 12.9008 17.4994 12.9008C17.3781 12.9007 17.2628 12.8753 17.1572 12.8316C17.1007 12.8083 17.0468 12.7799 16.9967 12.7461C16.7576 12.5843 16.5997 12.311 16.5994 12.0008C16.5994 11.8762 16.6251 11.7571 16.6709 11.6492C16.7164 11.5418 16.7818 11.4446 16.8631 11.3633C16.9039 11.3225 16.9487 11.2855 16.9967 11.2531C17.1402 11.1561 17.3133 11.0998 17.4994 11.0996C17.5028 11.0996 17.5066 11.0996 17.51 11.0996C18.3888 11.0941 19.1 10.3801 19.1002 9.5C19.1 8.61652 18.3829 7.90039 17.4994 7.90039H17.0002C16.3929 7.9006 15.8998 8.39339 15.8998 9.00078C15.8994 9.49748 15.4966 9.90078 14.9998 9.90078C14.5032 9.90057 14.1002 9.49735 14.0998 9.00078C14.0998 7.39928 15.3987 6.1006 17.0002 6.10039H17.4994Z" fill="#0D1625"/>
</svg>
