<svg width="24" height="24" viewBox="0 0 24 24" fill="none" xmlns="http://www.w3.org/2000/svg">
<path d="M11.0002 6.10039C11.4971 6.1006 11.9002 6.50346 11.9002 7.00039V17C11.9 17.4967 11.4969 17.8998 11.0002 17.9C10.5034 17.8998 10.1004 17.4967 10.1002 17V12.9008H4.90059V17C4.90038 17.4967 4.49733 17.8998 4.00059 17.9C3.50366 17.9 3.10079 17.4969 3.10059 17V7.00039C3.10059 6.50333 3.50353 6.10039 4.00059 6.10039C4.49746 6.1006 4.90059 6.50346 4.90059 7.00039V11.1008H10.1002V7.00039C10.1002 6.50346 10.5033 6.1006 11.0002 6.10039ZM17.4994 6.10039C19.3771 6.10039 20.9 7.62241 20.9002 9.5C20.9 11.3776 19.3771 12.9008 17.4994 12.9008C16.6161 12.9012 15.8998 13.617 15.8998 14.5004V16.1H20.0002C20.4969 16.1002 20.9 16.5032 20.9002 17C20.9 17.4967 20.4969 17.8998 20.0002 17.9H14.9998C14.5031 17.8998 14.1 17.4967 14.0998 17V14.5004C14.0998 12.6229 15.622 11.1012 17.4994 11.1008C18.3829 11.1008 19.1 10.3835 19.1002 9.5C19.1 8.61652 18.3829 7.90039 17.4994 7.90039C16.6162 7.90081 15.9 8.61678 15.8998 9.5C15.8996 9.99688 15.4967 10.4 14.9998 10.4C14.5031 10.3998 14.1 9.99675 14.0998 9.5C14.1 7.62267 15.6221 6.10081 17.4994 6.10039Z" fill="#0D1625"/>
</svg>
