<svg width="24" height="24" viewBox="0 0 24 24" fill="none" xmlns="http://www.w3.org/2000/svg">
<path d="M12 3.1C16.9411 3.10022 20.8992 7.22304 20.8992 12.25V15.0004C20.8992 15.052 20.8924 15.1023 20.884 15.1516C20.8928 15.2669 20.9004 15.3835 20.9004 15.5008C20.9 17.8884 19.0448 19.8998 16.6664 19.9C15.2082 19.8999 14.1002 18.6718 14.1 17.2504V13.75C14.1002 12.3286 15.2082 11.1005 16.6664 11.1004C17.5757 11.1005 18.408 11.3947 19.0898 11.8914C18.9089 7.9752 15.7805 4.90021 12 4.9C8.21934 4.9 5.08883 7.97504 4.90781 11.8914C5.5897 11.3943 6.42276 11.1005 7.33242 11.1004C8.79069 11.1004 9.8998 12.3285 9.9 13.75V17.2504C9.89979 18.6719 8.79068 19.9 7.33242 19.9C4.95405 19.8997 3.10002 17.8884 3.09961 15.5008C3.09961 15.3843 3.10617 15.2684 3.11484 15.1539C3.10621 15.1039 3.09963 15.0528 3.09961 15.0004V12.25C3.09961 7.2229 7.05876 3.1 12 3.1ZM7.33242 12.9004C6.02963 12.9007 4.89961 14.0232 4.89961 15.5008C4.90001 16.978 6.02986 18.0997 7.33242 18.1C7.71487 18.1 8.0998 17.7615 8.1 17.2504V13.75C8.0998 13.2389 7.71488 12.9004 7.33242 12.9004ZM16.6664 12.9004C16.284 12.9005 15.9002 13.239 15.9 13.75V17.2504C15.9002 17.7614 16.284 18.0998 16.6664 18.1C17.969 18.0998 19.1 16.978 19.1004 15.5008C19.1004 14.0231 17.9692 12.9006 16.6664 12.9004Z" fill="#0D1625"/>
</svg>
