<svg width="24" height="24" viewBox="0 0 24 24" fill="none" xmlns="http://www.w3.org/2000/svg">
<path d="M10.9997 6.1004C11.4966 6.10061 11.8997 6.50347 11.8997 7.0004V17C11.8995 17.4967 11.4964 17.8998 10.9997 17.9C10.503 17.8998 10.0999 17.4967 10.0997 17V12.9008H4.9001V17C4.89987 17.4967 4.49684 17.8998 4.0001 17.9C3.50318 17.9 3.10032 17.4969 3.1001 17V7.0004C3.1001 6.50334 3.50304 6.1004 4.0001 6.1004C4.49697 6.10061 4.9001 6.50347 4.9001 7.0004V11.1008H10.0997V7.0004C10.0997 6.50347 10.5028 6.10061 10.9997 6.1004ZM19.0915 6.10508C19.122 6.10818 19.1522 6.11191 19.1817 6.11797C19.4159 6.16603 19.6172 6.30515 19.7466 6.49649C19.779 6.54452 19.807 6.59598 19.8298 6.65C19.8525 6.70372 19.8694 6.76031 19.8813 6.81875L19.8954 6.90782C19.8985 6.93811 19.9001 6.96929 19.9001 7.0004V17C19.8999 17.4967 19.4968 17.8998 19.0001 17.9C18.5032 17.9 18.1003 17.4969 18.1001 17V9.64883C17.7627 9.80471 17.3907 9.90079 16.9997 9.90079C16.5029 9.90079 16.1001 9.49747 16.0997 9.00079C16.0997 8.50373 16.5026 8.10079 16.9997 8.10079C17.2069 8.10079 17.4893 7.98722 17.738 7.73868C17.9865 7.49015 18.0999 7.20765 18.1001 7.0004C18.1001 6.93836 18.1057 6.87725 18.1177 6.81875C18.2015 6.40853 18.5651 6.1004 19.0001 6.1004C19.031 6.10041 19.0614 6.10203 19.0915 6.10508Z" fill="#0D1625"/>
</svg>
