<svg width="24" height="24" viewBox="0 0 24 24" fill="none" xmlns="http://www.w3.org/2000/svg">
<g>
<path d="M15.2813 3.81406C16.7587 3.81412 18.0454 4.53808 18.9435 5.55313C19.8386 6.56496 20.3999 7.92074 20.4001 9.30547C20.4001 10.6858 19.8416 12.063 19.0993 13.2992C18.3503 14.5466 17.3655 15.7307 16.4028 16.7445C15.4372 17.7614 14.474 18.6273 13.7544 19.2383C13.394 19.5442 13.0924 19.7888 12.8802 19.9566C12.7744 20.0403 12.6898 20.1054 12.6317 20.15C12.603 20.1721 12.5806 20.1897 12.5649 20.2016L12.5415 20.2191L12.5392 20.2203C12.2596 20.4291 11.8887 20.4555 11.5864 20.2988L11.461 20.2203L11.4587 20.2191L11.4353 20.2016C11.4196 20.1897 11.3973 20.1722 11.3685 20.15C11.3104 20.1054 11.2259 20.0404 11.12 19.9566C10.9078 19.7888 10.6063 19.5443 10.2458 19.2383C9.52613 18.6273 8.56312 17.7615 7.59736 16.7445C6.63463 15.7307 5.64998 14.5467 4.90088 13.2992C4.15852 12.0629 3.6001 10.6859 3.6001 9.30547C3.60049 6.03628 6.36454 3.81406 8.71885 3.81406C10.195 3.81411 11.2331 4.4982 11.8794 5.15469C11.9217 5.19766 11.9609 5.24204 12.0001 5.28477C12.0392 5.24209 12.0786 5.1976 12.1208 5.15469C12.7671 4.49822 13.8052 3.81406 15.2813 3.81406ZM15.2813 5.61406C14.414 5.61406 13.8112 6.00198 13.4028 6.4168C13.1966 6.62632 13.046 6.83792 12.9481 6.9957C12.8998 7.07373 12.8656 7.13738 12.845 7.17735C12.8354 7.19599 12.8287 7.20972 12.8251 7.21719L12.8239 7.21836V7.2207L12.8216 7.22305C12.677 7.54722 12.3554 7.75736 12.0001 7.75742C11.6446 7.75742 11.3232 7.54742 11.1786 7.22305L11.1763 7.21836H11.1751V7.21602C11.1715 7.20841 11.1644 7.19532 11.1552 7.17735C11.1346 7.13739 11.1005 7.07381 11.0521 6.9957C10.9542 6.8379 10.8036 6.62638 10.5974 6.4168C10.189 6.00195 9.58618 5.61411 8.71885 5.61406C7.32346 5.61406 5.40049 7.06522 5.4001 9.30547C5.4001 10.2208 5.77942 11.267 6.44307 12.3723C7.10013 13.4665 7.99072 14.5442 8.90283 15.5047C9.81194 16.462 10.7241 17.2843 11.4106 17.8672C11.6342 18.057 11.8338 18.2202 12.0001 18.3547C12.1663 18.2202 12.366 18.0569 12.5896 17.8672C13.2761 17.2843 14.1883 16.462 15.0974 15.5047C16.0094 14.5442 16.9001 13.4664 17.5571 12.3723C18.2207 11.267 18.6001 10.2208 18.6001 9.30547C18.5999 8.3948 18.2237 7.45467 17.5958 6.74492C16.9705 6.03826 16.1475 5.61412 15.2813 5.61406Z" fill="#0D1625"/>
</g>
</svg>
