<svg width="24" height="24" viewBox="0 0 24 24" fill="none" xmlns="http://www.w3.org/2000/svg">
<path d="M4.23457 8.1C4.64298 8.10007 5.02631 8.20338 5.35605 8.41993C5.68058 8.63324 5.90359 8.92281 6.05332 9.21797C6.33963 9.78268 6.40371 10.4538 6.40371 11.0004V13.3324C6.55714 13.1055 6.77326 12.9068 7.06348 12.7617L7.23457 12.6867C8.1016 12.3563 9.12224 12.7028 9.6416 13.5398C9.84098 13.8614 10.0985 14.4247 10.2885 14.8617C10.5626 15.4922 10.8966 16.1219 10.8967 17.0039C10.8966 18.3425 10.6122 19.718 9.95801 21.1078C9.72286 21.6071 9.2226 21.8998 8.70176 21.9H6.02754C5.40321 21.9 4.82128 21.5922 4.4666 21.0844C2.91888 18.8671 2.10082 17.8543 2.10059 16.0008V11.0004C2.10059 10.4664 2.15331 9.79726 2.42637 9.23321C2.57002 8.93665 2.78814 8.64221 3.11309 8.42461C3.443 8.20374 3.82631 8.10008 4.23457 8.1ZM19.7619 8.1C20.1702 8.10007 20.5546 8.20366 20.8846 8.42461C21.2092 8.64217 21.4266 8.93683 21.5701 9.23321C21.8432 9.79727 21.8971 10.4664 21.8971 11.0004V16.0008C21.8968 17.8543 21.0787 18.8672 19.5311 21.0844C19.1765 21.5923 18.5944 21.8999 17.9701 21.9H15.2959C14.775 21.9 14.2749 21.6071 14.0396 21.1078C13.3854 19.718 13.101 18.3426 13.101 17.0039C13.1011 16.1218 13.4339 15.4923 13.708 14.8617C13.8981 14.4245 14.1566 13.8614 14.3561 13.5398C14.9101 12.647 16.0342 12.3119 16.9342 12.7617C17.2242 12.9068 17.4406 13.1056 17.5939 13.3324V11.0004C17.5939 10.4537 17.6579 9.78274 17.9443 9.21797C18.0942 8.92265 18.3168 8.63325 18.6416 8.41993C18.9713 8.20344 19.3536 8.10009 19.7619 8.1ZM4.13613 9.91055C4.12218 9.91451 4.11596 9.91853 4.11387 9.91993C4.11037 9.9223 4.08353 9.9421 4.04707 10.0172C3.9571 10.2031 3.90059 10.5347 3.90059 11.0004V16.0008C3.90075 17.1654 4.27537 17.6667 5.94199 20.0543C5.9628 20.0838 5.99628 20.1 6.02754 20.1H8.43574C8.89864 19.0354 9.09663 18.003 9.09668 17.0039C9.0966 16.5838 8.97444 16.3528 8.63848 15.5801C8.44117 15.1263 8.23198 14.6822 8.1123 14.4891C8.07047 14.4216 8.0156 14.3867 7.96699 14.3719C7.94478 14.3652 7.9249 14.3634 7.90957 14.3637C7.9131 14.3851 7.91922 14.4158 7.93769 14.4527C8.0544 14.6861 8.33812 15.2358 8.48965 15.7981C8.56501 16.0779 8.6292 16.434 8.58574 16.7953C8.53909 17.182 8.35838 17.6231 7.91543 17.9145C7.52656 18.1701 7.05649 18.2808 6.58066 18.191C6.10781 18.1015 5.70336 17.828 5.40176 17.4516C5.28497 17.3058 5.09901 17.0681 4.94121 16.7953C4.79516 16.5428 4.60386 16.1459 4.60371 15.6961V11.0004L4.59199 10.684C4.57012 10.3918 4.51818 10.1713 4.44785 10.0324C4.4087 9.95526 4.37749 9.93093 4.36816 9.92461C4.36492 9.92248 4.33352 9.90006 4.23457 9.9C4.18245 9.90004 4.15125 9.9063 4.13613 9.91055ZM19.7619 9.9C19.6639 9.90008 19.6332 9.92216 19.6295 9.92461C19.621 9.93023 19.5899 9.95347 19.5498 10.0324C19.4559 10.2176 19.3939 10.5473 19.3939 11.0004V15.6961C19.3938 16.1459 19.2025 16.5428 19.0564 16.7953C18.8986 17.0682 18.7128 17.3057 18.5959 17.4516C18.2943 17.8281 17.8899 18.1014 17.417 18.191C16.9411 18.281 16.4712 18.17 16.0822 17.9145C15.6391 17.6231 15.4586 17.1821 15.4119 16.7953C15.3684 16.4339 15.4326 16.0779 15.508 15.7981C15.6595 15.2358 15.9421 14.6862 16.0588 14.4527C16.0773 14.4158 16.0834 14.3851 16.0869 14.3637C16.0717 14.3635 16.0525 14.3654 16.0307 14.3719C15.9819 14.3865 15.9274 14.4213 15.8854 14.4891C15.7657 14.6819 15.5566 15.1259 15.3592 15.5801C15.0231 16.3531 14.9011 16.5837 14.901 17.0039C14.901 18.003 15.099 19.0354 15.5619 20.1H17.9701C18.0014 20.0998 18.035 20.0839 18.0557 20.0543C19.7222 17.6668 20.0969 17.1654 20.0971 16.0008V11.0004C20.0971 10.5349 20.0405 10.2031 19.9506 10.0172C19.9146 9.94296 19.8867 9.92271 19.8826 9.91993C19.8804 9.91846 19.8745 9.91432 19.8615 9.91055C19.8465 9.9063 19.8145 9.90004 19.7619 9.9ZM14.2611 1.1004C16.802 1.10063 18.4 3.38183 18.4002 5.41055C18.4001 6.48836 17.9588 7.49226 17.39 8.3461C16.8172 9.20589 16.0703 9.98272 15.351 10.6266C14.628 11.2736 13.909 11.8078 13.3729 12.1793C13.104 12.3656 12.8781 12.5129 12.7189 12.6141C12.6399 12.6643 12.5768 12.7031 12.5326 12.7301C12.5105 12.7436 12.4922 12.7543 12.4799 12.7617C12.4739 12.7653 12.4693 12.769 12.4658 12.7711L12.4611 12.7734L12.46 12.7746C12.3213 12.8567 12.1617 12.8999 12.0006 12.9C11.8739 12.9 11.7765 12.8725 11.7533 12.866C11.7156 12.8554 11.6849 12.8445 11.6678 12.8379C11.6335 12.8246 11.6043 12.8105 11.5881 12.8027C11.5536 12.7862 11.5185 12.7682 11.4896 12.7523C11.4292 12.7192 11.3534 12.6753 11.2682 12.6234C11.0959 12.5187 10.8631 12.3687 10.5908 12.1816C10.0465 11.8078 9.32798 11.2722 8.61035 10.6242C7.89608 9.97919 7.15826 9.20057 6.59355 8.34024C6.03266 7.48548 5.60108 6.48398 5.60098 5.41055C5.60117 3.38173 7.19894 1.1004 9.74004 1.1004C10.7056 1.10061 11.4504 1.42358 12.0006 1.81641C12.5508 1.42355 13.2954 1.10052 14.2611 1.1004ZM14.2611 2.9004C13.4764 2.90057 12.9772 3.27032 12.6732 3.61172C12.5026 3.80344 12.2573 3.91279 12.0006 3.9129C11.7439 3.9129 11.4987 3.8033 11.3279 3.61172C11.0241 3.27038 10.5246 2.90069 9.74004 2.9004C8.40698 2.9004 7.40117 4.14749 7.40098 5.41055C7.40108 6.00348 7.64347 6.66058 8.09824 7.35352C8.54944 8.04085 9.16919 8.70292 9.81738 9.28829C10.4621 9.8704 11.1134 10.3575 11.6092 10.6981C11.7466 10.7925 11.8718 10.8748 11.9795 10.9441C12.0863 10.8738 12.2117 10.7945 12.3475 10.7004C12.8425 10.3573 13.498 9.86818 14.1498 9.28477C14.8053 8.69806 15.434 8.03572 15.8924 7.34766C16.3546 6.6538 16.6001 5.99919 16.6002 5.41055C16.6 4.14761 15.594 2.90064 14.2611 2.9004Z" fill="#0D1625"/>
</svg>
