<svg width="24" height="24" viewBox="0 0 24 24" fill="none" xmlns="http://www.w3.org/2000/svg">
<path d="M9.73354 4.01366C11.0896 3.04513 12.9115 3.0451 14.2675 4.01366L18.2671 6.8707C19.2917 7.60277 19.9007 8.78484 19.9007 10.0441V16.0008C19.9003 18.1541 18.154 19.9004 16.0007 19.9008H15C13.9509 19.9006 13.1006 19.049 13.1003 18V15.5004C13.1003 14.893 12.6073 14.4002 12 14.4C11.3926 14.4002 10.9007 14.893 10.9007 15.5004V18C10.9005 19.049 10.049 19.9006 8.99995 19.9008H8.00034C5.84669 19.9008 4.10076 18.1543 4.10034 16.0008V10.0441C4.10038 8.78466 4.70906 7.60275 5.73394 6.8707L9.73354 4.01366ZM13.221 5.47851C12.4909 4.957 11.5102 4.95706 10.78 5.47851L6.77925 8.33554C6.22764 8.72973 5.90038 9.36613 5.90034 10.0441V16.0008C5.90076 17.1602 6.8408 18.1008 8.00034 18.1008H8.99995C9.05488 18.1006 9.10052 18.0549 9.10073 18V15.5004C9.10073 13.8989 10.3985 12.6002 12 12.6C13.6014 12.6002 14.9003 13.8989 14.9003 15.5004V18C14.9006 18.0549 14.945 18.1006 15 18.1008H16.0007C17.1599 18.1004 18.1003 17.16 18.1007 16.0008V10.0441C18.1007 9.36616 17.7722 8.72974 17.2207 8.33554L13.221 5.47851Z" fill="#0D1625"/>
</svg>
