<svg width="24" height="24" viewBox="0 0 24 24" fill="none" xmlns="http://www.w3.org/2000/svg">
<path d="M8.09961 12.6C8.50467 12.6 8.86259 12.5994 9.15781 12.6235C9.4636 12.6484 9.781 12.7042 10.0895 12.8613C10.541 13.0914 10.9082 13.4587 11.1383 13.9102C11.2954 14.2186 11.3512 14.536 11.3762 14.8418C11.4003 15.137 11.3996 15.495 11.3996 15.9V17.1C11.3996 17.5051 11.4003 17.863 11.3762 18.1582C11.3512 18.464 11.2954 18.7814 11.1383 19.0899C10.9082 19.5414 10.5409 19.9086 10.0895 20.1387C9.78101 20.2958 9.46359 20.3516 9.15781 20.3766C8.86259 20.4007 8.50466 20.4 8.09961 20.4H6.89961C6.49456 20.4 6.13663 20.4007 5.84141 20.3766C5.53563 20.3516 5.21822 20.2959 4.90977 20.1387C4.45827 19.9086 4.09102 19.5414 3.86094 19.0899C3.70378 18.7814 3.64803 18.464 3.62305 18.1582C3.59895 17.863 3.59961 17.5051 3.59961 17.1V15.9C3.59961 15.495 3.59895 15.137 3.62305 14.8418C3.64803 14.536 3.70379 14.2186 3.86094 13.9102C4.09102 13.4587 4.45827 13.0914 4.90977 12.8613C5.21822 12.7042 5.53563 12.6484 5.84141 12.6235C6.13663 12.5994 6.49456 12.6 6.89961 12.6H8.09961ZM17.0996 12.6C17.5047 12.6 17.8626 12.5994 18.1578 12.6235C18.4636 12.6484 18.781 12.7042 19.0895 12.8613C19.541 13.0914 19.9082 13.4587 20.1383 13.9102C20.2954 14.2186 20.3512 14.536 20.3762 14.8418C20.4003 15.137 20.3996 15.495 20.3996 15.9V17.1C20.3996 17.5051 20.4003 17.863 20.3762 18.1582C20.3512 18.464 20.2954 18.7814 20.1383 19.0899C19.9082 19.5414 19.5409 19.9086 19.0895 20.1387C18.781 20.2958 18.4636 20.3516 18.1578 20.3766C17.8626 20.4007 17.5047 20.4 17.0996 20.4H15.8996C15.4946 20.4 15.1366 20.4007 14.8414 20.3766C14.5356 20.3516 14.2182 20.2959 13.9098 20.1387C13.4583 19.9086 13.091 19.5414 12.8609 19.0899C12.7038 18.7814 12.648 18.464 12.623 18.1582C12.5989 17.863 12.5996 17.5051 12.5996 17.1V15.9C12.5996 15.495 12.5989 15.137 12.623 14.8418C12.648 14.536 12.7038 14.2186 12.8609 13.9102C13.091 13.4587 13.4583 13.0914 13.9098 12.8613C14.2182 12.7042 14.5356 12.6484 14.8414 12.6235C15.1366 12.5994 15.4946 12.6 15.8996 12.6H17.0996ZM6.89961 14.4C6.46485 14.4 6.19285 14.4009 5.98789 14.4176C5.79506 14.4334 5.74074 14.4591 5.72774 14.4656C5.61485 14.5232 5.52276 14.6153 5.46524 14.7281C5.45862 14.7412 5.43293 14.7956 5.41719 14.9883C5.40046 15.1933 5.39961 15.4653 5.39961 15.9V17.1C5.39961 17.5348 5.40046 17.8068 5.41719 18.0117C5.43295 18.2046 5.45864 18.2589 5.46524 18.2719C5.52276 18.3848 5.61485 18.4769 5.72774 18.5344C5.74074 18.541 5.79507 18.5667 5.98789 18.5824C6.19285 18.5992 6.46485 18.6 6.89961 18.6H8.09961C8.53436 18.6 8.80637 18.5992 9.01133 18.5824C9.20406 18.5667 9.25845 18.541 9.27149 18.5344C9.38437 18.4769 9.47646 18.3848 9.53399 18.2719C9.54058 18.2589 9.56628 18.2046 9.58203 18.0117C9.59877 17.8068 9.59961 17.5348 9.59961 17.1V15.9C9.59961 15.4653 9.59876 15.1933 9.58203 14.9883C9.56628 14.7956 9.54059 14.7412 9.53399 14.7281C9.47646 14.6152 9.38438 14.5232 9.27149 14.4656C9.25849 14.4591 9.20417 14.4334 9.01133 14.4176C8.80637 14.4009 8.53437 14.4 8.09961 14.4H6.89961ZM15.8996 14.4C15.4649 14.4 15.1928 14.4009 14.9879 14.4176C14.7951 14.4334 14.7407 14.4591 14.7277 14.4656C14.6148 14.5232 14.5228 14.6153 14.4652 14.7281C14.4586 14.7412 14.4329 14.7956 14.4172 14.9883C14.4005 15.1933 14.3996 15.4653 14.3996 15.9V17.1C14.3996 17.5348 14.4005 17.8068 14.4172 18.0117C14.4329 18.2046 14.4586 18.2589 14.4652 18.2719C14.5228 18.3848 14.6148 18.4769 14.7277 18.5344C14.7407 18.541 14.7951 18.5667 14.9879 18.5824C15.1928 18.5992 15.4649 18.6 15.8996 18.6H17.0996C17.5344 18.6 17.8064 18.5992 18.0113 18.5824C18.2041 18.5667 18.2584 18.541 18.2715 18.5344C18.3844 18.4769 18.4765 18.3848 18.534 18.2719C18.5406 18.2589 18.5663 18.2046 18.582 18.0117C18.5988 17.8068 18.5996 17.5348 18.5996 17.1V15.9C18.5996 15.4653 18.5988 15.1933 18.582 14.9883C18.5663 14.7956 18.5406 14.7412 18.534 14.7281C18.4765 14.6152 18.3844 14.5232 18.2715 14.4656C18.2585 14.4591 18.2042 14.4334 18.0113 14.4176C17.8064 14.4009 17.5344 14.4 17.0996 14.4H15.8996ZM7.49961 3.60002C9.65352 3.60002 11.3996 5.34611 11.3996 7.50002C11.3996 9.65392 9.65351 11.4 7.49961 11.4C5.34572 11.4 3.59963 9.65391 3.59961 7.50002C3.59961 5.34611 5.34571 3.60003 7.49961 3.60002ZM17.0996 3.60002C17.5047 3.60002 17.8626 3.59936 18.1578 3.62346C18.4636 3.64844 18.781 3.70418 19.0895 3.86135C19.541 4.09143 19.9082 4.45867 20.1383 4.91018C20.2954 5.21862 20.3512 5.53604 20.3762 5.84182C20.4003 6.13704 20.3996 6.49497 20.3996 6.90002V8.10002C20.3996 8.50507 20.4003 8.863 20.3762 9.15822C20.3512 9.464 20.2954 9.78142 20.1383 10.0899C19.9082 10.5414 19.5409 10.9086 19.0895 11.1387C18.781 11.2958 18.4636 11.3516 18.1578 11.3766C17.8626 11.4007 17.5047 11.4 17.0996 11.4H15.8996C15.4946 11.4 15.1366 11.4007 14.8414 11.3766C14.5356 11.3516 14.2182 11.2959 13.9098 11.1387C13.4583 10.9086 13.091 10.5414 12.8609 10.0899C12.7038 9.78142 12.648 9.464 12.623 9.15822C12.5989 8.863 12.5996 8.50507 12.5996 8.10002V6.90002C12.5996 6.49497 12.5989 6.13703 12.623 5.84182C12.648 5.53604 12.7038 5.21862 12.8609 4.91018C13.091 4.45868 13.4583 4.09143 13.9098 3.86135C14.2182 3.70418 14.5356 3.64844 14.8414 3.62346C15.1366 3.59936 15.4946 3.60002 15.8996 3.60002H17.0996ZM7.49961 5.40002C6.33982 5.40003 5.39961 6.34023 5.39961 7.50002C5.39963 8.6598 6.33983 9.60001 7.49961 9.60002C8.6594 9.60002 9.59959 8.6598 9.59961 7.50002C9.59961 6.34022 8.65941 5.40002 7.49961 5.40002ZM15.8996 5.40002C15.4649 5.40002 15.1928 5.40086 14.9879 5.4176C14.7951 5.43335 14.7407 5.45905 14.7277 5.46564C14.6148 5.52317 14.5228 5.61525 14.4652 5.72814C14.4586 5.7412 14.4329 5.7956 14.4172 5.9883C14.4005 6.19325 14.3996 6.46528 14.3996 6.90002V8.10002C14.3996 8.53477 14.4005 8.80678 14.4172 9.01174C14.4329 9.20456 14.4586 9.25889 14.4652 9.27189C14.5228 9.38478 14.6148 9.47687 14.7277 9.53439C14.7407 9.54099 14.7951 9.56669 14.9879 9.58244C15.1928 9.59917 15.4649 9.60002 15.8996 9.60002H17.0996C17.5344 9.60002 17.8064 9.59917 18.0113 9.58244C18.2041 9.56669 18.2584 9.541 18.2715 9.53439C18.3844 9.47688 18.4765 9.38478 18.534 9.27189C18.5406 9.25889 18.5663 9.20455 18.582 9.01174C18.5988 8.80678 18.5996 8.53477 18.5996 8.10002V6.90002C18.5996 6.46528 18.5988 6.19325 18.582 5.9883C18.5663 5.79555 18.5406 5.74118 18.534 5.72814C18.4765 5.61525 18.3844 5.52317 18.2715 5.46564C18.2585 5.45905 18.2042 5.43335 18.0113 5.4176C17.8064 5.40086 17.5344 5.40002 17.0996 5.40002H15.8996Z" fill="#0D1625"/>
</svg>
