<svg width="24" height="24" viewBox="0 0 24 24" fill="none" xmlns="http://www.w3.org/2000/svg">
<path d="M17.5 4.60036C19.6537 4.60062 21.4 6.34661 21.4 8.50036V15.5C21.3998 17.6536 19.6536 19.3997 17.5 19.4H6.49961C4.346 19.3998 2.5998 17.6536 2.59961 15.5V8.50036C2.59961 6.34658 4.34588 4.60058 6.49961 4.60036H17.5ZM6.49961 6.40036C5.33999 6.40058 4.39961 7.3407 4.39961 8.50036V15.5C4.3998 16.6595 5.34011 17.5998 6.49961 17.6H8.62773L14.657 11.5707C15.399 10.829 16.6022 10.8289 17.3441 11.5707L19.6 13.8265V8.50036C19.6 7.34072 18.6596 6.40062 17.5 6.40036H6.49961ZM16.0715 12.8433C16.0325 12.8045 15.9687 12.8046 15.9297 12.8433L11.173 17.6H17.5C18.4 17.5998 19.1643 17.0317 19.4629 16.2359L16.0715 12.8433ZM9.00039 7.99997C10.657 8.00024 12.0004 9.3433 12.0004 11C12.0004 12.6567 10.657 13.9997 9.00039 14C7.34354 14 6.00039 12.6568 6.00039 11C6.00041 9.34313 7.34355 7.99997 9.00039 7.99997ZM9.00039 9.79997C8.33766 9.79997 7.80041 10.3372 7.80039 11C7.80039 11.6627 8.33765 12.2 9.00039 12.2C9.66291 12.1997 10.2004 11.6626 10.2004 11C10.2004 10.3374 9.6629 9.80024 9.00039 9.79997Z" fill="#0D1625"/>
</svg>
