<svg width="24" height="24" viewBox="0 0 24 24" fill="none" xmlns="http://www.w3.org/2000/svg">
<path d="M16.5852 4.83633C17.9841 4.83642 19.2762 5.58605 19.9708 6.80039L20.7887 8.23008C21.0391 8.66823 21.1707 9.16446 21.1708 9.66914V15.3703C21.1706 17.524 19.4244 19.2702 17.2708 19.2703H6.73911C4.58532 19.2703 2.83929 17.5241 2.83911 15.3703V9.66914C2.83917 9.16453 2.97077 8.66819 3.22114 8.23008L4.03911 6.80039C4.73369 5.58606 6.02568 4.83633 7.42466 4.83633H16.5852ZM4.63911 15.3703C4.63929 16.5299 5.57944 17.4703 6.73911 17.4703H17.2708C18.4303 17.4702 19.3706 16.5299 19.3708 15.3703V10.0383H16.6157C16.5728 10.0383 16.5345 10.0656 16.5208 10.1062L16.004 11.6555C15.7451 12.4306 15.0189 12.9537 14.2016 12.9539H9.80825C8.99092 12.9539 8.26487 12.4306 8.00591 11.6555L7.48911 10.1062C7.4754 10.0658 7.43689 10.0384 7.39419 10.0383H4.63911V15.3703ZM7.42466 6.63633C6.67137 6.63633 5.97523 7.04067 5.60122 7.69453L5.29067 8.23828H7.39419C8.21153 8.23845 8.93771 8.76145 9.19653 9.53672L9.71333 11.0859C9.72718 11.1263 9.76556 11.1539 9.80825 11.1539H14.2016C14.2442 11.1537 14.2827 11.1262 14.2965 11.0859L14.8133 9.53672C15.0722 8.76125 15.7981 8.23828 16.6157 8.23828H18.7204L18.4086 7.69336C18.0346 7.03971 17.3383 6.63642 16.5852 6.63633H7.42466Z" fill="#0D1625"/>
</svg>
