<svg width="24" height="24" viewBox="0 0 24 24" fill="none" xmlns="http://www.w3.org/2000/svg">
<path d="M6.0001 3.10041C6.49699 3.10061 6.9001 3.50348 6.9001 4.00041V6.6008C6.9001 7.73532 6.90087 8.53261 6.95166 9.15432C7.00162 9.76539 7.09507 10.1285 7.2376 10.4082C7.53479 10.9911 8.0093 11.4658 8.59229 11.7629C8.87202 11.9053 9.23519 11.9989 9.84619 12.0488C10.4679 12.0996 11.2652 12.1004 12.3997 12.1004H18.0001C18.497 12.1006 18.9001 12.5035 18.9001 13.0004C18.8999 13.4971 18.4968 13.9002 18.0001 13.9004H12.3997C11.2949 13.9004 10.4117 13.9011 9.69971 13.843C8.97724 13.784 8.35121 13.6593 7.77549 13.366C6.85379 12.8964 6.10425 12.1467 5.63447 11.225C5.34113 10.6493 5.21658 10.0233 5.15752 9.3008C5.09936 8.58884 5.1001 7.70562 5.1001 6.6008V4.00041C5.1001 3.50335 5.50304 3.10041 6.0001 3.10041Z" fill="#0D1625"/>
</svg>
