<svg width="24" height="24" viewBox="0 0 24 24" fill="none" xmlns="http://www.w3.org/2000/svg">
<path d="M11.0001 9.10039C12.0491 9.10062 12.9006 9.95098 12.9009 11V17C12.9008 17.0336 12.8967 17.0676 12.895 17.1008H14.0001C14.4969 17.101 14.9001 17.5039 14.9001 18.0008C14.8996 18.4973 14.4967 18.9006 14.0001 18.9008H10.0005C9.50367 18.9008 9.10089 18.4975 9.10046 18.0008C9.10046 17.535 9.45434 17.1518 9.90789 17.1055L10.0005 17.1008H11.0001C11.055 17.1006 11.1006 17.0549 11.1009 17V11C11.1006 10.9451 11.055 10.9006 11.0001 10.9004H10.0005C9.50354 10.9004 9.10068 10.4973 9.10046 10.0004C9.10046 9.50333 9.50341 9.10039 10.0005 9.10039H11.0001ZM11.2497 5C11.94 5 12.5001 5.56003 12.5001 6.25039C12.4999 6.94056 11.9399 7.49961 11.2497 7.49961C10.5596 7.49941 10.0007 6.94044 10.0005 6.25039C10.0005 5.56016 10.5595 5.0002 11.2497 5Z" fill="#0D1625"/>
</svg>
