<svg width="24" height="24" viewBox="0 0 24 24" fill="none" xmlns="http://www.w3.org/2000/svg">
<path d="M12 3C16.9706 3 21 7.02944 21 12C21 16.9706 16.9706 21 12 21C7.02944 21 3 16.9706 3 12C3 7.02944 7.02944 3 12 3ZM12 4.8C8.02355 4.8 4.8 8.02355 4.8 12C4.8 15.9765 8.02355 19.2 12 19.2C15.9765 19.2 19.2 15.9765 19.2 12C19.2 8.02355 15.9765 4.8 12 4.8ZM11.9977 10.5996C12.4946 10.5996 12.8974 11.0027 12.8977 11.4996V15.2496C12.8977 15.7467 12.4947 16.1496 11.9977 16.1496C11.5007 16.1495 11.0977 15.7466 11.0977 15.2496V11.4996C11.0979 11.0028 11.5009 10.5998 11.9977 10.5996ZM12 8.00039C12.497 8.0004 12.9 8.40334 12.9 8.90039C12.8998 9.39726 12.4969 9.80038 12 9.80039C11.5031 9.80039 11.1002 9.39727 11.1 8.90039C11.1 8.40333 11.5029 8.00039 12 8.00039Z" fill="#0D1625"/>
</svg>
