<svg width="24" height="24" viewBox="0 0 24 24" fill="none" xmlns="http://www.w3.org/2000/svg">
<path d="M14.9993 5.1004C15.4964 5.1004 15.8993 5.50334 15.8993 6.0004C15.8991 6.49727 15.4962 6.9004 14.9993 6.9004H12.8993V17.1004H14.9993C15.4964 17.1004 15.8993 17.5033 15.8993 18.0004C15.8991 18.4973 15.4962 18.9004 14.9993 18.9004H8.99932C8.50259 18.9002 8.09953 18.4971 8.09932 18.0004C8.09932 17.5035 8.50245 17.1006 8.99932 17.1004H11.0993V6.9004H8.99932C8.50259 6.90018 8.09953 6.49713 8.09932 6.0004C8.09932 5.50348 8.50245 5.10062 8.99932 5.1004H14.9993ZM7.99971 8.1004C8.4966 8.1006 8.89971 8.50347 8.89971 9.0004C8.89949 9.49715 8.49646 9.9002 7.99971 9.9004H6.00049C5.39298 9.9004 4.9001 10.3933 4.9001 11.0008V13C4.90032 13.6073 5.39311 14.1004 6.00049 14.1004H7.99971C8.4966 14.1006 8.89971 14.5035 8.89971 15.0004C8.89949 15.4971 8.49646 15.9002 7.99971 15.9004H6.00049C4.399 15.9004 3.10032 14.6014 3.1001 13V11.0008C3.1001 9.39916 4.39886 8.1004 6.00049 8.1004H7.99971ZM17.9993 8.1004C19.6009 8.1004 20.8997 9.39916 20.8997 11.0008V13C20.8995 14.6014 19.6008 15.9004 17.9993 15.9004H16.0001C15.5032 15.9004 15.1003 15.4973 15.1001 15.0004C15.1001 14.5034 15.5031 14.1004 16.0001 14.1004H17.9993C18.6067 14.1004 19.0995 13.6073 19.0997 13V11.0008C19.0997 10.3933 18.6068 9.9004 17.9993 9.9004H16.0001C15.5032 9.90039 15.1003 9.49726 15.1001 9.0004C15.1001 8.50335 15.5031 8.10041 16.0001 8.1004H17.9993Z" fill="#0D1625"/>
</svg>
