<svg width="24" height="24" viewBox="0 0 24 24" fill="none" xmlns="http://www.w3.org/2000/svg">
<path d="M4.1001 13.7496C4.1002 13.5111 4.19508 13.282 4.36377 13.1133L7.86416 9.61406C8.21563 9.26259 8.78534 9.26259 9.13682 9.61406C9.4879 9.96556 9.48816 10.5354 9.13682 10.8867L7.17275 12.8496L18.1005 12.8496L18.1005 7.65L14.9997 7.65C14.5028 7.64979 14.0997 7.24693 14.0997 6.75C14.0997 6.25307 14.5028 5.85021 14.9997 5.85L19.0005 5.85C19.4974 5.85021 19.9005 6.25307 19.9005 6.75L19.9005 13.7496C19.9005 14.2465 19.4974 14.6494 19.0005 14.6496L7.17275 14.6496L9.13682 16.6137C9.48803 16.9651 9.48803 17.5349 9.13682 17.8863C8.78541 18.2377 8.21565 18.2376 7.86416 17.8863L4.36377 14.3859L4.25127 14.2488C4.15355 14.1021 4.1001 13.9285 4.1001 13.7496Z" fill="#0D1625"/>
</svg>
