<svg width="24" height="24" viewBox="0 0 24 24" fill="none" xmlns="http://www.w3.org/2000/svg">
<path d="M16.9997 5.1C17.4968 5.10001 17.8997 5.50295 17.8997 6C17.8997 6.49705 17.4968 6.89999 16.9997 6.9H13.763L12.0626 17.1H15.0005C15.4974 17.1002 15.9005 17.5031 15.9005 18C15.9005 18.4969 15.4974 18.8998 15.0005 18.9H7.0001C6.50304 18.9 6.1001 18.4971 6.1001 18C6.1001 17.5029 6.50304 17.1 7.0001 17.1H10.238L11.9372 6.9H9.00049C8.50343 6.9 8.10049 6.49705 8.10049 6C8.10049 5.50294 8.50343 5.1 9.00049 5.1H16.9997Z" fill="#0D1625"/>
</svg>
