<svg width="24" height="24" viewBox="0 0 24 24" fill="none" xmlns="http://www.w3.org/2000/svg">
<path d="M8.99922 4.1C10.3247 4.1 11.3992 5.17452 11.3992 6.5V17.5004C11.399 18.8257 10.3246 19.9004 8.99922 19.9004H6.49961C5.17426 19.9004 4.09982 18.8257 4.09961 17.5004V6.5C4.09962 5.17453 5.17413 4.1 6.49961 4.1H8.99922ZM6.49961 5.9C6.16824 5.9 5.89962 6.16864 5.89961 6.5V17.5004C5.89982 17.8316 6.16837 18.1004 6.49961 18.1004H8.99922C9.33046 18.1004 9.59901 17.8316 9.59922 17.5004V6.5C9.59921 6.16864 9.33059 5.9 8.99922 5.9H6.49961ZM17.4988 4.1C18.8243 4.1 19.8988 5.17452 19.8988 6.5V13.4996C19.8988 14.8251 18.8243 15.8996 17.4988 15.8996H14.9992C13.6739 15.8994 12.5992 14.825 12.5992 13.4996V6.5C12.5992 5.17465 13.6739 4.10021 14.9992 4.1H17.4988ZM14.9992 5.9C14.668 5.90021 14.3992 6.16877 14.3992 6.5V13.4996C14.3992 13.8309 14.668 14.0994 14.9992 14.0996H17.4988C17.8302 14.0996 18.0988 13.831 18.0988 13.4996V6.5C18.0988 6.16864 17.8302 5.9 17.4988 5.9H14.9992Z" fill="#0D1625"/>
</svg>
