<svg width="24" height="24" viewBox="0 0 24 24" fill="none" xmlns="http://www.w3.org/2000/svg">
<path d="M14.5006 2.1C14.9975 2.10022 15.4006 2.50308 15.4006 3V3.50039C15.4004 4.54942 14.55 5.39978 13.501 5.4H13.0006C12.9457 5.40021 12.9012 5.44469 12.901 5.49961V6.09961H15.2002C16.0252 6.09961 16.6986 6.09844 17.2439 6.14297C17.7998 6.18838 18.3021 6.28617 18.7709 6.525C19.5046 6.89885 20.1021 7.49521 20.476 8.2289C20.7148 8.69765 20.8114 9.20015 20.8568 9.75586C20.9014 10.3012 20.9002 10.9746 20.9002 11.7996V14.1996C20.9002 15.0246 20.9014 15.698 20.8568 16.2434C20.8114 16.7991 20.7147 17.3015 20.476 17.7703C20.1021 18.5041 19.5047 19.1003 18.7709 19.4742C18.302 19.7131 17.7998 19.8108 17.2439 19.8562C16.6986 19.9008 16.0252 19.8996 15.2002 19.8996H8.80059C7.97536 19.8996 7.30224 19.9008 6.75684 19.8562C6.20094 19.8108 5.69876 19.7131 5.22989 19.4742C4.49631 19.1003 3.89983 18.5039 3.52598 17.7703C3.28719 17.3015 3.18936 16.7991 3.14395 16.2434C3.09942 15.698 3.10059 15.0246 3.10059 14.1996V11.7996C3.10059 10.9746 3.09939 10.3012 3.14395 9.75586C3.18938 9.20011 3.28713 8.69768 3.52598 8.2289C3.89986 7.49541 4.49635 6.89882 5.22989 6.525C5.69872 6.28615 6.201 6.18838 6.75684 6.14297C7.30224 6.09841 7.97538 6.09961 8.80059 6.09961H11.101V5.49961C11.1012 4.45058 11.9516 3.60021 13.0006 3.6H13.501C13.5559 3.59978 13.6004 3.5553 13.6006 3.50039V3C13.6006 2.50307 14.0037 2.10021 14.5006 2.1ZM8.80059 7.89961C7.94569 7.89961 7.35842 7.89993 6.90332 7.93711C6.45895 7.97342 6.2195 8.0401 6.04668 8.12812C5.65186 8.32937 5.33041 8.65092 5.1291 9.0457C5.04107 9.21848 4.97442 9.45807 4.93809 9.90234C4.90091 10.3574 4.90059 10.9449 4.90059 11.7996V14.1996C4.90059 15.0543 4.90094 15.6418 4.93809 16.0969C4.9744 16.5411 5.04112 16.7807 5.1291 16.9535C5.33038 17.3484 5.65182 17.6698 6.04668 17.8711C6.21951 17.9592 6.45882 18.0258 6.90332 18.0621C7.35843 18.0993 7.94566 18.0996 8.80059 18.0996H15.2002C16.055 18.0996 16.6424 18.0993 17.0975 18.0621C17.542 18.0258 17.7813 17.9591 17.9541 17.8711C18.349 17.6698 18.6704 17.3484 18.8717 16.9535C18.9597 16.7807 19.0264 16.5411 19.0627 16.0969C19.0998 15.6418 19.1002 15.0543 19.1002 14.1996V11.7996C19.1002 10.9449 19.0999 10.3574 19.0627 9.90234C19.0264 9.45809 18.9597 9.21848 18.8717 9.0457C18.6703 8.6509 18.349 8.32933 17.9541 8.12812C17.7813 8.0401 17.5419 7.97342 17.0975 7.93711C16.6424 7.89995 16.0549 7.89961 15.2002 7.89961H8.80059ZM12.5002 14.1C12.9973 14.1 13.4002 14.5029 13.4002 15C13.4002 15.4971 12.9973 15.9 12.5002 15.9H8.0002C7.50332 15.8998 7.1002 15.4969 7.1002 15C7.1002 14.5031 7.50332 14.1002 8.0002 14.1H12.5002ZM16.0006 14.1C16.4975 14.1002 16.9006 14.5031 16.9006 15C16.9006 15.4969 16.4975 15.8998 16.0006 15.9H15.001C14.5039 15.9 14.101 15.4971 14.101 15C14.101 14.5029 14.5039 14.1 15.001 14.1H16.0006ZM8.99981 10.1004C9.49686 10.1004 9.89981 10.5033 9.89981 11.0004C9.8996 11.4973 9.49673 11.9004 8.99981 11.9004H8.0002C7.50345 11.9002 7.10041 11.4971 7.1002 11.0004C7.1002 10.5035 7.50332 10.1006 8.0002 10.1004H8.99981ZM12.5002 10.1004C12.9972 10.1004 13.4002 10.5033 13.4002 11.0004C13.4 11.4973 12.9971 11.9004 12.5002 11.9004H11.5006C11.0037 11.9004 10.6008 11.4973 10.6006 11.0004C10.6006 10.5033 11.0035 10.1004 11.5006 10.1004H12.5002ZM16.0006 10.1004C16.4975 10.1006 16.9006 10.5035 16.9006 11.0004C16.9004 11.4971 16.4973 11.9002 16.0006 11.9004H15.001C14.5041 11.9004 14.1012 11.4973 14.101 11.0004C14.101 10.5033 14.5039 10.1004 15.001 10.1004H16.0006Z" fill="#0D1625"/>
</svg>
