<svg width="24" height="24" viewBox="0 0 24 24" fill="none" xmlns="http://www.w3.org/2000/svg">
<path d="M16.3641 12.3637C16.7156 12.0124 17.2854 12.0123 17.6368 12.3637C17.988 12.7151 17.988 13.2849 17.6368 13.6363L16.1731 15.1H21.0001C21.4971 15.1 21.9001 15.5029 21.9001 16C21.9001 16.497 21.4971 16.9 21.0001 16.9H16.1731L17.6368 18.3637C17.988 18.7151 17.988 19.2849 17.6368 19.6363C17.2854 19.9877 16.7156 19.9876 16.3641 19.6363L13.3641 16.6363C13.1954 16.4675 13.1005 16.2387 13.1005 16C13.1005 15.7613 13.1954 15.5324 13.3641 15.3637L16.3641 12.3637ZM15.0634 5.10038C17.728 5.10086 19.7159 7.53238 19.888 9.93671C19.9229 10.4319 19.5499 10.8618 19.0548 10.8976C18.5591 10.9331 18.1283 10.56 18.0927 10.0644C17.9722 8.38236 16.5784 6.90089 15.0634 6.90038C14.2485 6.90038 13.6659 7.18868 13.2844 7.47226C13.0914 7.61583 12.9501 7.75921 12.8602 7.86132C12.8159 7.91171 12.7852 7.95147 12.7677 7.97499L12.7512 7.99726C12.5859 8.24707 12.3059 8.39832 12.0059 8.40038C11.7035 8.40222 11.4193 8.25213 11.2512 8.00077C11.2483 7.99675 11.2439 7.99048 11.2384 7.9832C11.2199 7.95903 11.187 7.91728 11.1411 7.86601C11.0484 7.76258 10.903 7.61904 10.7075 7.4746C10.3191 7.18787 9.73661 6.90048 8.93796 6.90038C7.66747 6.90038 5.90056 8.22906 5.90046 10.2859C5.90057 11.0968 6.24152 11.9965 6.84968 12.9367C7.4526 13.8687 8.27297 14.7707 9.11843 15.5687C9.96046 16.3635 10.8063 17.0358 11.4434 17.5094C11.7611 17.7454 12.0255 17.931 12.2087 18.0566C12.3 18.1193 12.3721 18.167 12.4196 18.1984C12.4431 18.214 12.461 18.2262 12.4723 18.2336C12.4775 18.237 12.4816 18.2402 12.4841 18.2418C12.4853 18.2424 12.4872 18.2427 12.4876 18.243C12.9052 18.5119 13.0258 19.0696 12.7571 19.4875C12.505 19.879 11.9999 20.0093 11.5934 19.8027L11.5137 19.757H11.5126L11.5114 19.7559C11.5103 19.7551 11.5085 19.7535 11.5067 19.7523C11.5026 19.7497 11.4953 19.7454 11.488 19.7406C11.4731 19.7309 11.4516 19.7163 11.4247 19.6984C11.3698 19.662 11.2898 19.6097 11.1903 19.5414C10.9909 19.4046 10.708 19.2055 10.37 18.9543C9.69488 18.4525 8.79095 17.7344 7.88328 16.8777C6.97902 16.0242 6.04747 15.0108 5.33796 13.9141C4.63402 12.8257 4.10057 11.5817 4.10046 10.2859C4.10056 7.20013 6.70853 5.10038 8.93796 5.10038C10.2012 5.10048 11.1503 5.56305 11.7774 6.02616C11.8547 6.08326 11.9276 6.14088 11.9954 6.19726C12.0623 6.14117 12.1347 6.08526 12.211 6.02851C12.8383 5.56212 13.7881 5.10038 15.0634 5.10038Z" fill="#0D1625"/>
</svg>
