<svg width="24" height="24" viewBox="0 0 24 24" fill="none" xmlns="http://www.w3.org/2000/svg">
<path d="M17.3636 12.3637C17.715 12.0125 18.2848 12.0125 18.6362 12.3637L21.6362 15.3637C21.8049 15.5324 21.8999 15.7614 21.8999 16C21.8999 16.2386 21.8049 16.4676 21.6362 16.6363L18.6362 19.6363C18.2848 19.9875 17.715 19.9875 17.3636 19.6363C17.0124 19.2849 17.0124 18.7151 17.3636 18.3637L18.8272 16.9H14.0003C13.5032 16.9 13.1003 16.497 13.1003 16C13.1003 15.5029 13.5032 15.1 14.0003 15.1H18.8272L17.3636 13.6363C17.0124 13.2849 17.0124 12.7151 17.3636 12.3637ZM15.0632 5.10038C17.7278 5.10086 19.7157 7.53239 19.8878 9.93671C19.9227 10.4318 19.5497 10.8618 19.0546 10.8976C18.5589 10.9331 18.1282 10.56 18.0925 10.0644C17.972 8.38236 16.5782 6.9009 15.0632 6.90038C14.2483 6.90038 13.6657 7.18868 13.2843 7.47226C13.0912 7.61583 12.9499 7.75921 12.86 7.86132C12.8157 7.91171 12.7851 7.95147 12.7675 7.97499L12.7511 7.99726C12.5857 8.24707 12.3057 8.39832 12.0057 8.40038C11.7033 8.40222 11.4192 8.25213 11.2511 8.00077C11.2481 7.99675 11.2437 7.99048 11.2382 7.9832C11.2197 7.95903 11.1868 7.91728 11.1409 7.86601C11.0482 7.76258 10.9028 7.61904 10.7073 7.4746C10.319 7.18787 9.73642 6.90048 8.93778 6.90038C7.66729 6.90038 5.90038 8.22906 5.90028 10.2859C5.90038 11.0968 6.24133 11.9965 6.8495 12.9367C7.45241 13.8687 8.27279 14.7707 9.11825 15.5687C9.96027 16.3635 10.8061 17.0358 11.4432 17.5094C11.7609 17.7454 12.0253 17.931 12.2085 18.0566C12.2999 18.1193 12.3719 18.167 12.4194 18.1984C12.4429 18.214 12.4608 18.2262 12.4722 18.2336C12.4774 18.237 12.4814 18.2402 12.4839 18.2418C12.4851 18.2424 12.487 18.2427 12.4874 18.243C12.905 18.5119 13.0256 19.0696 12.7569 19.4875C12.5048 19.879 11.9997 20.0093 11.5932 19.8027L11.5136 19.757H11.5124L11.5112 19.7559C11.5101 19.7551 11.5083 19.7535 11.5065 19.7523C11.5024 19.7497 11.4951 19.7454 11.4878 19.7406C11.4729 19.7309 11.4514 19.7163 11.4245 19.6984C11.3696 19.662 11.2896 19.6096 11.1901 19.5414C10.9907 19.4046 10.7078 19.2055 10.3698 18.9543C9.6947 18.4525 8.79076 17.7344 7.88309 16.8777C6.97884 16.0242 6.04729 15.0108 5.33778 13.9141C4.63383 12.8257 4.10038 11.5817 4.10028 10.2859C4.10038 7.20013 6.70835 5.10038 8.93778 5.10038C10.2011 5.10048 11.1501 5.56305 11.7772 6.02616C11.8545 6.08326 11.9274 6.14088 11.9952 6.19726C12.0621 6.14117 12.1345 6.08526 12.2108 6.02851C12.8381 5.56212 13.7879 5.10038 15.0632 5.10038Z" fill="#0D1625"/>
</svg>
