<svg width="24" height="24" viewBox="0 0 24 24" fill="none" xmlns="http://www.w3.org/2000/svg">
<path d="M17.0761 3.6C18.9114 3.6 20.3996 5.08815 20.3996 6.92344V14.8254C20.9954 15.1461 21.4002 15.7762 21.4004 16.5C21.4002 18.6536 19.654 20.3998 17.5004 20.4H6.49998C4.3462 20.4 2.60017 18.6537 2.59998 16.5C2.60012 15.7764 3.00429 15.1461 3.59958 14.8254V6.92344C3.59959 5.08834 5.088 3.6003 6.92302 3.6H17.0761ZM4.46091 16.4074C4.42512 16.4225 4.40013 16.4587 4.39998 16.5C4.40017 17.6596 5.34031 18.6 6.49998 18.6H17.5004C18.6599 18.5998 19.6002 17.6595 19.6004 16.5C19.6002 16.4449 19.5547 16.4004 19.4996 16.4004H15.5C15.0211 16.4005 14.829 16.5286 14.4992 16.7484C14.0795 17.0283 13.5199 17.3999 12.5 17.4H11.4992C10.4793 17.3998 9.91967 17.0282 9.49998 16.7484C9.17031 16.5287 8.97826 16.4004 8.49919 16.4004H4.49958L4.46091 16.4074ZM6.92302 5.4C6.08211 5.4003 5.39959 6.08245 5.39958 6.92344V14.6004H8.49919C9.51904 14.6004 10.0787 14.971 10.4984 15.2508C10.8284 15.4707 11.0204 15.5998 11.4992 15.6H12.5C12.979 15.5999 13.1709 15.4707 13.5008 15.2508C13.9205 14.971 14.4802 14.6005 15.5 14.6004H18.5996V6.92344C18.5996 6.08226 17.9173 5.4 17.0761 5.4H6.92302Z" fill="#0D1625"/>
</svg>
