<svg width="24" height="24" viewBox="0 0 24 24" fill="none" xmlns="http://www.w3.org/2000/svg">
<path d="M20.0001 8.09961C20.4968 8.09982 20.8999 8.50286 20.9001 8.99961V10.4C20.9001 12.0649 20.8999 13.3682 20.8145 14.4137C20.7283 15.4698 20.5501 16.3427 20.1478 17.1324C19.4863 18.4306 18.4307 19.4862 17.1325 20.1477C16.3428 20.55 15.4699 20.7282 14.4138 20.8145C13.3682 20.8999 12.065 20.9 10.4001 20.9H8.99971C8.50295 20.8998 8.09992 20.4968 8.09971 20C8.09991 19.5032 8.50295 19.1002 8.99971 19.1H10.4001C12.0947 19.1 13.312 19.0983 14.2673 19.0203C15.2118 18.9431 15.8209 18.7948 16.3146 18.5434C17.2742 18.0544 18.0545 17.2741 18.5435 16.3145C18.7949 15.8208 18.9432 15.2117 19.0204 14.2672C19.0984 13.312 19.1001 12.0946 19.1001 10.4V8.99961C19.1003 8.50286 19.5033 8.09982 20.0001 8.09961ZM14.0001 4.1C16.154 4.10001 17.9001 5.8461 17.9001 8V14C17.9001 16.1539 16.154 17.9 14.0001 17.9H8.0001C5.84619 17.9 4.1001 16.1539 4.1001 14V8C4.1001 5.84609 5.84619 4.1 8.0001 4.1H14.0001ZM8.0001 5.9C6.8403 5.9 5.9001 6.8402 5.9001 8V14C5.9001 15.1598 6.8403 16.1 8.0001 16.1H14.0001C15.1599 16.1 16.1001 15.1598 16.1001 14V8C16.1001 6.84021 15.1599 5.90001 14.0001 5.9H8.0001Z" fill="#0D1625"/>
</svg>
