<svg width="24" height="24" viewBox="0 0 24 24" fill="none" xmlns="http://www.w3.org/2000/svg">
<path d="M12.0001 2.52C15.8109 2.52001 18.9001 5.60924 18.9001 9.42C18.9001 11.2782 18.1641 12.9662 16.97 14.2059C16.909 14.2693 16.8997 14.3219 16.8997 14.3395V15.5196H16.9009V17.4192C16.9009 19.5729 15.1544 21.3188 13.0009 21.3192H11.0005C8.84658 21.3192 7.10049 19.5731 7.10049 17.4192V14.3395C7.10049 14.3219 7.09117 14.2693 7.03018 14.2059C5.83606 12.9662 5.1001 11.2782 5.1001 9.42C5.1001 5.60923 8.18933 2.52 12.0001 2.52ZM8.90049 17.4192C8.90049 18.579 9.84069 19.5192 11.0005 19.5192H13.0009C14.1603 19.5188 15.1009 18.5787 15.1009 17.4192V17.3196H8.90049V17.4192ZM12.0001 4.32C9.18345 4.32 6.9001 6.60334 6.9001 9.42C6.9001 10.7942 7.44212 12.04 8.32627 12.9579C8.65993 13.3043 8.90049 13.7882 8.90049 14.3395V15.5196H11.1001V12.4012L10.0009 11.6688C9.5873 11.3931 9.47555 10.8344 9.75127 10.4208C10.027 10.0072 10.5857 9.89545 10.9993 10.1712L12.0001 10.8391L13.0009 10.1712C13.4145 9.89547 13.9732 10.0072 14.2489 10.4208C14.5246 10.8343 14.4129 11.3931 13.9993 11.6688L12.9001 12.4012V15.5196H15.0997V14.3395C15.0997 13.7882 15.3403 13.3043 15.6739 12.9579C16.5581 12.04 17.1001 10.7941 17.1001 9.42C17.1001 6.60335 14.8167 4.32001 12.0001 4.32Z" fill="#0D1625"/>
</svg>
