<svg width="24" height="24" viewBox="0 0 24 24" fill="none" xmlns="http://www.w3.org/2000/svg">
<path d="M7.86372 9.86358C9.59585 8.13157 12.4046 8.13163 14.1368 9.86358C14.4877 10.215 14.4878 10.7849 14.1368 11.1362C13.7854 11.4876 13.2156 11.4873 12.8641 11.1362C11.8349 10.1072 10.1656 10.1072 9.13637 11.1362L6.63676 13.637C5.60777 14.6661 5.60679 16.3344 6.63559 17.3636C7.66479 18.3928 9.33408 18.3927 10.3633 17.3636L10.8637 16.8632C11.2152 16.5122 11.785 16.5121 12.1364 16.8632C12.4877 17.2145 12.4875 17.7843 12.1364 18.1358L11.636 18.6362C9.90379 20.3683 7.09508 20.3684 5.36294 18.6362C3.63119 16.9041 3.631 14.0953 5.36294 12.3632L6.36372 11.3636C6.36583 11.3615 6.36745 11.3586 6.36958 11.3566L7.86372 9.86358ZM12.3637 5.36358C14.0959 3.63148 16.9046 3.63143 18.6368 5.36358C20.3687 7.09576 20.3688 9.9045 18.6368 11.6366L18.1 12.1722L16.1372 14.1362C14.405 15.8684 11.5963 15.8682 9.86411 14.1362C9.5127 13.7848 9.51284 13.2151 9.86411 12.8636C10.2156 12.5126 10.7855 12.5123 11.1368 12.8636C12.166 13.8926 13.8353 13.8927 14.8645 12.8636L17.3641 10.3628C17.3659 10.361 17.367 10.3587 17.3688 10.3569C18.392 9.32729 18.3912 7.66351 17.3641 6.63624C16.3349 5.60703 14.6656 5.60708 13.6364 6.63624L13.136 7.13663C12.7845 7.48771 12.2147 7.48797 11.8633 7.13663C11.512 6.78529 11.5122 6.21547 11.8633 5.86397L12.3637 5.36358Z" fill="#0D1625"/>
</svg>
