<svg width="24" height="24" viewBox="0 0 24 24" fill="none" xmlns="http://www.w3.org/2000/svg">
<path d="M14.9996 17.6006C15.4966 17.6006 15.8996 18.0035 15.8996 18.5006V20.0006C15.8993 20.4974 15.4965 20.9006 14.9996 20.9006C14.5029 20.9003 14.0999 20.4972 14.0996 20.0006V18.5006C14.0996 18.0037 14.5027 17.6008 14.9996 17.6006ZM6.36404 11.3639C6.71553 11.0126 7.28529 11.0125 7.6367 11.3639C7.98785 11.7153 7.98789 12.2851 7.6367 12.6365L6.63592 13.6361C5.60688 14.6653 5.60692 16.3347 6.63592 17.3639C7.66512 18.393 9.33442 18.393 10.3637 17.3639L11.3633 16.3643C11.7147 16.0128 12.2844 16.0128 12.6359 16.3643C12.9873 16.7157 12.9874 17.2855 12.6359 17.6369L11.6363 18.6365C9.90414 20.3686 7.09541 20.3686 5.36326 18.6365C3.63132 16.9044 3.63128 14.0956 5.36326 12.3635L6.36404 11.3639ZM17.3035 17.3029C17.655 16.9517 18.2248 16.9516 18.5762 17.3029L19.6367 18.3635C19.988 18.7149 19.9879 19.2847 19.6367 19.6361C19.3292 19.9437 18.854 19.9828 18.5047 19.7522C18.4548 19.7192 18.408 19.6801 18.364 19.6361L17.3035 18.5756C16.952 18.2241 16.952 17.6544 17.3035 17.3029ZM20 14.1002C20.497 14.1002 20.9 14.5031 20.9 15.0002C20.8999 15.4972 20.497 15.9002 20 15.9002H18.5C18.003 15.9002 17.6001 15.4971 17.6 15.0002C17.6 14.5032 18.003 14.1002 18.5 14.1002H20ZM12.364 5.36387C14.0962 3.63175 16.9049 3.63171 18.6371 5.36387C20.3688 7.09608 20.3691 9.90488 18.6371 11.6369L17.6363 12.6365C17.2849 12.9877 16.7151 12.9877 16.3637 12.6365C16.0124 12.2851 16.0124 11.7153 16.3637 11.3639L17.3644 10.3643C18.3935 9.33517 18.3932 7.66579 17.3644 6.63653C16.3352 5.60731 14.6659 5.60735 13.6367 6.63653L12.6371 7.63614C12.2857 7.98752 11.7159 7.98734 11.3644 7.63614C11.013 7.28467 11.013 6.71496 11.3644 6.36348L12.364 5.36387ZM5.50037 8.1002C5.99728 8.10037 6.40037 8.50325 6.40037 9.0002C6.40028 9.49707 5.99723 9.90003 5.50037 9.9002H4.00037C3.50337 9.9002 3.10046 9.49718 3.10037 9.0002C3.10037 8.50315 3.50332 8.1002 4.00037 8.1002H5.50037ZM4.36365 4.36309C4.71503 4.01201 5.2849 4.01206 5.63631 4.36309L6.69686 5.42481C7.04821 5.77629 7.04829 6.34604 6.69686 6.69747C6.3454 7.04859 5.77558 7.04871 5.4242 6.69747L4.36365 5.63692C4.01218 5.28545 4.01218 4.71456 4.36365 4.36309ZM8.99959 3.09981C9.49657 3.09981 9.89947 3.50286 9.89959 3.99981V5.49981C9.89959 5.99687 9.49665 6.39981 8.99959 6.39981C8.50275 6.39956 8.09959 5.99671 8.09959 5.49981V3.99981C8.09971 3.50301 8.50282 3.10006 8.99959 3.09981Z" fill="#0D1625"/>
</svg>
