<svg width="24" height="24" viewBox="0 0 24 24" fill="none" xmlns="http://www.w3.org/2000/svg">
<path d="M4.99937 15.0004C5.55165 15.0004 6.00015 15.4477 6.00015 16C6.00015 16.5523 5.55165 16.9996 4.99937 16.9996C4.44726 16.9994 3.99976 16.5522 3.99976 16C3.99976 15.4478 4.44726 15.0006 4.99937 15.0004ZM18.9998 15.1C19.4966 15.1002 19.8998 15.5031 19.8998 16C19.8998 16.4969 19.4966 16.8998 18.9998 16.9H9.00015C8.50309 16.9 8.10015 16.4971 8.10015 16C8.10015 15.5029 8.50309 15.1 9.00015 15.1H18.9998ZM4.99937 10.9996C5.55165 10.9996 6.00015 11.4481 6.00015 12.0004C5.99994 12.5525 5.55152 13 4.99937 13C4.44739 12.9998 3.99997 12.5524 3.99976 12.0004C3.99976 11.4482 4.44726 10.9998 4.99937 10.9996ZM18.9998 11.1004C19.4966 11.1006 19.8998 11.5035 19.8998 12.0004C19.8995 12.4971 19.4965 12.9002 18.9998 12.9004H9.00015C8.50322 12.9004 8.10035 12.4973 8.10015 12.0004C8.10015 11.5033 8.50309 11.1004 9.00015 11.1004H18.9998ZM4.99937 7C5.55152 7 5.99994 7.4475 6.00015 7.99961C6.00015 8.55189 5.55165 9.00039 4.99937 9.00039C4.44726 9.00018 3.99976 8.55176 3.99976 7.99961C3.99997 7.44763 4.44739 7.00021 4.99937 7ZM18.9998 7.09961C19.4965 7.09981 19.8995 7.50286 19.8998 7.99961C19.8998 8.49654 19.4966 8.8994 18.9998 8.89961H9.00015C8.50309 8.89961 8.10015 8.49667 8.10015 7.99961C8.10036 7.50274 8.50322 7.09961 9.00015 7.09961H18.9998Z" fill="#0D1625"/>
</svg>
