<svg width="24" height="24" viewBox="0 0 24 24" fill="none" xmlns="http://www.w3.org/2000/svg">
<path d="M11.9992 3.60043C14.7052 3.60043 16.8997 5.79402 16.8999 8.50003V9.85941C18.362 10.4221 19.3996 11.8401 19.3996 13.5004V16.5004C19.3993 18.6541 17.6533 20.4004 15.4996 20.4004H8.49994C6.3462 20.4004 4.60017 18.6541 4.59995 16.5004V13.5004C4.59995 11.8402 5.63758 10.4222 7.09955 9.85941V8.50003C7.09976 5.7943 9.29349 3.60088 11.9992 3.60043ZM8.49994 11.4004C7.34018 11.4005 6.39995 12.3406 6.39994 13.5004V16.5004C6.40017 17.66 7.34032 18.6004 8.49994 18.6004H15.4996C16.6592 18.6004 17.5993 17.66 17.5996 16.5004V13.5004C17.5996 12.3406 16.6594 11.4004 15.4996 11.4004H8.49994ZM12.0003 12.6004C12.4972 12.6006 12.9003 13.0035 12.9003 13.5004V16.5004C12.9001 16.9972 12.4971 17.4002 12.0003 17.4004C11.5034 17.4004 11.1006 16.9973 11.1003 16.5004V13.5004C11.1003 13.0034 11.5033 12.6004 12.0003 12.6004ZM11.9992 5.40043C10.2876 5.40088 8.89976 6.78842 8.89955 8.50003V9.60043H15.0999V8.50003C15.0997 6.78813 13.7111 5.40043 11.9992 5.40043Z" fill="#0D1625"/>
</svg>
