<svg width="24" height="24" viewBox="0 0 24 24" fill="none" xmlns="http://www.w3.org/2000/svg">
<path d="M11.9991 3.60043C12.4962 3.60043 12.8991 4.00337 12.8991 4.50043C12.8989 4.99729 12.496 5.40043 11.9991 5.40043C10.2875 5.40087 8.8997 6.78841 8.8995 8.50003V9.60043H15.9999V9.63207C17.9175 9.87766 19.3995 11.516 19.3995 13.5004V16.5004C19.3993 18.6541 17.6533 20.4004 15.4995 20.4004H8.49989C6.34615 20.4004 4.60012 18.6541 4.59989 16.5004V13.5004C4.59989 11.8402 5.63752 10.4222 7.0995 9.85941V8.50003C7.0997 5.7943 9.29342 3.60087 11.9991 3.60043ZM8.49989 11.4004C7.34012 11.4005 6.39989 12.3406 6.39989 13.5004V16.5004C6.40012 17.66 7.34026 18.6004 8.49989 18.6004H15.4995C16.6592 18.6004 17.5993 17.66 17.5995 16.5004V13.5004C17.5995 12.3406 16.6593 11.4004 15.4995 11.4004H8.49989ZM12.0003 12.6004C12.4972 12.6006 12.9003 13.0035 12.9003 13.5004V16.5004C12.9001 16.9972 12.497 17.4002 12.0003 17.4004C11.5034 17.4004 11.1005 16.9973 11.1003 16.5004V13.5004C11.1003 13.0034 11.5032 12.6004 12.0003 12.6004Z" fill="#0D1625"/>
</svg>
