<svg width="24" height="24" viewBox="0 0 24 24" fill="none" xmlns="http://www.w3.org/2000/svg">
<path d="M14.9386 10.137C14.9584 9.94491 14.9686 9.74991 14.9686 9.55251C14.9686 6.48594 12.5131 4 9.48418 4C6.45522 4 3.99976 6.48594 3.99976 9.55251C3.99976 12.6191 6.45522 15.105 9.48418 15.105C9.70393 15.105 9.92066 15.0919 10.1337 15.0665V18.9333C10.1337 19.5224 10.6054 20 11.1872 20H18.4613C19.0432 20 19.5149 19.5224 19.5149 18.9333V11.2037C19.5149 10.6145 19.0432 10.137 18.4613 10.137H14.9386ZM14.9386 10.137C14.6725 12.7123 12.6675 14.7638 10.1337 15.0665V11.2037C10.1337 10.6145 10.6054 10.137 11.1872 10.137H14.9386Z" fill="#0D1625"/>
</svg>
