<svg width="24" height="24" viewBox="0 0 24 24" fill="none" xmlns="http://www.w3.org/2000/svg">
<path d="M11.9795 19.1935C11.9766 19.1895 11.2409 18.1717 11.0641 17.7883C10.8969 17.4256 10.8469 17.2959 10.8418 17.2825C10.7435 17.4174 10.6393 17.5463 10.5287 17.6684C9.71184 18.5752 8.79502 19.1636 7.71254 19.2564C7.24758 19.3111 6.77714 19.2981 6.3159 19.2178C6.13357 18.9521 5.97353 18.6717 5.83747 18.3795C5.71311 18.1134 5.57908 17.8178 5.48437 17.6073C5.41186 17.715 5.3359 17.8171 5.25623 17.9125C4.61646 18.6794 3.89386 19.1978 2.93134 19.2606C2.24587 19.3063 2.00024 19.2092 2.00024 19.2092C2.00024 19.2092 3.67251 13.04 3.94241 12.3845C4.23802 11.6705 4.69072 10.6937 5.88315 9.81399C7.0256 8.97572 7.88244 8.92716 8.02525 8.92716H8.16805C8.16805 8.92716 7.7225 10.4138 7.14128 12.5487C7.08868 12.7435 7.036 12.9603 6.98142 13.1927C6.96501 13.7816 6.94357 14.6389 6.94993 14.8936C6.95572 15.0865 6.96867 15.3094 6.98328 15.5202C6.99466 15.6359 7.03282 16.0237 7.06071 16.3038C7.58089 14.2969 8.21469 11.9177 8.40373 11.4891C8.77074 10.6552 9.47478 9.23137 11.0671 8.24315C11.8829 7.73979 12.789 7.40024 13.7347 7.24351C14.0303 7.19067 13.976 7.26921 13.976 7.26921C13.976 7.26921 13.4719 9.23423 12.775 11.7119C12.7253 11.8896 12.6767 12.0795 12.628 12.279C12.6266 12.8577 12.629 13.621 12.6479 14.0154C12.6616 14.3024 12.7 14.6736 12.7401 15.0086L12.7407 15.005C12.7407 15.005 12.8207 15.5348 12.8535 15.8619L12.8541 15.8666C13.4994 13.4516 14.3083 10.52 14.5672 9.99823C15.328 8.38763 16.5773 7.05791 18.1373 6.19815C19.7115 5.3218 20.9175 5.13532 21.2645 5.08166C21.2867 5.07822 21.3054 5.07533 21.3205 5.07283C21.5454 5.03511 21.7724 5.01079 22.0002 5C22.0002 5 21.3105 7.58765 20.3694 10.8665C20.1652 11.5744 20.0131 12.1622 19.8741 12.6991C19.6242 13.6645 19.417 14.465 19.027 15.502C18.3987 17.1728 16.5693 18.6666 14.7257 19.115C13.5432 19.4035 11.9795 19.1935 11.9795 19.1935Z" fill="#0D1625"/>
</svg>
