<svg width="24" height="24" viewBox="0 0 24 24" fill="none" xmlns="http://www.w3.org/2000/svg">
<path d="M6.91871 16.2844C5.94218 15.1275 5.3536 13.6325 5.3536 12C5.3536 8.32941 8.32919 5.35382 11.9998 5.35382C15.6703 5.35382 18.6459 8.32941 18.6459 12C18.6459 13.6325 18.0573 15.1275 17.0808 16.2844C17.4168 16.4943 17.7388 16.7244 18.0451 16.973L18.1789 17.0815C19.3166 15.6997 19.9998 13.9296 19.9998 12C19.9998 7.5817 16.418 3.99998 11.9998 3.99998C7.58148 3.99998 3.99976 7.5817 3.99976 12C3.99976 13.9296 4.68294 15.6997 5.82062 17.0815L5.95442 16.973C6.26071 16.7244 6.58272 16.4943 6.91871 16.2844Z" fill="#0D1625"/>
<path d="M17.037 18.2154C15.6617 19.3313 13.9088 20 11.9998 20C10.0907 20 8.33784 19.3313 6.96259 18.2154C8.33784 17.0994 10.0907 16.4307 11.9998 16.4307C13.9088 16.4307 15.6617 17.0994 17.037 18.2154Z" fill="#0D1625"/>
<path d="M11.9998 14.7077C13.6311 14.7077 14.9536 13.3852 14.9536 11.7538C14.9536 10.1225 13.6311 8.79998 11.9998 8.79998C10.3684 8.79998 9.0459 10.1225 9.0459 11.7538C9.0459 13.3852 10.3684 14.7077 11.9998 14.7077Z" fill="#0D1625"/>
</svg>
