<svg width="24" height="24" viewBox="0 0 24 24" fill="none" xmlns="http://www.w3.org/2000/svg">
<path d="M11.4997 3.6C15.8626 3.60001 19.4002 7.13675 19.4004 11.4996C19.4004 13.3568 18.7564 15.062 17.6836 16.4109L20.1364 18.8637C20.4878 19.2151 20.4878 19.7849 20.1364 20.1363C19.7849 20.4878 19.2152 20.4878 18.8637 20.1363L16.411 17.6836C15.0621 18.7564 13.3568 19.4004 11.4997 19.4004C7.13679 19.4002 3.60005 15.8625 3.60005 11.4996C3.60027 7.13688 7.13692 3.60021 11.4997 3.6ZM11.4997 5.4C8.13104 5.40021 5.40027 8.13099 5.40005 11.4996C5.40005 14.8684 8.1309 17.6002 11.4997 17.6004C14.8686 17.6004 17.6004 14.8685 17.6004 11.4996C17.6002 8.13086 14.8685 5.40001 11.4997 5.4ZM11.5055 8.10469C12.0023 8.10493 12.4053 8.50793 12.4055 9.00469V10.5996H14.0004C14.4972 10.5998 14.9002 11.0029 14.9004 11.4996C14.9004 11.9965 14.4973 12.3994 14.0004 12.3996H12.4055V14.0051C12.4053 14.5018 12.0022 14.9048 11.5055 14.9051C11.0086 14.9051 10.6057 14.502 10.6055 14.0051V12.3996H9.00005C8.503 12.3996 8.10005 11.9967 8.10005 11.4996C8.10026 11.0027 8.50313 10.5996 9.00005 10.5996H10.6055V9.00469C10.6057 8.50778 11.0086 8.10469 11.5055 8.10469Z" fill="#0D1625"/>
</svg>
