<svg width="24" height="24" viewBox="0 0 24 24" fill="none" xmlns="http://www.w3.org/2000/svg">
<path d="M11.4997 3.6C15.8626 3.60001 19.4003 7.13676 19.4005 11.4996C19.4005 13.3568 18.7565 15.062 17.6837 16.4109L20.1364 18.8637C20.4879 19.2151 20.4879 19.7849 20.1364 20.1363C19.785 20.4878 19.2152 20.4878 18.8638 20.1363L16.411 17.6836C15.0621 18.7564 13.3569 19.4004 11.4997 19.4004C7.13684 19.4002 3.6001 15.8625 3.6001 11.4996C3.60032 7.13688 7.13697 3.60021 11.4997 3.6ZM11.4997 5.4C8.13109 5.40021 5.40032 8.13099 5.4001 11.4996C5.4001 14.8684 8.13095 17.6002 11.4997 17.6004C14.8686 17.6004 17.6005 14.8685 17.6005 11.4996C17.6003 8.13087 14.8685 5.40002 11.4997 5.4ZM14.0005 10.5996C14.4972 10.5998 14.9003 11.0029 14.9005 11.4996C14.9005 11.9965 14.4974 12.3994 14.0005 12.3996H9.0001C8.50304 12.3996 8.1001 11.9967 8.1001 11.4996C8.10031 11.0027 8.50317 10.5996 9.0001 10.5996H14.0005Z" fill="#0D1625"/>
</svg>
