<svg width="24" height="24" viewBox="0 0 24 24" fill="none" xmlns="http://www.w3.org/2000/svg">
<path d="M3.0489 16.444C3.04889 16.2423 3.04458 15.994 3.10281 15.7514C3.14935 15.558 3.22506 15.3726 3.32898 15.203C3.45943 14.9901 3.63866 14.8183 3.78133 14.6756L7.78797 10.6701C7.5944 10.0227 7.75131 9.2925 8.26257 8.78108L12.5059 4.5389C12.8574 4.18742 13.4271 4.18742 13.7786 4.5389C14.1299 4.89038 14.13 5.46015 13.7786 5.81155L9.5364 10.0537C9.49744 10.0927 9.49763 10.1553 9.5364 10.1944L15.193 15.8522L15.2259 15.8744C15.2619 15.889 15.3044 15.8813 15.3337 15.8522L19.577 11.6088C19.9284 11.258 20.4984 11.2579 20.8497 11.6088C21.2012 11.9603 21.2012 12.5312 20.8497 12.8826L16.6063 17.1248L16.4622 17.2561C15.9452 17.6774 15.2585 17.7827 14.654 17.5783L13.0438 18.9272C12.9075 19.0412 12.7433 19.1858 12.5481 19.2893C12.392 19.3721 12.2241 19.4319 12.0512 19.4686C11.8355 19.5142 11.6182 19.5108 11.4407 19.5108L5.54968 19.5096C5.28484 19.5096 5.03131 19.5105 4.81961 19.4932C4.59742 19.475 4.34185 19.433 4.08718 19.3033C3.72981 19.1212 3.43846 18.8299 3.25633 18.4725C3.12666 18.2178 3.08466 17.9622 3.06648 17.7401C3.04921 17.5284 3.05007 17.2748 3.05008 17.01L3.0489 16.444ZM4.85007 17.01C4.85008 17.3044 4.84954 17.4721 4.85945 17.5936C4.86236 17.6291 4.86763 17.6523 4.87 17.6662C4.87622 17.675 4.8836 17.6822 4.89226 17.6885C4.906 17.6909 4.92941 17.6972 4.96609 17.7002C5.08762 17.7101 5.25523 17.7096 5.54968 17.7096H11.4395C11.5534 17.7096 11.6135 17.7102 11.6575 17.7084C11.6941 17.7069 11.6921 17.7053 11.6774 17.7084C11.6865 17.7065 11.6962 17.7022 11.7044 17.6979C11.7082 17.6951 11.7139 17.6915 11.7208 17.6862C11.7557 17.6593 11.8018 17.6201 11.8895 17.5467L13.2255 16.4299L8.90007 12.1045L5.05515 15.9494C4.96324 16.0414 4.91448 16.0892 4.88054 16.1264C4.87367 16.1339 4.8688 16.1398 4.86531 16.144C4.85993 16.1528 4.85489 16.1621 4.85242 16.1721C4.85628 16.1558 4.85432 16.1543 4.85242 16.1955C4.85012 16.2458 4.84891 16.3142 4.8489 16.444L4.85007 17.01Z" fill="#0D1625"/>
</svg>
