<svg width="24" height="24" viewBox="0 0 24 24" fill="none" xmlns="http://www.w3.org/2000/svg">
<path d="M16.7367 3.1004C18.478 3.1004 20.0083 4.25503 20.4867 5.9293L21.116 8.13008C21.488 9.43308 20.9283 10.7308 19.9008 11.4113V16.0004C19.9005 18.1539 18.1542 19.9 16.0008 19.9004H15C13.9508 19.9002 13.1004 19.0488 13.1004 17.9996V16.0004C13.1004 15.393 12.6074 14.9002 12 14.9C11.3926 14.9002 10.9008 15.393 10.9008 16.0004V17.9996C10.9007 19.0488 10.0492 19.9002 8.99997 19.9004H8.00036C5.84659 19.9004 4.10058 18.1541 4.10036 16.0004V11.4125C3.07206 10.7322 2.5118 9.43357 2.88395 8.13008L3.51325 5.9293C3.9916 4.25506 5.52202 3.10044 7.26325 3.1004H16.7367ZM16.03 10.8688C15.561 11.5094 14.8109 11.8999 14.0004 11.9C13.2066 11.9 12.4708 11.5255 12 10.9086C11.5291 11.5255 10.7933 11.9 9.99958 11.9C9.18875 11.8998 8.43776 11.5098 7.96872 10.8688C7.45115 11.4706 6.70776 11.8422 5.90036 11.8895V16.0004C5.90058 17.16 6.8407 18.1004 8.00036 18.1004H8.99997C9.05506 18.1002 9.10074 18.0547 9.10075 17.9996V16.0004C9.10075 14.3989 10.3985 13.1002 12 13.1C13.6015 13.1002 14.9004 14.3989 14.9004 16.0004V17.9996C14.9004 18.0547 14.9449 18.1002 15 18.1004H16.0008C17.1601 18.1 18.1005 17.1598 18.1008 16.0004V11.8895C17.2926 11.8425 16.5478 11.4712 16.03 10.8688ZM7.26325 4.9004C6.32569 4.90044 5.50168 5.52234 5.24411 6.42383L4.61481 8.62461C4.40395 9.36403 4.95911 10.0999 5.72809 10.1C6.16652 10.1 6.56783 9.85221 6.76403 9.46016L7.19528 8.59766L7.25973 8.48868C7.42618 8.2478 7.70228 8.10082 8.00036 8.10079C8.3411 8.10093 8.65304 8.29287 8.80544 8.59766L9.35739 9.70391C9.47904 9.94673 9.72799 10.0998 9.99958 10.1C10.2712 10.1 10.52 9.94665 10.6418 9.70391L11.1949 8.59766C11.3474 8.29288 11.6592 8.10083 12 8.10079C12.3408 8.10079 12.6526 8.29285 12.805 8.59766L13.3582 9.70391C13.4799 9.94667 13.7287 10.1 14.0004 10.1C14.272 10.0999 14.5209 9.94671 14.6425 9.70391L15.1945 8.59766C15.3469 8.2929 15.6589 8.10097 15.9996 8.10079C16.3404 8.10079 16.6521 8.29294 16.8047 8.59766L17.2359 9.46016C17.4321 9.85223 17.8334 10.1 18.2718 10.1C19.0409 10.1 19.596 9.36409 19.3851 8.62461L18.7558 6.42383C18.4982 5.5223 17.6743 4.9004 16.7367 4.9004H7.26325Z" fill="#0D1625"/>
</svg>
