<svg width="24" height="24" viewBox="0 0 24 24" fill="none" xmlns="http://www.w3.org/2000/svg">
<path d="M8.99995 12.0996C10.0489 12.0998 10.9003 12.9504 10.9007 13.9992V18C10.9005 19.049 10.049 19.8994 8.99995 19.8996H5.99995C4.95092 19.8994 4.10055 19.049 4.10034 18V13.9992C4.10076 12.9504 4.95105 12.0998 5.99995 12.0996H8.99995ZM18 14.1C19.049 14.1002 19.9005 14.9506 19.9007 15.9996V18C19.9007 19.0492 19.0491 19.8994 18 19.8996H15C13.9508 19.8994 13.1003 19.0492 13.1003 18V15.9996C13.1006 14.9506 13.9509 14.1002 15 14.1H18ZM5.99995 13.8996C5.94516 13.8998 5.90076 13.9445 5.90034 13.9992V18C5.90055 18.0549 5.94503 18.0994 5.99995 18.0996H8.99995C9.05487 18.0994 9.10052 18.0549 9.10073 18V13.9992C9.10031 13.9445 9.05475 13.8998 8.99995 13.8996H5.99995ZM15 15.9C14.945 15.9002 14.9006 15.9447 14.9003 15.9996V18C14.9003 18.0551 14.9449 18.0994 15 18.0996H18C18.055 18.0994 18.1007 18.0551 18.1007 18V15.9996C18.1005 15.9447 18.0549 15.9002 18 15.9H15ZM18 4.1004C19.049 4.10061 19.9005 4.95097 19.9007 6V10.0008C19.9003 11.0496 19.0489 11.9002 18 11.9004H15C13.951 11.9002 13.1008 11.0496 13.1003 10.0008V6C13.1006 4.95097 13.9509 4.10061 15 4.1004H18ZM15 5.9004C14.945 5.90061 14.9006 5.94509 14.9003 6V10.0008C14.9008 10.0555 14.9452 10.1002 15 10.1004H18C18.0547 10.1002 18.1003 10.0555 18.1007 10.0008V6C18.1005 5.94509 18.0549 5.90061 18 5.9004H15ZM8.99995 4.1004C10.049 4.10061 10.9005 4.95097 10.9007 6V8.0004C10.9005 9.04943 10.049 9.89979 8.99995 9.9H5.99995C4.95092 9.89979 4.10055 9.04943 4.10034 8.0004V6C4.10055 4.95097 4.95092 4.10061 5.99995 4.1004H8.99995ZM5.99995 5.9004C5.94503 5.90061 5.90055 5.94509 5.90034 6V8.0004C5.90055 8.05531 5.94503 8.09979 5.99995 8.1H8.99995C9.05488 8.0998 9.10052 8.05531 9.10073 8.0004V6C9.10052 5.94509 9.05487 5.90061 8.99995 5.9004H5.99995Z" fill="#0D1625"/>
</svg>
