<svg width="24" height="24" viewBox="0 0 24 24" fill="none" xmlns="http://www.w3.org/2000/svg">
<path d="M9.86396 12.8639C10.2154 12.5126 10.7852 12.5126 11.1366 12.8639C11.4877 13.2153 11.4878 13.7852 11.1366 14.1365L7.89639 17.3768H9.58623C10.0832 17.3769 10.4862 17.7798 10.4862 18.2768C10.4859 18.7735 10.083 19.1766 9.58623 19.1768H5.72373C5.227 19.1766 4.82402 18.7735 4.82373 18.2768V14.4143C4.82384 13.9174 5.22689 13.5144 5.72373 13.5143C6.22062 13.5144 6.62362 13.9174 6.62373 14.4143V16.1041L9.86396 12.8639ZM18.2769 4.82364C18.5153 4.82379 18.7445 4.91866 18.9132 5.08731C19.0818 5.25604 19.1768 5.48509 19.1769 5.72364V9.58613C19.1767 10.0829 18.7736 10.4858 18.2769 10.4861C17.7799 10.4861 17.377 10.0831 17.3769 9.58613V7.89629L14.1366 11.1365C13.7852 11.4878 13.2154 11.4877 12.864 11.1365C12.5125 10.7851 12.5126 10.2154 12.864 9.86387L16.1042 6.62363H14.4144C13.9173 6.62363 13.5144 6.22069 13.5144 5.72364C13.5144 5.22664 13.9173 4.82364 14.4144 4.82364H18.2769Z" fill="#0D1625"/>
</svg>
