<svg width="24" height="24" viewBox="0 0 24 24" fill="none" xmlns="http://www.w3.org/2000/svg">
<path d="M20.0001 8.1C20.497 8.10022 20.9001 8.50308 20.9001 9V10.4004C20.9001 12.0655 20.9 13.3685 20.8145 14.4141C20.7283 15.4702 20.5502 16.3431 20.1478 17.1328C19.4863 18.431 18.4307 19.4866 17.1325 20.1481C16.3428 20.5504 15.4699 20.7286 14.4138 20.8148C13.3682 20.9003 12.0652 20.9004 10.4001 20.9004H8.99971C8.50279 20.9004 8.09992 20.4973 8.09971 20.0004C8.09971 19.5033 8.50266 19.1004 8.99971 19.1004H10.4001C12.0949 19.1004 13.312 19.0988 14.2673 19.0207C15.2119 18.9435 15.8209 18.7952 16.3146 18.5438C17.2742 18.0548 18.0545 17.2745 18.5435 16.3148C18.7949 15.8212 18.9432 15.2122 19.0204 14.2676C19.0985 13.3123 19.1001 12.0952 19.1001 10.4004V9C19.1001 8.50295 19.503 8.10001 20.0001 8.1ZM14.0001 4.1004C16.1538 4.1006 17.9001 5.84661 17.9001 8.00039V14.0004C17.8999 16.154 16.1537 17.9002 14.0001 17.9004H8.0001C5.84632 17.9004 4.10031 16.1541 4.1001 14.0004V8.00039C4.1001 5.84648 5.84619 4.1004 8.0001 4.1004H14.0001ZM8.0001 5.9004C6.8403 5.9004 5.9001 6.8406 5.9001 8.00039V14.0004C5.90031 15.16 6.84043 16.1004 8.0001 16.1004H14.0001C15.1596 16.1002 16.0999 15.1599 16.1001 14.0004V8.00039C16.1001 6.84072 15.1597 5.9006 14.0001 5.9004H8.0001ZM11.0001 7.1004C11.497 7.1006 11.9001 7.50346 11.9001 8.00039V10.1004H14.0001C14.497 10.1006 14.9001 10.5035 14.9001 11.0004C14.8999 11.4971 14.4968 11.9002 14.0001 11.9004H11.9001V14.0004C11.8999 14.4971 11.4968 14.9002 11.0001 14.9004C10.5032 14.9004 10.1003 14.4973 10.1001 14.0004V11.9004H8.0001C7.50317 11.9004 7.10031 11.4973 7.1001 11.0004C7.1001 10.5033 7.50304 10.1004 8.0001 10.1004H10.1001V8.00039C10.1001 7.50334 10.503 7.1004 11.0001 7.1004Z" fill="#0D1625"/>
</svg>
