<svg width="24" height="24" viewBox="0 0 24 24" fill="none" xmlns="http://www.w3.org/2000/svg">
<path d="M16.0429 5.09946C17.3094 4.36106 18.8998 5.27512 18.9 6.74125V17.2588C18.8999 18.7251 17.3095 19.6381 16.0429 18.8995L12.4675 16.8135L11.7023 18.8573C11.3545 19.7848 10.4674 20.3993 9.4769 20.3995C8.16436 20.3994 7.10034 19.3355 7.10034 18.0229V16.3998H6.50034C4.34645 16.3998 2.60037 14.6537 2.60034 12.4998V11.5002C2.60045 9.34642 4.3465 7.60024 6.50034 7.60024H11.189C11.5605 7.60017 11.9263 7.50143 12.2472 7.3143L16.0429 5.09946ZM8.90034 18.0229C8.90034 18.3413 9.15847 18.5994 9.4769 18.5995C9.71712 18.5993 9.93278 18.4506 10.0171 18.2256L10.7015 16.3998H8.90034V18.0229ZM16.95 6.65453L13.1542 8.86821C12.5579 9.21607 11.8794 9.40016 11.189 9.40024H6.50034C5.34061 9.40024 4.40045 10.3405 4.40034 11.5002V12.4998C4.40037 13.6596 5.34056 14.5998 6.50034 14.5998H12L12.1195 14.608C12.2369 14.6238 12.3505 14.6628 12.4535 14.7229L16.95 17.3455C16.9725 17.3586 16.989 17.3609 17.0003 17.3608C17.0144 17.3604 17.033 17.3558 17.0507 17.3455C17.0685 17.3352 17.081 17.3212 17.0882 17.3092C17.094 17.2994 17.0999 17.2847 17.1 17.2588V6.74125C17.0999 6.71503 17.0941 6.69948 17.0882 6.68969C17.081 6.67776 17.0683 6.6648 17.0507 6.65453C17.033 6.64432 17.0144 6.63966 17.0003 6.6393C16.989 6.63914 16.9725 6.64145 16.95 6.65453ZM20.4996 9.10024C20.9966 9.10024 21.3996 9.50318 21.3996 10.0002V13.9998C21.3994 14.4968 20.9965 14.8998 20.4996 14.8998C20.0028 14.8996 19.5997 14.4967 19.5996 13.9998V10.0002C19.5996 9.50331 20.0027 9.10044 20.4996 9.10024Z" fill="#0D1625"/>
</svg>
