<svg width="24" height="24" viewBox="0 0 24 24" fill="none" xmlns="http://www.w3.org/2000/svg">
<path d="M19 16.0996C19.4967 16.0998 19.8998 16.5029 19.9 16.9996C19.9 17.4965 19.4969 17.8994 19 17.8996H4.99961C4.50255 17.8996 4.09961 17.4967 4.09961 16.9996C4.09981 16.5027 4.50268 16.0996 4.99961 16.0996H19ZM19 11.1004C19.4969 11.1006 19.9 11.5035 19.9 12.0004C19.8998 12.4971 19.4967 12.9002 19 12.9004H4.99961C4.50273 12.9003 4.09983 12.4972 4.09961 12.0004C4.09961 11.5034 4.50259 11.1004 4.99961 11.1004H19ZM19 6.1C19.4969 6.10021 19.9 6.50307 19.9 7C19.9 7.49692 19.4969 7.89978 19 7.9H4.99961C4.50256 7.9 4.09962 7.49705 4.09961 7C4.09961 6.50294 4.50255 6.1 4.99961 6.1H19Z" fill="#0D1625"/>
</svg>
