<svg width="24" height="24" viewBox="0 0 24 24" fill="none" xmlns="http://www.w3.org/2000/svg">
<path d="M16.998 3.90039C19.1517 3.9006 20.8983 5.64611 20.8984 7.7998V13.7998C20.8982 15.9534 19.1516 17.7 16.998 17.7002H12.332C12.3106 17.7002 12.2896 17.707 12.2725 17.7197L9.64844 19.6875C8.61115 20.4653 7.11646 19.9983 6.70605 18.7686L6.33691 17.6611C4.50694 17.4022 3.09883 15.8301 3.09863 13.9287V7.65723C3.09869 5.58237 4.78063 3.90056 6.85547 3.90039H16.998ZM6.85547 5.7002C5.77475 5.70036 4.8985 6.57648 4.89844 7.65723V13.9287C4.89866 15.0169 5.78187 15.9004 6.87012 15.9004C7.27622 15.9008 7.64264 16.1286 7.82617 16.4805L7.89258 16.6387L8.41406 18.1992C8.43597 18.2635 8.51493 18.2879 8.56934 18.2471L11.1914 16.2793C11.5202 16.0327 11.921 15.9004 12.332 15.9004H16.998C18.1575 15.9002 19.0984 14.9593 19.0986 13.7998V7.7998C19.0985 6.64023 18.1576 5.7004 16.998 5.7002H6.85547ZM13.3564 7.09961C15.1223 7.0999 16.2 8.67563 16.2002 10.0459C16.2002 10.7904 15.8957 11.4625 15.5332 12.0068C15.1667 12.557 14.6943 13.0456 14.25 13.4434C13.8021 13.8443 13.3582 14.1747 13.0283 14.4033C12.8629 14.5179 12.724 14.609 12.625 14.6719C12.5756 14.7032 12.535 14.7279 12.5068 14.7451C12.4931 14.7536 12.4817 14.7608 12.4736 14.7656C12.4698 14.7679 12.4663 14.77 12.4639 14.7715C12.4629 14.7721 12.4617 14.773 12.4609 14.7734L12.46 14.7744H12.459C12.3203 14.8565 12.1611 14.9003 12 14.9004C11.8738 14.9004 11.7765 14.8726 11.7539 14.8662C11.7164 14.8556 11.6862 14.8442 11.6699 14.8379C11.6372 14.8252 11.6102 14.8131 11.5967 14.8066C11.5675 14.7927 11.5404 14.7775 11.5205 14.7666C11.478 14.7433 11.4279 14.7134 11.374 14.6807C11.2645 14.6141 11.1186 14.521 10.9502 14.4053C10.614 14.1743 10.1697 13.8433 9.72461 13.4414C9.2829 13.0425 8.81657 12.5527 8.45508 12.002C8.09717 11.4566 7.7998 10.7863 7.7998 10.0459C7.80002 8.6755 8.87737 7.09961 10.6436 7.09961C11.1963 7.09971 11.6452 7.25611 12 7.46289C12.3548 7.25611 12.8037 7.09969 13.3564 7.09961ZM13.3564 8.90039C13.0168 8.90052 12.8081 9.05423 12.6729 9.20605C12.5022 9.39778 12.2567 9.50767 12 9.50781C11.7434 9.50776 11.4988 9.3976 11.3281 9.20605C11.1929 9.05412 10.9834 8.90055 10.6436 8.90039C10.0854 8.90039 9.60081 9.4413 9.60059 10.0459C9.60059 10.3055 9.70842 10.6303 9.95996 11.0137C10.208 11.3915 10.5559 11.7661 10.9316 12.1055C11.3039 12.4416 11.6819 12.7242 11.9697 12.9219C11.9755 12.9258 11.9816 12.9297 11.9873 12.9336C11.9922 12.9302 11.998 12.9273 12.0029 12.9238C12.2917 12.7237 12.673 12.4397 13.0498 12.1025C13.4302 11.762 13.7831 11.3872 14.0352 11.0088C14.2912 10.6244 14.4004 10.3013 14.4004 10.0459C14.4002 9.44147 13.9144 8.90071 13.3564 8.90039Z" fill="black"/>
</svg>
