<svg width="24" height="24" viewBox="0 0 24 24" fill="none" xmlns="http://www.w3.org/2000/svg">
<path d="M17 3.9004C19.1537 3.90061 20.9 5.64662 20.9 7.8004V13.8004C20.8997 15.954 19.1535 17.7002 17 17.7004H12.3335C12.312 17.7004 12.291 17.7074 12.2738 17.7203L9.64995 19.6879C8.61267 20.4657 7.11778 19.9989 6.70737 18.7692L6.33823 17.6617C4.50826 17.4028 3.10054 15.8307 3.10034 13.9293V7.65743C3.1004 5.58251 4.78245 3.90046 6.85737 3.9004H17ZM6.85737 5.7004C5.77656 5.70046 4.9004 6.57662 4.90034 7.65743V13.9293C4.90056 15.0175 5.78319 15.9004 6.87144 15.9004C7.2777 15.9007 7.64409 16.1285 7.82769 16.4805L7.89448 16.6387L8.41597 18.1996C8.43788 18.2639 8.51625 18.2885 8.57065 18.2477L11.1933 16.2801C11.5221 16.0335 11.9225 15.9004 12.3335 15.9004H17C18.1594 15.9002 19.0997 14.9599 19.1 13.8004V7.8004C19.1 6.64073 18.1596 5.70061 17 5.7004H6.85737ZM9.3605 11.6125C11.0214 10.7821 12.9777 10.7822 14.6386 11.6125L15.4015 11.9945C15.8459 12.2167 16.0265 12.7571 15.8046 13.2016C15.5824 13.646 15.0421 13.8266 14.5976 13.6047L13.8335 13.2227C12.6794 12.6458 11.3197 12.6456 10.1656 13.2227L9.40151 13.6047C8.95705 13.8265 8.41667 13.6459 8.19448 13.2016C7.97293 12.7572 8.15345 12.2167 8.59761 11.9945L9.3605 11.6125ZM10.0003 7.8004C10.5524 7.80061 11 8.24786 11 8.80001C10.9999 9.35216 10.5524 9.79941 10.0003 9.79962C9.44806 9.79962 8.99957 9.35229 8.99956 8.80001C8.99956 8.24773 9.44806 7.8004 10.0003 7.8004ZM14 7.8004C14.5522 7.8004 14.9996 8.24773 14.9996 8.80001C14.9996 9.35229 14.5522 9.79962 14 9.79962C13.4477 9.79962 13.0003 9.35229 13.0003 8.80001C13.0003 8.24773 13.4477 7.8004 14 7.8004Z" fill="#0D1625"/>
</svg>
