<svg width="24" height="24" viewBox="0 0 24 24" fill="none" xmlns="http://www.w3.org/2000/svg">
<path d="M12 10.5996C13.6014 10.5998 14.9003 11.8985 14.9003 13.5V16.5C14.9001 18.1013 13.6013 19.399 12 19.3992H7.37339L6.4898 20.2828C5.6078 21.1641 4.1004 20.5396 4.10034 19.2926V13.5C4.10034 11.8984 5.39911 10.5996 7.00073 10.5996H12ZM7.00073 12.3996C6.39322 12.3996 5.90034 12.8925 5.90034 13.5V18.327L6.3644 17.8629L6.50151 17.7504C6.64812 17.6529 6.82204 17.5992 7.00073 17.5992H12C12.6072 17.599 13.1001 17.1072 13.1003 16.5V13.5C13.1003 12.8926 12.6073 12.3998 12 12.3996H7.00073ZM16.9992 3.6C18.6008 3.6 19.8996 4.89876 19.8996 6.50039V12.293C19.8992 13.5397 18.392 14.1644 17.5101 13.2832L16.6265 12.3996H16.5C16.0032 12.3994 15.6002 11.9964 15.6 11.4996C15.6002 11.0029 16.0032 10.5998 16.5 10.5996H16.9992C17.1779 10.5996 17.3517 10.6532 17.4984 10.7508L17.6355 10.8633L18.0996 11.3273V6.50039C18.0996 5.89288 17.6067 5.4 16.9992 5.4H12C11.3926 5.40021 10.8996 5.89301 10.8996 6.50039V8.49961C10.8993 8.99648 10.4965 9.39961 9.99956 9.39961C9.50282 9.3994 9.09977 8.99635 9.09956 8.49961V6.50039C9.09956 4.89889 10.3985 3.60021 12 3.6H16.9992Z" fill="#0D1625"/>
</svg>
