<svg width="24" height="24" viewBox="0 0 24 24" fill="none" xmlns="http://www.w3.org/2000/svg">
<path d="M16.9982 3.9C19.152 3.90021 20.8982 5.64622 20.8982 7.8V13.8C20.898 15.9536 19.1518 17.6998 16.9982 17.7H12.3318C12.3103 17.7 12.2893 17.707 12.2721 17.7199L9.64824 19.6875C8.61096 20.4653 7.11607 19.9985 6.70566 18.7688L6.33652 17.6613C4.50655 17.4024 3.09883 15.8303 3.09863 13.9289V7.65703C3.09869 5.58211 4.78074 3.90006 6.85566 3.9H16.9982ZM6.85566 5.7C5.77485 5.70006 4.89869 6.57622 4.89863 7.65703V13.9289C4.89885 15.0171 5.78148 15.9 6.86973 15.9C7.27599 15.9003 7.64238 16.1281 7.82598 16.4801L7.89277 16.6383L8.41426 18.1992C8.43617 18.2635 8.51454 18.2881 8.56895 18.2473L11.1916 16.2797C11.5204 16.0331 11.9208 15.9 12.3318 15.9H16.9982C18.1577 15.8998 19.098 14.9595 19.0982 13.8V7.8C19.0982 6.64033 18.1579 5.70021 16.9982 5.7H6.85566ZM11.4975 11.8992C11.9944 11.8992 12.3972 12.3024 12.3975 12.7992C12.3975 13.2963 11.9945 13.6992 11.4975 13.6992H7.49785C7.00097 13.699 6.59785 13.2961 6.59785 12.7992C6.59807 12.3025 7.00111 11.8994 7.49785 11.8992H11.4975ZM16.4979 8.4C16.9949 8.4 17.3979 8.80295 17.3979 9.3C17.3977 9.79689 16.9948 10.2 16.4979 10.2H7.49785C7.0011 10.1998 6.59805 9.79676 6.59785 9.3C6.59785 8.80307 7.00097 8.40021 7.49785 8.4H16.4979Z" fill="#0D1625"/>
</svg>
