<svg width="24" height="24" viewBox="0 0 24 24" fill="none" xmlns="http://www.w3.org/2000/svg">
<path d="M18.0006 10.1C18.4975 10.1002 18.9006 10.5031 18.9006 11C18.9006 14.5055 16.2857 17.3977 12.9006 17.8391V19.1H13.9998C14.4969 19.1 14.8998 19.5029 14.8998 20C14.8998 20.4971 14.4969 20.9 13.9998 20.9H10.0002C9.50315 20.9 9.10021 20.497 9.1002 20C9.1002 19.503 9.50314 19.1 10.0002 19.1H11.1006V17.8391C7.71506 17.3981 5.1006 14.5057 5.10059 11C5.10059 10.5029 5.50353 10.1 6.00059 10.1C6.49747 10.1002 6.90059 10.5031 6.90059 11C6.9006 13.8166 9.18394 16.1 12.0006 16.1C14.8171 16.0998 17.1006 13.8165 17.1006 11C17.1006 10.5029 17.5035 10.1 18.0006 10.1ZM12.0006 3.1004C14.1543 3.1006 15.9006 4.84661 15.9006 7.0004V11C15.9004 13.1536 14.1542 14.8998 12.0006 14.9C9.84681 14.9 8.10081 13.1537 8.10059 11V7.0004C8.10059 4.84649 9.84668 3.1004 12.0006 3.1004ZM12.0006 4.9004C10.8408 4.9004 9.90059 5.8406 9.90059 7.0004V11C9.90081 12.1596 10.8409 13.1 12.0006 13.1C13.1601 13.0998 14.1004 12.1595 14.1006 11V7.0004C14.1006 5.84073 13.1602 4.9006 12.0006 4.9004Z" fill="#0D1625"/>
</svg>
