<svg width="24" height="24" viewBox="0 0 24 24" fill="none" xmlns="http://www.w3.org/2000/svg">
<path d="M6.00054 10.0996C6.49736 10.0997 6.90033 10.5028 6.90054 10.9996C6.90054 13.8163 9.18388 16.0996 12.0005 16.0996C12.3252 16.0996 12.6421 16.0693 12.9486 16.0117C13.4369 15.9202 13.9079 16.2419 13.9998 16.7301C14.0914 17.2183 13.7695 17.6892 13.2814 17.7812C13.1558 17.8048 13.0284 17.8232 12.9005 17.8398V19.0996H13.9998C14.4967 19.0996 14.8996 19.5027 14.8998 19.9996C14.8998 20.4967 14.4968 20.8996 13.9998 20.8996H10.0001C9.50316 20.8995 9.10015 20.4966 9.10015 19.9996C9.10035 19.5028 9.50329 19.0997 10.0001 19.0996H11.1005V17.8387C7.7151 17.3976 5.10054 14.5053 5.10054 10.9996C5.10074 10.5027 5.50361 10.0996 6.00054 10.0996ZM4.36343 4.36328C4.71474 4.01196 5.28457 4.01227 5.63608 4.36328L18.6357 17.3629C18.9872 17.7144 18.9872 18.2841 18.6357 18.6355C18.2842 18.9869 17.7145 18.987 17.363 18.6355L4.36343 5.63594C4.01245 5.28446 4.0122 4.7146 4.36343 4.36328ZM18.0005 10.0996C18.4974 10.0997 18.9003 10.5028 18.9005 10.9996C18.9005 12.0595 18.6602 13.066 18.2314 13.9656C18.0175 14.4142 17.4812 14.6047 17.0326 14.391C16.5839 14.1771 16.3932 13.6397 16.6072 13.191C16.923 12.5283 17.1005 11.7857 17.1005 10.9996C17.1007 10.5027 17.5036 10.0996 18.0005 10.0996ZM8.97827 11.8258C9.39946 11.5626 9.95445 11.6908 10.2181 12.1117C10.3773 12.3661 10.5907 12.5843 10.8404 12.7504C11.2539 13.0257 11.3662 13.5847 11.0912 13.9984C10.816 14.4122 10.257 14.5242 9.84311 14.2492C9.38073 13.9417 8.98737 13.5382 8.69233 13.0668C8.42877 12.6455 8.55697 12.0894 8.97827 11.8258ZM12.0005 3.1C14.1543 3.10018 15.9005 4.8462 15.9005 7V10.9996C15.9005 11.4965 15.4974 11.8994 15.0005 11.8996C14.5035 11.8995 14.1005 11.4966 14.1005 10.9996V7C14.1005 5.84031 13.1602 4.90018 12.0005 4.9C11.1191 4.90004 10.3628 5.44375 10.0517 6.21719C9.8663 6.67825 9.34093 6.90164 8.87983 6.7164C8.41908 6.53084 8.19546 6.00664 8.38061 5.5457C8.95647 4.1138 10.3593 3.10004 12.0005 3.1Z" fill="#0D1625"/>
</svg>
