<svg width="24" height="24" viewBox="0 0 24 24" fill="none" xmlns="http://www.w3.org/2000/svg">
<path d="M10.4997 12.8497C10.8587 12.8497 11.1501 13.1411 11.1501 13.5001V17.5001C11.15 17.859 10.8586 18.1505 10.4997 18.1505C10.1407 18.1505 9.84933 17.859 9.84928 17.5001V15.0704L5.45963 19.4601C5.20579 19.7138 4.79352 19.7138 4.53971 19.4601C4.28589 19.2062 4.28594 18.794 4.53971 18.5401L8.92936 14.1505H6.49967C6.14074 14.1505 5.84934 13.859 5.84928 13.5001C5.84928 13.1411 6.14071 12.8497 6.49967 12.8497H10.4997ZM18.5397 4.54014C18.7935 4.28631 19.2058 4.28632 19.4596 4.54014C19.7135 4.79398 19.7135 5.20622 19.4596 5.46006L15.07 9.84971H17.4997C17.8587 9.84971 18.1501 10.1411 18.1501 10.5001C18.15 10.859 17.8586 11.1505 17.4997 11.1505H13.4997C13.1408 11.1504 12.8493 10.859 12.8493 10.5001V6.5001C12.8493 6.14117 13.1408 5.84979 13.4997 5.84971C13.8587 5.84971 14.1501 6.14112 14.1501 6.5001V8.92979L18.5397 4.54014Z" fill="#0D1625"/>
<path d="M10.5004 12.6C10.9972 12.6003 11.4004 13.0031 11.4004 13.5V17.3625C11.4002 17.8592 10.9971 18.2622 10.5004 18.2625C10.0035 18.2624 9.60057 17.8594 9.6004 17.3625V15.6727L6.36017 18.9129C6.00876 19.264 5.4389 19.264 5.08751 18.9129C4.73613 18.5614 4.73613 17.9905 5.08751 17.6391L8.32657 14.4H6.6379C6.14091 14.3999 5.7379 13.997 5.7379 13.5C5.73791 13.003 6.14091 12.6001 6.6379 12.6H10.5004ZM17.6395 5.08712C17.9908 4.736 18.5607 4.73604 18.9121 5.08712C19.2635 5.4385 19.2633 6.00828 18.9121 6.35977L15.6731 9.60001H17.3617C17.8588 9.60001 18.2617 10.003 18.2617 10.5C18.2617 10.9971 17.8588 11.4 17.3617 11.4H13.5004C13.0034 11.3999 12.6004 10.997 12.6004 10.5V6.63751C12.6006 6.14064 13.0035 5.73757 13.5004 5.73751C13.9971 5.7378 14.4002 6.14078 14.4004 6.63751V8.32618L17.6395 5.08712Z" fill="#0D1625"/>
</svg>
