<svg width="24" height="24" viewBox="0 0 24 24" fill="none" xmlns="http://www.w3.org/2000/svg">
<path d="M15.4997 2.60004C17.6535 2.60021 19.3997 4.34624 19.3997 6.50004V17.5004C19.3995 19.654 17.6533 21.4003 15.4997 21.4004H8.5001C6.34634 21.4004 4.60034 19.6541 4.6001 17.5004V6.50004C4.6001 4.34614 6.34619 2.60004 8.5001 2.60004H15.4997ZM8.5001 4.40004C7.3403 4.40004 6.4001 5.34024 6.4001 6.50004V17.5004C6.40034 18.66 7.34045 19.6004 8.5001 19.6004H15.4997C16.6592 19.6003 17.5995 18.6599 17.5997 17.5004V6.50004C17.5997 5.34035 16.6594 4.40021 15.4997 4.40004H14.6841C14.6877 4.43274 14.6899 4.46599 14.6899 4.49965C14.6899 4.99652 14.2867 5.39935 13.7899 5.39965H10.2896C9.79267 5.39944 9.38955 4.99658 9.38955 4.49965C9.38956 4.466 9.39062 4.43274 9.39424 4.40004H8.5001ZM12.7493 17.0997C13.2463 17.0997 13.6491 17.5027 13.6493 17.9997C13.6493 18.4967 13.2464 18.8997 12.7493 18.8997H11.2493C10.7525 18.8994 10.3493 18.4965 10.3493 17.9997C10.3495 17.5029 10.7526 17.0999 11.2493 17.0997H12.7493Z" fill="#0D1625"/>
</svg>
