<svg width="24" height="24" viewBox="0 0 24 24" fill="none" xmlns="http://www.w3.org/2000/svg">
<path d="M20.001 8.1004C20.4977 8.10082 20.901 8.5036 20.901 9.0004V10.4008C20.901 12.0657 20.9008 13.369 20.8154 14.4145C20.7291 15.4705 20.551 16.3436 20.1486 17.1332C19.4871 18.4313 18.4315 19.487 17.1334 20.1484C16.3437 20.5508 15.4707 20.7289 14.4146 20.8152C13.3691 20.9007 12.0659 20.9008 10.401 20.9008H9.00059C8.50379 20.9008 8.10101 20.4975 8.10059 20.0008C8.10059 19.5037 8.50353 19.1008 9.00059 19.1008H10.401C12.0956 19.1008 13.3129 19.0991 14.2682 19.0211C15.2126 18.9439 15.8218 18.7956 16.3154 18.5441C17.2749 18.0552 18.0554 17.2747 18.5443 16.3152C18.7958 15.8217 18.9441 15.2124 19.0213 14.268C19.0993 13.3128 19.101 12.0954 19.101 10.4008V9.0004C19.101 8.50334 19.5039 8.1004 20.001 8.1004ZM14.001 2.1004C16.1545 2.10082 17.901 3.84675 17.901 6.0004V14.0008C17.9005 16.1541 16.1543 17.9004 14.001 17.9008H9.00059C6.84694 17.9008 5.10102 16.1543 5.10059 14.0008V6.0004C5.10059 3.84649 6.84668 2.1004 9.00059 2.1004H14.001ZM9.00059 3.9004C7.84079 3.9004 6.90059 4.8406 6.90059 6.0004V14.0008C6.90102 15.1602 7.84105 16.1008 9.00059 16.1008H14.001C15.1602 16.1004 16.1005 15.16 16.101 14.0008V6.0004C16.101 4.84086 15.1604 3.90082 14.001 3.9004H9.00059ZM11.5002 5.1004C11.9973 5.1004 12.4002 5.50334 12.4002 6.0004V6.10001H13.4994C13.9965 6.10001 14.3994 6.50295 14.3994 7.00001C14.3994 7.49706 13.9965 7.90001 13.4994 7.90001H10.9998C10.6686 7.90022 10.3998 8.16877 10.3998 8.50001C10.3998 8.83124 10.6686 9.09979 10.9998 9.10001H11.9994C13.3249 9.10001 14.3994 10.1745 14.3994 11.5C14.3994 12.6888 13.5347 13.6716 12.4002 13.8625V13.9996C12.4002 14.4967 11.9972 14.8996 11.5002 14.8996C11.0031 14.8996 10.6002 14.4967 10.6002 13.9996V13.9H9.4998C9.00293 13.8998 8.59981 13.4969 8.5998 13C8.5998 12.5031 9.00293 12.1002 9.4998 12.1H11.9994C12.3308 12.1 12.5994 11.8314 12.5994 11.5C12.5994 11.1686 12.3308 10.9 11.9994 10.9H10.9998C9.67451 10.8998 8.59981 9.82535 8.5998 8.50001C8.5998 7.31099 9.46537 6.32698 10.6002 6.13634V6.0004C10.6002 5.50334 11.0031 5.1004 11.5002 5.1004Z" fill="#0D1625"/>
</svg>
