<svg width="24" height="24" viewBox="0 0 24 24" fill="none" xmlns="http://www.w3.org/2000/svg">
<path d="M13.6744 2.15037C14.9365 2.15062 15.8481 3.35901 15.5013 4.57264L15.0654 6.09607C16.8804 6.8464 18.2589 8.48015 18.622 10.5129L19.3357 14.5125C19.9815 18.1287 17.2013 21.4499 13.5279 21.45H10.4717C6.7982 21.4499 4.01809 18.1287 4.66384 14.5125L5.37751 10.5129C5.74057 8.48049 7.11847 6.84656 8.93298 6.09607L8.49822 4.57264C8.15146 3.359 9.06303 2.15059 10.3252 2.15037H13.6744ZM11.1595 7.45076C9.18489 7.46355 7.49714 8.88289 7.14939 10.8293L6.43572 14.8289C5.98698 17.3419 7.91893 19.6499 10.4717 19.65H13.5279C16.0806 19.6499 18.0126 17.3419 17.5638 14.8289L16.8502 10.8293C16.5024 8.88292 14.8146 7.46361 12.84 7.45076H11.1595ZM11.9998 8.64959C12.4967 8.64962 12.8996 9.05272 12.8998 9.54959V9.65037H13.999C14.4961 9.65037 14.899 10.0533 14.899 10.5504C14.8988 11.0472 14.4959 11.4504 13.999 11.4504H11.4994C11.1682 11.4506 10.8994 11.7191 10.8994 12.0504C10.8996 12.3814 11.1683 12.6502 11.4994 12.6504H12.499C13.8245 12.6504 14.899 13.7249 14.899 15.0504C14.8988 16.239 14.0342 17.222 12.8998 17.4129V17.55C12.8996 18.0468 12.4967 18.45 11.9998 18.45C11.5029 18.45 11.1 18.0468 11.0998 17.55V17.4504H9.99939C9.50263 17.4502 9.09961 17.0471 9.09939 16.5504C9.09939 16.0534 9.50249 15.6506 9.99939 15.6504H12.499C12.8302 15.6504 13.0988 15.3816 13.099 15.0504C13.099 14.719 12.8304 14.4504 12.499 14.4504H11.4994C10.1742 14.4502 9.09961 13.3756 9.09939 12.0504C9.09939 10.8613 9.96486 9.8761 11.0998 9.68553V9.54959C11.1 9.0527 11.5028 8.64959 11.9998 8.64959ZM10.3252 3.95037C10.2589 3.95059 10.2109 4.01433 10.2291 4.07811L10.6791 5.65076H11.1326C11.1505 5.6506 11.1685 5.64959 11.1865 5.64959H12.8131C12.831 5.64959 12.849 5.6506 12.867 5.65076H13.3205L13.7705 4.07811C13.7887 4.01435 13.7406 3.95062 13.6744 3.95037H10.3252Z" fill="#0D1625"/>
</svg>
