<svg width="24" height="24" viewBox="0 0 24 24" fill="none" xmlns="http://www.w3.org/2000/svg">
<path d="M7.28486 7.44531C7.28486 6.97599 7.32169 6.51471 7.38916 6.06367C5.86108 7.43195 4.90012 9.41915 4.9001 11.6301C4.9001 15.7555 8.24429 19.0994 12.3696 19.0996C14.5809 19.0996 16.5677 18.1379 17.936 16.6094C17.485 16.6768 17.0237 16.7148 16.5544 16.7148C11.435 16.7146 7.28491 12.5647 7.28486 7.44531ZM9.08486 7.44531C9.08491 11.5706 12.4292 14.9146 16.5544 14.9148C17.6521 14.9148 18.6929 14.6786 19.6294 14.2551C19.9705 14.1009 20.3713 14.1744 20.636 14.4391C20.9008 14.7038 20.9741 15.1045 20.82 15.4457C19.3664 18.66 16.1304 20.8996 12.3696 20.8996C7.25018 20.8994 3.1001 16.7496 3.1001 11.6301C3.10013 7.86934 5.33972 4.63331 8.554 3.17969C8.89513 3.02553 9.29587 3.09906 9.56064 3.36367C9.82537 3.6284 9.89872 4.02914 9.74463 4.37031C9.32111 5.30681 9.08486 6.34757 9.08486 7.44531Z" fill="#0D1625"/>
</svg>
