<svg width="24" height="24" viewBox="0 0 24 24" fill="none" xmlns="http://www.w3.org/2000/svg">
<path d="M8.99983 13.1004C10.0489 13.1006 10.9004 13.951 10.9006 15V18C10.9004 19.049 10.0489 19.9006 8.99983 19.9008H5.99983C4.9508 19.9006 4.10043 19.049 4.10022 18V15C4.10043 13.951 4.9508 13.1006 5.99983 13.1004H8.99983ZM17.9998 13.1004C19.0489 13.1006 19.9004 13.951 19.9006 15V18C19.9004 19.049 19.0489 19.9006 17.9998 19.9008H14.9998C13.9508 19.9006 13.1004 19.049 13.1002 18V15C13.1004 13.951 13.9508 13.1006 14.9998 13.1004H17.9998ZM5.99983 14.9004C5.94491 14.9006 5.90043 14.9451 5.90022 15V18C5.90043 18.0549 5.94491 18.1006 5.99983 18.1008H8.99983C9.05476 18.1006 9.1004 18.0549 9.10061 18V15C9.1004 14.9451 9.05476 14.9006 8.99983 14.9004H5.99983ZM14.9998 14.9004C14.9449 14.9006 14.9004 14.9451 14.9002 15V18C14.9004 18.0549 14.9449 18.1006 14.9998 18.1008H17.9998C18.0548 18.1006 18.1004 18.0549 18.1006 18V15C18.1004 14.9451 18.0548 14.9006 17.9998 14.9004H14.9998ZM8.99983 4.1004C10.0489 4.10059 10.9004 4.95097 10.9006 6V9C10.9004 10.049 10.0489 10.9006 8.99983 10.9008H5.99983C4.9508 10.9006 4.10043 10.049 4.10022 9V6C4.10043 4.95097 4.9508 4.10061 5.99983 4.1004H8.99983ZM17.9998 4.1004C19.0489 4.10059 19.9004 4.95097 19.9006 6V9C19.9004 10.049 19.0489 10.9006 17.9998 10.9008H14.9998C13.9508 10.9006 13.1004 10.049 13.1002 9V6C13.1004 4.95097 13.9508 4.10061 14.9998 4.1004H17.9998ZM5.99983 5.9004C5.94491 5.90061 5.90043 5.94509 5.90022 6V9C5.90043 9.05493 5.94491 9.10058 5.99983 9.10079H8.99983C9.05476 9.10059 9.1004 9.05494 9.10061 9V6C9.1004 5.94508 9.05476 5.90059 8.99983 5.9004H5.99983ZM14.9998 5.9004C14.9449 5.90061 14.9004 5.94509 14.9002 6V9C14.9004 9.05493 14.9449 9.10058 14.9998 9.10079H17.9998C18.0548 9.10059 18.1004 9.05494 18.1006 9V6C18.1004 5.94508 18.0548 5.90059 17.9998 5.9004H14.9998Z" fill="#0D1625"/>
</svg>
