<svg width="24" height="24" viewBox="0 0 24 24" fill="none" xmlns="http://www.w3.org/2000/svg">
<path d="M12.0001 3.1C12.7891 3.1 13.5585 3.16591 14.2981 3.25703C16.681 3.55063 18.5191 5.52432 18.7044 7.85781C18.8103 9.19087 18.9001 10.5789 18.9001 12.0004C18.9001 13.4216 18.8102 14.809 18.7044 16.1418C18.5191 18.4753 16.6809 20.4489 14.2981 20.7426C13.5586 20.8336 12.7892 20.8996 12.0001 20.8996C11.4082 20.8996 10.8275 20.8629 10.2622 20.8059L9.70205 20.7426C7.31929 20.4489 5.48106 18.4753 5.2958 16.1418C5.18997 14.809 5.10011 13.4216 5.1001 12.0004C5.1001 10.579 5.18995 9.1909 5.2958 7.85781C5.48106 5.52427 7.31925 3.55061 9.70205 3.25703C10.4417 3.16591 11.211 3.1 12.0001 3.1ZM12.0001 4.9C11.3096 4.9 10.6188 4.95834 9.92236 5.04414C8.4 5.23171 7.20872 6.50695 7.08994 7.99961C6.98527 9.31791 6.9001 10.6507 6.9001 12.0004C6.90011 13.35 6.98528 14.6819 7.08994 16C7.20856 17.4928 8.39985 18.769 9.92236 18.9566C10.6189 19.0424 11.3097 19.0996 12.0001 19.0996C12.6905 19.0996 13.3813 19.0424 14.0778 18.9566C15.6004 18.769 16.7916 17.4928 16.9103 16C17.0149 14.6818 17.1001 13.35 17.1001 12.0004C17.1001 10.6507 17.0149 9.31793 16.9103 7.99961C16.7914 6.50691 15.6002 5.2317 14.0778 5.04414C13.3813 4.95834 12.6905 4.9 12.0001 4.9ZM12.0001 6.1C12.4972 6.1 12.9001 6.50294 12.9001 7V9.49961C12.9001 9.99666 12.4972 10.3996 12.0001 10.3996C11.503 10.3996 11.1001 9.99666 11.1001 9.49961V7C11.1001 6.50294 11.503 6.1 12.0001 6.1Z" fill="#0D1625"/>
</svg>
