<svg width="24" height="24" viewBox="0 0 24 24" fill="none" xmlns="http://www.w3.org/2000/svg">
<path d="M7.36377 2.36331C7.7152 2.01209 8.285 2.01208 8.63643 2.36331L10.6368 4.3637C10.9878 4.71514 10.988 5.285 10.6368 5.63636L8.63643 7.63558C8.28495 7.98705 7.71524 7.98705 7.36377 7.63558C7.01267 7.28408 7.01242 6.71427 7.36377 6.36292L7.82666 5.90003H7.00049C6.39298 5.90003 5.9001 6.39291 5.9001 7.00042V17C5.90013 17.6075 6.39299 18.1004 7.00049 18.1004H11.9997V18.0008C11.9997 16.9654 12.7866 16.1135 13.795 16.011L14.0001 16.0004H17.9997C19.1043 16.0004 20.0001 16.8962 20.0001 18.0008V20L19.9895 20.2051C19.8937 21.1463 19.145 21.8945 18.2036 21.9899L17.9997 22.0004H14.0001L13.795 21.9899C12.7867 21.8874 11.9999 21.0353 11.9997 20V19.9004H7.00049C5.39888 19.9004 4.10013 18.6016 4.1001 17V7.00042C4.1001 5.3988 5.39886 4.10003 7.00049 4.10003H7.82783L7.36377 3.63597C7.01248 3.28448 7.01236 2.71472 7.36377 2.36331ZM14.0001 17.8004C13.8896 17.8004 13.7997 17.8904 13.7997 18.0008V20C13.7999 20.1103 13.8898 20.2004 14.0001 20.2004H17.9997C18.11 20.2004 18.1999 20.1103 18.2001 20V18.0008C18.2001 17.8904 18.1102 17.8004 17.9997 17.8004H14.0001ZM18.2036 9.01019C19.2123 9.11234 19.9999 9.96449 20.0001 11V12.9992L19.9895 13.2043C19.8939 14.1457 19.1451 14.8937 18.2036 14.9891L17.9997 14.9996H14.0001L13.795 14.9891C12.7866 14.8866 11.9997 14.0347 11.9997 12.9992V11C11.9999 9.96475 12.7867 9.1127 13.795 9.01019L14.0001 8.99964H17.9997L18.2036 9.01019ZM14.0001 10.7996C13.8898 10.7996 13.7999 10.8898 13.7997 11V12.9992C13.7997 13.1097 13.8896 13.1996 14.0001 13.1996H17.9997C18.1102 13.1996 18.2001 13.1097 18.2001 12.9992V11C18.1999 10.8898 18.11 10.7997 17.9997 10.7996H14.0001ZM17.9997 2.00003C19.1043 2.00004 20.0001 2.89586 20.0001 4.00042V5.99964C20.0001 7.10421 19.1043 8.00002 17.9997 8.00003H14.0001C12.8955 8.00003 11.9997 7.10421 11.9997 5.99964V4.00042C11.9997 2.89585 12.8955 2.00003 14.0001 2.00003H17.9997Z" fill="#0D1625"/>
</svg>
