<svg width="24" height="24" viewBox="0 0 24 24" fill="none" xmlns="http://www.w3.org/2000/svg">
<path d="M7.36426 4.36406C7.71573 4.01259 8.28544 4.01259 8.63691 4.36406L10.6373 6.36445C10.9882 6.71597 10.9886 7.28583 10.6373 7.63711L8.63691 9.63633C8.28549 9.98754 7.71568 9.98754 7.36426 9.63633C7.01305 9.28491 7.01305 8.7151 7.36426 8.36367L7.82832 7.89961H7.00098C6.39359 7.89961 5.9008 8.39267 5.90059 9V15C5.9008 15.6073 6.39359 16.0992 7.00098 16.0992H12.0002V15C12.0004 13.9647 12.7872 13.1127 13.7955 13.0102L14.0006 12.9996H18.0002C19.1046 12.9996 20.0004 13.8956 20.0006 15V18.9996L19.99 19.2035C19.8947 20.1453 19.1458 20.8941 18.2041 20.9895L18.0002 21H14.0006L13.7955 20.9895C12.8541 20.8937 12.1061 20.145 12.0107 19.2035L12.0002 18.9996V17.8992H7.00098C5.39948 17.8992 4.1008 16.6014 4.10059 15V9C4.1008 7.39855 5.39948 6.09961 7.00098 6.09961H7.82715L7.36426 5.63672C7.01285 5.28531 7.01298 4.71555 7.36426 4.36406ZM14.0006 14.7996C13.8903 14.7996 13.8004 14.8897 13.8002 15V18.9996C13.8002 19.1101 13.8901 19.2 14.0006 19.2H18.0002C18.1107 19.2 18.2006 19.1101 18.2006 18.9996V15C18.2004 14.8897 18.1105 14.7996 18.0002 14.7996H14.0006ZM18.0002 3C19.1048 3 20.0006 3.89582 20.0006 5.00039V9C20.0006 10.1046 19.1048 11.0004 18.0002 11.0004H14.0006C12.896 11.0004 12.0002 10.1046 12.0002 9V5.00039C12.0002 3.89582 12.896 3 14.0006 3H18.0002Z" fill="#0D1625"/>
</svg>
