<svg width="24" height="24" viewBox="0 0 24 24" fill="none" xmlns="http://www.w3.org/2000/svg">
<path d="M7.36426 19.6359C7.71573 19.9874 8.28544 19.9874 8.63691 19.6359L10.6373 17.6355C10.9882 17.284 10.9886 16.7142 10.6373 16.3629L8.63691 14.3637C8.2855 14.0125 7.71568 14.0125 7.36426 14.3637C7.01304 14.7151 7.01304 15.2849 7.36426 15.6363L7.82832 16.1004H7.00098C6.39359 16.1004 5.9008 15.6073 5.90059 15V9C5.9008 8.39267 6.39359 7.90078 7.00098 7.90078H12.0002V9C12.0004 10.0353 12.7872 10.8873 13.7955 10.9898L14.0006 11.0004H18.0002C19.1046 11.0004 20.0004 10.1044 20.0006 9V5.00039L19.99 4.79648C19.8947 3.85475 19.1458 3.10593 18.2041 3.01055L18.0002 3H14.0006L13.7955 3.01055C12.8541 3.10624 12.1061 3.85501 12.0107 4.79648L12.0002 5.00039V6.10078H7.00098C5.39948 6.10078 4.1008 7.39855 4.10059 9V15C4.1008 16.6014 5.39948 17.9004 7.00098 17.9004H7.82715L7.36426 18.3633C7.01285 18.7147 7.01297 19.2845 7.36426 19.6359ZM14.0006 9.20039C13.8903 9.20039 13.8004 9.11028 13.8002 9V5.00039C13.8002 4.88993 13.8901 4.8 14.0006 4.8H18.0002C18.1106 4.80001 18.2006 4.88994 18.2006 5.00039V9C18.2004 9.11027 18.1105 9.20038 18.0002 9.20039H14.0006Z" fill="#0D1625"/>
<path d="M18.0002 21C19.1048 21 20.0006 20.1042 20.0006 18.9996V15C20.0006 13.8954 19.1048 12.9996 18.0002 12.9996H14.0006C12.896 12.9996 12.0002 13.8954 12.0002 15V18.9996C12.0002 20.1042 12.896 21 14.0006 21H18.0002Z" fill="#0D1625"/>
</svg>
