<svg width="24" height="24" viewBox="0 0 24 24" fill="none" xmlns="http://www.w3.org/2000/svg">
<path d="M11.5151 3.82755C12.0121 3.82767 12.4151 4.23057 12.4151 4.72755C12.4148 5.22428 12.0119 5.62743 11.5151 5.62755H7.72764C6.56784 5.62755 5.62764 6.56776 5.62764 7.72755V16.274C5.62818 17.4334 6.56817 18.374 7.72764 18.374H16.2729C17.4323 18.3739 18.3724 17.4333 18.3729 16.274V12.4854C18.373 11.9883 18.7759 11.5854 19.2729 11.5854C19.7699 11.5855 20.1729 11.9884 20.1729 12.4854V16.274C20.1724 18.4274 18.4264 20.1739 16.2729 20.174H7.72764C5.57406 20.174 3.82818 18.4275 3.82764 16.274V7.72755C3.82764 5.57364 5.57373 3.82755 7.72764 3.82755H11.5151ZM15.8675 3.77599C17.0718 2.57813 19.0175 2.58084 20.2187 3.78185C21.4197 4.98303 21.4225 6.92994 20.2245 8.13419L14.5292 13.8588C14.4137 13.9749 14.2685 14.0581 14.1097 14.0979L9.95537 15.1361C9.64888 15.2126 9.32452 15.1227 9.10107 14.8994C8.8777 14.676 8.78798 14.3516 8.86436 14.0451L9.90264 9.89083C9.94238 9.73205 10.0246 9.58679 10.1405 9.4713L15.8675 3.77599ZM18.946 5.0545C18.4465 4.55511 17.6374 4.55404 17.1366 5.05216L11.5878 10.5705L10.9737 13.0256L13.4288 12.4115L18.9483 6.86388C19.4465 6.3631 19.4454 5.55403 18.946 5.0545Z" fill="#0D1625"/>
</svg>
