<svg width="24" height="24" viewBox="0 0 24 24" fill="none" xmlns="http://www.w3.org/2000/svg">
<path d="M7.00049 7.6004C7.24897 7.60059 7.47397 7.70108 7.63682 7.86407C7.71806 7.94545 7.78356 8.04247 7.829 8.15C7.86314 8.23068 7.88657 8.31715 7.8958 8.40782C7.89888 8.4381 7.90049 8.4693 7.90049 8.5004L7.89932 15.5C7.89909 15.9969 7.49623 16.4 6.99932 16.4C6.5026 16.3998 6.09954 15.9967 6.09932 15.5V11.15C5.76236 11.3055 5.39056 11.4007 5.0001 11.4008C4.50331 11.4008 4.10053 10.9975 4.1001 10.5008C4.1001 10.0037 4.50304 9.60079 5.0001 9.60079C5.20735 9.60066 5.48984 9.4872 5.73838 9.23868C5.98086 8.9962 6.09378 8.72133 6.09932 8.51563V8.5004C6.09932 8.00349 6.50246 7.60063 6.99932 7.6004H7.00049ZM17.0001 7.6004C18.5703 7.6006 19.8441 8.84879 19.8935 10.407C19.8966 10.4375 19.8993 10.4683 19.8993 10.4996C19.8993 12.0044 19.7825 13.446 19.2419 14.5273C18.9592 15.0927 18.5513 15.5791 17.9786 15.916C17.4107 16.2499 16.7439 16.4 15.9993 16.4C15.5026 16.3998 15.0995 15.9967 15.0993 15.5C15.0995 15.0033 15.5026 14.6002 15.9993 14.6C16.5043 14.6 16.838 14.499 17.0669 14.3645C17.2908 14.2326 17.4771 14.0316 17.6317 13.7223C17.6971 13.5915 17.7512 13.4449 17.8017 13.284C17.5469 13.3572 17.2785 13.4 17.0001 13.4C15.3988 13.4 14.1001 12.102 14.0997 10.5008C14.0997 8.89918 15.3985 7.60042 17.0001 7.6004ZM12.4989 11.6C12.996 11.6 13.3989 12.0029 13.3989 12.5C13.3989 12.997 12.996 13.4 12.4989 13.4H9.99932C9.50247 13.3998 9.09933 12.9969 9.09932 12.5C9.09932 12.0031 9.50246 11.6002 9.99932 11.6H12.4989ZM17.0001 9.4004C16.3926 9.40042 15.8997 9.89329 15.8997 10.5008C15.9001 11.1079 16.3929 11.6 17.0001 11.6C17.6072 11.5998 18.0989 11.1078 18.0993 10.5008C18.0993 9.8934 17.6074 9.40061 17.0001 9.4004Z" fill="#0D1625"/>
</svg>
