<svg width="24" height="24" viewBox="0 0 24 24" fill="none" xmlns="http://www.w3.org/2000/svg">
<path d="M15.501 2.6C17.6545 2.60029 19.4008 4.34645 19.401 6.5V19.6004H20.5002C20.9972 19.6005 21.4002 20.0034 21.4002 20.5004C21.4002 20.9974 20.9972 21.4003 20.5002 21.4004H3.49979C3.00293 21.4002 2.59981 20.9973 2.59979 20.5004C2.59979 20.0035 3.00291 19.6006 3.49979 19.6004H4.60018V6.5C4.60039 4.3464 6.34658 2.60021 8.50018 2.6H15.501ZM8.50018 4.4C7.3407 4.40021 6.40039 5.34051 6.40018 6.5V19.6004H8.10057V14C8.10078 12.951 8.95115 12.1006 10.0002 12.1004H14.001C15.0497 12.1009 15.9004 12.9511 15.9006 14V19.6004H17.601V6.5C17.6008 5.34056 16.6604 4.40029 15.501 4.4H8.50018ZM10.0002 13.9004C9.94526 13.9006 9.90078 13.9451 9.90057 14V19.6004H14.1006V14C14.1004 13.9453 14.0556 13.9009 14.001 13.9004H10.0002ZM13.79 9.11446C14.2869 9.11469 14.69 9.51756 14.69 10.0145C14.6898 10.5111 14.2867 10.9142 13.79 10.9145H10.2896C9.79292 10.9142 9.3899 10.5112 9.38964 10.0145C9.38965 9.51754 9.79277 9.11467 10.2896 9.11446H13.79ZM13.7502 6.10039C14.2472 6.10047 14.6502 6.50339 14.6502 7.00039C14.65 7.49722 14.247 7.90031 13.7502 7.90039H10.2498C9.75305 7.90018 9.35001 7.49714 9.34979 7.00039C9.34979 6.50347 9.75292 6.1006 10.2498 6.10039H13.7502Z" fill="#0D1625"/>
</svg>
