<svg width="24" height="24" viewBox="0 0 24 24" fill="none" xmlns="http://www.w3.org/2000/svg">
<path d="M7.00098 11.0996C8.60211 11.1 9.9 12.3988 9.9002 14C9.89998 15.6012 8.6021 16.8988 7.00098 16.8992C6.39359 16.8992 5.90078 17.3923 5.90059 17.9996V18.0992H9.0002C9.49681 18.0994 9.89979 18.5027 9.9002 18.9992C9.9002 19.4961 9.49706 19.899 9.0002 19.8992H5.00059C4.50353 19.8992 4.10059 19.4963 4.10059 18.9992V17.9996C4.10078 16.3982 5.39947 15.0992 7.00098 15.0992C7.60799 15.0988 8.09998 14.6071 8.1002 14C8.1 13.3929 7.608 12.9 7.00098 12.8996C6.39359 12.8996 5.90078 13.3927 5.90059 14C5.90038 14.4967 5.49732 14.8998 5.00059 14.9C4.50366 14.9 4.1008 14.4969 4.10059 14C4.10078 12.3985 5.39947 11.0996 7.00098 11.0996ZM18.9998 16.1C19.4969 16.1 19.8998 16.5029 19.8998 17C19.8998 17.4971 19.4969 17.9 18.9998 17.9H12.9998C12.5029 17.8998 12.0998 17.4969 12.0998 17C12.0998 16.5031 12.5029 16.1002 12.9998 16.1H18.9998ZM18.9998 11.0996C19.4967 11.0996 19.8996 11.5027 19.8998 11.9996C19.8998 12.4967 19.4969 12.8996 18.9998 12.8996H12.9998C12.5029 12.8994 12.0998 12.4965 12.0998 11.9996C12.1 11.5028 12.503 11.0998 12.9998 11.0996H18.9998ZM7.00098 3.1004C7.18718 3.10056 7.36016 3.1569 7.50371 3.25391C7.59923 3.31851 7.6817 3.40096 7.74629 3.49649C7.82735 3.61625 7.88088 3.75641 7.89629 3.90782C7.89937 3.93809 7.90098 3.96931 7.90098 4.0004L7.8998 10.0004C7.89958 10.4973 7.49672 10.9004 6.9998 10.9004C6.50306 10.9002 6.10003 10.4971 6.0998 10.0004V6.65C5.76285 6.80553 5.39104 6.90072 5.00059 6.90079C4.5038 6.90079 4.10102 6.49747 4.10059 6.00079C4.10059 5.50373 4.50353 5.10079 5.00059 5.10079C5.20784 5.10063 5.49034 4.9872 5.73887 4.73868C5.98135 4.4962 6.09427 4.22133 6.0998 4.01563V4.0004C6.0998 3.50346 6.50292 3.10059 6.9998 3.1004H7.00098ZM18.9998 6.1004C19.4969 6.1004 19.8998 6.50334 19.8998 7.0004C19.8996 7.49726 19.4967 7.9004 18.9998 7.9004H12.9998C12.5031 7.9002 12.1 7.49714 12.0998 7.0004C12.0998 6.50346 12.5029 6.10059 12.9998 6.1004H18.9998Z" fill="#0D1625"/>
</svg>
