<svg width="24" height="24" viewBox="0 0 24 24" fill="none" xmlns="http://www.w3.org/2000/svg">
<path d="M12.0004 3.1C13.6017 3.10041 14.8996 4.39902 14.8996 6.00039C14.8994 7.2876 14.0599 8.37687 12.8992 8.75547V10.6H16C18.619 10.6002 20.7566 12.6551 20.8914 15.2406C22.0565 15.617 22.8988 16.71 22.8988 18.0004C22.8986 19.6017 21.6009 20.8994 19.9996 20.8996C18.3983 20.8994 17.0994 19.6017 17.0992 18.0004C17.0992 16.7183 17.932 15.6308 19.0855 15.2477C18.957 13.6538 17.6269 12.4002 16 12.4H12.8992V15.243C14.0602 15.6217 14.8996 16.7129 14.8996 18.0004C14.8994 19.6016 13.6015 20.8992 12.0004 20.8996C10.3989 20.8996 9.10022 19.6018 9.1 18.0004C9.1 16.7134 9.93871 15.6233 11.0992 15.2441V12.4H7.99961C6.37271 12.4002 5.04019 13.6538 4.91172 15.2477C6.06617 15.6302 6.89922 16.7176 6.89922 18.0004C6.899 19.6017 5.60131 20.8994 4 20.8996C2.39852 20.8996 1.09983 19.6018 1.09961 18.0004C1.09961 16.7108 1.9417 15.6176 3.10586 15.2406C3.24068 12.6551 5.38059 10.6002 7.99961 10.6H11.0992V8.7543C9.93901 8.37529 9.10018 7.28709 9.1 6.00039C9.1 4.39876 10.3988 3.1 12.0004 3.1ZM4 16.9C3.3925 16.9 2.89961 17.3929 2.89961 18.0004C2.89983 18.6077 3.39263 19.0996 4 19.0996C4.6072 19.0994 5.099 18.6076 5.09922 18.0004C5.09922 17.393 4.60733 16.9002 4 16.9ZM12.0004 16.9C11.3929 16.9 10.9 17.3929 10.9 18.0004C10.9002 18.6077 11.393 19.0996 12.0004 19.0996C12.6074 19.0992 13.0994 18.6075 13.0996 18.0004C13.0996 17.3931 12.6076 16.9004 12.0004 16.9ZM19.9996 16.9C19.3923 16.9002 18.8992 17.393 18.8992 18.0004C18.8994 18.6076 19.3924 19.0994 19.9996 19.0996C20.6068 19.0994 21.0986 18.6076 21.0988 18.0004C21.0988 17.393 20.6069 16.9002 19.9996 16.9ZM12.0004 4.9C11.3929 4.9 10.9 5.39288 10.9 6.00039C10.9002 6.60772 11.393 7.09961 12.0004 7.09961C12.6074 7.0992 13.0994 6.60746 13.0996 6.00039C13.0996 5.39313 12.6076 4.90041 12.0004 4.9Z" fill="#0D1625"/>
</svg>
