<svg width="24" height="24" viewBox="0 0 24 24" fill="none" xmlns="http://www.w3.org/2000/svg">
<path d="M15.0328 3.22536C16.1269 3.21803 17.2896 3.63808 17.7797 4.54841C17.9691 4.90075 17.9072 5.30755 17.6848 5.58552L16.7356 6.77029C19.4273 7.32661 20.8633 9.16155 20.8992 10.9023C20.9103 11.4523 20.4623 11.8656 19.9547 11.8656H18.6762C19.1232 12.8729 19.2513 14.0409 18.8742 15.2242C18.6972 15.7788 18.0674 16.04 17.5512 15.782L14.5078 14.2597L14.8277 18.1H16.0008C16.4975 18.1004 16.9008 18.5032 16.9008 19C16.9008 19.4968 16.4975 19.8995 16.0008 19.9H8.0004C7.50334 19.9 7.1004 19.497 7.1004 19C7.10041 18.5029 7.50335 18.1 8.0004 18.1H9.17227L9.49219 14.2597L6.44884 15.782C5.93256 16.0401 5.30278 15.7788 5.12579 15.2242C4.74867 14.0408 4.87683 12.8729 5.32384 11.8656H4.04532C3.53765 11.8656 3.08965 11.4523 3.10079 10.9023C3.1367 9.16152 4.57266 7.32658 7.26446 6.77029L6.31524 5.58552C6.09285 5.30753 6.03084 4.90076 6.22032 4.54841C6.71038 3.63807 7.87309 3.21802 8.96719 3.22536C9.93044 3.23191 11.0061 3.55262 12 4.307C12.9939 3.55264 14.0696 3.2319 15.0328 3.22536ZM11.3766 13.3164L10.9781 18.1H13.0231L12.6234 13.3176L12 13.0058L11.3766 13.3164ZM15.0445 5.02536C14.3525 5.03011 13.4633 5.30943 12.6363 6.1363L12.5684 6.19724C12.215 6.4859 11.6933 6.46574 11.3637 6.1363C10.5367 5.30945 9.64746 5.03013 8.95548 5.02536C8.66107 5.02337 8.42938 5.06721 8.25352 5.12615L9.64454 6.86521C10.1696 7.52224 9.64826 8.39268 8.91446 8.40036C6.74676 8.42298 5.64531 9.27648 5.18087 10.0656H6.89415C7.73971 10.0658 8.13227 11.0626 7.58907 11.6523C7.07226 12.2128 6.75241 12.9085 6.71016 13.6386L11.5981 11.1953C11.6327 11.178 11.6679 11.1632 11.7035 11.1508C11.7125 11.1476 11.7214 11.1442 11.7305 11.1414C11.7586 11.1325 11.7876 11.1286 11.816 11.1226C11.8483 11.1158 11.8804 11.1095 11.9133 11.1062C11.9423 11.1034 11.9711 11.1027 12 11.1027C12.0285 11.1027 12.0569 11.1035 12.0856 11.1062C12.1185 11.1094 12.1506 11.1159 12.1828 11.1226C12.2113 11.1286 12.2402 11.1326 12.2684 11.1414C12.2774 11.1442 12.2863 11.1476 12.2953 11.1508C12.3312 11.1633 12.367 11.1779 12.402 11.1953L17.2899 13.6386C17.2476 12.9086 16.9277 12.2128 16.4109 11.6523C15.8677 11.0626 16.2603 10.0658 17.1059 10.0656H18.8191C18.3547 9.27649 17.2532 8.423 15.0856 8.40036C14.3517 8.39272 13.8304 7.52226 14.3555 6.86521L15.7465 5.12615C15.5706 5.06721 15.3389 5.02337 15.0445 5.02536Z" fill="#0D1625"/>
</svg>
