<svg width="24" height="24" viewBox="0 0 24 24" fill="none" xmlns="http://www.w3.org/2000/svg">
<path d="M14.3637 6.36372C15.8197 4.9079 18.18 4.90792 19.636 6.36372C21.092 7.8197 21.0919 10.1799 19.636 11.636L12.6364 18.6356C10.6281 20.6439 7.37205 20.6439 5.36372 18.6356C3.35578 16.6272 3.35552 13.3711 5.36372 11.3629L10.3641 6.36372C10.7155 6.01247 11.2853 6.01249 11.6368 6.36372C11.9878 6.71516 11.9879 7.28502 11.6368 7.63637L6.63638 12.6356C5.33112 13.9408 5.33138 16.0575 6.63638 17.3629C7.94176 18.6683 10.0583 18.6683 11.3637 17.3629L18.3633 10.3633C19.1163 9.61021 19.1164 8.38941 18.3633 7.63637C17.6103 6.88352 16.3894 6.88351 15.6364 7.63637L8.63677 14.636C8.43602 14.8367 8.43614 15.1629 8.63677 15.3637C8.83748 15.564 9.16261 15.564 9.36333 15.3637L14.3637 10.3633C14.7151 10.0121 15.2849 10.0121 15.6364 10.3633C15.9878 10.7147 15.9877 11.2845 15.6364 11.636L10.636 16.6364C9.73233 17.5396 8.26777 17.5396 7.36411 16.6364C6.46054 15.7326 6.46042 14.267 7.36411 13.3633L14.3637 6.36372Z" fill="#0D1625"/>
</svg>
