<svg width="24" height="24" viewBox="0 0 24 24" fill="none" xmlns="http://www.w3.org/2000/svg">
<path d="M14.2 4.1C15.025 4.1 15.6984 4.09881 16.2438 4.14336C16.7995 4.18879 17.3019 4.28654 17.7707 4.52539C18.5043 4.8993 19.1008 5.49569 19.4746 6.2293C19.7135 6.69816 19.81 7.20038 19.8555 7.75625C19.9 8.30166 19.9 8.97478 19.9 9.8V14.2004C19.9 15.0254 19.9 15.6988 19.8555 16.2441C19.81 16.7999 19.7135 17.3023 19.4746 17.7711C19.1008 18.5046 18.5042 19.1012 17.7707 19.475C17.302 19.7138 16.7995 19.8104 16.2438 19.8559C15.6984 19.9004 15.0251 19.9004 14.2 19.9004H9.79961C8.97439 19.9004 8.30127 19.9004 7.75586 19.8559C7.19999 19.8104 6.69777 19.7139 6.22891 19.475C5.4953 19.1012 4.89891 18.5046 4.525 17.7711C4.28616 17.3023 4.18841 16.7999 4.14297 16.2441C4.09842 15.6988 4.09961 15.0254 4.09961 14.2004V9.8C4.09961 8.97478 4.09841 8.30166 4.14297 7.75625C4.18839 7.20035 4.2861 6.69818 4.525 6.2293C4.89888 5.49566 5.49527 4.89926 6.22891 4.52539C6.69779 4.28649 7.19996 4.18878 7.75586 4.14336C8.30127 4.0988 8.97439 4.1 9.79961 4.1H14.2ZM9.79961 5.9C8.94469 5.9 8.35745 5.90032 7.90235 5.9375C7.45783 5.97383 7.21854 6.04046 7.04571 6.12852C6.65078 6.32981 6.32943 6.65117 6.12813 7.0461C6.04007 7.21892 5.97344 7.45823 5.93711 7.90274C5.89993 8.35784 5.89961 8.94508 5.89961 9.8V14.2004C5.89961 15.0551 5.89994 15.6426 5.93711 16.0977C5.97342 16.5416 6.04018 16.7804 6.12813 16.9531C6.32936 17.3481 6.65084 17.6694 7.04571 17.8707C7.21853 17.9588 7.45787 18.0254 7.90235 18.0617C8.35745 18.0989 8.94469 18.1004 9.79961 18.1004H14.2C15.0547 18.1004 15.6422 18.0989 16.0973 18.0617C16.5415 18.0254 16.78 17.9587 16.9527 17.8707C17.3479 17.6694 17.669 17.3483 17.8703 16.9531C17.9583 16.7804 18.025 16.5418 18.0613 16.0977C18.0985 15.6426 18.1 15.0551 18.1 14.2004V9.8C18.1 8.94508 18.0985 8.35784 18.0613 7.90274C18.025 7.45827 17.9584 7.21892 17.8703 7.0461C17.669 6.65123 17.3477 6.32975 16.9527 6.12852C16.78 6.04057 16.5412 5.97381 16.0973 5.9375C15.6422 5.90032 15.0547 5.9 14.2 5.9H9.79961ZM12.7492 8.09961C14.2125 8.09961 15.3984 9.28603 15.3988 10.7492C15.3988 12.2128 14.2128 13.4 12.7492 13.4H11.3992V15.5C11.399 15.9969 10.9961 16.4 10.4992 16.4C10.0025 16.3998 9.59943 15.9967 9.59922 15.5V8.99961C9.59944 8.50287 10.0025 8.09983 10.4992 8.09961H12.7492ZM11.3992 11.6H12.7492C13.2187 11.6 13.5988 11.2187 13.5988 10.7492C13.5984 10.2801 13.2184 9.89961 12.7492 9.89961H11.3992V11.6Z" fill="#0D1625"/>
</svg>
