<svg width="24" height="24" viewBox="0 0 24 24" fill="none" xmlns="http://www.w3.org/2000/svg">
<path d="M12 4.79998C15.9765 4.79998 19.2 8.02353 19.2 12C19.2 15.9764 15.9765 19.2 12 19.2C8.02355 19.2 4.8 15.9764 4.8 12C4.8 8.02353 8.02355 4.79998 12 4.79998ZM3 12C3 16.9705 7.02944 21 12 21C16.9706 21 21 16.9705 21 12C21 7.02942 16.9706 2.99998 12 2.99998C7.02944 2.99998 3 7.02942 3 12ZM17.4 12C17.4 9.01768 14.9823 6.60002 12 6.60002V12H6.59998C6.59998 13.8 7.67998 17.4 12 17.4C14.9823 17.4 17.4 14.9824 17.4 12Z" fill="#0D1625"/>
</svg>
