<svg width="24" height="24" viewBox="0 0 24 24" fill="none" xmlns="http://www.w3.org/2000/svg">
<path d="M18.7488 12.6C20.2121 12.6002 21.3982 13.7864 21.3984 15.2496V16.118C21.616 16.137 21.8636 16.1807 22.1109 16.3066C22.4684 16.4888 22.7596 16.78 22.9418 17.1375C23.0716 17.3924 23.1135 17.6476 23.1316 17.8699C23.149 18.0818 23.148 18.3348 23.148 18.6V19.4004C23.148 19.6654 23.1489 19.9187 23.1316 20.1305C23.1135 20.3528 23.0716 20.6081 22.9418 20.8629C22.7596 21.2203 22.4684 21.5104 22.1109 21.6926C21.856 21.8225 21.6009 21.8654 21.3785 21.8836C21.1666 21.9009 20.9136 21.9 20.6484 21.9H16.848C16.583 21.9 16.3298 21.9009 16.118 21.8836C15.8956 21.8654 15.6404 21.8224 15.3855 21.6926C15.0283 21.5105 14.738 21.2201 14.5559 20.8629C14.426 20.6081 14.383 20.3528 14.3648 20.1305C14.3475 19.9187 14.3484 19.6654 14.3484 19.4004V18.6C14.3484 18.3348 14.3475 18.0818 14.3648 17.8699C14.383 17.6475 14.4259 17.3925 14.5559 17.1375L14.6285 17.0062C14.8111 16.7087 15.0728 16.466 15.3855 16.3066C15.6328 16.1807 15.8805 16.1371 16.098 16.118V15.2496C16.0983 13.7862 17.2854 12.6 18.7488 12.6ZM16.848 17.9004C16.5534 17.9004 16.386 17.901 16.2645 17.9109C16.228 17.9139 16.2043 17.9168 16.1906 17.9191C16.1822 17.9251 16.1745 17.932 16.1684 17.9402C16.166 17.9536 16.1621 17.9778 16.159 18.0164C16.149 18.138 16.1484 18.3051 16.1484 18.6V19.4004C16.1484 19.695 16.1491 19.8624 16.159 19.984C16.162 20.0206 16.166 20.0441 16.1684 20.0578C16.1743 20.066 16.1813 20.0728 16.1895 20.0789C16.2029 20.0813 16.2266 20.0863 16.2645 20.0895C16.386 20.0994 16.5534 20.1 16.848 20.1H20.6484C20.9433 20.1 21.1104 20.0994 21.232 20.0895C21.2698 20.0864 21.2934 20.0813 21.307 20.0789C21.3155 20.0727 21.322 20.0652 21.3281 20.0566C21.3305 20.0428 21.3346 20.0197 21.3375 19.984C21.3474 19.8624 21.348 19.695 21.348 19.4004V18.6C21.348 18.3051 21.3474 18.138 21.3375 18.0164C21.3345 17.9798 21.3305 17.9564 21.3281 17.9426C21.3215 17.9334 21.314 17.9256 21.3047 17.9191C21.2907 17.9168 21.2674 17.9138 21.232 17.9109C21.1104 17.901 20.9433 17.9004 20.6484 17.9004H16.848ZM16.9992 5.1C19.1531 5.1 20.8992 6.84609 20.8992 9V10.2C20.8992 10.6971 20.4963 11.1 19.9992 11.1C19.5025 11.0996 19.0992 10.6968 19.0992 10.2V9C19.0992 7.8402 18.159 6.9 16.9992 6.9H6.99961C5.83998 6.9002 4.89961 7.84032 4.89961 9V15C4.89961 16.1597 5.83998 17.0998 6.99961 17.1H12C12.4969 17.1002 12.9 17.5031 12.9 18C12.9 18.4969 12.4969 18.8998 12 18.9H6.99961C4.84587 18.8998 3.09961 17.1538 3.09961 15V9C3.09961 6.84621 4.84587 5.1002 6.99961 5.1H16.9992ZM18.7488 14.4C18.2795 14.4 17.8983 14.7803 17.898 15.2496V16.1004H19.5984V15.2496C19.5982 14.7805 19.218 14.4002 18.7488 14.4ZM8.4 10.8C9.06255 10.8002 9.59998 11.3374 9.6 12C9.6 12.6626 9.06256 13.1998 8.4 13.2C7.73726 13.2 7.2 12.6627 7.2 12C7.20002 11.3373 7.73727 10.8 8.4 10.8ZM12.048 10.8C12.7108 10.8 13.248 11.3373 13.248 12C13.248 12.6627 12.7108 13.2 12.048 13.2C11.3855 13.1998 10.848 12.6626 10.848 12C10.8481 11.3374 11.3855 10.8002 12.048 10.8ZM15.6973 10.8C16.36 10.8 16.8973 11.3373 16.8973 12C16.8973 12.6627 16.36 13.2 15.6973 13.2C15.0346 13.2 14.4973 12.6627 14.4973 12C14.4973 11.3373 15.0346 10.8 15.6973 10.8Z" fill="#0D1625"/>
</svg>
