<svg width="24" height="24" viewBox="0 0 24 24" fill="none" xmlns="http://www.w3.org/2000/svg">
<path d="M12.0004 3.00009C16.9708 3.00025 21.0004 7.02963 21.0004 12.0001C21.0003 16.9705 16.9708 20.9999 12.0004 21.0001C7.02984 21.0001 3.00043 16.9706 3.00037 12.0001C3.00037 7.02953 7.0298 3.00009 12.0004 3.00009ZM9.99998 8.10009C9.50314 8.10026 9.1001 8.50325 9.09998 9.00009V15.0001C9.1002 15.4969 9.50321 15.8999 9.99998 15.9001C10.4968 15.9 10.8998 15.4969 10.9 15.0001V9.00009C10.8999 8.5032 10.4969 8.10019 9.99998 8.10009ZM14.0008 8.10009C13.5038 8.10009 13.1009 8.50314 13.1008 9.00009V15.0001C13.101 15.497 13.5038 15.9001 14.0008 15.9001C14.4974 15.8997 14.9005 15.4967 14.9008 15.0001V9.00009C14.9006 8.50335 14.4974 8.10044 14.0008 8.10009Z" fill="#0D1625"/>
</svg>
