<svg width="24" height="24" viewBox="0 0 24 24" fill="none" xmlns="http://www.w3.org/2000/svg">
<path d="M13.8642 4.8637C15.3203 3.40807 17.6806 3.4078 19.1365 4.8637C20.5923 6.31961 20.5921 8.67991 19.1365 10.136L11.6365 17.636C11.5259 17.7465 11.3877 17.8268 11.2369 17.868L5.73725 19.368C5.42571 19.4529 5.09255 19.3643 4.8642 19.136C4.63585 18.9076 4.54723 18.5745 4.63217 18.2629L6.13217 12.7633L6.17084 12.652C6.21585 12.5447 6.28145 12.4465 6.3642 12.3637L13.8642 4.8637ZM6.78256 17.2164L9.26693 16.5391L7.4599 14.7321L6.78256 17.2164ZM17.8638 6.13636C17.1108 5.3834 15.89 5.38367 15.1369 6.13636L8.27318 13L11.0001 15.727L17.8638 8.86331C18.6165 8.1102 18.6167 6.88932 17.8638 6.13636Z" fill="#0D1625"/>
</svg>
