<svg width="24" height="24" viewBox="0 0 24 24" fill="none" xmlns="http://www.w3.org/2000/svg">
<path d="M9.49697 14.7787C11.8804 14.7789 14.4305 16.0422 15.9352 17.7225C16.2664 18.0925 16.2345 18.6612 15.8649 18.9928C15.4947 19.3244 14.9251 19.2939 14.5935 18.9236C13.3989 17.5898 11.3236 16.5789 9.49697 16.5787C7.67043 16.5788 5.59504 17.59 4.40048 18.9236C4.06885 19.2935 3.50033 19.3242 3.13017 18.9928C2.75991 18.6612 2.7283 18.0927 3.05986 17.7225C4.56469 16.0423 7.11368 14.7788 9.49697 14.7787Z" fill="#0D1625"/>
<path d="M9.49871 4.85234C12.0656 4.85234 14.1463 6.93315 14.1464 9.5C14.1463 12.0669 12.0656 14.1477 9.49871 14.1477C6.93207 14.1474 4.8511 12.0667 4.85106 9.5C4.85116 6.93334 6.9321 4.85265 9.49871 4.85234ZM9.49871 6.65234C7.92621 6.65265 6.65116 7.92745 6.65106 9.5C6.6511 11.0726 7.92618 12.3474 9.49871 12.3477C11.0715 12.3477 12.3463 11.0728 12.3464 9.5C12.3463 7.92727 11.0715 6.65234 9.49871 6.65234Z" fill="#0D1625"/>
<path d="M15.5009 13.85C17.5627 13.85 19.7127 15.0982 20.9618 16.7023C21.2671 17.0945 21.1967 17.6602 20.8048 17.9656C20.4125 18.271 19.8468 18.2008 19.5415 17.8086C18.5666 16.5566 16.9072 15.65 15.5009 15.65C15.0038 15.65 14.6009 15.2471 14.6009 14.75C14.6011 14.2531 15.0039 13.85 15.5009 13.85Z" fill="#0D1625"/>
<path d="M15.5005 5.82422C17.5303 5.82422 19.1765 7.47057 19.1766 9.50039C19.1763 11.5301 17.5303 13.1754 15.5005 13.1754C15.0035 13.1753 14.6005 12.7724 14.6005 12.2754C14.6007 11.7786 15.0036 11.3755 15.5005 11.3754C16.5362 11.3754 17.3763 10.536 17.3766 9.50039C17.3765 8.46468 16.5362 7.62422 15.5005 7.62422C15.0035 7.62416 14.6005 7.22124 14.6005 6.72422C14.6007 6.22736 15.0036 5.82428 15.5005 5.82422Z" fill="#0D1625"/>
</svg>
