<svg width="24" height="24" viewBox="0 0 24 24" fill="none" xmlns="http://www.w3.org/2000/svg">
<path d="M11.9998 14.8854C14.9232 14.8855 18.055 16.4956 19.8947 18.6236C20.2197 18.9997 20.1792 19.5689 19.8033 19.8939C19.4272 20.2187 18.8579 20.1773 18.533 19.8014C16.9956 18.0228 14.3428 16.6855 11.9998 16.6854C9.65649 16.6855 7.00266 18.0226 5.46538 19.8014C5.1404 20.177 4.57219 20.2186 4.19624 19.8939C3.82054 19.5689 3.77894 18.9996 4.10366 18.6236C5.94327 16.4952 9.07605 14.8855 11.9998 14.8854ZM11.9998 3.85098C14.8436 3.85098 17.1489 6.15635 17.149 9.0002C17.149 11.8441 14.8437 14.1494 11.9998 14.1494C9.15596 14.1493 6.85054 11.844 6.85054 9.0002C6.85063 6.15644 9.15601 3.85113 11.9998 3.85098ZM11.9998 5.65098C10.1501 5.65113 8.65063 7.15055 8.65054 9.0002C8.65054 10.8499 10.1501 12.3493 11.9998 12.3494C13.8496 12.3494 15.349 10.85 15.349 9.0002C15.3489 7.15046 13.8495 5.65098 11.9998 5.65098Z" fill="#0D1625"/>
</svg>
