<svg width="24" height="24" viewBox="0 0 24 24" fill="none" xmlns="http://www.w3.org/2000/svg">
<path d="M20 17.0996C20.4966 17.0999 20.8998 17.5029 20.9 17.9996C20.9 18.4965 20.4968 18.8993 20 18.8996H16.0004C15.5033 18.8996 15.1004 18.4967 15.1004 17.9996C15.1006 17.5027 15.5034 17.0996 16.0004 17.0996H20ZM12.0007 15.1004C12.9922 15.1005 13.8507 15.2465 14.58 15.4695C15.0547 15.6153 15.3217 16.1184 15.1765 16.5934C15.0312 17.0684 14.5278 17.3359 14.0527 17.191C13.4928 17.0199 12.8122 16.9005 12.0007 16.9004C10.4327 16.9004 9.34369 17.3456 8.65973 17.7664C8.31509 17.9785 8.06846 18.1882 7.91325 18.3371C7.83588 18.4114 7.78112 18.4705 7.74919 18.507C7.73539 18.5228 7.72413 18.5332 7.71872 18.5398C7.42053 18.9369 6.85759 19.0179 6.46012 18.7203C6.06264 18.422 5.98264 17.8581 6.28083 17.4605L6.93942 17.9551C6.34164 17.5067 6.28575 17.4637 6.28083 17.4594L6.28317 17.457C6.28415 17.4557 6.28552 17.4539 6.28669 17.4523C6.28897 17.4493 6.29188 17.4457 6.29489 17.4418C6.30112 17.4338 6.30901 17.424 6.31833 17.4125C6.33722 17.3891 6.36268 17.3586 6.3945 17.3223C6.45829 17.2494 6.54861 17.1517 6.66637 17.0387C6.90181 16.8127 7.24896 16.5212 7.71637 16.2336C8.65745 15.6546 10.0696 15.1004 12.0007 15.1004ZM7.71872 18.5434L7.7152 18.5469C7.71567 18.5463 7.71628 18.5449 7.71754 18.5434C7.71814 18.5426 7.7179 18.5408 7.71872 18.5398V18.5434ZM11.9996 4.1C14.7055 4.10013 16.9001 6.29368 16.9004 8.99961C16.9004 11.7057 14.7057 13.9003 11.9996 13.9004C9.29356 13.9002 7.09997 11.7057 7.09997 8.99961C7.10018 6.29373 9.29369 4.10021 11.9996 4.1ZM11.9996 5.9C10.2878 5.90021 8.90018 7.28784 8.89997 8.99961C8.89997 10.7116 10.2877 12.1002 11.9996 12.1004C13.7115 12.1003 15.1004 10.7116 15.1004 8.99961C15.1001 7.28779 13.7114 5.90013 11.9996 5.9Z" fill="#0D1625"/>
</svg>
