<svg width="24" height="24" viewBox="0 0 24 24" fill="none" xmlns="http://www.w3.org/2000/svg">
<path d="M4.36357 4.36333C4.71497 4.01203 5.28477 4.01214 5.63623 4.36333L19.6366 18.3637C19.9877 18.7152 19.9879 19.285 19.6366 19.6364C19.2853 19.9877 18.7155 19.9875 18.364 19.6364L4.36357 5.63599C4.01236 5.28449 4.01219 4.71472 4.36357 4.36333ZM12.0007 15.1C12.3886 15.1001 12.7566 15.1226 13.1046 15.1633C13.5981 15.2212 13.9522 15.6682 13.8944 16.1618C13.8366 16.6552 13.3894 17.009 12.896 16.9516C12.6179 16.919 12.3193 16.9001 12.0007 16.9C10.4325 16.9 9.34362 17.3453 8.65967 17.7661C8.31498 17.9782 8.06839 18.1878 7.91318 18.3368C7.8358 18.4111 7.78105 18.4702 7.74912 18.5067C7.73531 18.5225 7.72406 18.5329 7.71865 18.5395C7.42037 18.9367 6.85755 19.0179 6.46006 18.72C6.06258 18.4217 5.98257 17.8578 6.28076 17.4602L6.93936 17.9547C6.31982 17.4901 6.28272 17.4611 6.28076 17.459L6.28311 17.4567C6.28409 17.4554 6.28545 17.4535 6.28662 17.452C6.28891 17.449 6.29181 17.4453 6.29482 17.4415C6.30106 17.4335 6.30894 17.4237 6.31826 17.4122C6.33716 17.3888 6.36261 17.3583 6.39443 17.3219C6.45822 17.249 6.54853 17.1514 6.66631 17.0383C6.90174 16.8123 7.24885 16.5209 7.71631 16.2333C8.65739 15.6542 10.0695 15.1 12.0007 15.1ZM7.71865 18.543L7.71514 18.5465C7.7156 18.5459 7.71621 18.5446 7.71748 18.543C7.71808 18.5422 7.71784 18.5405 7.71865 18.5395V18.543ZM7.41162 10.1875C7.85994 9.9738 8.39736 10.1639 8.61162 10.6118C8.91662 11.2515 9.43628 11.7715 10.0753 12.0778C10.5236 12.2925 10.713 12.8307 10.4983 13.279C10.2837 13.727 9.7465 13.9163 9.29834 13.702C8.28825 13.2181 7.46961 12.3986 6.9874 11.3875C6.774 10.9393 6.96377 10.4017 7.41162 10.1875ZM12.0007 4.09966C14.7064 4.09996 16.8999 6.29359 16.9003 8.99927C16.9003 10.061 16.5614 11.0472 15.9862 11.8504C15.6968 12.2544 15.134 12.3472 14.73 12.0579C14.3262 11.7684 14.2332 11.2056 14.5226 10.8016C14.886 10.294 15.1003 9.6727 15.1003 8.99927C15.0999 7.28771 13.7123 5.89996 12.0007 5.89966C11.4349 5.89966 10.9063 6.05041 10.4515 6.31333C10.0212 6.56222 9.46988 6.41546 9.221 5.98521C8.97257 5.55517 9.11938 5.00483 9.54912 4.75591C10.2707 4.33856 11.1098 4.09966 12.0007 4.09966Z" fill="#0D1625"/>
</svg>
