<svg width="24" height="24" viewBox="0 0 24 24" fill="none" xmlns="http://www.w3.org/2000/svg">
<path d="M9.77926 4.1004C10.597 4.10044 11.323 4.62419 11.5816 5.4L12.5554 8.32149C12.8733 9.27577 12.3925 10.3128 11.4586 10.6863L10.7777 10.9582C11.0894 11.4714 11.4053 11.8835 11.7609 12.2391C12.1163 12.5945 12.5278 12.9108 13.0406 13.2223L13.3136 12.5414C13.6872 11.6076 14.7243 11.1268 15.6785 11.4445L18.6 12.4184C19.3757 12.6769 19.8994 13.4031 19.8996 14.2207V16.5C19.8993 18.6177 18.1315 20.488 15.8519 20.0484C13.2325 19.543 9.36918 18.2778 6.79684 15.0621C4.48642 12.1737 3.73868 9.41712 3.54606 7.48594C3.33888 5.40751 5.13068 4.1008 6.90583 4.1004H9.77926ZM6.90583 5.9004C5.86945 5.90076 5.26495 6.58837 5.33669 7.30782C5.49943 8.93891 6.13576 11.3552 8.20192 13.9383C10.3779 16.6585 13.732 17.8064 16.1929 18.2813C17.1664 18.4688 18.0993 17.6952 18.0996 16.5V14.2207C18.0994 14.1779 18.0722 14.1394 18.0316 14.1258L15.1101 13.152C15.0599 13.1353 15.0044 13.1614 14.9847 13.2106L14.3355 14.8348C14.242 15.0682 14.0549 15.2528 13.8199 15.3422C13.5847 15.4315 13.3218 15.4184 13.0968 15.3059C12.0427 14.7788 11.2031 14.2266 10.4882 13.5117C9.77349 12.7969 9.22231 11.9571 8.69528 10.9031C8.58279 10.6782 8.56969 10.4152 8.65895 10.1801C8.74841 9.94526 8.93194 9.75792 9.1652 9.66446L10.7906 9.01524C10.8393 8.9956 10.8642 8.94095 10.848 8.89102L9.87419 5.96836C9.8605 5.92774 9.82215 5.90044 9.77926 5.9004H6.90583Z" fill="#0D1625"/>
</svg>
