<svg width="24" height="24" viewBox="0 0 24 24" fill="none" xmlns="http://www.w3.org/2000/svg">
<path d="M10.609 2.40626C12.0663 2.40638 13.248 3.58801 13.248 5.04532C13.248 5.3385 13.1981 5.61972 13.1098 5.88321H13.7391C14.1381 5.88316 14.4513 5.76825 14.6473 5.58555L14.9578 5.29493C15.5107 4.77898 16.2394 4.49226 16.9957 4.4922H17.216C18.0971 4.4922 18.812 5.20721 18.8121 6.08829V7.99259C19.7709 8.95577 20.4583 10.1915 20.7469 11.575C21.6442 11.8853 22.2888 12.7355 22.2891 13.7383V15.1293C22.2891 16.3946 21.2634 17.4203 19.998 17.4203H19.8035C19.5859 17.4204 19.3229 17.5368 19.091 17.7977C18.8961 18.017 18.8122 18.2415 18.8121 18.4281V19.3024C18.8121 20.5676 17.7863 21.5933 16.5211 21.5934H14.5266C13.7219 21.5933 12.9753 21.1713 12.5613 20.4813L12.4184 20.2434C12.4034 20.2187 12.3769 20.2025 12.348 20.2024C12.3191 20.2024 12.2915 20.2185 12.2766 20.2434L12.1336 20.4813C11.7196 21.1712 10.9741 21.5932 10.1695 21.5934H8.175C6.9098 21.5932 5.88398 20.5676 5.88398 19.3024V18.952C5.88373 18.4373 5.64286 17.8922 5.22422 17.3336C4.46666 16.3227 3.97097 15.1037 3.83555 13.7793C3.50239 13.6962 3.15464 13.5415 2.83359 13.2731C2.11891 12.6751 1.71097 11.678 1.71094 10.2613C1.71094 9.76428 2.11388 9.36134 2.61094 9.36134C3.10781 9.36155 3.51094 9.76441 3.51094 10.2613C3.51096 11.1872 3.73275 11.614 3.90469 11.8094C4.33647 9.32513 6.04768 7.28104 8.33555 6.38009C8.10491 5.9882 7.97004 5.53281 7.96992 5.04532C7.96992 3.58807 9.15178 2.40647 10.609 2.40626ZM16.9957 6.29219C16.6953 6.29226 16.4056 6.40603 16.1859 6.61094L15.8754 6.90157C15.2565 7.479 14.4543 7.68316 13.7391 7.68321H10.957C7.99711 7.68335 5.597 10.0834 5.59688 13.0434C5.59695 14.2487 5.99391 15.3595 6.66445 16.2543C7.19456 16.9617 7.68374 17.8847 7.68398 18.952V19.3024C7.68398 19.5735 7.90392 19.7932 8.175 19.7934H10.1695C10.3418 19.7932 10.5016 19.7032 10.5902 19.5555L10.7332 19.3164C11.0735 18.7496 11.687 18.4024 12.348 18.4024C13.0089 18.4025 13.6214 18.7499 13.9617 19.3164L14.1059 19.5555C14.1946 19.7032 14.3543 19.7933 14.5266 19.7934H16.5211C16.7922 19.7933 17.0121 19.5735 17.0121 19.3024V18.4281C17.0122 17.6998 17.3329 17.0669 17.7457 16.6024C18.227 16.0609 18.9476 15.6204 19.8035 15.6203H19.998C20.2693 15.6203 20.4891 15.4005 20.4891 15.1293V13.7383C20.4888 13.4673 20.2691 13.2473 19.998 13.2473C19.515 13.2469 19.1167 12.8839 19.0617 12.4141C18.9063 11.0831 18.2633 9.89861 17.3121 9.04727C17.1216 8.87656 17.0121 8.63281 17.0121 8.37696V6.29219H16.9957ZM15.4781 10.9563C16.0542 10.9564 16.5211 11.4243 16.5211 12.0004C16.5209 12.5763 16.0541 13.0432 15.4781 13.0434C14.9021 13.0434 14.4354 12.5764 14.4352 12.0004C14.4352 11.4242 14.9019 10.9563 15.4781 10.9563ZM10.609 4.20626C10.1459 4.20647 9.76992 4.58218 9.76992 5.04532C9.77027 5.50817 10.1461 5.88417 10.609 5.88438C11.0719 5.88426 11.4477 5.50822 11.448 5.04532C11.448 4.58213 11.0721 4.20638 10.609 4.20626Z" fill="#0D1625"/>
</svg>
