<svg width="24" height="24" viewBox="0 0 24 24" fill="none" xmlns="http://www.w3.org/2000/svg">
<path d="M12.0003 3.1004C15.8646 3.10063 18.9001 6.42424 18.9003 10.4C18.9002 12.4347 18.034 14.2204 16.8554 15.8527C15.6868 17.4713 14.1281 19.0468 12.6566 20.6164C12.4866 20.7975 12.2488 20.8999 12.0003 20.9C11.752 20.9 11.5142 20.7974 11.3441 20.6164C9.87269 19.0469 8.31384 17.4712 7.14526 15.8527C5.96672 14.2204 5.10045 12.4347 5.10034 10.4C5.10054 6.4241 8.13587 3.1004 12.0003 3.1004ZM12.0003 4.9004C9.23764 4.9004 6.90054 7.30703 6.90034 10.4C6.90045 11.8996 7.53419 13.3155 8.60542 14.7992C9.53035 16.0801 10.7194 17.3321 12.0003 18.6875C13.2814 17.332 14.4703 16.0803 15.3953 14.7992C16.4665 13.3155 17.1002 11.8996 17.1003 10.4C17.1001 7.30718 14.7629 4.90064 12.0003 4.9004ZM12.0003 7.1C13.6018 7.10023 14.8996 8.39891 14.8996 10.0004C14.8993 11.6017 13.6016 12.8994 12.0003 12.8996C10.3988 12.8996 9.10017 11.6018 9.09995 10.0004C9.09995 8.39877 10.3987 7.1 12.0003 7.1ZM12.0003 8.9C11.3928 8.9 10.9 9.39288 10.9 10.0004C10.9002 10.6077 11.393 11.0996 12.0003 11.0996C12.6075 11.0994 13.0993 10.6076 13.0996 10.0004C13.0996 9.39302 12.6077 8.90023 12.0003 8.9Z" fill="#0D1625"/>
</svg>
