<svg width="24" height="24" viewBox="0 0 24 24" fill="none" xmlns="http://www.w3.org/2000/svg">
<path d="M6.11016 8.84103L4.68791 10.2652C3.73684 11.2149 3.73684 12.7568 4.68791 13.7065L6.11161 15.1297L7.50356 15.1231C7.81857 15.1231 8.12052 14.9978 8.38858 14.752L10.7855 12.3582C10.9609 12.1818 11.1741 12.0569 11.4017 11.9849C11.175 11.9053 10.9713 11.7774 10.806 11.6327L10.7959 11.6239L8.38848 9.21649C8.12045 8.97076 7.81854 8.84549 7.50356 8.84549L6.11016 8.84103Z" fill="#0D1625"/>
<path d="M7.48426 16.5044C8.15388 16.3582 9.16121 16.1169 9.45143 15.8267L11.8553 13.4229C11.8575 13.4206 11.8672 13.4134 11.8866 13.4134C11.9059 13.4134 11.9157 13.4206 11.9179 13.4229L14.3312 15.8361C14.6543 16.1593 15.5618 16.578 16.207 16.7872L13.7091 19.2852C12.7595 20.2097 11.2175 20.2097 10.2679 19.2852L7.48426 16.5044Z" fill="#0D1625"/>
<path d="M17.6459 15.3484L16.279 15.1325C15.9533 15.1325 15.6321 14.9995 15.3999 14.7673L12.9867 12.3541C12.8119 12.1793 12.6002 12.056 12.3733 11.9845C12.5991 11.9048 12.8024 11.777 12.9672 11.6327L12.9772 11.6239L15.3985 9.20269C15.6311 8.9728 15.9534 8.83922 16.279 8.83922L17.8664 8.84384L19.2878 10.2652C20.2374 11.2149 20.2374 12.7568 19.2878 13.7065L17.6459 15.3484Z" fill="#0D1625"/>
<path d="M16.207 7.18163L13.7091 4.68529C12.7595 3.73422 11.2175 3.73422 10.2647 4.68529L7.38972 7.56148C8.08872 7.67086 9.16263 7.83913 9.45561 8.14917L11.8553 10.5488L11.8578 10.5514C11.8652 10.5589 11.8704 10.5611 11.8704 10.5611C11.8704 10.5611 11.8721 10.5618 11.8746 10.5618C11.8783 10.5618 11.8992 10.5604 11.9312 10.5355L14.3312 8.13559C14.6548 7.81193 15.5616 7.39144 16.207 7.18163Z" fill="#0D1625"/>
</svg>
