<svg width="24" height="24" viewBox="0 0 24 24" fill="none" xmlns="http://www.w3.org/2000/svg">
<path d="M12.4629 3.01172C17.2183 3.25268 21 7.18471 21 12L20.9883 12.4629C20.7474 17.2183 16.8153 21 12 21L11.5371 20.9883C6.93498 20.7551 3.24488 17.065 3.01172 12.4629L3 12C3 7.02944 7.02944 3 12 3L12.4629 3.01172ZM7.58555 17.6859C8.80484 18.6339 10.3359 19.2 12 19.2C13.6637 19.2 15.1941 18.6336 16.4133 17.6859L11.9988 13.2715L7.58555 17.6859ZM6.31289 7.58555C5.36513 8.80476 4.8 10.3362 4.8 12C4.8 13.6635 5.36547 15.1942 6.31289 16.4133L10.7262 11.9988L6.31289 7.58555ZM13.2715 11.9988L17.6859 16.4133C18.6336 15.1941 19.2 13.6637 19.2 12C19.2 10.3359 18.6339 8.80484 17.6859 7.58555L13.2715 11.9988ZM12 4.8C10.3362 4.8 8.80475 5.36516 7.58555 6.31289L11.9988 10.7262L16.4133 6.31289C15.1942 5.36548 13.6635 4.80001 12 4.8Z" fill="#0D1625"/>
</svg>
