<svg width="24" height="24" viewBox="0 0 24 24" fill="none" xmlns="http://www.w3.org/2000/svg">
<path d="M14.8632 4.86423C16.0431 3.68434 17.956 3.68437 19.1359 4.86423C20.3158 6.04413 20.3158 7.95699 19.1359 9.13689L16.9632 11.3095C16.9681 11.3403 16.9757 11.3763 16.9832 11.4209L17.7929 16.283C17.8188 16.4381 17.8708 16.6929 17.8398 16.951C17.8155 17.1529 17.7522 17.3491 17.6546 17.5275C17.53 17.7555 17.3405 17.9331 17.2293 18.0443L16.8379 18.4357C16.6496 18.6239 16.4653 18.8089 16.3 18.9467C16.1336 19.0853 15.8898 19.26 15.5629 19.324C15.1439 19.4057 14.7088 19.3179 14.3558 19.0779C14.0803 18.8904 13.9245 18.6323 13.8261 18.4392C13.7285 18.2476 13.6331 18.0041 13.5343 17.7572L12.7961 15.9115C12.7457 15.7856 12.7032 15.6857 12.6695 15.6045C12.6067 15.6657 12.5305 15.7423 12.4351 15.8377L10.9 17.3717V18.5353C10.9 18.6636 10.9065 18.8756 10.8566 19.0838C10.8174 19.2467 10.7519 19.4025 10.6644 19.5455C10.5528 19.7276 10.4002 19.873 10.3093 19.9638L10.0351 20.2381C9.81905 20.4541 9.6135 20.6609 9.4316 20.8123C9.25398 20.96 8.98335 21.1564 8.62184 21.2119C8.17002 21.2811 7.71042 21.1532 7.35856 20.8615C7.07738 20.6281 6.94618 20.3213 6.86988 20.1033C6.79175 19.8799 6.72136 19.5959 6.64723 19.2994L6.29098 17.8697C6.27823 17.8187 6.2661 17.7783 6.25699 17.7431C6.22178 17.734 6.18141 17.7219 6.13043 17.7092L4.70191 17.3529C4.40513 17.2787 4.12041 17.2084 3.89684 17.1302C3.6789 17.054 3.37197 16.9237 3.13863 16.6427L3.03668 16.5056C2.81759 16.1756 2.72766 15.7738 2.78824 15.3783L2.81402 15.247C2.89078 14.9506 3.05851 14.724 3.18785 14.5685C3.33924 14.3866 3.54601 14.1811 3.76207 13.965L4.03629 13.692C4.10431 13.6239 4.20277 13.5203 4.32457 13.426L4.45465 13.3357L4.56363 13.2748C4.63828 13.2367 4.71599 13.2046 4.79566 13.1787L4.91637 13.1435L5.07223 13.1166C5.14852 13.1069 5.22227 13.1019 5.28902 13.1002H6.62848L8.16246 11.565C8.25786 11.4696 8.33328 11.3923 8.39449 11.3295C8.31348 11.2958 8.21391 11.2542 8.08863 11.2041L6.24293 10.4658C5.99634 10.3672 5.75356 10.2715 5.56207 10.174C5.36898 10.0756 5.10987 9.92002 4.92223 9.64431C4.68224 9.29137 4.5944 8.8562 4.67613 8.43728L4.70426 8.31892C4.78254 8.05076 4.93212 7.84584 5.05348 7.70017C5.19124 7.53482 5.37621 7.35049 5.56442 7.16228L5.95582 6.77087C6.03921 6.68747 6.15974 6.5596 6.3109 6.44861L6.47262 6.34548L6.6109 6.27869C6.70379 6.23893 6.80047 6.20767 6.89918 6.18611L7.04918 6.16033L7.2402 6.15212C7.42796 6.15456 7.60077 6.1878 7.71715 6.2072L12.5793 7.01697C12.6238 7.02438 12.6598 7.03082 12.6906 7.03572C12.713 7.01367 12.7391 6.98836 12.7714 6.95603L14.8632 4.86423ZM17.8632 6.13689C17.3863 5.66001 16.614 5.66007 16.1371 6.13689L14.0441 8.22869C13.9329 8.33992 13.7555 8.53049 13.5273 8.65525C13.3491 8.75256 13.1535 8.81484 12.9519 8.83923C12.6941 8.87027 12.4391 8.81941 12.2839 8.79353L7.42066 7.98259C7.37596 7.97514 7.34017 7.96875 7.30934 7.96384L6.6027 8.66931C6.68409 8.70312 6.78447 8.7453 6.9109 8.79587L8.75777 9.53298C9.00481 9.6318 9.24692 9.72945 9.43863 9.82712C9.63164 9.92549 9.88972 10.0802 10.0773 10.3556C10.3172 10.7084 10.4072 11.1428 10.3257 11.5615C10.2619 11.8885 10.0859 12.1333 9.94723 12.2998C9.80947 12.4651 9.62325 12.6495 9.43512 12.8377L7.96441 14.3084C7.87363 14.3992 7.7285 14.5528 7.54606 14.6646C7.40298 14.7523 7.24631 14.8176 7.08316 14.8568C6.87518 14.9066 6.66412 14.9002 6.5359 14.9002H5.46363C5.42728 14.9002 5.3984 14.8988 5.3734 14.899L5.0359 15.2377C4.92462 15.3489 4.83484 15.4379 4.76285 15.5119C4.86247 15.5382 4.98442 15.5687 5.13668 15.6068L6.56637 15.9631C6.74192 16.0069 7.03492 16.0694 7.28473 16.2291C7.47971 16.3538 7.64629 16.5204 7.77106 16.7154C7.93073 16.9652 7.99318 17.2582 8.03707 17.4338L8.39332 18.8635C8.43121 19.015 8.4608 19.1367 8.48707 19.2361C8.56099 19.1642 8.65132 19.0765 8.76246 18.9654L9.09996 18.6279V17.4642C9.09996 17.336 9.09352 17.125 9.14332 16.917C9.18249 16.7538 9.24787 16.5972 9.33551 16.4541L9.42574 16.324C9.52012 16.2022 9.62374 16.1037 9.69176 16.0357L11.1625 14.565C11.3506 14.3769 11.5351 14.1918 11.7004 14.0541C11.846 13.9327 12.051 13.7832 12.3191 13.7049L12.4386 13.6744L12.5957 13.6533C12.9116 13.6238 13.2298 13.6882 13.5086 13.8396L13.6445 13.924L13.7429 13.9967C13.9583 14.1741 14.087 14.3927 14.173 14.5615C14.2707 14.7532 14.3683 14.9954 14.4671 15.2424L15.2043 17.0892C15.2544 17.2145 15.2949 17.3141 15.3285 17.3951C15.3915 17.3337 15.4693 17.259 15.5652 17.1631L16.0363 16.6908C16.0314 16.6599 16.025 16.6242 16.0175 16.5795L15.2066 11.7162C15.1807 11.561 15.1299 11.306 15.1609 11.0482L15.1867 10.8982C15.2191 10.7501 15.2719 10.6064 15.3449 10.4728C15.4696 10.2446 15.6602 10.0673 15.7714 9.95603L17.8632 7.86306C18.3401 7.3861 18.3401 6.6138 17.8632 6.13689Z" fill="#0D1625"/>
</svg>
