<svg width="24" height="24" viewBox="0 0 24 24" fill="none" xmlns="http://www.w3.org/2000/svg">
<path d="M14.4999 2.1C16.3773 2.10021 17.8993 3.62215 17.8995 5.49961C17.8995 6.07914 17.7532 6.62395 17.4975 7.10156C17.9854 7.10121 18.3921 7.10292 18.7503 7.19883C19.751 7.46697 20.5328 8.24894 20.801 9.24961C20.9075 9.64716 20.8995 10.1057 20.8995 10.6676C20.8995 10.9194 20.9074 11.2224 20.835 11.4926C20.6979 12.0036 20.3545 12.424 19.8999 12.6691V15.9996C19.8999 18.1534 18.1536 19.8994 15.9999 19.8996H12.0237C12.0159 19.8998 12.0081 19.9008 12.0003 19.9008C11.9925 19.9008 11.9845 19.8998 11.9768 19.8996H7.99948C5.8458 19.8993 4.09948 18.1534 4.09948 15.9996V12.6691C3.64496 12.424 3.30141 12.0034 3.16433 11.4926C3.09194 11.2224 3.09985 10.9194 3.09987 10.6676C3.09987 10.1057 3.09187 9.64715 3.19831 9.24961C3.46646 8.24898 4.24849 7.46705 5.24909 7.19883C5.60673 7.103 6.01353 7.10121 6.50065 7.10156C6.2452 6.62413 6.09987 6.07885 6.09987 5.49961C6.10008 3.62218 7.62207 2.10026 9.49948 2.1C10.4895 2.1 11.3775 2.52629 11.9991 3.20156C12.6206 2.5259 13.5096 2.10014 14.4999 2.1ZM5.89948 15.9996C5.89948 17.1592 6.83991 18.0993 7.99948 18.0996H11.1003V12.9H5.89948V15.9996ZM12.9003 18.0996H15.9999C17.1595 18.0994 18.0999 17.1593 18.0999 15.9996V12.9H12.9003V18.0996ZM12.9003 11.1H18.6671C18.8298 11.1 18.9224 11.0996 18.9905 11.0965C19.0534 11.0936 19.0512 11.0896 19.0257 11.0965C19.06 11.0873 19.0866 11.0605 19.096 11.0262C19.0893 11.0513 19.0931 11.0532 19.096 10.991C19.0991 10.923 19.0995 10.8302 19.0995 10.6676C19.0995 9.99076 19.0916 9.82704 19.062 9.71601C18.9603 9.33656 18.6644 9.03971 18.285 8.93789C18.174 8.90814 18.0112 8.90039 17.3335 8.90039H12.9003V11.1ZM6.66706 8.90039C5.98983 8.90039 5.82652 8.90821 5.7155 8.93789C5.33599 9.03965 5.03907 9.33648 4.93737 9.71601C4.90777 9.82703 4.89987 9.99105 4.89987 10.6676C4.89987 10.8302 4.90029 10.923 4.90339 10.991C4.90626 11.0533 4.9101 11.0514 4.90339 11.0262C4.91268 11.0604 4.93949 11.0872 4.9737 11.0965C4.94847 11.0898 4.94714 11.0936 5.01003 11.0965C5.07811 11.0996 5.17072 11.1 5.33347 11.1H11.1003V8.90039H6.66706ZM9.49948 3.9C8.61618 3.90026 7.90008 4.61629 7.89987 5.49961C7.89987 6.3831 8.61605 7.10013 9.49948 7.10039H11.0991V5.48789C11.0926 4.60981 10.3791 3.9 9.49948 3.9ZM14.4999 3.9C13.6205 3.90026 12.9056 4.60997 12.8991 5.48789C12.8991 5.4918 12.9003 5.4957 12.9003 5.49961V7.10039H14.4999C15.3833 7.10018 16.0995 6.38313 16.0995 5.49961C16.0993 4.61626 15.3832 3.90021 14.4999 3.9Z" fill="#0D1625"/>
</svg>
