<svg width="24" height="24" viewBox="0 0 24 24" fill="none" xmlns="http://www.w3.org/2000/svg">
<path d="M14 3.1004C15.874 3.10058 17.4383 4.42243 17.8132 6.18477C19.5766 6.559 20.9 8.12551 20.9 10.0004V14C20.8997 16.1536 19.1536 17.8998 17 17.9H16.9003V17.9996C16.9003 19.6012 15.6016 20.9 14 20.9H10.0003C8.39872 20.9 7.09995 19.6012 7.09995 17.9996V17.9H7.00034C4.84656 17.9 3.10056 16.1537 3.10034 14V10.0004C3.10034 8.12604 4.4221 6.55957 6.18472 6.18477C6.55951 4.42215 8.12598 3.1004 10.0003 3.1004H14ZM8.9937 14.9012C8.94154 14.9044 8.90015 14.9467 8.89995 14.9996V17.9996C8.89995 18.6071 9.39283 19.1 10.0003 19.1H14C14.6075 19.1 15.1003 18.6071 15.1003 17.9996V14.9996C15.1002 14.9583 15.0743 14.9233 15.0382 14.9082L14.9996 14.9H9.00073C8.99847 14.9 8.99593 14.901 8.9937 14.9012ZM7.00034 7.9004C5.84054 7.9004 4.90034 8.8406 4.90034 10.0004V14C4.90056 15.1596 5.84068 16.1 7.00034 16.1H7.09995V14.9996C7.09996 14.934 7.10281 14.869 7.10933 14.8051C7.14192 14.486 7.25388 14.1905 7.42456 13.9379C7.56116 13.7357 7.73562 13.5612 7.93784 13.4246C8.24104 13.2197 8.60632 13.1002 8.99956 13.1H15.0007C15.7872 13.1003 16.4619 13.5785 16.7503 14.2602C16.7985 14.3737 16.8363 14.4928 16.8617 14.6164C16.8871 14.7404 16.9003 14.8693 16.9003 15.0008V16.1H17C18.1594 16.0998 19.0997 15.1595 19.1 14V10.0004C19.1 8.84073 18.1596 7.90061 17 7.9004H7.00034ZM17 10.0004C17.5522 10.0004 17.9996 10.4477 17.9996 11C17.9996 11.5523 17.5522 11.9996 17 11.9996C16.4477 11.9996 16.0003 11.5523 16.0003 11C16.0003 10.4477 16.4477 10.0004 17 10.0004ZM10.0003 4.9004C9.16283 4.9004 8.4414 5.3912 8.10425 6.1004H15.8949C15.5577 5.39139 14.8372 4.90055 14 4.9004H10.0003Z" fill="#0D1625"/>
</svg>
