<svg width="24" height="24" viewBox="0 0 24 24" fill="none" xmlns="http://www.w3.org/2000/svg">
<path d="M16.0231 3.35001C17.1904 3.35001 17.9882 4.52907 17.5547 5.6129L16.3711 8.57422C16.2255 8.93838 16.1508 9.32695 16.1508 9.71915C16.1508 10.4047 16.3791 11.0705 16.8 11.6117L18.2578 13.4867C19.1007 14.5705 18.3287 16.1502 16.9559 16.1504H12.6504V20C12.6504 20.359 12.359 20.6504 12 20.6504C11.6411 20.6503 11.3508 20.3589 11.3508 20V16.1504H7.04533C5.67229 16.1504 4.89924 14.5705 5.74221 13.4867L7.20119 11.6117C7.62191 11.0706 7.85038 10.4046 7.85041 9.71915C7.85041 9.32704 7.77566 8.93831 7.6301 8.57422L6.44533 5.6129C6.01184 4.52916 6.80982 3.3502 7.97697 3.35001H16.0231Z" fill="#0D1625"/>
</svg>
