<svg width="24" height="24" viewBox="0 0 24 24" fill="none" xmlns="http://www.w3.org/2000/svg">
<path d="M16.023 3.1004C17.3667 3.10072 18.2865 4.45775 17.7879 5.70547L16.6031 8.6668C16.4693 9.00137 16.4004 9.35882 16.4004 9.71915C16.4005 10.3491 16.6101 10.9621 16.9969 11.4594L18.4559 13.3344C19.4253 14.5822 18.5362 16.3996 16.9559 16.4H12.9V20C12.8998 20.4967 12.4967 20.8997 12 20.9C11.5033 20.8998 11.1002 20.4967 11.1 20V16.4H7.04531C5.46435 16.4 4.57498 14.5824 5.54531 13.3344L7.00312 11.4594C7.38989 10.9621 7.60069 10.3491 7.60078 9.71915C7.60075 9.35894 7.53176 9.00127 7.39804 8.6668L6.21328 5.70547C5.71456 4.45771 6.63321 3.10071 7.97695 3.1004H16.023ZM7.97695 4.9004C7.90649 4.90071 7.85824 4.97199 7.88437 5.0375L9.06914 7.99883C9.28782 8.54584 9.40075 9.13004 9.40078 9.71915C9.40069 10.7494 9.05712 11.7512 8.42461 12.5645L6.96562 14.4395C6.9473 14.4632 6.9442 14.4795 6.94336 14.4898C6.94236 14.5038 6.94517 14.5233 6.95508 14.5438C6.96534 14.5645 6.9796 14.5794 6.9914 14.5871C7.0002 14.5928 7.01546 14.6 7.04531 14.6H16.9559C16.9859 14.5999 17.0011 14.5928 17.0098 14.5871C17.0215 14.5793 17.0359 14.5645 17.0461 14.5438C17.0559 14.5234 17.0588 14.5038 17.0578 14.4898C17.057 14.4795 17.0527 14.4631 17.0344 14.4395L15.5766 12.5645C14.9441 11.7512 14.6005 10.7494 14.6004 9.71915C14.6004 9.12988 14.7132 8.54597 14.932 7.99883L16.1156 5.0375C16.1418 4.97197 16.0935 4.90072 16.023 4.9004H7.97695Z" fill="#0D1625"/>
</svg>
