<svg width="24" height="24" viewBox="0 0 24 24" fill="none" xmlns="http://www.w3.org/2000/svg">
<path d="M12 15.8496C12.6353 15.8496 13.1496 16.3655 13.1496 17.0004C13.1493 17.6352 12.635 18.15 12 18.15C11.3649 18.15 10.8506 17.6352 10.8503 17.0004C10.8503 16.3655 11.3646 15.8496 12 15.8496Z" fill="black"/>
<path d="M12 4.95C13.0916 4.95 14.0957 5.48477 14.8054 6.19453C15.5152 6.90429 16.05 7.90839 16.05 9C16.05 9.94295 15.8085 10.6832 15.3996 11.2852C15.0108 11.8575 14.5074 12.2446 14.1304 12.5273C13.7098 12.8428 13.4671 13.0195 13.289 13.2422C13.1536 13.4114 13.05 13.6187 13.05 14.0004C13.0497 14.58 12.5798 15.0504 12 15.0504C11.4201 15.0504 10.9502 14.58 10.95 14.0004C10.95 13.1322 11.2212 12.4637 11.6484 11.9297C12.0323 11.4498 12.5388 11.096 12.8695 10.848C13.2431 10.5678 13.4895 10.3603 13.6628 10.1051C13.8163 9.879 13.95 9.55688 13.95 9C13.95 8.59128 13.7344 8.09542 13.3195 7.68047C12.9564 7.31741 12.5315 7.10737 12.157 7.06055L12 7.05C11.4738 7.05 10.9815 7.22694 10.6347 7.53516C10.3075 7.82619 10.05 8.28522 10.05 9C10.05 9.5799 9.57985 10.05 8.99995 10.05C8.42005 10.05 7.94995 9.5799 7.94995 9C7.94995 7.71509 8.44255 6.67386 9.24019 5.96484C10.0185 5.27322 11.0264 4.95 12 4.95Z" fill="black"/>
</svg>
