<svg width="24" height="24" viewBox="0 0 24 24" fill="none" xmlns="http://www.w3.org/2000/svg">
<path d="M12 3C16.9705 3.00007 21 7.02948 21 12C21 16.9705 16.9705 20.9999 12 21C7.02944 21 3 16.9706 3 12C3 7.02944 7.02944 3 12 3ZM12 4.7998C8.02355 4.7998 4.7998 8.02355 4.7998 12C4.7998 15.9765 8.02355 19.2002 12 19.2002C15.9764 19.2001 19.2002 15.9764 19.2002 12C19.2002 8.02359 15.9764 4.79987 12 4.7998ZM12 15.1621C12.4934 15.1624 12.8934 15.562 12.8936 16.0557C12.8935 16.5494 12.4935 16.9499 12 16.9502C11.5063 16.95 11.1055 16.5493 11.1055 16.0557C11.1056 15.562 11.5064 15.1623 12 15.1621ZM12.1533 7.05469C12.8158 7.09493 13.4275 7.39044 13.9043 7.79395L14.1152 7.9873C14.6481 8.52068 15.0526 9.27832 15.0527 10.1025L15.0439 10.3613C15.0048 10.9491 14.8317 11.4274 14.5615 11.8252C14.2685 12.2563 13.8889 12.5474 13.6084 12.7578C13.2937 12.9938 13.1179 13.1225 12.9893 13.2832C12.8942 13.4021 12.8204 13.5483 12.8203 13.8232C12.82 14.2189 12.5384 14.5502 12.165 14.627L12 14.6436C11.6039 14.6433 11.2737 14.3614 11.1973 13.9883L11.1807 13.8232C11.1808 13.1689 11.3849 12.6628 11.708 12.2588C11.9973 11.8973 12.3798 11.6314 12.624 11.4482C12.9017 11.24 13.081 11.0882 13.2061 10.9043C13.3018 10.7633 13.3879 10.5672 13.4082 10.248L13.4131 10.1025C13.413 9.81106 13.258 9.44965 12.9551 9.14648C12.6901 8.88162 12.381 8.73089 12.1123 8.69727L12 8.69043C11.6167 8.69054 11.2597 8.81903 11.0098 9.04102C10.7751 9.24982 10.588 9.58117 10.5879 10.1025C10.5875 10.5547 10.2198 10.9225 9.76758 10.9229C9.37162 10.9227 9.04055 10.6409 8.96387 10.2676L8.94727 10.1025C8.94735 9.13616 9.31905 8.35058 9.9209 7.81543C10.5077 7.29404 11.2675 7.04992 12 7.0498L12.1533 7.05469Z" fill="#0D1625"/>
</svg>
