<svg width="24" height="24" viewBox="0 0 24 24" fill="none" xmlns="http://www.w3.org/2000/svg">
<path d="M10.0007 5.1004C10.4974 5.10082 10.9007 5.5036 10.9007 6.0004C10.9005 6.49701 10.4973 6.89998 10.0007 6.9004C7.73637 6.9004 5.90034 8.73642 5.90034 11.0008V12.1H7.49995C9.37754 12.1002 10.9007 13.6232 10.9007 15.5008C10.9003 17.3781 9.37728 18.9002 7.49995 18.9004C5.62263 18.9002 4.10077 17.3781 4.10034 15.5008V11.0008C4.10034 7.74231 6.74225 5.1004 10.0007 5.1004ZM19.0007 5.1004C19.4974 5.10082 19.9007 5.5036 19.9007 6.0004C19.9005 6.49701 19.4973 6.89998 19.0007 6.9004C16.7364 6.9004 14.9003 8.73642 14.9003 11.0008V12.1H16.5C18.3775 12.1002 19.9007 13.6232 19.9007 15.5008C19.9003 17.3781 18.3773 18.9002 16.5 18.9004C14.6226 18.9002 13.1008 17.3781 13.1003 15.5008V11.0008C13.1003 7.74231 15.7423 5.1004 19.0007 5.1004ZM5.90034 15.5008C5.90077 16.384 6.61674 17.1002 7.49995 17.1004C8.38316 17.1002 9.1003 16.384 9.10073 15.5008C9.10073 14.6173 8.38343 13.9002 7.49995 13.9H5.90034V15.5008ZM14.9003 15.5008C14.9008 16.384 15.6167 17.1002 16.5 17.1004C17.3832 17.1002 18.1003 16.384 18.1007 15.5008C18.1007 14.6173 17.3834 13.9002 16.5 13.9H14.9003V15.5008Z" fill="#0D1625"/>
</svg>
