<svg width="24" height="24" viewBox="0 0 24 24" fill="none" xmlns="http://www.w3.org/2000/svg">
<path d="M12 3.75194C12.4969 3.75215 12.9 4.15502 12.9 4.65194C12.9 5.14887 12.4969 5.55173 12 5.55194C8.43912 5.55214 5.55252 8.43875 5.55232 11.9996C5.55232 15.5606 8.439 18.4482 12 18.4484C15.5609 18.4482 18.4488 15.5606 18.4488 11.9996C18.449 11.5027 18.8519 11.0996 19.3488 11.0996C19.8454 11.1 20.2486 11.503 20.2488 11.9996C20.2488 16.5547 16.5551 20.2482 12 20.2484C7.44489 20.2482 3.75232 16.5547 3.75232 11.9996C3.75252 7.44464 7.44501 3.75214 12 3.75194ZM14.3988 13.3309C14.7685 12.9987 15.3369 13.0291 15.6691 13.3988C16.0013 13.7686 15.9709 14.3369 15.6011 14.6691C14.6843 15.4929 13.5239 16.1504 12 16.1504C10.4761 16.1504 9.31567 15.4929 8.3988 14.6691C8.02907 14.3369 7.99865 13.7686 8.33083 13.3988C8.66303 13.0291 9.23141 12.9987 9.60115 13.3309C10.3013 13.96 11.0525 14.3504 12 14.3504C12.9475 14.3504 13.6986 13.96 14.3988 13.3309ZM9.99958 8.64921C10.4965 8.64921 10.8993 9.0524 10.8996 9.54921V11.2414C10.8996 11.7385 10.4966 12.1414 9.99958 12.1414C9.50271 12.1412 9.09958 11.7383 9.09958 11.2414V9.54921C9.09987 9.05253 9.50288 8.64942 9.99958 8.64921ZM13.9992 8.64921C14.4961 8.64921 14.8989 9.0524 14.8992 9.54921V11.2414C14.8992 11.7385 14.4963 12.1414 13.9992 12.1414C13.5025 12.141 13.0992 11.7382 13.0992 11.2414V9.54921C13.0995 9.05266 13.5027 8.64963 13.9992 8.64921ZM17.4996 2.72304C17.9963 2.72333 18.3995 3.12625 18.3996 3.62304V5.59999H20.3754C20.8724 5.59999 21.2753 6.00302 21.2754 6.49999C21.2751 6.9968 20.8722 7.39999 20.3754 7.39999H18.3996V9.37577C18.3996 9.87265 17.9964 10.2755 17.4996 10.2758C17.0028 10.2755 16.5996 9.87264 16.5996 9.37577V7.39999H14.6226C14.126 7.39968 13.7229 6.9966 13.7226 6.49999C13.7227 6.03444 14.0768 5.65007 14.5301 5.60351L14.6226 5.59999H16.5996V3.62304C16.5997 3.12626 17.0029 2.72335 17.4996 2.72304Z" fill="#0D1625"/>
</svg>
