<svg width="24" height="24" viewBox="0 0 24 24" fill="none" xmlns="http://www.w3.org/2000/svg">
<path d="M15.0003 3.09919C17.1538 3.0994 18.8999 4.84577 18.9003 6.99919V18.8258C18.9 20.4485 16.9968 21.3239 15.7644 20.2683L14.5808 19.2535C14.5429 19.2213 14.4868 19.2229 14.4496 19.2558L13.2613 20.3222C12.5367 20.9729 11.4375 20.9705 10.716 20.3164L9.54878 19.2582C9.51159 19.2247 9.45452 19.2247 9.41636 19.257L8.23628 20.2683C7.00388 21.324 5.10065 20.4486 5.10034 18.8258V6.99919C5.10076 4.84564 6.84669 3.09919 9.00034 3.09919H15.0003ZM9.00034 4.89919C7.8408 4.89919 6.90076 5.83975 6.90034 6.99919V18.8258C6.9004 18.8567 6.90775 18.8714 6.91323 18.8797C6.92113 18.8914 6.93673 18.9058 6.95894 18.916C6.98099 18.926 7.00122 18.9282 7.01519 18.9265C7.02509 18.9253 7.04165 18.9213 7.06558 18.9008L8.24565 17.8894C8.9724 17.2673 10.0493 17.282 10.7582 17.9246L11.9253 18.9828C11.9633 19.017 12.0209 19.017 12.0589 18.9828L13.246 17.9164C13.9557 17.2793 15.0286 17.2664 15.7527 17.8871L16.9351 18.9008C16.9594 18.9215 16.9756 18.9254 16.9855 18.9265C16.9995 18.9281 17.0198 18.926 17.0417 18.916C17.0637 18.9058 17.0796 18.8913 17.0875 18.8797C17.0929 18.8713 17.1003 18.8563 17.1003 18.8258V6.99919C17.0999 5.83988 16.1597 4.8994 15.0003 4.89919H9.00034ZM13 11.0996C13.4967 11.0998 13.8997 11.5028 13.9 11.9996C13.9 12.4965 13.4968 12.8994 13 12.8996H9.00034C8.50329 12.8996 8.10034 12.4966 8.10034 11.9996C8.10056 11.5027 8.50342 11.0996 9.00034 11.0996H13ZM15.0003 7.09997C15.4972 7.10019 15.9003 7.50305 15.9003 7.99998C15.9003 8.4969 15.4972 8.89976 15.0003 8.89998H9.00034C8.50329 8.89998 8.10034 8.49703 8.10034 7.99998C8.10035 7.50292 8.50329 7.09997 9.00034 7.09997H15.0003Z" fill="#0D1625"/>
</svg>
