<svg width="24" height="24" viewBox="0 0 24 24" fill="none" xmlns="http://www.w3.org/2000/svg">
<path d="M11.9995 2.99961C16.97 2.99961 20.9993 7.02922 20.9995 11.9996C20.9995 16.9702 16.9701 20.9996 11.9995 20.9996C7.02913 20.9994 2.99951 16.97 2.99951 11.9996C2.99971 7.02935 7.02926 2.99983 11.9995 2.99961ZM11.9995 4.79961C8.02337 4.79983 4.79971 8.02347 4.79951 11.9996C4.79951 15.9759 8.02325 19.1994 11.9995 19.1996C15.976 19.1996 19.1995 15.9761 19.1995 11.9996C19.1993 8.02333 15.9758 4.79961 11.9995 4.79961ZM11.9995 6.59961C14.9817 6.59961 17.3993 9.01746 17.3995 11.9996C17.3995 14.982 14.9818 17.3996 11.9995 17.3996C9.01737 17.3994 6.59951 14.9818 6.59951 11.9996C6.59973 9.0176 9.0175 6.59984 11.9995 6.59961Z" fill="#0D1625"/>
</svg>
