<svg width="24" height="24" viewBox="0 0 24 24" fill="none" xmlns="http://www.w3.org/2000/svg">
<path d="M5.97547 8.89733C6.46674 8.82208 6.92671 9.15957 7.00203 9.65085C7.07692 10.1419 6.73953 10.6009 6.24852 10.6762L6.07157 10.7032L8.50788 13.1923C8.54474 13.2299 8.64224 13.3225 8.73171 13.4477L8.81725 13.5837L8.86999 13.6962C8.9014 13.7719 8.92581 13.8507 8.94264 13.9305L8.96257 14.0524L8.9696 14.2094C8.96749 14.3607 8.9422 14.4913 8.93327 14.5458L8.36608 18.004L11.2723 16.402C11.3278 16.3714 11.5198 16.2542 11.7411 16.2087C11.868 16.1826 11.9982 16.1768 12.1266 16.1899L12.2543 16.2087L12.4125 16.2544C12.5624 16.3078 12.6815 16.3791 12.7231 16.402L15.4348 17.8973C15.8697 18.1375 16.0275 18.6857 15.7875 19.1208C15.5473 19.5553 15.0002 19.7132 14.5653 19.4735L11.9977 18.0567L8.73405 19.8579C8.57072 19.948 8.39157 20.0485 8.23718 20.1157C8.09799 20.1763 7.80401 20.2922 7.45554 20.2247C7.05912 20.1476 6.73401 19.8904 6.55672 19.5485C6.40358 19.2528 6.41623 18.9546 6.42781 18.8008C6.44055 18.6321 6.47362 18.4277 6.50516 18.2348L7.13797 14.3653L4.46376 11.6337C4.33101 11.498 4.18735 11.352 4.08056 11.2212C3.98079 11.0988 3.80255 10.8617 3.76064 10.5309C3.71335 10.1553 3.82819 9.7684 4.08877 9.47975L4.179 9.39186C4.39313 9.2024 4.63499 9.1314 4.76845 9.09772C4.93189 9.05651 5.1335 9.02605 5.31571 8.99811L5.97547 8.89733ZM4.36415 4.36335C4.71566 4.01233 5.28548 4.01203 5.6368 4.36335L19.6371 18.3637C19.9879 18.7151 19.988 19.2851 19.6371 19.6364C19.2858 19.9877 18.716 19.9873 18.3645 19.6364L4.36415 5.63601C4.01268 5.28453 4.01268 4.71482 4.36415 4.36335ZM11.5653 3.82663C11.8449 3.72567 12.1505 3.72562 12.4301 3.82663L12.5684 3.88523L12.6774 3.94851C12.9167 4.1044 13.0508 4.32047 13.1168 4.43366C13.2018 4.57936 13.289 4.76646 13.3711 4.94108L15.0164 8.43679L18.6797 8.99811C18.8619 9.02605 19.0636 9.05651 19.227 9.09772C19.3605 9.13144 19.6024 9.20247 19.8164 9.39186L19.9066 9.47975L19.9969 9.59225C20.193 9.86467 20.2762 10.2021 20.2348 10.5309C20.1929 10.8616 20.0146 11.0988 19.9148 11.2212C19.8081 11.352 19.6644 11.498 19.5316 11.6337L17.577 13.6305C17.2293 13.985 16.6594 13.9906 16.3043 13.6434C15.9494 13.2958 15.944 12.7259 16.2914 12.3708L17.9227 10.7032L14.5946 10.1934C14.5319 10.1838 14.3092 10.1589 14.1059 10.0598C13.9526 9.98497 13.8173 9.88032 13.7063 9.75514C13.5624 9.5926 13.4773 9.39378 13.4473 9.32975L11.9965 6.25007L11.3907 7.53913C11.179 7.98848 10.6426 8.18171 10.193 7.97038C9.74342 7.75879 9.55042 7.22238 9.76178 6.77272L10.6243 4.94108C10.7065 4.7664 10.7936 4.57938 10.8786 4.43366C10.9541 4.30423 11.1177 4.04006 11.427 3.88523L11.5653 3.82663Z" fill="#0D1625"/>
</svg>
