<svg width="24" height="24" viewBox="0 0 24 24" fill="none" xmlns="http://www.w3.org/2000/svg">
<path d="M4.09963 6.37C4.09963 5.87295 4.50296 5.46961 5.00002 5.46961C5.49707 5.46961 5.90041 5.87295 5.90041 6.37C5.90041 8.04733 5.90592 8.73224 6.03322 9.27821C6.47419 11.1692 7.95078 12.6458 9.84181 13.0868C10.3878 13.2141 11.0727 13.2196 12.75 13.2196H16.8262L14.8633 11.2567C14.5118 10.9053 14.5118 10.3348 14.8633 9.98328C15.2148 9.63181 15.7853 9.63181 16.1367 9.98328L19.6367 13.4833C19.8055 13.6521 19.9004 13.8813 19.9004 14.12C19.9004 14.3587 19.8055 14.5879 19.6367 14.7567L16.1367 18.2567C15.7853 18.6082 15.2148 18.6082 14.8633 18.2567C14.5118 17.9052 14.5118 17.3348 14.8633 16.9833L16.8262 15.0204H12.75C11.1739 15.0204 10.232 15.0258 9.43361 14.8397C6.87504 14.2432 4.87686 12.245 4.28029 9.68641C4.09421 8.88803 4.09963 7.94607 4.09963 6.37Z" fill="#0D1625"/>
</svg>
