<svg width="24" height="24" viewBox="0 0 24 24" fill="none" xmlns="http://www.w3.org/2000/svg">
<path d="M4.0001 13.0996C4.49703 13.0996 4.89989 13.5027 4.9001 13.9996V14.9992C4.9001 16.159 5.8403 17.0992 7.0001 17.0992H7.82627L7.36338 16.6363C7.01223 16.285 7.01236 15.7151 7.36338 15.3637C7.7148 15.0125 8.28461 15.0125 8.63604 15.3637L10.6364 17.3629C10.9878 17.7142 10.9875 18.284 10.6364 18.6355L8.63604 20.6359C8.28455 20.9872 7.71479 20.9873 7.36338 20.6359C7.01236 20.2845 7.01223 19.7146 7.36338 19.3633L7.82744 18.8992H7.0001C4.84619 18.8992 3.1001 17.1531 3.1001 14.9992V13.9996C3.1003 13.5027 3.50317 13.0996 4.0001 13.0996ZM17.9993 13.0996C19.6008 13.0996 20.8995 14.3985 20.8997 16V17.9992C20.8997 19.6008 19.6009 20.8996 17.9993 20.8996H16.0001C14.3987 20.8994 13.0997 19.6007 13.0997 17.9992V16C13.0999 14.3987 14.3988 13.0998 16.0001 13.0996H17.9993ZM16.0001 14.8996C15.3929 14.8998 14.8999 15.3928 14.8997 16V17.9992C14.8997 18.6066 15.3928 19.0994 16.0001 19.0996H17.9993C18.6068 19.0996 19.0997 18.6067 19.0997 17.9992V16C19.0995 15.3927 18.6067 14.8996 17.9993 14.8996H16.0001ZM7.99971 3.1C9.60133 3.1 10.9001 4.39876 10.9001 6.00039V7.99961C10.9001 9.60123 9.60133 10.9 7.99971 10.9H6.00049C4.39887 10.9 3.1001 9.60123 3.1001 7.99961V6.00039C3.1001 4.39876 4.39886 3.1 6.00049 3.1H7.99971ZM15.3638 3.36367C15.7152 3.01246 16.285 3.01245 16.6364 3.36367C16.9876 3.71509 16.9876 4.2849 16.6364 4.63633L16.1724 5.10039H16.9997C19.1536 5.10039 20.8997 6.84648 20.8997 9.00039V10C20.8997 10.497 20.4968 10.9 19.9997 10.9C19.5028 10.8998 19.0997 10.4969 19.0997 10V9.00039C19.0997 7.84059 18.1595 6.90039 16.9997 6.90039H16.1735L16.6364 7.36328C16.9878 7.71462 16.9875 8.28443 16.6364 8.63594C16.2849 8.98721 15.7152 8.98734 15.3638 8.63594L13.3634 6.63672C13.0122 6.28536 13.0124 5.7155 13.3634 5.36406L15.3638 3.36367ZM6.00049 4.9C5.39298 4.9 4.9001 5.39288 4.9001 6.00039V7.99961C4.9001 8.60712 5.39298 9.1 6.00049 9.1H7.99971C8.60722 9.1 9.10009 8.60712 9.1001 7.99961V6.00039C9.1001 5.39288 8.60722 4.9 7.99971 4.9H6.00049Z" fill="#0D1625"/>
</svg>
