<svg width="24" height="24" viewBox="0 0 24 24" fill="none" xmlns="http://www.w3.org/2000/svg">
<path d="M7.36332 2.8632C7.71473 2.51205 8.28456 2.51204 8.63597 2.8632C8.98736 3.21459 8.9872 3.78436 8.63597 4.13585L7.1723 5.59952H11.9993C13.5616 5.59953 15.09 6.0628 16.3891 6.93077C17.688 7.79875 18.7009 9.0336 19.2989 10.4769C19.8965 11.9201 20.0523 13.5092 19.7477 15.0413C19.4428 16.5734 18.6901 17.9808 17.5856 19.0855C16.4809 20.1901 15.0736 20.9427 13.5414 21.2476C12.0092 21.5523 10.4203 21.3964 8.97699 20.7987C7.53361 20.2008 6.29892 19.188 5.4309 17.889C4.56297 16.5899 4.09965 15.0615 4.09965 13.4991C4.10011 13.0025 4.50288 12.5991 4.99965 12.5991C5.49641 12.5991 5.89918 13.0025 5.89965 13.4991C5.89965 14.7053 6.25739 15.8852 6.92738 16.8882C7.59752 17.8911 8.55054 18.6729 9.66488 19.1347C10.7795 19.5964 12.0066 19.7181 13.1899 19.4827C14.3731 19.2473 15.4599 18.6659 16.3129 17.8128C17.1659 16.9598 17.7475 15.8729 17.9828 14.6898C18.2181 13.5066 18.0964 12.2792 17.6348 11.1648C17.1731 10.0505 16.3912 9.09735 15.3883 8.42726C14.3853 7.75723 13.2055 7.39953 11.9993 7.39952H7.1723L8.63597 8.8632C8.98736 9.21459 8.9872 9.78436 8.63597 10.1359C8.2845 10.4873 7.71479 10.4873 7.36332 10.1359L4.36332 7.13585C4.03401 6.80632 4.0129 6.28458 4.30121 5.93117L4.36332 5.8632L7.36332 2.8632Z" fill="#0D1625"/>
</svg>
