<svg width="24" height="24" viewBox="0 0 24 24" fill="none" xmlns="http://www.w3.org/2000/svg">
<path d="M6.33102 15.0996C7.74938 15.0997 8.89958 16.2501 8.89977 17.6684C8.89961 19.0017 7.87868 20.1127 6.55016 20.2266L4.57672 20.3965C4.31244 20.4191 4.05066 20.3239 3.86305 20.1364C3.67559 19.9487 3.58024 19.687 3.6029 19.4227L3.77165 17.4493C3.88566 16.1209 4.99783 15.0999 6.33102 15.0996ZM19.0002 4.10043C19.497 4.10064 19.9002 4.5035 19.9002 5.00043C19.9001 6.82943 19.6393 8.60462 18.856 10.2036C18.1729 11.5978 17.1134 12.8099 15.5771 13.7989C15.6684 13.9962 15.7667 14.2206 15.8525 14.4633C15.9978 14.8744 16.128 15.37 16.1525 15.8789C16.1768 16.3878 16.0971 16.9764 15.7482 17.4996V17.5008C15.4451 17.9538 14.9552 18.3023 14.5142 18.5602C14.0504 18.8314 13.5283 19.0661 13.0529 19.2551C12.5741 19.4455 12.1223 19.5981 11.792 19.7028C11.6265 19.7552 11.4897 19.7966 11.3935 19.8246C11.3454 19.8387 11.3065 19.8488 11.2798 19.8563C11.2669 19.8599 11.2567 19.8636 11.2494 19.8657C11.2457 19.8667 11.2421 19.8674 11.24 19.868H11.2377L11.2365 19.8692H11.2353C10.9652 19.9424 10.6761 19.8854 10.4537 19.7157C10.2312 19.5456 10.1 19.2809 10.0998 19.0008V15.3727L8.62672 13.9008H4.99977C4.71954 13.9008 4.4552 13.7695 4.28493 13.5469C4.11473 13.3243 4.05801 13.0345 4.13141 12.7641V12.7629L4.13258 12.7606C4.13316 12.7585 4.13396 12.7548 4.13493 12.7512C4.13696 12.7439 4.13945 12.7327 4.14313 12.7196C4.1506 12.693 4.16201 12.6549 4.17594 12.6071C4.20397 12.5109 4.24537 12.3742 4.29782 12.2086C4.4025 11.8783 4.55507 11.4265 4.74547 10.9477C4.93453 10.4723 5.16912 9.94906 5.4404 9.48519C5.6983 9.04434 6.04699 8.55535 6.49977 8.25238L6.50094 8.25121C7.02769 7.90021 7.61958 7.82469 8.12985 7.85394C8.64013 7.8832 9.13565 8.0196 9.54664 8.17035C9.80004 8.26331 10.0336 8.36896 10.2369 8.46683C11.124 7.16495 12.0971 6.11197 13.3611 5.36839C14.8524 4.4913 16.6524 4.10043 19.0002 4.10043ZM6.33102 16.8996C5.93236 16.8999 5.59999 17.2056 5.56579 17.6028L5.48727 18.511L6.39665 18.4336C6.794 18.3995 7.09961 18.0672 7.09977 17.6684C7.09958 17.2442 6.75526 16.8997 6.33102 16.8996ZM14.0115 14.7012C13.3207 15.0513 12.5693 15.3567 11.8998 15.6164V17.7645C12.0556 17.7085 12.2205 17.6492 12.3873 17.5828C12.8184 17.4114 13.2501 17.2145 13.606 17.0063C13.9842 16.7851 14.1816 16.6046 14.2517 16.5C14.3177 16.4004 14.3678 16.2345 14.3548 15.9645C14.3418 15.6935 14.2678 15.3807 14.1556 15.0633C14.111 14.937 14.0609 14.8154 14.0115 14.7012ZM18.0697 5.92504C16.4163 6.01611 15.2267 6.35885 14.2728 6.91996C13.1448 7.58364 12.2478 8.60923 11.3021 10.1297L11.2963 10.1391C10.8324 10.8637 10.419 11.8456 10.0517 12.7805L11.2213 13.9489C12.1685 13.5815 13.1657 13.1674 13.9037 12.7008L13.9552 12.6703C15.6128 11.771 16.6273 10.6628 17.24 9.41254C17.7433 8.38536 17.9922 7.21994 18.0697 5.92504ZM8.02672 9.65043C7.75782 9.63503 7.59569 9.68386 7.49938 9.74769C7.39473 9.81792 7.21439 10.0163 6.99313 10.3946C6.78511 10.7503 6.58908 11.1813 6.41774 11.6121C6.35137 11.7791 6.29216 11.9449 6.2361 12.1008H8.38532C8.64485 11.44 8.94858 10.6961 9.29821 10.0137C9.18125 9.9612 9.05659 9.90784 8.92672 9.86019C8.60887 9.7436 8.29673 9.66591 8.02672 9.65043Z" fill="#0D1625"/>
</svg>
