<svg width="24" height="24" viewBox="0 0 24 24" fill="none" xmlns="http://www.w3.org/2000/svg">
<path d="M10.1397 3.94391C10.3493 3.83608 10.5956 3.81488 10.8229 3.88649C11.4903 4.09731 12.2836 4.59257 12.9487 5.09821C13.3655 5.41508 13.7834 5.77504 14.1312 6.1318C14.5431 5.90133 14.9831 5.67192 15.4015 5.47321C16.0182 5.18027 16.709 4.89253 17.1897 4.82165L17.3386 4.81227C17.6831 4.8189 18 5.02392 18.1437 5.34665C18.5162 6.18541 18.8455 7.56596 18.9886 8.86579C19.0609 9.52355 19.0906 10.1968 19.0437 10.8006C19.036 10.8986 19.0224 10.9988 19.0097 11.0994H19.2546C19.7515 11.0994 20.1543 11.5026 20.1546 11.9994C20.1545 14.7155 18.2365 16.9786 16.2862 18.2947V19.2545C16.286 19.7513 15.8832 20.1545 15.3862 20.1545H8.61748C8.12077 20.1542 7.71769 19.7512 7.71748 19.2545V18.2947C5.76754 16.9785 3.84921 14.7151 3.84912 11.9994C3.84939 11.5027 4.25245 11.0996 4.74912 11.0994H5.0585C5.02693 10.8218 5.00499 10.5184 4.99756 10.2064C4.97633 9.31111 5.05756 8.22701 5.34561 7.36227L5.40186 7.22985C5.55499 6.93638 5.86115 6.74604 6.1999 6.74587C6.47493 6.7459 6.72579 6.82487 6.90303 6.89118C7.08835 6.96056 7.28012 7.05138 7.44092 7.1279C7.49899 7.15553 7.55672 7.17982 7.61084 7.20524C7.73587 6.91804 7.88856 6.59452 8.0749 6.26423C8.50859 5.4956 9.15777 4.59179 10.0519 3.99548L10.1397 3.94391ZM5.75693 12.8994C6.13889 14.566 7.5179 16.0899 9.08154 17.0326C9.35161 17.1954 9.51731 17.4884 9.51748 17.8037V18.3545H14.4862V17.8037C14.4864 17.4885 14.6523 17.1954 14.9222 17.0326C16.4861 16.09 17.8647 14.5662 18.2468 12.8994H5.75693ZM6.86084 8.84118C6.80754 9.26213 6.78705 9.72166 6.79756 10.1642C6.80603 10.52 6.8351 10.8426 6.87373 11.0994H8.75928C8.82266 10.594 8.99926 10.1235 9.26318 9.7154C8.88088 9.51631 8.42238 9.35733 7.93076 9.24313C7.53254 9.15059 7.15396 8.97929 6.86084 8.84118ZM12.0499 9.99782C11.7077 9.99804 11.3938 10.1099 11.1405 10.3002C10.8781 10.4974 10.6849 10.7773 10.5933 11.0994H13.5077C13.416 10.7774 13.2229 10.4974 12.9604 10.3002C12.707 10.1099 12.3923 9.99782 12.0499 9.99782ZM16.1737 7.0986C15.5729 7.38398 14.9197 7.73856 14.4077 8.05368C14.1394 8.21887 13.8838 8.40434 13.6483 8.60915C13.7853 8.68456 13.9179 8.76783 14.0421 8.8611C14.7412 9.38653 15.2271 10.1856 15.3417 11.0994H17.1874C17.2111 10.9807 17.2348 10.8357 17.2483 10.6611C17.2839 10.2041 17.2649 9.64973 17.2003 9.06266C17.1119 8.25969 16.9444 7.46043 16.7632 6.83727C16.5907 6.90891 16.3921 6.99487 16.1737 7.0986ZM10.6894 5.7779C10.2855 6.14564 9.93171 6.63708 9.64287 7.14899C9.51822 7.36994 9.41248 7.58591 9.32295 7.7818C9.79657 7.9546 10.2735 8.18256 10.6976 8.4861C10.9652 8.36641 11.2515 8.28067 11.5507 8.23532C11.8595 7.81945 12.2134 7.45712 12.589 7.14548C12.3759 6.94776 12.1282 6.73619 11.8589 6.53141C11.4375 6.21109 11.0251 5.94879 10.6894 5.7779Z" fill="#0D1625"/>
</svg>
