<svg width="24" height="24" viewBox="0 0 24 24" fill="none" xmlns="http://www.w3.org/2000/svg">
<path d="M13.7581 3.5999C14.7921 3.60012 15.7843 4.01129 16.5155 4.74247L19.2577 7.48466C19.9889 8.21592 20.4002 9.20798 20.4003 10.2421V16.4999C20.4003 18.6537 18.654 20.3997 16.5003 20.3999H7.5003C5.34641 20.3999 3.60034 18.6538 3.6003 16.4999V7.4999C3.60035 5.34603 5.34643 3.5999 7.5003 3.5999H13.7581ZM9.99991 14.9003C9.39272 14.9005 8.90092 15.3923 8.90069 15.9995V18.5999H15.0999V15.9995C15.0997 15.3924 14.6077 14.9007 14.0007 14.9003H9.99991ZM7.5003 5.3999C6.34054 5.3999 5.40035 6.34014 5.4003 7.4999V16.4999C5.40033 17.523 6.13209 18.3746 7.10069 18.5612V15.9995C7.10092 14.3982 8.39861 13.1005 9.99991 13.1003H14.0007C15.6018 13.1007 16.8997 14.3983 16.8999 15.9995V18.5612C17.8683 18.3744 18.6003 17.5228 18.6003 16.4999V10.2421C18.6002 9.68537 18.3787 9.15101 17.9851 8.75732L15.9003 6.67255V8.9999C15.9002 9.4967 15.4971 9.89968 15.0003 9.8999H9.0003C8.50334 9.8999 8.10045 9.49683 8.1003 8.9999V5.3999H7.5003ZM9.9003 8.0999H14.1003V5.43036C13.9878 5.41171 13.8736 5.39994 13.7581 5.3999H9.9003V8.0999Z" fill="#0D1625"/>
</svg>
