<svg width="24" height="24" viewBox="0 0 24 24" fill="none" xmlns="http://www.w3.org/2000/svg">
<path d="M17.5006 10.0996C20.4826 10.0998 22.9003 12.5176 22.9006 15.4996C22.9006 18.4818 20.4828 20.8994 17.5006 20.8996C14.5182 20.8996 12.1006 18.4819 12.1006 15.4996C12.1008 12.5174 14.5184 10.0996 17.5006 10.0996ZM17.5006 11.8996C15.5125 11.8996 13.9008 13.5116 13.9006 15.4996C13.9006 17.4878 15.5124 19.0996 17.5006 19.0996C19.4886 19.0994 21.1006 17.4877 21.1006 15.4996C21.1003 13.5117 19.4885 11.8998 17.5006 11.8996ZM17.0002 5.10036C19.1539 5.10057 20.9002 6.84658 20.9002 9.00036C20.9 9.49712 20.4969 9.90016 20.0002 9.90036C19.5034 9.90015 19.1004 9.49711 19.1002 9.00036C19.1002 7.84069 18.1598 6.90057 17.0002 6.90036H7.00059C5.84079 6.90036 4.90059 7.84057 4.90059 9.00036V15.0004C4.9008 16.16 5.84092 17.1004 7.00059 17.1004H10.501C10.9977 17.1008 11.401 17.5036 11.401 18.0004C11.4008 18.497 10.9976 18.9 10.501 18.9004H7.00059C4.84681 18.9004 3.1008 17.1541 3.10059 15.0004V9.00036C3.10059 6.84645 4.84668 5.10036 7.00059 5.10036H17.0002ZM17.5006 13.0996C17.9973 13.0998 18.4004 13.5028 18.4006 13.9996V15.0168L19.4998 15.7504C19.9131 16.0259 20.0245 16.5849 19.7494 16.9984C19.4737 17.412 18.9149 17.5237 18.5014 17.248L17.3729 16.4957C16.8906 16.1742 16.6006 15.6326 16.6006 15.0531V13.9996C16.6008 13.5027 17.0037 13.0996 17.5006 13.0996ZM9.00098 13.0996C9.49754 13.1 9.90075 13.503 9.90098 13.9996C9.90098 14.4964 9.49768 14.8992 9.00098 14.8996H7.00059C6.50353 14.8996 6.10059 14.4966 6.10059 13.9996C6.10081 13.5027 6.50367 13.0996 7.00059 13.0996H9.00098ZM11.0002 9.09997C11.4971 9.10018 11.9002 9.50306 11.9002 9.99997C11.9002 10.4969 11.4971 10.8998 11.0002 10.9H7.00059C6.50353 10.9 6.10059 10.497 6.10059 9.99997C6.1006 9.50293 6.50354 9.09997 7.00059 9.09997H11.0002Z" fill="#0D1625"/>
</svg>
