<svg width="24" height="24" viewBox="0 0 24 24" fill="none" xmlns="http://www.w3.org/2000/svg">
<path d="M11.515 3.82754C15.7607 3.8277 19.2035 7.26941 19.2037 11.515C19.2036 13.3135 18.5827 14.9656 17.5478 16.2752L19.908 18.6354C20.2595 18.9868 20.2595 19.5565 19.908 19.908C19.5565 20.2595 18.9868 20.2595 18.6353 19.908L16.2752 17.5479C14.9655 18.5827 13.3135 19.2036 11.515 19.2037C7.26938 19.2035 3.82766 15.7607 3.82751 11.515C3.82772 7.26944 7.26942 3.82775 11.515 3.82754ZM11.515 14.8397C10.1525 14.8398 9.07626 15.3583 8.06033 16.2811C9.03081 16.9859 10.2239 17.4036 11.515 17.4037C12.8347 17.4036 14.0522 16.9677 15.0342 16.2342C14.0097 15.321 12.9136 14.8397 11.515 14.8397ZM11.515 5.62754C8.26353 5.62775 5.62772 8.26356 5.62751 11.515C5.62757 12.8251 6.05582 14.0349 6.77947 15.0131C7.37725 14.4605 8.02798 13.9918 8.75408 13.649C8.10619 12.966 7.70642 12.0455 7.70642 11.0299C7.70663 8.92653 9.41167 7.22156 11.515 7.22129C13.6184 7.22148 15.3246 8.92648 15.3248 11.0299C15.3248 12.0303 14.935 12.9375 14.3041 13.6174C15.0347 13.945 15.6907 14.3982 16.2963 14.9475C16.9915 13.9808 17.4036 12.7965 17.4037 11.515C17.4035 8.26353 14.7665 5.6277 11.515 5.62754ZM11.515 9.02129C10.4058 9.02156 9.50663 9.92064 9.50642 11.0299C9.50642 12.1393 10.4057 13.0394 11.515 13.0397C12.6244 13.0395 13.5248 12.1394 13.5248 11.0299C13.5246 9.92059 12.6243 9.02148 11.515 9.02129Z" fill="#0D1625"/>
</svg>
