<svg width="24" height="24" viewBox="0 0 24 24" fill="none" xmlns="http://www.w3.org/2000/svg">
<path d="M11.515 3.82754C15.7607 3.8277 19.2035 7.26941 19.2037 11.515C19.2036 13.3135 18.5827 14.9656 17.5478 16.2752L19.908 18.6354C20.2594 18.9868 20.2594 19.5565 19.908 19.908C19.5565 20.2595 18.9868 20.2595 18.6353 19.908L16.2752 17.5479C14.9655 18.5827 13.3135 19.2036 11.515 19.2037C7.26938 19.2035 3.82766 15.7607 3.82751 11.515C3.82772 7.26944 7.26942 3.82775 11.515 3.82754ZM11.515 5.62754C8.26353 5.62775 5.62772 8.26355 5.62751 11.515C5.62766 14.7666 8.26349 17.4035 11.515 17.4037C14.7666 17.4036 17.4035 14.7666 17.4037 11.515C17.4035 8.26353 14.7665 5.6277 11.515 5.62754Z" fill="#0D1625"/>
</svg>
