<svg width="24" height="24" viewBox="0 0 24 24" fill="none" xmlns="http://www.w3.org/2000/svg">
<path d="M9.49681 4.05793C10.6521 2.20806 13.3466 2.20807 14.5019 4.05793L15.2601 5.27316C15.4626 5.59703 15.8135 5.7987 16.1953 5.81222L17.6273 5.86261C19.8066 5.93847 21.1535 8.27096 20.1292 10.1962L19.4566 11.4607C19.2773 11.7982 19.277 12.2037 19.4566 12.5411L20.1292 13.8044C21.1533 15.7296 19.8066 18.0633 17.6273 18.1392L16.1953 18.1884C15.8133 18.2019 15.4626 18.4044 15.2601 18.7286L14.5019 19.9427C13.3465 21.792 10.652 21.7922 9.49681 19.9427L8.73861 18.7286C8.53602 18.4042 8.18569 18.2017 7.80345 18.1884L6.3726 18.1392C4.19335 18.0634 2.84683 15.7296 3.87064 13.8044L4.54213 12.5411C4.72175 12.2035 4.72166 11.7983 4.54213 11.4607L3.87064 10.1962C2.84629 8.27091 4.19316 5.93841 6.3726 5.86261L7.80345 5.81222C8.18527 5.79894 8.53592 5.59694 8.73861 5.27316L9.49681 4.05793ZM12.9749 5.01183C12.5246 4.2907 11.4741 4.2907 11.0238 5.01183L10.2656 6.22589C9.74575 7.05787 8.84601 7.57825 7.86556 7.61222L6.4347 7.66144C5.58523 7.69115 5.06042 8.60082 5.4597 9.35128L6.13236 10.6146C6.59307 11.4807 6.59305 12.5199 6.13236 13.3861L5.4597 14.6505C5.06096 15.4009 5.58542 16.3095 6.4347 16.3392L7.86556 16.3896C8.84614 16.4235 9.74578 16.9426 10.2656 17.7747L11.0238 18.99C11.4741 19.7104 12.5244 19.7101 12.9749 18.99L13.7331 17.7747C14.2528 16.9427 15.1528 16.4238 16.1331 16.3896L17.564 16.3392C18.4135 16.3097 18.939 15.401 18.5402 14.6505L17.8675 13.3861C17.4067 12.52 17.4069 11.4807 17.8675 10.6146L18.5402 9.35128C18.9395 8.6007 18.4137 7.69089 17.564 7.66144L16.1331 7.61222C15.1528 7.57805 14.2528 7.05788 13.7331 6.22589L12.9749 5.01183ZM11.9988 7.85011C14.2906 7.85011 16.1493 9.70792 16.1495 11.9997C16.1495 14.2916 14.2907 16.1505 11.9988 16.1505C9.70713 16.1501 7.84922 14.2914 7.84916 11.9997C7.84937 9.70814 9.70722 7.85047 11.9988 7.85011ZM11.9988 9.65011C10.7013 9.65047 9.64937 10.7023 9.64916 11.9997C9.64922 13.2973 10.7012 14.3501 11.9988 14.3505C13.2966 14.3505 14.3495 13.2975 14.3495 11.9997C14.3493 10.702 13.2965 9.65011 11.9988 9.65011Z" fill="#0D1625"/>
</svg>
