<svg width="24" height="24" viewBox="0 0 24 24" fill="none" xmlns="http://www.w3.org/2000/svg">
<path d="M9.57568 3.82649C10.0725 3.82661 10.4754 4.22974 10.4757 4.72649C10.4757 5.22347 10.0726 5.62637 9.57568 5.62649H7.72764C6.56801 5.62649 5.62791 6.56693 5.62764 7.72649V16.273C5.62788 17.4326 6.56799 18.373 7.72764 18.373H16.2729C17.4325 18.3729 18.3727 17.4325 18.3729 16.273V12.4843C18.3733 11.9875 18.7761 11.5843 19.2729 11.5843C19.7697 11.5844 20.1726 11.9876 20.1729 12.4843V16.273C20.1727 18.4266 18.4266 20.1729 16.2729 20.173H7.72764C5.57388 20.173 3.82788 18.4267 3.82764 16.273V7.72649C3.82791 5.57282 5.5739 3.82649 7.72764 3.82649H9.57568ZM16.7077 3.09524C17.0592 2.74378 17.6289 2.7438 17.9804 3.09524L20.9054 6.02024C21.2565 6.37174 21.2567 6.94153 20.9054 7.2929L17.9804 10.2179C17.629 10.5691 17.0592 10.569 16.7077 10.2179C16.3564 9.86646 16.3564 9.2967 16.7077 8.94524L18.0964 7.55657H14.9815C13.8218 7.55658 12.8816 8.49679 12.8815 9.65657V12.0191C12.8813 12.5159 12.4784 12.919 11.9815 12.9191C11.4846 12.9191 11.0818 12.5159 11.0815 12.0191V9.65657C11.0816 7.50268 12.8277 5.75658 14.9815 5.75657H18.0964L16.7077 4.3679C16.3563 4.01647 16.3564 3.44671 16.7077 3.09524Z" fill="#0D1625"/>
</svg>
