<svg width="24" height="24" viewBox="0 0 24 24" fill="none" xmlns="http://www.w3.org/2000/svg">
<path d="M11.6594 2.16681C11.9134 2.06303 12.2036 2.08021 12.4457 2.21837L14.2656 3.25782C15.3193 3.8599 16.4421 4.33302 17.609 4.66642L19.2473 5.13517C19.6334 5.24573 19.9 5.59836 19.9 6.00001V11.4035C19.9 13.161 19.6901 15.1998 18.4246 16.8012C17.2929 18.233 15.7891 19.4781 14.5973 20.352C13.9962 20.7927 13.4634 21.1477 13.0797 21.3926C12.8877 21.5151 12.7321 21.6107 12.6238 21.6762C12.5701 21.7087 12.5279 21.7338 12.4984 21.7512C12.4837 21.7599 12.4714 21.7663 12.4633 21.7711C12.4593 21.7734 12.4563 21.7756 12.4539 21.777C12.4527 21.7776 12.4511 21.7777 12.4504 21.7781V21.7793H12.4492C12.171 21.9398 11.8286 21.9397 11.5504 21.7793L11.9992 21L11.5492 21.7793L11.548 21.7781L11.5457 21.777C11.5434 21.7756 11.5403 21.7734 11.5363 21.7711C11.5282 21.7663 11.5159 21.7599 11.5012 21.7512C11.4716 21.7338 11.4287 21.7089 11.3746 21.6762C11.2664 21.6108 11.1117 21.515 10.9199 21.3926C10.5363 21.1477 10.0034 20.7927 9.40234 20.352C8.21044 19.478 6.70678 18.2331 5.575 16.8012C4.30933 15.1998 4.09962 13.161 4.09961 11.4035V6.00001L4.11133 5.85235C4.16745 5.51392 4.41422 5.23185 4.75234 5.13517L6.39062 4.66642C7.55763 4.33299 8.68019 3.85998 9.73398 3.25782L11.5527 2.21837L11.6594 2.16681ZM10.627 4.8211C9.44762 5.49498 8.19118 6.02412 6.88516 6.39727L5.89961 6.67852V11.4035C5.89962 13.0854 6.12015 14.5887 6.98711 15.6856C7.97299 16.9328 9.32837 18.0668 10.4664 18.9012C11.0302 19.3146 11.5302 19.6467 11.8879 19.875C11.9265 19.8996 11.9641 19.922 11.9992 19.9441C12.0345 19.9219 12.073 19.8997 12.1117 19.875C12.4694 19.6467 12.9694 19.3145 13.5332 18.9012C14.6713 18.0667 16.0266 16.9329 17.0125 15.6856C17.8795 14.5886 18.1 13.0854 18.1 11.4035V6.67852L17.1145 6.39727C15.8083 6.02409 14.5509 5.49506 13.3715 4.8211L11.9992 4.03595L10.627 4.8211Z" fill="#0D1625"/>
</svg>
