<svg width="24" height="24" viewBox="0 0 24 24" fill="none" xmlns="http://www.w3.org/2000/svg">
<path d="M10.1374 8.86402C9.78598 8.51262 9.21622 8.51275 8.86473 8.86402C8.51344 9.21551 8.51332 9.78527 8.86473 10.1367L9.82801 11.1H7.50066C7.00374 11.1 6.60088 11.5031 6.60067 12C6.60086 12.4968 7.00373 12.9 7.50066 12.9H9.82918L8.86473 13.8644C8.51344 14.2159 8.51332 14.7857 8.86473 15.1371C9.21618 15.4879 9.78609 15.4882 10.1374 15.1371L12.637 12.6363C12.8056 12.4676 12.9006 12.2384 12.9007 12C12.9006 11.7615 12.8056 11.5323 12.637 11.3636L10.1374 8.86402Z" fill="#0D1625"/>
<path d="M6.49988 4.59957C4.3465 4.6 2.60014 6.34614 2.59988 8.49957V15.4992C2.59988 17.6528 4.34634 19.3988 6.49988 19.3992H17.5003C19.6542 19.3992 21.4003 17.6531 21.4003 15.4992V8.49957C21.4 6.34588 19.654 4.59957 17.5003 4.59957H6.49988ZM15.1003 17.5992H6.49988C5.34045 17.5988 4.39988 16.6587 4.39988 15.4992V8.49957C4.40014 7.34026 5.34061 6.4 6.49988 6.39957H15.1003V17.5992ZM17.5003 6.39957C18.6599 6.39957 19.6 7.33999 19.6003 8.49957V15.4992C19.6003 16.659 18.6601 17.5992 17.5003 17.5992H16.9003V6.39957H17.5003Z" fill="#0D1625"/>
</svg>
