<svg width="24" height="24" viewBox="0 0 24 24" fill="none" xmlns="http://www.w3.org/2000/svg">
<path d="M17.5007 4.59954C19.6541 4.59996 21.4005 6.3461 21.4007 8.49954V15.4991C21.4007 17.6528 19.6543 19.3987 17.5007 19.3991H6.50034C4.34643 19.3991 2.60034 17.6531 2.60034 15.4991V8.49954C2.60059 6.34584 4.34659 4.59954 6.50034 4.59954H17.5007ZM8.90034 17.5991H17.5007C18.6602 17.5987 19.6007 16.6587 19.6007 15.4991V8.49954C19.6005 7.34022 18.66 6.39996 17.5007 6.39954H8.90034V17.5991ZM6.50034 6.39954C5.3407 6.39954 4.40059 7.33996 4.40034 8.49954V15.4991C4.40034 16.6589 5.34054 17.5991 6.50034 17.5991H7.10034V6.39954H6.50034ZM13.8632 8.86399C14.2146 8.51259 14.7844 8.51272 15.1359 8.86399C15.4872 9.21548 15.4873 9.78524 15.1359 10.1366L14.1726 11.0999H16.5C16.9969 11.0999 17.3997 11.5031 17.4 11.9999C17.3998 12.4968 16.9969 12.8999 16.5 12.8999H14.1714L15.1359 13.8644C15.4872 14.2159 15.4873 14.7856 15.1359 15.137C14.7844 15.4879 14.2145 15.4881 13.8632 15.137L11.3636 12.6363C11.195 12.4676 11.1 12.2384 11.1 11.9999C11.1001 11.7615 11.195 11.5323 11.3636 11.3636L13.8632 8.86399Z" fill="#0D1625"/>
</svg>
