<svg width="24" height="24" viewBox="0 0 24 24" fill="none" xmlns="http://www.w3.org/2000/svg">
<path d="M9.00082 5.10047C9.49752 5.1009 9.90082 5.50368 9.90082 6.00047C9.90057 6.49705 9.49736 6.90005 9.00082 6.90047H7.00043C5.84064 6.90047 4.90043 7.84068 4.90043 9.00047V15.0005C4.90068 16.1601 5.84079 17.1005 7.00043 17.1005H17C18.1596 17.1003 19.0998 16.1598 19.1 15.0005V9.00047C19.1 8.3236 18.7658 7.78866 18.3641 7.3868C18.1658 7.18851 17.9642 7.03741 17.8133 6.9368C17.7392 6.88737 17.6787 6.85117 17.6399 6.82899C17.621 6.81818 17.6063 6.8107 17.5989 6.80672C17.5962 6.80529 17.5939 6.80377 17.593 6.80321H17.5942C17.1526 6.5798 16.9745 6.0417 17.1957 5.59852C17.418 5.15399 17.9582 4.97323 18.4028 5.1954H18.4039V5.19657H18.4063L18.4098 5.19891C18.4123 5.20018 18.4159 5.20191 18.4192 5.2036C18.4263 5.20726 18.4357 5.21208 18.4461 5.21766C18.468 5.22934 18.4978 5.2457 18.5329 5.26571C18.6033 5.30599 18.6993 5.36421 18.8118 5.43915C19.0358 5.58854 19.3355 5.81288 19.6368 6.11415C20.2347 6.71228 20.9 7.67791 20.9 9.00047V15.0005C20.8998 17.1541 19.1535 18.9003 17 18.9005H7.00043C4.84668 18.9005 3.10068 17.1542 3.10043 15.0005V9.00047C3.10043 6.84656 4.84652 5.10047 7.00043 5.10047H9.00082ZM16.0004 14.1005C16.4973 14.1007 16.9004 14.5035 16.9004 15.0005C16.9002 15.4972 16.4972 15.9003 16.0004 15.9005H8.00004C7.50315 15.9005 7.10029 15.4973 7.10004 15.0005C7.10004 14.5034 7.503 14.1005 8.00004 14.1005H16.0004ZM14.2414 3.51727C14.5083 3.09803 15.0643 2.9739 15.4836 3.24071C15.9025 3.50751 16.0265 4.06372 15.7602 4.4829L12.2598 9.98368C11.993 10.4027 11.4368 10.5255 11.0176 10.2591C10.5983 9.99222 10.4742 9.43622 10.7411 9.01688L14.2414 3.51727Z" fill="#0D1625"/>
</svg>
