<svg width="24" height="24" viewBox="0 0 24 24" fill="none" xmlns="http://www.w3.org/2000/svg">
<path d="M12.001 2.1C12.4979 2.10021 12.901 2.50307 12.901 3V5.1H16.5584C17.0562 5.1 17.4687 5.09337 17.8627 5.19844C18.1882 5.28532 18.4968 5.42773 18.7733 5.62031C19.108 5.85353 19.3694 6.17382 19.6908 6.5543L21.6877 8.91914C21.971 9.2545 21.971 9.7451 21.6877 10.0805L19.6908 12.4453C19.3694 12.8258 19.108 13.1461 18.7733 13.3793C18.4968 13.5719 18.1883 13.7154 17.8627 13.8023C17.4688 13.9074 17.0561 13.8996 16.5584 13.8996H12.901V19.1004H15.001C15.4979 19.1006 15.901 19.5035 15.901 20.0004C15.9008 20.4971 15.4977 20.9002 15.001 20.9004H9.00098C8.50406 20.9004 8.1012 20.4973 8.10098 20.0004C8.10098 19.5033 8.50393 19.1004 9.00098 19.1004H11.101V13.8996H5.6002C5.33517 13.8996 5.08192 13.9005 4.87013 13.8832C4.64781 13.865 4.39253 13.8232 4.1377 13.6934C3.78025 13.5112 3.49017 13.22 3.30802 12.8625C3.1781 12.6075 3.13517 12.3525 3.117 12.1301C3.09969 11.9182 3.10059 11.6652 3.10059 11.4V7.59961C3.10059 7.33457 3.0997 7.08133 3.117 6.86953C3.13519 6.64721 3.17817 6.39195 3.30802 6.13711C3.49012 5.7799 3.7805 5.48953 4.1377 5.30742C4.39254 5.17757 4.6478 5.13459 4.87013 5.1164C5.08192 5.0991 5.33517 5.1 5.6002 5.1H11.101V3C11.101 2.50294 11.5039 2.1 12.001 2.1ZM5.6002 6.9C5.30557 6.9 5.13816 6.90061 5.01661 6.91055C4.97894 6.91364 4.95512 6.91756 4.94161 6.91992C4.93351 6.92588 4.92648 6.93292 4.92052 6.94101C4.91815 6.95452 4.91423 6.97834 4.91114 7.01601C4.90121 7.13756 4.90059 7.30497 4.90059 7.59961V11.4C4.90059 11.6949 4.90121 11.862 4.91114 11.9836C4.91421 12.0211 4.91815 12.045 4.92052 12.0586C4.92666 12.067 4.93436 12.0736 4.94278 12.0797C4.95646 12.082 4.97994 12.0861 5.01661 12.0891C5.13816 12.099 5.30557 12.0996 5.6002 12.0996H16.5584C17.1519 12.0996 17.2861 12.0932 17.3986 12.0633C17.5221 12.0303 17.6395 11.9758 17.7443 11.9027C17.8401 11.836 17.9314 11.7382 18.315 11.284L19.8221 9.49922L18.315 7.71562C17.9319 7.26206 17.8399 7.16472 17.7443 7.09805C17.6395 7.02497 17.5221 6.97046 17.3986 6.9375C17.286 6.9075 17.1522 6.9 16.5584 6.9H5.6002Z" fill="#0D1625"/>
</svg>
