<svg width="24" height="24" viewBox="0 0 24 24" fill="none" xmlns="http://www.w3.org/2000/svg">
<path d="M10.4999 12.5998C10.8639 12.5998 11.1926 12.8191 11.332 13.1553C11.4713 13.4916 11.3936 13.8787 11.1363 14.1361L5.67298 19.5994H10.4999C10.9968 19.5994 11.3996 20.0026 11.3999 20.4994C11.3999 20.9965 10.997 21.3994 10.4999 21.3994H3.50032C3.13635 21.3994 2.80757 21.1802 2.66829 20.844C2.52933 20.5078 2.60675 20.1203 2.86399 19.8631L8.32727 14.3998H3.50032C3.00332 14.3997 2.60032 13.9968 2.60032 13.4998C2.60041 13.0029 3.00338 12.5999 3.50032 12.5998H10.4999ZM20.4995 2.6002C20.8635 2.6002 21.1923 2.81939 21.3316 3.15567C21.4709 3.49198 21.3933 3.87914 21.1359 4.13653L15.6726 9.59981H20.4995C20.9965 9.59981 21.3993 10.0029 21.3995 10.4998C21.3994 10.9968 20.9965 11.3998 20.4995 11.3998H13.4999C13.1361 11.3996 12.8071 11.1805 12.6679 10.8443C12.5289 10.5083 12.6066 10.1208 12.8636 9.86349L18.3269 4.4002H13.4999C13.0032 4.39991 12.6001 3.99697 12.5999 3.5002C12.5999 3.00333 13.0031 2.60049 13.4999 2.6002H20.4995Z" fill="#0D1625"/>
</svg>
