<svg width="24" height="24" viewBox="0 0 24 24" fill="none" xmlns="http://www.w3.org/2000/svg">
<path d="M8.0001 12.1C8.49699 12.1002 8.90009 12.5031 8.9001 13L8.90009 21.0004C8.89988 21.4972 8.49686 21.9002 8.00009 21.9004C7.50317 21.9004 7.10031 21.4973 7.10009 21.0004L7.1001 13C7.1001 12.503 7.50304 12.1 8.0001 12.1ZM15.9993 19.0996C16.4962 19.0996 16.8991 19.5028 16.8993 19.9996L16.8993 20.9993C16.8993 21.4963 16.4964 21.8993 15.9993 21.8993C15.5024 21.8991 15.0993 21.4962 15.0993 20.9993L15.0993 19.9996C15.0995 19.5029 15.5026 19.0998 15.9993 19.0996ZM17.4993 13.0996C18.8247 13.0996 19.8991 14.1743 19.8993 15.4996C19.8993 16.8251 18.8248 17.8996 17.4993 17.8996L14.4993 17.8996C13.174 17.8994 12.0993 16.825 12.0993 15.4996C12.0995 14.1745 13.1741 13.0998 14.4993 13.0996L17.4993 13.0996ZM14.4993 14.8996C14.1682 14.8998 13.8995 15.1686 13.8993 15.4996C13.8993 15.8309 14.1681 16.0994 14.4993 16.0996L17.4993 16.0996C17.8307 16.0996 18.0993 15.831 18.0993 15.4996C18.0991 15.1685 17.8306 14.8996 17.4993 14.8996L14.4993 14.8996ZM15.9993 2.10043C16.4964 2.10043 16.8993 2.50337 16.8993 3.00043L16.8993 11.0008C16.8989 11.4975 16.4961 11.9008 15.9993 11.9008C15.5027 11.9006 15.0997 11.4974 15.0993 11.0008L15.0993 3.00043C15.0993 2.50349 15.5024 2.10063 15.9993 2.10043ZM9.5001 6.10004C10.8254 6.10023 11.9001 7.17468 11.9001 8.50004C11.9001 9.8254 10.8254 10.8998 9.5001 10.9L6.5001 10.9C5.17461 10.9 4.1001 9.82552 4.1001 8.50003C4.1001 7.17456 5.17462 6.10004 6.5001 6.10004L9.5001 6.10004ZM6.5001 7.90004C6.16873 7.90004 5.9001 8.16867 5.9001 8.50004C5.9001 8.83141 6.16873 9.10004 6.5001 9.10004L9.5001 9.10004C9.8313 9.09984 10.1001 8.83129 10.1001 8.50004C10.1001 8.16879 9.8313 7.90023 9.5001 7.90004L6.5001 7.90004ZM8.0001 2.10043C8.49699 2.10062 8.9001 2.50349 8.9001 3.00043L8.9001 4.00004C8.89989 4.4968 8.49686 4.89984 8.0001 4.90004C7.50317 4.90004 7.1003 4.49692 7.1001 4.00004L7.1001 3.00043C7.1001 2.50337 7.50304 2.10043 8.0001 2.10043Z" fill="#0D1625"/>
</svg>
