<svg width="24" height="24" viewBox="0 0 24 24" fill="none" xmlns="http://www.w3.org/2000/svg">
<path d="M15.9999 8.09951C16.4968 8.09951 16.8997 8.50268 16.8999 8.99951V15.8269L18.3636 14.3632C18.715 14.012 19.2848 14.0121 19.6363 14.3632C19.9877 14.7146 19.9875 15.2844 19.6363 15.6358L16.6363 18.6358C16.2848 18.9873 15.7151 18.9873 15.3636 18.6358L12.3636 15.6358C12.0124 15.2843 12.0122 14.7146 12.3636 14.3632C12.715 14.012 13.2848 14.0121 13.6363 14.3632L15.0999 15.8269V8.99951C15.1002 8.50272 15.5031 8.09956 15.9999 8.09951ZM7.36321 5.36318C7.71452 5.01188 8.28436 5.0122 8.63587 5.36318L11.6359 8.36318C11.9873 8.71465 11.9873 9.28437 11.6359 9.63584C11.2844 9.98731 10.7147 9.98731 10.3632 9.63584L8.89954 8.17217V14.9995C8.89954 15.4966 8.4966 15.8995 7.99954 15.8995C7.50271 15.8992 7.09954 15.4964 7.09954 14.9995V8.17217L5.63587 9.63584C5.2844 9.98731 4.71468 9.98731 4.36321 9.63584C4.01223 9.28433 4.0119 8.71449 4.36321 8.36318L7.36321 5.36318Z" fill="#0D1625"/>
</svg>
