<svg width="24" height="24" viewBox="0 0 24 24" fill="none" xmlns="http://www.w3.org/2000/svg">
<path d="M12 4.1C12.4969 4.10013 12.9 4.50302 12.9 5C12.9 5.49698 12.4969 5.89988 12 5.9C10.7937 5.90008 9.6139 6.2576 8.6109 6.92774C7.60795 7.59794 6.8261 8.55082 6.36442 9.66524C5.90272 10.7799 5.78217 12.007 6.01754 13.1902C6.25294 14.3734 6.83442 15.4602 7.68747 16.3133C8.54052 17.1662 9.62737 17.7479 10.8105 17.9832C11.9936 18.2184 13.2199 18.0967 14.3343 17.6352C15.4489 17.1735 16.4016 16.3917 17.0718 15.3887C17.7421 14.3856 18.1007 13.206 18.1007 11.9996C18.101 11.5027 18.5038 11.0996 19.0007 11.0996C19.4974 11.0999 19.9005 11.5029 19.9007 11.9996C19.9007 13.562 19.4375 15.0903 18.5695 16.3895C17.7015 17.6885 16.4668 18.7013 15.0234 19.2992C13.58 19.897 11.9912 20.0528 10.459 19.748C8.92664 19.4432 7.5184 18.6907 6.41364 17.5859C5.30919 16.4813 4.55758 15.0738 4.2527 13.5418C3.94791 12.0095 4.10378 10.4207 4.70153 8.97735C5.29947 7.53384 6.31217 6.2993 7.61129 5.43125C8.91029 4.56334 10.4377 4.10008 12 4.1Z" fill="#0D1625"/>
</svg>
