<svg width="24" height="24" viewBox="0 0 24 24" fill="none" xmlns="http://www.w3.org/2000/svg">
<path d="M17.3083 19.8908C17.6573 20.2446 18.2237 20.2445 18.5728 19.8908L20.9259 17.5037C21.2749 17.1499 21.2749 16.5768 20.9259 16.2229L18.5728 13.8369C18.2237 13.4831 17.6573 13.4831 17.3083 13.8369C16.9599 14.1907 16.9599 14.764 17.3083 15.1178L18.1368 15.958H13.5302C12.9068 15.9579 12.3161 15.6738 11.92 15.1858L9.76143 12.5256C9.60441 12.3322 9.42933 12.158 9.24229 12.0006C9.42952 11.8432 9.60425 11.6681 9.76143 11.4744L11.92 8.81429C12.3161 8.32632 12.9069 8.04335 13.5302 8.04319H18.1368L17.3083 8.88226C16.9599 9.23598 16.96 9.80934 17.3083 10.1631C17.6573 10.5168 18.2238 10.5168 18.5728 10.1631L20.9259 7.77718C21.2749 7.42335 21.2748 6.85021 20.9259 6.49632L18.5728 4.11038C18.2237 3.7565 17.6573 3.7565 17.3083 4.11038C16.9601 4.4642 16.9598 5.03756 17.3083 5.39124L18.1368 6.2303H13.5302C12.3722 6.23045 11.274 6.75672 10.5384 7.66351L8.38213 10.3225C7.98621 10.8104 7.39514 11.0933 6.77197 11.0936H3.74033C3.49328 11.0936 3.26939 11.1951 3.10752 11.3596C2.9459 11.5235 2.84619 11.7505 2.84619 12.0006C2.84651 12.5008 3.2469 12.9065 3.74033 12.9065H6.77197C7.39504 12.9068 7.98504 13.1898 8.38096 13.6776L10.5384 16.3366C11.274 17.2433 12.3722 17.7696 13.5302 17.7698H18.1368L17.3083 18.6088C16.9595 18.9627 16.9594 19.537 17.3083 19.8908Z" fill="#0D1625"/>
</svg>
