<svg width="24" height="24" viewBox="0 0 24 24" fill="none" xmlns="http://www.w3.org/2000/svg">
<path d="M11.4294 3.69512C11.7459 3.53691 12.1111 3.51653 12.4396 3.63535L12.5778 3.69512L12.6868 3.7584C12.9276 3.915 13.0626 4.1319 13.1298 4.24707C13.2161 4.39499 13.3046 4.58503 13.3888 4.76387L15.0716 8.34043L18.8216 8.91582C19.0079 8.94439 19.2125 8.97481 19.3782 9.0166C19.5138 9.05081 19.7572 9.1226 19.9724 9.31309L20.0626 9.40215L20.154 9.51465C20.3514 9.78878 20.4347 10.1282 20.3931 10.4592C20.3512 10.7912 20.1723 11.0296 20.0708 11.1541C19.9626 11.2868 19.8163 11.435 19.6806 11.5736L16.9431 14.3697L17.5911 18.3283C17.6234 18.5256 17.6579 18.7336 17.6708 18.9049C17.6826 19.0611 17.6956 19.3614 17.5419 19.6584C17.3636 20.0026 17.0358 20.2603 16.6372 20.3381C16.2871 20.4062 15.9912 20.2895 15.8497 20.2279C15.6931 20.1598 15.5117 20.0576 15.3446 19.9654L12.0036 18.1232L8.6626 19.9654C8.49557 20.0576 8.31413 20.1597 8.15752 20.2279C8.01609 20.2895 7.7201 20.4061 7.37002 20.3381C6.97126 20.2604 6.64368 20.0026 6.46533 19.6584C6.31134 19.361 6.32464 19.0598 6.33643 18.9037C6.34941 18.7325 6.38389 18.5254 6.41611 18.3283L7.06299 14.3697L4.32666 11.5736C4.19085 11.4349 4.04471 11.2869 3.93642 11.1541C3.83498 11.0297 3.65606 10.7915 3.61416 10.4592C3.56661 10.0811 3.68247 9.69259 3.94463 9.40215L4.03486 9.31192C4.2499 9.1219 4.49366 9.05075 4.629 9.0166C4.7947 8.97484 4.99937 8.94438 5.18564 8.91582L8.93447 8.34043L10.6185 4.76387C10.7026 4.58509 10.7912 4.39493 10.8774 4.24707C10.9543 4.11542 11.1191 3.85049 11.4294 3.69512ZM10.5071 9.22754C10.4763 9.29321 10.3909 9.4937 10.2458 9.65762C10.134 9.78383 9.99717 9.88925 9.84268 9.96465C9.63857 10.0641 9.41595 10.0882 9.35049 10.0982L5.91572 10.6244L8.42822 13.1908C8.46615 13.2296 8.5641 13.3235 8.65439 13.4498L8.73994 13.5869L8.79385 13.6994C8.82564 13.776 8.84951 13.8555 8.8665 13.9361L8.88643 14.058L8.89463 14.2162C8.89256 14.3689 8.86636 14.5008 8.85713 14.5572L8.27236 18.1244L11.2724 16.4709C11.3304 16.4389 11.5236 16.3209 11.7458 16.2752L11.8747 16.2564C12.0035 16.2434 12.1341 16.249 12.2614 16.2752C12.484 16.321 12.6772 16.4391 12.7349 16.4709L15.7337 18.1244L15.1501 14.5572C15.1378 14.482 15.096 14.2725 15.1208 14.058L15.1407 13.9361C15.1662 13.8151 15.2087 13.6974 15.2673 13.5869L15.3528 13.4498C15.4431 13.3236 15.5411 13.2295 15.579 13.1908L18.0903 10.6244L14.6567 10.0982C14.5916 10.0883 14.3689 10.0642 14.1646 9.96465C14.0099 9.88923 13.8733 9.7839 13.7614 9.65762C13.6162 9.49366 13.531 9.29324 13.5001 9.22754L12.0036 6.04707L10.5071 9.22754Z" fill="#0D1625"/>
</svg>
