<svg width="24" height="24" viewBox="0 0 24 24" fill="none" xmlns="http://www.w3.org/2000/svg">
<path d="M11.608 3.74652C11.8637 3.65409 12.1434 3.65409 12.399 3.74652L12.525 3.80023L12.6226 3.85687C12.8389 3.99742 12.9624 4.19386 13.0279 4.30609C13.111 4.44845 13.1966 4.63287 13.2818 4.8139L14.9918 8.44769L18.8033 9.03265C18.9922 9.0616 19.1902 9.09117 19.3492 9.13128C19.48 9.16428 19.7009 9.22989 19.8941 9.40082L19.9752 9.48089L20.0582 9.58441C20.2377 9.83398 20.314 10.1429 20.276 10.4448C20.2383 10.7432 20.0772 10.9602 19.9791 11.0805C19.875 11.2081 19.7337 11.3513 19.5963 11.4916L16.817 14.3295L17.4742 18.3481C17.5068 18.5476 17.5409 18.7485 17.5533 18.9135C17.5648 19.0653 17.5742 19.3372 17.4361 19.6039C17.2736 19.9176 16.976 20.1527 16.6139 20.2231C16.301 20.2838 16.0342 20.1792 15.8971 20.1196C15.7467 20.0541 15.5702 19.9561 15.401 19.8627L12.0035 17.9877L8.60605 19.8627C8.43678 19.9561 8.26033 20.0541 8.10995 20.1196C7.97281 20.1792 7.70601 20.2838 7.39316 20.2231C7.03106 20.1527 6.73343 19.9176 6.57089 19.6039C6.43278 19.3372 6.44225 19.0653 6.4537 18.9135C6.46616 18.7485 6.50017 18.5476 6.53281 18.3481L7.18906 14.3295L4.41074 11.4916C4.27333 11.3513 4.13203 11.2081 4.02792 11.0805C3.92982 10.9602 3.7687 10.7432 3.73105 10.4448C3.68761 10.0998 3.79309 9.74529 4.03183 9.48089L4.11288 9.40082C4.3061 9.22989 4.52701 9.16428 4.65781 9.13128C4.81685 9.09117 5.01486 9.0616 5.2037 9.03265L9.01425 8.44769L10.7252 4.8139C10.8104 4.63287 10.896 4.44845 10.9791 4.30609C11.0539 4.17792 11.2041 3.93932 11.482 3.80023L11.608 3.74652Z" fill="#0D1625"/>
</svg>
