<svg width="24" height="24" viewBox="0 0 24 24" fill="none" xmlns="http://www.w3.org/2000/svg">
<path d="M12 3C16.9705 3.00002 21 7.02945 21 12C21 16.9706 16.9705 21 12 21C7.02944 21 3 16.9706 3 12C3 7.02944 7.02944 3 12 3ZM12 4.8C8.02355 4.8 4.8 8.02355 4.8 12C4.8 15.9765 8.02355 19.2 12 19.2C15.9764 19.2 19.2 15.9764 19.2 12C19.2 8.02356 15.9764 4.80002 12 4.8ZM11.918 8.41992C11.97 8.39392 12.03 8.39392 12.082 8.41992C12.1418 8.44983 12.1862 8.54346 12.2742 8.73047L13.1086 10.5047C13.1346 10.5599 13.1482 10.5875 13.1672 10.609C13.184 10.6279 13.2046 10.6438 13.227 10.6547C13.2521 10.6668 13.2818 10.6716 13.3395 10.6805L15.2074 10.9664C15.4039 10.9965 15.5018 11.0121 15.5473 11.0625C15.5867 11.1062 15.6062 11.1658 15.5988 11.2254C15.5902 11.2942 15.5184 11.3672 15.3762 11.5125L14.025 12.893C13.983 12.9359 13.9613 12.9577 13.9477 12.9832C13.9356 13.0059 13.9284 13.0313 13.9254 13.057C13.922 13.0861 13.9272 13.117 13.9371 13.1777L14.2559 15.1277C14.2894 15.333 14.3062 15.4359 14.2746 15.4969C14.2471 15.5499 14.1976 15.5867 14.141 15.5977C14.076 15.61 13.9874 15.5622 13.8117 15.4652L12.1418 14.5441C12.0899 14.5155 12.0637 14.5006 12.0363 14.4949C12.0123 14.49 11.9877 14.49 11.9637 14.4949C11.9363 14.5006 11.9101 14.5155 11.8582 14.5441L10.1883 15.4652C10.0126 15.5622 9.92404 15.61 9.85898 15.5977C9.80239 15.5867 9.75289 15.5499 9.72539 15.4969C9.69382 15.4359 9.71058 15.333 9.74414 15.1277L10.0629 13.1777C10.0728 13.117 10.078 13.0861 10.0746 13.057C10.0716 13.0313 10.0644 13.0059 10.0523 12.9832C10.0387 12.9577 10.017 12.9359 9.975 12.893L8.62383 11.5125C8.48161 11.3672 8.40983 11.2942 8.40117 11.2254C8.39383 11.1658 8.41332 11.1062 8.45273 11.0625C8.49823 11.0121 8.5961 10.9965 8.79258 10.9664L10.6605 10.6805C10.7182 10.6716 10.7479 10.6668 10.773 10.6547C10.7954 10.6438 10.816 10.6279 10.8328 10.609C10.8518 10.5875 10.8654 10.5599 10.8914 10.5047L11.7258 8.73047C11.8138 8.54345 11.8582 8.44983 11.918 8.41992Z" fill="#0D1625"/>
</svg>
