<svg width="24" height="24" viewBox="0 0 24 24" fill="none" xmlns="http://www.w3.org/2000/svg">
<path d="M12.9187 5.1004C14.2501 5.10056 15.4332 5.95252 15.8542 7.21563C16.0111 7.68698 15.756 8.19748 15.2847 8.3547C14.8135 8.51156 14.3042 8.25614 14.1468 7.78516C13.9708 7.257 13.4754 6.90056 12.9187 6.9004H11.6062C10.9041 6.9004 10.2484 7.25142 9.85894 7.83556C9.38875 8.54093 9.3887 9.45989 9.85894 10.1652C10.2485 10.7491 10.9043 11.1004 11.6062 11.1004H19.0007C19.4974 11.1008 19.9007 11.5036 19.9007 12.0004C19.9005 12.497 19.4973 12.9 19.0007 12.9004H15.6785C16.5107 14.2018 16.4993 15.8744 15.6398 17.1637C14.9166 18.2485 13.6986 18.9003 12.3949 18.9004H11.0812C9.74994 18.9003 8.5681 18.048 8.14683 16.7852C7.98968 16.3137 8.24386 15.8034 8.71519 15.6461C9.18664 15.4891 9.69704 15.7442 9.85425 16.2156C10.0304 16.7436 10.5246 17.1003 11.0812 17.1004H12.3949C13.0968 17.1003 13.7527 16.7493 14.1421 16.1652C14.6123 15.46 14.6121 14.5409 14.1421 13.8356C13.7527 13.2515 13.0968 12.9005 12.3949 12.9004H5.00034C4.50342 12.9004 4.10056 12.4973 4.10034 12.0004C4.10034 11.5033 4.50329 11.1004 5.00034 11.1004H8.32261C7.48976 9.79888 7.50165 8.12666 8.36128 6.83712C9.08461 5.75223 10.3023 5.1004 11.6062 5.1004H12.9187Z" fill="#0D1625"/>
</svg>
