<svg width="24" height="24" viewBox="0 0 24 24" fill="none" xmlns="http://www.w3.org/2000/svg">
<path d="M12.9999 3.6C14.6013 3.60021 15.9002 4.89889 15.9002 6.50039V6.6H16.9995C19.1534 6.6 20.8995 8.34609 20.8995 10.5V16.5C20.8995 18.6539 19.1534 20.4 16.9995 20.4H6.99985C4.84595 20.4 3.09985 18.6539 3.09985 16.5V10.5C3.09985 8.34609 4.84595 6.6 6.99985 6.6H8.10024V6.50039C8.10024 4.89876 9.39901 3.6 11.0006 3.6H12.9999ZM4.89985 16.5C4.89985 17.6598 5.84006 18.6 6.99985 18.6H16.9995C18.1593 18.6 19.0995 17.6598 19.0995 16.5V13.4004H14.7002V15.3504C14.7 15.9851 14.1853 16.4996 13.5506 16.5H10.4499C9.81504 16.4998 9.30046 15.9852 9.30024 15.3504V13.4004H4.89985V16.5ZM11.1002 14.7H12.9002V13.4004H11.1002V14.7ZM6.99985 8.4C5.84006 8.4 4.89985 9.3402 4.89985 10.5V11.6004H19.0995V10.5C19.0995 9.3402 18.1593 8.4 16.9995 8.4H6.99985ZM11.0006 5.4C10.3931 5.4 9.90024 5.89288 9.90024 6.50039V6.6H14.1002V6.50039C14.1002 5.893 13.6072 5.40021 12.9999 5.4H11.0006Z" fill="#0D1625"/>
</svg>
