<svg width="24" height="24" viewBox="0 0 24 24" fill="none" xmlns="http://www.w3.org/2000/svg">
<path d="M15.9007 16.0003C15.9005 16.4971 15.4976 16.9002 15.0007 16.9003L8.17332 16.9003L9.63699 18.3639C9.98826 18.7154 9.9884 19.2852 9.63699 19.6366C9.28558 19.9879 8.71581 19.9878 8.36433 19.6366L5.36433 16.6366C5.01288 16.2851 5.0129 15.7154 5.36433 15.3639L8.36433 12.3639C8.71581 12.0125 9.28552 12.0125 9.63699 12.3639C9.98826 12.7154 9.9884 13.2852 9.63699 13.6366L8.17332 15.1003L15.0007 15.1003C15.4976 15.1003 15.9007 15.5033 15.9007 16.0003ZM18.637 7.36353C18.9884 7.71495 18.9883 8.28471 18.637 8.63619L15.637 11.6362C15.2855 11.9877 14.7158 11.9877 14.3643 11.6362C14.0129 11.2847 14.0129 10.715 14.3643 10.3635L15.828 8.89986L9.00066 8.89986C8.50361 8.89986 8.10066 8.49692 8.10066 7.99986C8.10074 7.50287 8.50366 7.09986 9.00066 7.09986L15.828 7.09986L14.3643 5.63619C14.0129 5.28472 14.0129 4.715 14.3643 4.36353C14.7158 4.01222 15.2856 4.01211 15.637 4.36353L18.637 7.36353Z" fill="#0D1625"/>
</svg>
