<svg width="24" height="24" viewBox="0 0 24 24" fill="none" xmlns="http://www.w3.org/2000/svg">
<path d="M18.0005 4.1004C19.6018 4.10082 20.8997 5.39943 20.8997 7.00079V17.0004C20.8995 18.6016 19.6016 19.9004 18.0005 19.9008H6.00049C4.39899 19.9008 3.10031 18.6018 3.1001 17.0004V7.00079C3.1001 5.39916 4.39886 4.1004 6.00049 4.1004H18.0005ZM4.9001 17.0004C4.90031 17.6077 5.39311 18.1008 6.00049 18.1008H11.1005V14.9004H4.9001V17.0004ZM12.9005 18.1008H18.0005C18.6075 18.1004 19.0995 17.6075 19.0997 17.0004V14.9004H12.9005V18.1008ZM4.9001 13.1004H11.1005V10.4004H4.9001V13.1004ZM12.9005 13.1004H19.0997V10.4004H12.9005V13.1004ZM6.00049 5.9004C5.39298 5.9004 4.9001 6.39327 4.9001 7.00079V8.60039H19.0997V7.00079C19.0997 6.39354 18.6076 5.90082 18.0005 5.9004H6.00049Z" fill="#0D1625"/>
</svg>
