<svg width="24" height="24" viewBox="0 0 24 24" fill="none" xmlns="http://www.w3.org/2000/svg">
<path d="M16.001 2.47031C18.2173 2.47079 19.9007 4.38752 19.901 6.60586V17.393C19.901 19.6116 18.2175 21.5292 16.001 21.5297H8.00059C5.78369 21.5297 4.10059 19.6119 4.10059 17.393V6.60586C4.10091 4.38724 5.7839 2.47031 8.00059 2.47031H16.001ZM8.00059 4.27031C6.90395 4.27031 5.9009 5.25058 5.90059 6.60586V17.393C5.90059 18.7486 6.90378 19.7297 8.00059 19.7297H16.001C17.0975 19.7292 18.101 18.7482 18.101 17.393V6.60586C18.1007 5.25092 17.0973 4.27081 16.001 4.27031H8.00059ZM12.0002 14.7C12.8286 14.7 13.5002 15.3716 13.5002 16.2C13.5002 17.0284 12.8286 17.7 12.0002 17.7C11.1718 17.7 10.5002 17.0284 10.5002 16.2C10.5002 15.3716 11.1718 14.7 12.0002 14.7Z" fill="#0D1625"/>
</svg>
