<svg width="24" height="24" viewBox="0 0 24 24" fill="none" xmlns="http://www.w3.org/2000/svg">
<path d="M16.2793 3.81543C18.426 3.82055 20.1659 5.55935 20.1709 7.70606L20.1797 11.918C20.1819 12.9721 19.7567 13.9818 19.002 14.7178L13.5234 20.0615C11.995 21.5517 9.55143 21.5358 8.04199 20.0264L3.79981 15.7852C2.2633 14.2486 2.28023 11.7525 3.83594 10.2354L9.29199 4.91406C10.0224 4.20179 11.0032 3.80349 12.0234 3.80567L16.2793 3.81543ZM12.0195 5.60547C11.4702 5.60431 10.9421 5.81867 10.5488 6.20215L5.0918 11.5234C4.25424 12.3404 4.24597 13.6844 5.07324 14.5117L9.31445 18.7539C10.1273 19.5667 11.4436 19.575 12.2666 18.7725L17.7451 13.4297C18.1516 13.0333 18.3812 12.4887 18.3799 11.9209L18.3701 7.70996C18.3672 6.55409 17.4303 5.61784 16.2744 5.61524L12.0195 5.60547ZM13.3594 8.73145C13.8863 8.20487 14.7408 8.20563 15.2676 8.73242C15.7943 9.25923 15.7951 10.1137 15.2686 10.6406C14.7417 11.1675 13.8863 11.1675 13.3594 10.6406C12.8325 10.1137 12.8325 9.25836 13.3594 8.73145Z" fill="black"/>
</svg>
