<svg width="24" height="24" viewBox="0 0 24 24" fill="none" xmlns="http://www.w3.org/2000/svg">
<path d="M12.0001 4.10056C12.497 4.10077 12.9001 4.50363 12.9001 5.00056C12.8998 5.49723 12.4968 5.90035 12.0001 5.90056C8.63145 5.90077 5.90068 8.63154 5.90046 12.0002C5.90076 15.3687 8.6315 18.1007 12.0001 18.1009C15.3686 18.1007 18.1006 15.3687 18.1009 12.0002C18.1011 11.5033 18.5039 11.1002 19.0009 11.1002C19.4974 11.1006 19.9006 11.5035 19.9009 12.0002C19.9006 16.3628 16.3628 19.9007 12.0001 19.9009C7.63739 19.9007 4.10076 16.3628 4.10046 12.0002C4.10068 7.63743 7.63733 4.10077 12.0001 4.10056ZM12.0001 7.59978C12.4969 7.59999 12.9 8.00295 12.9001 8.49978C12.9001 8.9967 12.497 9.39957 12.0001 9.39978C10.5644 9.39999 9.3998 10.5645 9.39968 12.0002C9.39989 13.4358 10.5644 14.5992 12.0001 14.5994C13.4357 14.5992 14.5991 13.4358 14.5993 12.0002C14.5994 11.5035 15.0027 11.1006 15.4993 11.1002C15.9963 11.1002 16.3992 11.5032 16.3993 12.0002C16.3991 14.4299 14.4298 16.3992 12.0001 16.3994C9.57033 16.3992 7.59989 14.4299 7.59968 12.0002C7.5998 9.57035 9.57028 7.59999 12.0001 7.59978ZM18.1442 2.11189C18.4298 2.15823 18.6758 2.33946 18.8052 2.59821L19.67 4.32907L21.402 5.19509C21.6608 5.32448 21.842 5.57049 21.8884 5.85603C21.9346 6.14154 21.8409 6.43197 21.6364 6.6365L18.6364 9.63649C18.4676 9.80522 18.2387 9.90017 18.0001 9.90017H15.3727L12.6364 12.6365C12.2849 12.9879 11.7152 12.9879 11.3637 12.6365C11.0123 12.2851 11.0124 11.7153 11.3637 11.3638L14.1001 8.62751V6.00017C14.1001 5.76151 14.195 5.53261 14.3637 5.36384L17.3637 2.36384L17.4446 2.29235C17.6411 2.13812 17.8944 2.07135 18.1442 2.11189ZM15.9001 6.37282V8.10017H17.6274L19.4802 6.24626L18.5977 5.80564C18.4236 5.71857 18.2817 5.57663 18.1946 5.40251L17.7528 4.51892L15.9001 6.37282Z" fill="#0D1625"/>
</svg>
