<svg width="24" height="24" viewBox="0 0 24 24" fill="none" xmlns="http://www.w3.org/2000/svg">
<path d="M8.1 18V6.9H3.99961C3.50255 6.9 3.09961 6.49705 3.09961 6C3.09961 5.50294 3.50255 5.1 3.99961 5.1H13.9992C14.4963 5.1 14.8992 5.50294 14.8992 6C14.8992 6.49705 14.4963 6.9 13.9992 6.9H9.9V18C9.9 18.4969 9.49688 18.8998 9 18.9C8.50294 18.9 8.1 18.4971 8.1 18ZM15.0996 18V12.9H12.9996C12.5026 12.9 12.0996 12.4971 12.0996 12C12.0996 11.5029 12.5026 11.1 12.9996 11.1H18.9996C19.4967 11.1 19.8996 11.5029 19.8996 12C19.8996 12.4971 19.4967 12.9 18.9996 12.9H16.8996V18C16.8996 18.4971 16.4967 18.9 15.9996 18.9C15.5026 18.9 15.0996 18.4971 15.0996 18Z" fill="#0D1625"/>
</svg>
