<svg width="24" height="24" viewBox="0 0 24 24" fill="none" xmlns="http://www.w3.org/2000/svg">
<path d="M7.00098 7.6004C8.60224 7.60082 9.9002 8.89942 9.9002 10.5008V15.5C9.89997 15.9967 9.49693 16.3998 9.0002 16.4C8.50346 16.3998 8.10042 15.9967 8.1002 15.5V13.4H5.90059V15.5C5.90036 15.9967 5.49732 16.3998 5.00059 16.4C4.50367 16.4 4.10081 15.9969 4.10059 15.5V10.5008C4.10059 8.89916 5.39935 7.6004 7.00098 7.6004ZM18.9998 7.6004C19.3206 7.6004 19.6181 7.77174 19.7791 8.04922C19.9396 8.32654 19.9404 8.66864 19.7814 8.94688L16.5518 14.6H18.9998C19.4967 14.6 19.8996 15.0031 19.8998 15.5C19.8996 15.9969 19.4967 16.4 18.9998 16.4H15.0002C14.6796 16.4 14.3832 16.2295 14.2221 15.9523C14.0611 15.675 14.0596 15.332 14.2186 15.0535L17.4494 9.4004H15.0002C14.5033 9.4004 14.1004 8.99726 14.1002 8.5004C14.1002 8.00334 14.5031 7.6004 15.0002 7.6004H18.9998ZM12.9998 11.6C13.4967 11.6 13.8996 12.0031 13.8998 12.5C13.8996 12.9969 13.4967 13.4 12.9998 13.4H12.0002C11.5033 13.4 11.1004 12.9969 11.1002 12.5C11.1004 12.0031 11.5033 11.6 12.0002 11.6H12.9998ZM7.00098 9.4004C6.39346 9.4004 5.90059 9.89327 5.90059 10.5008V11.6H8.1002V10.5008C8.1002 9.89353 7.60813 9.40082 7.00098 9.4004Z" fill="#0D1625"/>
</svg>
