<svg width="24" height="24" viewBox="0 0 24 24" fill="none" xmlns="http://www.w3.org/2000/svg">
<path d="M12.2885 21.1391C11.0054 21.0085 10.0035 19.9241 10.0033 18.6066V15.9348C10.0033 15.8795 9.95894 15.834 9.90371 15.834H5.74941C4.02604 15.8335 2.6832 14.3391 2.8666 12.6254L3.32598 8.33398C3.53833 6.35247 5.21089 4.85028 7.20371 4.85H18.251C19.8525 4.85 21.1512 6.14775 21.1514 7.74922V12.9348C21.151 14.5361 19.8524 15.834 18.251 15.834H17.59C17.4714 15.834 17.3544 15.845 17.2396 15.8645C17.1916 15.8777 17.1429 15.891 17.092 15.8961C16.5307 16.0336 16.0413 16.3975 15.7537 16.9156L13.8154 20.4066L13.7088 20.5707C13.4377 20.9332 13.0088 21.152 12.5486 21.152L12.2885 21.1391ZM14.1799 16.0414C14.6153 15.2571 15.2994 14.6621 16.1018 14.3305V6.65H7.20371C6.13074 6.65028 5.22973 7.45925 5.11543 8.52617L4.65605 12.8176C4.58684 13.4672 5.09614 14.0335 5.74941 14.034H9.90371C10.9531 14.034 11.8033 14.8854 11.8033 15.9348V18.6066C11.8034 18.9516 12.0393 19.2403 12.3576 19.325L14.1799 16.0414ZM18.251 14.034C18.8583 14.034 19.351 13.542 19.3514 12.9348V7.74922C19.3512 7.14187 18.8584 6.65 18.251 6.65H17.9018V14.034H18.251Z" fill="#0D1625"/>
</svg>
