<svg width="24" height="24" viewBox="0 0 24 24" fill="none" xmlns="http://www.w3.org/2000/svg">
<path d="M11.7129 2.86094C12.9959 2.99151 13.9979 4.07589 13.998 5.39336V8.06523C13.998 8.12046 14.0424 8.16601 14.0976 8.16601H18.2519C19.9753 8.1665 21.3181 9.66095 21.1347 11.3746L20.6754 15.666C20.463 17.6475 18.7904 19.1497 16.7976 19.15H5.75037C4.14886 19.15 2.85017 17.8522 2.84998 16.2508V11.0652C2.85031 9.46389 4.14895 8.16601 5.75037 8.16601H6.4113C6.52996 8.16599 6.64696 8.15501 6.76169 8.13555C6.80976 8.12233 6.85843 8.10899 6.90935 8.1039C7.47066 7.9664 7.96001 7.6025 8.24763 7.08437L10.1859 3.59336L10.2926 3.4293C10.5636 3.0668 10.9925 2.84805 11.4527 2.84805L11.7129 2.86094ZM9.82146 7.95859C9.38601 8.7429 8.70191 9.33788 7.89959 9.66953V17.35H16.7976C17.8706 17.3497 18.7716 16.5407 18.8859 15.4738L19.3453 11.1824C19.4145 10.5328 18.9052 9.9665 18.2519 9.96601H14.0976C13.0483 9.96601 12.198 9.11457 12.198 8.06523V5.39336C12.1979 5.04839 11.962 4.75971 11.6437 4.675L9.82146 7.95859ZM5.75037 9.96601C5.14306 9.96601 4.65031 10.458 4.64998 11.0652V16.2508C4.65017 16.8581 5.14297 17.35 5.75037 17.35H6.09959V9.96601H5.75037Z" fill="#0D1625"/>
</svg>
