<svg width="24" height="24" viewBox="0 0 24 24" fill="none" xmlns="http://www.w3.org/2000/svg">
<path d="M17.791 15.682C17.5921 15.682 17.4007 15.6035 17.2601 15.4629C17.1195 15.3222 17.041 15.1309 17.041 14.932V5.72695C17.041 5.31282 17.3768 4.97697 17.791 4.97695H18.2515C19.7701 4.97695 21.0017 6.20759 21.0019 7.72617V12.9316C21.0019 14.4504 19.7703 15.682 18.2515 15.682H17.791ZM12.3066 20.9988C11.0954 20.8759 10.1503 19.853 10.1503 18.6094V15.9316C10.15 15.7939 10.0373 15.6822 9.89955 15.682H5.74174C4.10742 15.6818 2.83401 14.2649 3.00775 12.6398L3.4683 8.32734C3.6723 6.42181 5.28076 4.9771 7.1972 4.97695H14.8378C15.2519 4.97713 15.5878 5.31285 15.5878 5.72695V16.0629C15.5878 16.724 15.4123 17.3732 15.0804 17.9449L13.6765 20.3637L13.5804 20.5066C13.3362 20.8224 12.9571 21.0116 12.5515 21.0117L12.3066 20.9988Z" fill="#0D1625"/>
</svg>
