<svg width="24" height="24" viewBox="0 0 24 24" fill="none" xmlns="http://www.w3.org/2000/svg">
<path d="M6.20977 8.31602C6.40842 8.31613 6.60009 8.39474 6.74063 8.53516C6.88108 8.67578 6.95977 8.86725 6.95977 9.06602V18.2512C6.95948 18.665 6.62361 19.0009 6.20977 19.0012H5.75039C4.23168 19.0012 3.00012 17.7695 3 16.2508V11.0664C3 9.54762 4.23161 8.31602 5.75039 8.31602H6.20977ZM11.4445 2.99805C12.7705 2.99805 13.8456 4.07324 13.8457 5.39922V8.06523C13.8457 8.20325 13.9585 8.31592 14.0965 8.31602H18.2496C19.884 8.31623 21.1574 9.73315 20.9836 11.3582L20.5242 15.6496C20.3201 17.5552 18.7118 19 16.7953 19H9.16055C8.74642 18.9999 8.41055 18.6642 8.41055 18.25V7.94102C8.41059 7.2789 8.5863 6.62785 8.91914 6.05547L10.3207 3.64492C10.5534 3.24477 10.9816 2.99823 11.4445 2.99805Z" fill="#0D1625"/>
</svg>
