<svg width="24" height="24" viewBox="0 0 24 24" fill="none" xmlns="http://www.w3.org/2000/svg">
<path d="M14.0004 2.85C14.4971 2.85047 14.9004 3.25323 14.9004 3.75C14.9002 4.24655 14.497 4.64953 14.0004 4.65H12.9001V4.87617C16.9874 5.32438 20.168 8.78827 20.168 12.9949C20.1675 17.5053 16.5105 21.1627 12.0001 21.1629C7.48949 21.1629 3.83265 17.5054 3.83209 12.9949C3.83209 8.78819 7.01262 5.32427 11.1001 4.87617V4.65H9.99967C9.50282 4.64993 9.09991 4.2468 9.09967 3.75C9.09967 3.25298 9.50267 2.85007 9.99967 2.85H14.0004ZM12.1758 6.63047C12.1189 6.64177 12.0603 6.64919 12.0001 6.64922C11.9394 6.64921 11.8804 6.64191 11.8231 6.63047C8.38813 6.72425 5.63209 9.5373 5.63209 12.9949C5.63265 16.5113 8.48361 19.3629 12.0001 19.3629C15.5164 19.3627 18.3675 16.5111 18.368 12.9949C18.368 9.53699 15.6113 6.72377 12.1758 6.63047ZM12.0001 9.6C12.4968 9.60018 12.8998 10.0033 12.9001 10.5V12.627L15.136 14.8629C15.4873 15.2142 15.4871 15.784 15.136 16.1355C14.7845 16.487 14.2148 16.487 13.8633 16.1355L11.3637 13.6359C11.3252 13.5974 11.2907 13.5561 11.2606 13.5129C11.2571 13.5079 11.2534 13.5027 11.2501 13.4977C11.2389 13.4808 11.2319 13.4612 11.2219 13.4437C11.2031 13.4109 11.1838 13.3782 11.1692 13.343C11.1603 13.3214 11.1553 13.2983 11.1481 13.2762C11.1197 13.1887 11.0989 13.0965 11.0989 12.9996L11.1001 10.5C11.1003 10.0032 11.5032 9.6 12.0001 9.6ZM5.22779 4.61367C5.57917 4.26232 6.14896 4.2625 6.50045 4.61367C6.85144 4.96517 6.85174 5.53501 6.50045 5.88633L5.63678 6.75117L4.77193 7.61484C4.42062 7.96612 3.85077 7.96583 3.49928 7.61484C3.14812 7.26336 3.14794 6.69356 3.49928 6.34219L4.36295 5.47734L5.22779 4.61367ZM17.4997 4.61367C17.8511 4.26246 18.4209 4.26238 18.7723 4.61367L19.6372 5.47734L20.5008 6.34219C20.8518 6.69362 20.8519 7.26351 20.5008 7.61484C20.1495 7.96612 19.5797 7.96583 19.2282 7.61484L18.3633 6.75117L17.4997 5.88633C17.1483 5.53486 17.1483 4.96511 17.4997 4.61367Z" fill="#0D1625"/>
</svg>
