<svg width="24" height="24" viewBox="0 0 24 24" fill="none" xmlns="http://www.w3.org/2000/svg">
<path d="M11.9993 11.0996C12.4963 11.0996 12.8991 11.5027 12.8993 11.9996V20C12.8991 20.4969 12.4962 20.9 11.9993 20.9C11.5026 20.8998 11.0995 20.4968 11.0993 20V11.9996C11.0995 11.5029 11.5026 11.0998 11.9993 11.0996ZM7.99971 16.1C8.49676 16.1 8.89971 16.503 8.89971 17V19.0004C8.89948 19.4973 8.49662 19.9004 7.99971 19.9004C7.50279 19.9004 7.09993 19.4973 7.09971 19.0004V17C7.09971 16.5029 7.50265 16.1 7.99971 16.1ZM16.0001 14.0996C16.4968 14.0998 16.8999 14.5029 16.9001 14.9996V19.0004C16.8999 19.4971 16.4968 19.9002 16.0001 19.9004C15.5032 19.9004 15.1003 19.4973 15.1001 19.0004V14.9996C15.1003 14.5027 15.5032 14.0996 16.0001 14.0996ZM4.0001 11.1008C4.49697 11.101 4.9001 11.5039 4.9001 12.0008V16.0004C4.89987 16.4971 4.49683 16.9002 4.0001 16.9004C3.50318 16.9004 3.10032 16.4973 3.1001 16.0004V12.0008C3.1001 11.5037 3.50304 11.1008 4.0001 11.1008ZM18.4786 7.22188C18.9089 6.97309 19.4602 7.11979 19.7091 7.55C20.4666 8.85982 20.8997 10.3815 20.8997 12.0008V16.0004C20.8995 16.4971 20.4964 16.9002 19.9997 16.9004C19.503 16.9002 19.0999 16.4971 19.0997 16.0004V12.0008C19.0997 10.7063 18.7539 9.49447 18.1505 8.45118C17.9018 8.02115 18.0489 7.47094 18.4786 7.22188ZM11.9993 7.1C13.8141 7.10001 15.398 8.08696 16.2438 9.54922C16.4632 9.92848 16.6334 10.3409 16.7454 10.7762C16.8689 11.2572 16.5795 11.7479 16.0985 11.8719C15.6172 11.9958 15.1256 11.7052 15.0017 11.2238C14.9311 10.9498 14.8238 10.69 14.6853 10.4504C14.1478 9.52163 13.1455 8.90001 11.9993 8.9C10.2875 8.90022 8.89992 10.2878 8.89971 11.9996V13.0004C8.89948 13.4973 8.49662 13.9004 7.99971 13.9004C7.50279 13.9004 7.09993 13.4973 7.09971 13.0004V11.9996C7.09992 9.29373 9.29343 7.10022 11.9993 7.1ZM12.0005 3.1004C13.5631 3.10053 15.0348 3.50439 16.313 4.21368C16.747 4.45504 16.9043 5.00275 16.6634 5.43711C16.4223 5.87131 15.8744 6.0279 15.4399 5.7875C14.4221 5.2227 13.2498 4.90053 12.0005 4.9004C9.32851 4.9004 6.9997 6.37627 5.78721 8.56133C5.54612 8.99544 4.99816 9.15212 4.56377 8.91172C4.12931 8.67064 3.9726 8.12283 4.21338 7.68829C5.73035 4.95451 8.64842 3.1004 12.0005 3.1004Z" fill="#0D1625"/>
</svg>
