<svg width="24" height="24" viewBox="0 0 24 24" fill="none" xmlns="http://www.w3.org/2000/svg">
<path d="M17 17.1004C17.4968 17.1006 17.9 17.5035 17.9 18.0004C17.8997 18.4971 17.4967 18.9002 17 18.9004H7.00034C6.50342 18.9004 6.10056 18.4973 6.10034 18.0004C6.10034 17.5033 6.50329 17.1004 7.00034 17.1004H17ZM16.0003 5.1004C16.4972 5.10061 16.9003 5.50347 16.9003 6.0004V11.0008C16.8999 13.7066 14.7055 15.9004 11.9996 15.9004C9.29382 15.9002 7.10038 13.7065 7.09995 11.0008V6.0004C7.09995 5.50335 7.50291 5.10041 7.99995 5.1004C8.49701 5.1004 8.89995 5.50334 8.89995 6.0004V11.0008C8.90038 12.7124 10.2879 14.1002 11.9996 14.1004C13.7114 14.1004 15.0999 12.7125 15.1003 11.0008V6.0004C15.1003 5.50335 15.5033 5.10041 16.0003 5.1004Z" fill="#0D1625"/>
</svg>
