<svg width="24" height="24" viewBox="0 0 24 24" fill="none" xmlns="http://www.w3.org/2000/svg">
<path d="M20.4002 11.1C20.8971 11.1002 21.3002 11.503 21.3002 12V16.2C21.3002 18.3538 19.554 20.0998 17.4002 20.1H6.6002C4.44629 20.1 2.7002 18.3539 2.7002 16.2V12C2.7002 11.5029 3.10314 11.1 3.6002 11.1C4.09712 11.1002 4.5002 11.503 4.5002 12V16.2C4.5002 17.3598 5.4404 18.3 6.6002 18.3H17.4002C18.5599 18.2998 19.5002 17.3597 19.5002 16.2V12C19.5002 11.5029 19.9031 11.1 20.4002 11.1ZM12.0002 2.85C12.2387 2.85011 12.4678 2.94499 12.6365 3.11367L15.8123 6.28945C16.1634 6.64088 16.1635 7.21074 15.8123 7.56211C15.4609 7.91331 14.8911 7.91317 14.5396 7.56211L12.9002 5.92265V15.2496C12.9002 15.7465 12.4971 16.1494 12.0002 16.1496C11.5032 16.1495 11.1002 15.7466 11.1002 15.2496V5.92265L9.46074 7.56211C9.10933 7.91328 8.5395 7.91328 8.18809 7.56211C7.83669 7.21071 7.83684 6.64094 8.18809 6.28945L11.3639 3.11367C11.5326 2.94505 11.7617 2.85004 12.0002 2.85Z" fill="#0D1625"/>
</svg>
