<svg width="24" height="24" viewBox="0 0 24 24" fill="none" xmlns="http://www.w3.org/2000/svg">
<path d="M12.2002 5.1C13.0252 5.1 13.6986 5.09883 14.2439 5.14336C14.7998 5.18877 15.302 5.28651 15.7709 5.52539C16.5047 5.89929 17.1021 6.49546 17.476 7.22929C17.7149 7.69814 17.8114 8.20039 17.8568 8.75625C17.8763 8.9948 17.8861 9.25781 17.892 9.54726L20.5979 8.19492C20.8767 8.05556 21.208 8.07098 21.4732 8.23476C21.7385 8.39876 21.8998 8.68811 21.8998 9V15C21.8998 15.3119 21.7385 15.6012 21.4732 15.7652C21.208 15.929 20.8767 15.9444 20.5979 15.8051L17.892 14.4516C17.8861 14.7415 17.8764 15.0049 17.8568 15.2437C17.8114 15.7996 17.7149 16.3019 17.476 16.7707C17.1021 17.5045 16.5047 18.1007 15.7709 18.4746C15.302 18.7135 14.7998 18.8112 14.2439 18.8566C13.6986 18.9012 13.0252 18.9 12.2002 18.9H8.80059C7.97537 18.9 7.30224 18.9012 6.75684 18.8566C6.20094 18.8112 5.69876 18.7135 5.22989 18.4746C4.49625 18.1007 3.89985 17.5043 3.52598 16.7707C3.28707 16.3018 3.18937 15.7996 3.14395 15.2437C3.09939 14.6983 3.10059 14.0252 3.10059 13.2V10.8C3.10059 9.97477 3.09939 9.30165 3.14395 8.75625C3.18937 8.20035 3.28707 7.69817 3.52598 7.22929C3.89985 6.49566 4.49625 5.89926 5.22989 5.52539C5.69876 5.28648 6.20094 5.18878 6.75684 5.14336C7.30224 5.0988 7.97537 5.1 8.80059 5.1H12.2002ZM8.80059 6.9C7.94567 6.9 7.35843 6.90031 6.90332 6.9375C6.45881 6.97383 6.21951 7.04045 6.04668 7.12851C5.65176 7.32981 5.3304 7.65117 5.1291 8.04609C5.04104 8.21892 4.97442 8.45822 4.93809 8.90273C4.90091 9.35784 4.90059 9.94507 4.90059 10.8V13.2C4.90059 14.0549 4.90091 14.6422 4.93809 15.0973C4.97442 15.5418 5.04104 15.7811 5.1291 15.9539C5.3304 16.3488 5.65176 16.6702 6.04668 16.8715C6.21951 16.9595 6.45881 17.0262 6.90332 17.0625C7.35843 17.0997 7.94567 17.1 8.80059 17.1H12.2002C13.055 17.1 13.6424 17.0997 14.0975 17.0625C14.542 17.0262 14.7813 16.9595 14.9541 16.8715C15.3491 16.6702 15.6703 16.3488 15.8717 15.9539C15.9597 15.7811 16.0264 15.5418 16.0627 15.0973C16.0999 14.6422 16.1002 14.0549 16.1002 13.2V10.8C16.1002 9.94507 16.0999 9.35784 16.0627 8.90273C16.0264 8.45824 15.9597 8.21892 15.8717 8.04609C15.6703 7.65115 15.3491 7.32977 14.9541 7.12851C14.7813 7.04046 14.542 6.97382 14.0975 6.9375C13.6424 6.90034 13.055 6.9 12.2002 6.9H8.80059ZM17.9002 11.5559V12.443L20.0998 13.5434V10.4566L17.9002 11.5559Z" fill="#0D1625"/>
</svg>
