<svg width="24" height="24" viewBox="0 0 24 24" fill="none" xmlns="http://www.w3.org/2000/svg">
<path d="M17 5.1004C19.1537 5.10061 20.9 6.84662 20.9 9.0004V15.0004C20.8997 17.154 19.1535 18.9002 17 18.9004H7.00034C4.84657 18.9004 3.10056 17.1541 3.10034 15.0004V9.0004C3.10034 6.84649 4.84643 5.1004 7.00034 5.1004H17ZM7.00034 6.9004C5.84054 6.9004 4.90034 7.8406 4.90034 9.0004V15.0004C4.90056 16.16 5.84068 17.1004 7.00034 17.1004H17C18.1594 17.1002 19.0997 16.1599 19.1 15.0004V9.0004C19.1 7.84073 18.1596 6.90061 17 6.9004H7.00034ZM9.10034 9.88399C9.10034 8.86367 10.1439 8.20878 11.0433 8.59259L11.2203 8.68282L14.7488 10.8004C15.6543 11.3443 15.6545 12.6567 14.7488 13.2004L11.2203 15.318C10.2873 15.8774 9.10063 15.2046 9.10034 14.1168V9.88399ZM10.9003 13.4102L13.25 12.0004L10.9003 10.5895V13.4102Z" fill="#0D1625"/>
</svg>
