<svg width="24" height="24" viewBox="0 0 24 24" fill="none" xmlns="http://www.w3.org/2000/svg">
<path d="M4.20118 7.60921C4.69327 7.67824 5.03645 8.13307 4.96758 8.62523C4.90183 9.09558 4.89961 9.73661 4.89961 10.8002V13.2002C4.89961 14.055 4.89993 14.6424 4.93711 15.0975C4.97344 15.5419 5.04008 15.7813 5.12813 15.9541C5.32943 16.349 5.65084 16.6704 6.04571 16.8717C6.21853 16.9597 6.45791 17.0264 6.90235 17.0627C7.35745 17.0999 7.9447 17.1002 8.79961 17.1002H12.1992C13.3821 17.1002 14.0376 17.0964 14.5055 17.0112C14.9945 16.922 15.464 17.2464 15.5531 17.7354C15.642 18.2242 15.3176 18.6926 14.8289 18.7819C14.1612 18.9036 13.306 18.9002 12.1992 18.9002H8.79961C7.9744 18.9002 7.30126 18.9014 6.75586 18.8569C6.2 18.8115 5.69776 18.7137 5.22891 18.4748C4.49533 18.101 3.89888 17.5045 3.525 16.7709C3.28613 16.3021 3.1884 15.7998 3.14297 15.244C3.09841 14.6986 3.09961 14.0254 3.09961 13.2002V10.8002C3.09961 9.79267 3.09777 9.0004 3.18516 8.37562C3.25404 7.88336 3.70891 7.54033 4.20118 7.60921ZM4.36289 4.36312C4.71422 4.0119 5.28407 4.01215 5.63555 4.36312L18.6352 17.3627C18.9866 17.7142 18.9865 18.2839 18.6352 18.6354C18.2837 18.9869 17.714 18.9869 17.3625 18.6354L4.36289 5.63578C4.01189 5.28427 4.01158 4.71443 4.36289 4.36312ZM12.1992 5.10023C13.0243 5.10023 13.6976 5.09906 14.243 5.14359C14.7988 5.18901 15.3011 5.28674 15.7699 5.52562C16.5037 5.89953 17.1011 6.49573 17.475 7.22953C17.7138 7.69833 17.8105 8.20069 17.8559 8.75648C17.8753 8.99503 17.8851 9.25804 17.891 9.54749L20.5969 8.19515C20.8758 8.05577 21.207 8.07114 21.4723 8.23499C21.7376 8.39899 21.8988 8.68834 21.8988 9.00023V15.0002C21.8988 15.312 21.7375 15.6015 21.4723 15.7655C21.207 15.9292 20.8757 15.9447 20.5969 15.8053L17.6426 14.3276C17.4791 14.4953 17.2518 14.6006 16.9992 14.6006C16.5025 14.6004 16.0996 14.1973 16.0992 13.7006V10.8002C16.0992 9.94544 16.0989 9.35804 16.0617 8.90296C16.0254 8.45862 15.9587 8.21914 15.8707 8.04632C15.6694 7.65141 15.3481 7.33001 14.9531 7.12874C14.7803 7.04069 14.541 6.97405 14.0965 6.93773C13.6414 6.90057 13.054 6.90023 12.1992 6.90023H9.49922C9.00242 6.90002 8.59934 6.49705 8.59922 6.00023C8.59922 5.5033 9.00235 5.10044 9.49922 5.10023H12.1992ZM17.8992 11.5561V12.4432L20.0988 13.5436V10.4569L17.8992 11.5561Z" fill="#0D1625"/>
</svg>
