<svg width="24" height="24" viewBox="0 0 24 24" fill="none" xmlns="http://www.w3.org/2000/svg">
<path d="M15.001 4.10039C16.6022 4.10082 17.9002 5.39942 17.9002 7.00078V8.20547C19.6198 8.61194 20.9 10.1562 20.9002 12V15.9996C20.9002 18.1534 19.1539 19.8994 17.0002 19.8996H7.00059C4.84668 19.8996 3.10059 18.1535 3.10059 15.9996V6.99961C3.10101 5.39834 4.39961 4.10039 6.00098 4.10039H15.001ZM4.90059 15.9996C4.90059 17.1594 5.84079 18.0996 7.00059 18.0996H17.0002C18.1598 18.0994 19.1002 17.1593 19.1002 15.9996V12C19.1 10.8405 18.1597 9.90022 17.0002 9.9H6.00098C5.61141 9.9 5.23999 9.82131 4.90059 9.68203V15.9996ZM16.2502 12.2496C17.0785 12.2496 17.75 12.9213 17.7502 13.7496C17.7502 14.578 17.0786 15.2496 16.2502 15.2496C15.4218 15.2496 14.7502 14.578 14.7502 13.7496C14.7504 12.9213 15.4219 12.2496 16.2502 12.2496ZM6.00098 5.90039C5.39346 5.90039 4.90059 6.39327 4.90059 7.00078C4.90101 7.60793 5.39372 8.1 6.00098 8.1H16.1002V7.00078C16.1002 6.39353 15.6081 5.90082 15.001 5.90039H6.00098Z" fill="#0D1625"/>
</svg>
