<svg width="24" height="24" viewBox="0 0 24 24" fill="none" xmlns="http://www.w3.org/2000/svg">
<path d="M10.2517 4.14709C11.0137 2.77546 12.9866 2.77546 13.7486 4.14709L20.3498 16.0288C21.0901 17.3618 20.1262 18.9995 18.6013 18.9995H5.39901C3.87436 18.9993 2.91039 17.3617 3.65058 16.0288L10.2517 4.14709ZM12.0002 14.0366C11.3654 14.0369 10.8506 14.5512 10.8506 15.1862C10.8507 15.8211 11.3655 16.3355 12.0002 16.3358C12.6348 16.3356 13.1508 15.8213 13.151 15.1862C13.151 14.551 12.6349 14.0369 12.0002 14.0366ZM12.0002 7.04984C11.3475 7.05019 10.8329 7.60615 10.8834 8.25688L11.1857 12.1569C11.219 12.5815 11.574 12.9101 12.0002 12.9104C12.4265 12.9102 12.7813 12.5815 12.8146 12.1569L13.1181 8.25688C13.1687 7.60591 12.6528 7.05011 12.0002 7.04984Z" fill="#0D1625"/>
</svg>
