<svg width="24" height="24" viewBox="0 0 24 24" fill="none" xmlns="http://www.w3.org/2000/svg">
<path d="M4.56836 9.83336C4.18065 9.52256 4.11832 8.95673 4.42891 8.56891C6.23557 6.31516 9.01435 4.86942 12.1305 4.8693C15.2467 4.86931 18.0265 6.31507 19.8332 8.56891C20.1435 8.95668 20.0813 9.5226 19.6938 9.83336C19.306 10.144 18.739 10.0815 18.4281 9.69391C16.9483 7.8482 14.6772 6.66931 12.1305 6.6693C9.58366 6.66942 7.31255 7.84806 5.83281 9.69391C5.52198 10.0814 4.95611 10.1439 4.56836 9.83336ZM7.08555 13.833C6.69776 13.5221 6.63531 12.9563 6.94609 12.5685C8.16204 11.0518 10.0335 10.0771 12.1316 10.0771C14.2295 10.0774 16.1014 11.0519 17.3172 12.5685C17.6273 12.9562 17.5649 13.5222 17.1777 13.833C16.79 14.1438 16.223 14.0811 15.9121 13.6935C15.0233 12.585 13.6601 11.8774 12.1316 11.8771C10.6028 11.8771 9.23902 12.5847 8.35 13.6935C8.03923 14.0812 7.47336 14.1435 7.08555 13.833ZM10.6305 17.631C10.6305 16.8027 11.3022 16.1312 12.1305 16.131C12.9589 16.131 13.6305 16.8026 13.6305 17.631C13.6305 18.4594 12.9589 19.131 12.1305 19.131C11.3022 19.1308 10.6305 18.4593 10.6305 17.631Z" fill="#0D1625"/>
</svg>
